G04 start of page 11 for group -3984 idx -3984 *
G04 Title: (unknown), fab *
G04 Creator: pcb 4.2.2 *
G04 CreationDate: Fri Aug 14 03:10:47 2020 UTC *
G04 For: harold *
G04 Format: Gerber/RS-274X *
G04 PCB-Dimensions (mil): 6000.00 5000.00 *
G04 PCB-Coordinate-Origin: lower left *
%MOIN*%
%FSLAX25Y25*%
%LNFAB*%
%ADD106C,0.0100*%
%ADD105C,0.0075*%
%ADD104C,0.0060*%
%ADD103R,0.0080X0.0080*%
G54D103*X166523Y222441D02*G75*G03X168123Y222441I800J0D01*G01*
G75*G03X166523Y222441I-800J0D01*G01*
X164923D02*G75*G03X169723Y222441I2400J0D01*G01*
G75*G03X164923Y222441I-2400J0D01*G01*
X166523Y379921D02*G75*G03X168123Y379921I800J0D01*G01*
G75*G03X166523Y379921I-800J0D01*G01*
X164923D02*G75*G03X169723Y379921I2400J0D01*G01*
G75*G03X164923Y379921I-2400J0D01*G01*
X418491Y301181D02*G75*G03X420091Y301181I800J0D01*G01*
G75*G03X418491Y301181I-800J0D01*G01*
X416891D02*G75*G03X421691Y301181I2400J0D01*G01*
G75*G03X416891Y301181I-2400J0D01*G01*
X14200Y511250D02*G75*G03X15800Y511250I800J0D01*G01*
G75*G03X14200Y511250I-800J0D01*G01*
X12600D02*G75*G03X17400Y511250I2400J0D01*G01*
G75*G03X12600Y511250I-2400J0D01*G01*
G54D104*X135000Y513500D02*X136500Y510500D01*
X138000Y513500D01*
X136500Y510500D02*Y507500D01*
X139800Y510800D02*X142050D01*
X139800Y507500D02*X142800D01*
X139800Y513500D02*Y507500D01*
Y513500D02*X142800D01*
X147600D02*X148350Y512750D01*
X145350Y513500D02*X147600D01*
X144600Y512750D02*X145350Y513500D01*
X144600Y512750D02*Y511250D01*
X145350Y510500D01*
X147600D01*
X148350Y509750D01*
Y508250D01*
X147600Y507500D02*X148350Y508250D01*
X145350Y507500D02*X147600D01*
X144600Y508250D02*X145350Y507500D01*
X98000Y512750D02*X98750Y513500D01*
X100250D01*
X101000Y512750D01*
X100250Y507500D02*X101000Y508250D01*
X98750Y507500D02*X100250D01*
X98000Y508250D02*X98750Y507500D01*
Y510800D02*X100250D01*
X101000Y512750D02*Y511550D01*
Y510050D02*Y508250D01*
Y510050D02*X100250Y510800D01*
X101000Y511550D02*X100250Y510800D01*
X45000Y508250D02*X45750Y507500D01*
X45000Y512750D02*Y508250D01*
Y512750D02*X45750Y513500D01*
X47250D01*
X48000Y512750D01*
Y508250D01*
X47250Y507500D02*X48000Y508250D01*
X45750Y507500D02*X47250D01*
X45000Y509000D02*X48000Y512000D01*
X49800Y507500D02*X50550D01*
X52350Y512300D02*X53550Y513500D01*
Y507500D01*
X52350D02*X54600D01*
X56400Y512750D02*X57150Y513500D01*
X58650D01*
X59400Y512750D01*
X58650Y507500D02*X59400Y508250D01*
X57150Y507500D02*X58650D01*
X56400Y508250D02*X57150Y507500D01*
Y510800D02*X58650D01*
X59400Y512750D02*Y511550D01*
Y510050D02*Y508250D01*
Y510050D02*X58650Y510800D01*
X59400Y511550D02*X58650Y510800D01*
X61200Y513500D02*X64200D01*
X61200D02*Y510500D01*
X61950Y511250D01*
X63450D01*
X64200Y510500D01*
Y508250D01*
X63450Y507500D02*X64200Y508250D01*
X61950Y507500D02*X63450D01*
X61200Y508250D02*X61950Y507500D01*
X298782Y358699D02*X303582Y353899D01*
X298782D02*X303582Y358699D01*
X299582Y357899D02*X302782D01*
X299582D02*Y354699D01*
X302782D01*
Y357899D02*Y354699D01*
X288939Y358699D02*X293739Y353899D01*
X288939D02*X293739Y358699D01*
X289739Y357899D02*X292939D01*
X289739D02*Y354699D01*
X292939D01*
Y357899D02*Y354699D01*
X12600Y528650D02*X17400Y523850D01*
X12600D02*X17400Y528650D01*
X13400Y527850D02*X16600D01*
X13400D02*Y524650D01*
X16600D01*
Y527850D02*Y524650D01*
X135000Y528500D02*X136500Y525500D01*
X138000Y528500D01*
X136500Y525500D02*Y522500D01*
X139800Y525800D02*X142050D01*
X139800Y522500D02*X142800D01*
X139800Y528500D02*Y522500D01*
Y528500D02*X142800D01*
X147600D02*X148350Y527750D01*
X145350Y528500D02*X147600D01*
X144600Y527750D02*X145350Y528500D01*
X144600Y527750D02*Y526250D01*
X145350Y525500D01*
X147600D01*
X148350Y524750D01*
Y523250D01*
X147600Y522500D02*X148350Y523250D01*
X145350Y522500D02*X147600D01*
X144600Y523250D02*X145350Y522500D01*
X98000Y527750D02*X98750Y528500D01*
X101000D01*
X101750Y527750D01*
Y526250D01*
X98000Y522500D02*X101750Y526250D01*
X98000Y522500D02*X101750D01*
X45000Y523250D02*X45750Y522500D01*
X45000Y527750D02*Y523250D01*
Y527750D02*X45750Y528500D01*
X47250D01*
X48000Y527750D01*
Y523250D01*
X47250Y522500D02*X48000Y523250D01*
X45750Y522500D02*X47250D01*
X45000Y524000D02*X48000Y527000D01*
X49800Y522500D02*X50550D01*
X52350Y523250D02*X53100Y522500D01*
X52350Y527750D02*Y523250D01*
Y527750D02*X53100Y528500D01*
X54600D01*
X55350Y527750D01*
Y523250D01*
X54600Y522500D02*X55350Y523250D01*
X53100Y522500D02*X54600D01*
X52350Y524000D02*X55350Y527000D01*
X57150Y527750D02*X57900Y528500D01*
X59400D01*
X60150Y527750D01*
X59400Y522500D02*X60150Y523250D01*
X57900Y522500D02*X59400D01*
X57150Y523250D02*X57900Y522500D01*
Y525800D02*X59400D01*
X60150Y527750D02*Y526550D01*
Y525050D02*Y523250D01*
Y525050D02*X59400Y525800D01*
X60150Y526550D02*X59400Y525800D01*
X62700Y522500D02*X64950Y525500D01*
Y527750D02*Y525500D01*
X64200Y528500D02*X64950Y527750D01*
X62700Y528500D02*X64200D01*
X61950Y527750D02*X62700Y528500D01*
X61950Y527750D02*Y526250D01*
X62700Y525500D01*
X64950D01*
X411811Y235011D02*Y228611D01*
X408611Y231811D02*X415011D01*
X410211Y233411D02*X413411D01*
X410211D02*Y230211D01*
X413411D01*
Y233411D02*Y230211D01*
X411811Y266350D02*Y259950D01*
X408611Y263150D02*X415011D01*
X410211Y264750D02*X413411D01*
X410211D02*Y261550D01*
X413411D01*
Y264750D02*Y261550D01*
X15000Y544450D02*Y538050D01*
X11800Y541250D02*X18200D01*
X13400Y542850D02*X16600D01*
X13400D02*Y539650D01*
X16600D01*
Y542850D02*Y539650D01*
X135000Y543500D02*X136500Y540500D01*
X138000Y543500D01*
X136500Y540500D02*Y537500D01*
X139800Y540800D02*X142050D01*
X139800Y537500D02*X142800D01*
X139800Y543500D02*Y537500D01*
Y543500D02*X142800D01*
X147600D02*X148350Y542750D01*
X145350Y543500D02*X147600D01*
X144600Y542750D02*X145350Y543500D01*
X144600Y542750D02*Y541250D01*
X145350Y540500D01*
X147600D01*
X148350Y539750D01*
Y538250D01*
X147600Y537500D02*X148350Y538250D01*
X145350Y537500D02*X147600D01*
X144600Y538250D02*X145350Y537500D01*
X98000Y542750D02*X98750Y543500D01*
X101000D01*
X101750Y542750D01*
Y541250D01*
X98000Y537500D02*X101750Y541250D01*
X98000Y537500D02*X101750D01*
X45000Y538250D02*X45750Y537500D01*
X45000Y542750D02*Y538250D01*
Y542750D02*X45750Y543500D01*
X47250D01*
X48000Y542750D01*
Y538250D01*
X47250Y537500D02*X48000Y538250D01*
X45750Y537500D02*X47250D01*
X45000Y539000D02*X48000Y542000D01*
X49800Y537500D02*X50550D01*
X52350Y538250D02*X53100Y537500D01*
X52350Y542750D02*Y538250D01*
Y542750D02*X53100Y543500D01*
X54600D01*
X55350Y542750D01*
Y538250D01*
X54600Y537500D02*X55350Y538250D01*
X53100Y537500D02*X54600D01*
X52350Y539000D02*X55350Y542000D01*
X57150Y542750D02*X57900Y543500D01*
X59400D01*
X60150Y542750D01*
X59400Y537500D02*X60150Y538250D01*
X57900Y537500D02*X59400D01*
X57150Y538250D02*X57900Y537500D01*
Y540800D02*X59400D01*
X60150Y542750D02*Y541550D01*
Y540050D02*Y538250D01*
Y540050D02*X59400Y540800D01*
X60150Y541550D02*X59400Y540800D01*
X61950Y538250D02*X62700Y537500D01*
X61950Y539450D02*Y538250D01*
Y539450D02*X63000Y540500D01*
X63900D01*
X64950Y539450D01*
Y538250D01*
X64200Y537500D02*X64950Y538250D01*
X62700Y537500D02*X64200D01*
X61950Y541550D02*X63000Y540500D01*
X61950Y542750D02*Y541550D01*
Y542750D02*X62700Y543500D01*
X64200D01*
X64950Y542750D01*
Y541550D01*
X63900Y540500D02*X64950Y541550D01*
X390236Y309213D02*Y306013D01*
Y309213D02*X393010Y310813D01*
X390236Y309213D02*X387463Y310813D01*
X388636Y309213D02*G75*G03X391836Y309213I1600J0D01*G01*
G75*G03X388636Y309213I-1600J0D01*G01*
X380236D02*Y306013D01*
Y309213D02*X383010Y310813D01*
X380236Y309213D02*X377463Y310813D01*
X378636Y309213D02*G75*G03X381836Y309213I1600J0D01*G01*
G75*G03X378636Y309213I-1600J0D01*G01*
X370236D02*Y306013D01*
Y309213D02*X373010Y310813D01*
X370236Y309213D02*X367463Y310813D01*
X368636Y309213D02*G75*G03X371836Y309213I1600J0D01*G01*
G75*G03X368636Y309213I-1600J0D01*G01*
X360236D02*Y306013D01*
Y309213D02*X363010Y310813D01*
X360236Y309213D02*X357463Y310813D01*
X358636Y309213D02*G75*G03X361836Y309213I1600J0D01*G01*
G75*G03X358636Y309213I-1600J0D01*G01*
X390236Y299213D02*Y296013D01*
Y299213D02*X393010Y300813D01*
X390236Y299213D02*X387463Y300813D01*
X388636Y299213D02*G75*G03X391836Y299213I1600J0D01*G01*
G75*G03X388636Y299213I-1600J0D01*G01*
X380236D02*Y296013D01*
Y299213D02*X383010Y300813D01*
X380236Y299213D02*X377463Y300813D01*
X378636Y299213D02*G75*G03X381836Y299213I1600J0D01*G01*
G75*G03X378636Y299213I-1600J0D01*G01*
X370236D02*Y296013D01*
Y299213D02*X373010Y300813D01*
X370236Y299213D02*X367463Y300813D01*
X368636Y299213D02*G75*G03X371836Y299213I1600J0D01*G01*
G75*G03X368636Y299213I-1600J0D01*G01*
X360236D02*Y296013D01*
Y299213D02*X363010Y300813D01*
X360236Y299213D02*X357463Y300813D01*
X358636Y299213D02*G75*G03X361836Y299213I1600J0D01*G01*
G75*G03X358636Y299213I-1600J0D01*G01*
X419291Y380709D02*Y377509D01*
Y380709D02*X422065Y382309D01*
X419291Y380709D02*X416518Y382309D01*
X417691Y380709D02*G75*G03X420891Y380709I1600J0D01*G01*
G75*G03X417691Y380709I-1600J0D01*G01*
X419291Y326772D02*Y323572D01*
Y326772D02*X422065Y328372D01*
X419291Y326772D02*X416518Y328372D01*
X417691Y326772D02*G75*G03X420891Y326772I1600J0D01*G01*
G75*G03X417691Y326772I-1600J0D01*G01*
X329134Y380709D02*Y377509D01*
Y380709D02*X331908Y382309D01*
X329134Y380709D02*X326361Y382309D01*
X327534Y380709D02*G75*G03X330734Y380709I1600J0D01*G01*
G75*G03X327534Y380709I-1600J0D01*G01*
X329134Y368504D02*Y365304D01*
Y368504D02*X331908Y370104D01*
X329134Y368504D02*X326361Y370104D01*
X327534Y368504D02*G75*G03X330734Y368504I1600J0D01*G01*
G75*G03X327534Y368504I-1600J0D01*G01*
X329134Y338977D02*Y335777D01*
Y338977D02*X331908Y340577D01*
X329134Y338977D02*X326361Y340577D01*
X327534Y338977D02*G75*G03X330734Y338977I1600J0D01*G01*
G75*G03X327534Y338977I-1600J0D01*G01*
X329134Y326772D02*Y323572D01*
Y326772D02*X331908Y328372D01*
X329134Y326772D02*X326361Y328372D01*
X327534Y326772D02*G75*G03X330734Y326772I1600J0D01*G01*
G75*G03X327534Y326772I-1600J0D01*G01*
X289370Y218504D02*Y215304D01*
Y218504D02*X292143Y220104D01*
X289370Y218504D02*X286597Y220104D01*
X287770Y218504D02*G75*G03X290970Y218504I1600J0D01*G01*
G75*G03X287770Y218504I-1600J0D01*G01*
X279370D02*Y215304D01*
Y218504D02*X282143Y220104D01*
X279370Y218504D02*X276597Y220104D01*
X277770Y218504D02*G75*G03X280970Y218504I1600J0D01*G01*
G75*G03X277770Y218504I-1600J0D01*G01*
X269370D02*Y215304D01*
Y218504D02*X272143Y220104D01*
X269370Y218504D02*X266597Y220104D01*
X267770Y218504D02*G75*G03X270970Y218504I1600J0D01*G01*
G75*G03X267770Y218504I-1600J0D01*G01*
X259370D02*Y215304D01*
Y218504D02*X262143Y220104D01*
X259370Y218504D02*X256597Y220104D01*
X257770Y218504D02*G75*G03X260970Y218504I1600J0D01*G01*
G75*G03X257770Y218504I-1600J0D01*G01*
X249370D02*Y215304D01*
Y218504D02*X252143Y220104D01*
X249370Y218504D02*X246597Y220104D01*
X247770Y218504D02*G75*G03X250970Y218504I1600J0D01*G01*
G75*G03X247770Y218504I-1600J0D01*G01*
X239370D02*Y215304D01*
Y218504D02*X242143Y220104D01*
X239370Y218504D02*X236597Y220104D01*
X237770Y218504D02*G75*G03X240970Y218504I1600J0D01*G01*
G75*G03X237770Y218504I-1600J0D01*G01*
X229370D02*Y215304D01*
Y218504D02*X232143Y220104D01*
X229370Y218504D02*X226597Y220104D01*
X227770Y218504D02*G75*G03X230970Y218504I1600J0D01*G01*
G75*G03X227770Y218504I-1600J0D01*G01*
X219370D02*Y215304D01*
Y218504D02*X222143Y220104D01*
X219370Y218504D02*X216597Y220104D01*
X217770Y218504D02*G75*G03X220970Y218504I1600J0D01*G01*
G75*G03X217770Y218504I-1600J0D01*G01*
X209370D02*Y215304D01*
Y218504D02*X212143Y220104D01*
X209370Y218504D02*X206597Y220104D01*
X207770Y218504D02*G75*G03X210970Y218504I1600J0D01*G01*
G75*G03X207770Y218504I-1600J0D01*G01*
X199370D02*Y215304D01*
Y218504D02*X202143Y220104D01*
X199370Y218504D02*X196597Y220104D01*
X197770Y218504D02*G75*G03X200970Y218504I1600J0D01*G01*
G75*G03X197770Y218504I-1600J0D01*G01*
X289370Y230315D02*Y227115D01*
Y230315D02*X292143Y231915D01*
X289370Y230315D02*X286597Y231915D01*
X287770Y230315D02*G75*G03X290970Y230315I1600J0D01*G01*
G75*G03X287770Y230315I-1600J0D01*G01*
X279370D02*Y227115D01*
Y230315D02*X282143Y231915D01*
X279370Y230315D02*X276597Y231915D01*
X277770Y230315D02*G75*G03X280970Y230315I1600J0D01*G01*
G75*G03X277770Y230315I-1600J0D01*G01*
X269370D02*Y227115D01*
Y230315D02*X272143Y231915D01*
X269370Y230315D02*X266597Y231915D01*
X267770Y230315D02*G75*G03X270970Y230315I1600J0D01*G01*
G75*G03X267770Y230315I-1600J0D01*G01*
X259370D02*Y227115D01*
Y230315D02*X262143Y231915D01*
X259370Y230315D02*X256597Y231915D01*
X257770Y230315D02*G75*G03X260970Y230315I1600J0D01*G01*
G75*G03X257770Y230315I-1600J0D01*G01*
X249370D02*Y227115D01*
Y230315D02*X252143Y231915D01*
X249370Y230315D02*X246597Y231915D01*
X247770Y230315D02*G75*G03X250970Y230315I1600J0D01*G01*
G75*G03X247770Y230315I-1600J0D01*G01*
X174823Y317421D02*Y314221D01*
Y317421D02*X177596Y319021D01*
X174823Y317421D02*X172050Y319021D01*
X173223Y317421D02*G75*G03X176423Y317421I1600J0D01*G01*
G75*G03X173223Y317421I-1600J0D01*G01*
X174823Y307421D02*Y304221D01*
Y307421D02*X177596Y309021D01*
X174823Y307421D02*X172050Y309021D01*
X173223Y307421D02*G75*G03X176423Y307421I1600J0D01*G01*
G75*G03X173223Y307421I-1600J0D01*G01*
X174823Y297421D02*Y294221D01*
Y297421D02*X177596Y299021D01*
X174823Y297421D02*X172050Y299021D01*
X173223Y297421D02*G75*G03X176423Y297421I1600J0D01*G01*
G75*G03X173223Y297421I-1600J0D01*G01*
X164823Y317421D02*Y314221D01*
Y317421D02*X167596Y319021D01*
X164823Y317421D02*X162050Y319021D01*
X163223Y317421D02*G75*G03X166423Y317421I1600J0D01*G01*
G75*G03X163223Y317421I-1600J0D01*G01*
X164823Y307421D02*Y304221D01*
Y307421D02*X167596Y309021D01*
X164823Y307421D02*X162050Y309021D01*
X163223Y307421D02*G75*G03X166423Y307421I1600J0D01*G01*
G75*G03X163223Y307421I-1600J0D01*G01*
X164823Y297421D02*Y294221D01*
Y297421D02*X167596Y299021D01*
X164823Y297421D02*X162050Y299021D01*
X163223Y297421D02*G75*G03X166423Y297421I1600J0D01*G01*
G75*G03X163223Y297421I-1600J0D01*G01*
X291339Y298622D02*Y295422D01*
Y298622D02*X294112Y300222D01*
X291339Y298622D02*X288565Y300222D01*
X289739Y298622D02*G75*G03X292939Y298622I1600J0D01*G01*
G75*G03X289739Y298622I-1600J0D01*G01*
X281339D02*Y295422D01*
Y298622D02*X284112Y300222D01*
X281339Y298622D02*X278565Y300222D01*
X279739Y298622D02*G75*G03X282939Y298622I1600J0D01*G01*
G75*G03X279739Y298622I-1600J0D01*G01*
X15000Y556250D02*Y553050D01*
Y556250D02*X17773Y557850D01*
X15000Y556250D02*X12227Y557850D01*
X13400Y556250D02*G75*G03X16600Y556250I1600J0D01*G01*
G75*G03X13400Y556250I-1600J0D01*G01*
X135000Y558500D02*X136500Y555500D01*
X138000Y558500D01*
X136500Y555500D02*Y552500D01*
X139800Y555800D02*X142050D01*
X139800Y552500D02*X142800D01*
X139800Y558500D02*Y552500D01*
Y558500D02*X142800D01*
X147600D02*X148350Y557750D01*
X145350Y558500D02*X147600D01*
X144600Y557750D02*X145350Y558500D01*
X144600Y557750D02*Y556250D01*
X145350Y555500D01*
X147600D01*
X148350Y554750D01*
Y553250D01*
X147600Y552500D02*X148350Y553250D01*
X145350Y552500D02*X147600D01*
X144600Y553250D02*X145350Y552500D01*
X98000Y557750D02*X98750Y558500D01*
X100250D01*
X101000Y557750D01*
X100250Y552500D02*X101000Y553250D01*
X98750Y552500D02*X100250D01*
X98000Y553250D02*X98750Y552500D01*
Y555800D02*X100250D01*
X101000Y557750D02*Y556550D01*
Y555050D02*Y553250D01*
Y555050D02*X100250Y555800D01*
X101000Y556550D02*X100250Y555800D01*
X103550Y552500D02*X106550Y558500D01*
X102800D02*X106550D01*
X45000Y553250D02*X45750Y552500D01*
X45000Y557750D02*Y553250D01*
Y557750D02*X45750Y558500D01*
X47250D01*
X48000Y557750D01*
Y553250D01*
X47250Y552500D02*X48000Y553250D01*
X45750Y552500D02*X47250D01*
X45000Y554000D02*X48000Y557000D01*
X49800Y552500D02*X50550D01*
X52350Y553250D02*X53100Y552500D01*
X52350Y557750D02*Y553250D01*
Y557750D02*X53100Y558500D01*
X54600D01*
X55350Y557750D01*
Y553250D01*
X54600Y552500D02*X55350Y553250D01*
X53100Y552500D02*X54600D01*
X52350Y554000D02*X55350Y557000D01*
X57150Y557750D02*X57900Y558500D01*
X59400D01*
X60150Y557750D01*
X59400Y552500D02*X60150Y553250D01*
X57900Y552500D02*X59400D01*
X57150Y553250D02*X57900Y552500D01*
Y555800D02*X59400D01*
X60150Y557750D02*Y556550D01*
Y555050D02*Y553250D01*
Y555050D02*X59400Y555800D01*
X60150Y556550D02*X59400Y555800D01*
X61950Y554750D02*X64950Y558500D01*
X61950Y554750D02*X65700D01*
X64950Y558500D02*Y552500D01*
X419069Y349041D02*X422269D01*
X419069D02*Y345841D01*
X422269D01*
Y349041D02*Y345841D01*
X419266Y360458D02*X422466D01*
X419266D02*Y357258D01*
X422466D01*
Y360458D02*Y357258D01*
X13400Y572850D02*X16600D01*
X13400D02*Y569650D01*
X16600D01*
Y572850D02*Y569650D01*
X135000Y573500D02*X136500Y570500D01*
X138000Y573500D01*
X136500Y570500D02*Y567500D01*
X139800Y570800D02*X142050D01*
X139800Y567500D02*X142800D01*
X139800Y573500D02*Y567500D01*
Y573500D02*X142800D01*
X147600D02*X148350Y572750D01*
X145350Y573500D02*X147600D01*
X144600Y572750D02*X145350Y573500D01*
X144600Y572750D02*Y571250D01*
X145350Y570500D01*
X147600D01*
X148350Y569750D01*
Y568250D01*
X147600Y567500D02*X148350Y568250D01*
X145350Y567500D02*X147600D01*
X144600Y568250D02*X145350Y567500D01*
X98000Y572750D02*X98750Y573500D01*
X101000D01*
X101750Y572750D01*
Y571250D01*
X98000Y567500D02*X101750Y571250D01*
X98000Y567500D02*X101750D01*
X45000Y568250D02*X45750Y567500D01*
X45000Y572750D02*Y568250D01*
Y572750D02*X45750Y573500D01*
X47250D01*
X48000Y572750D01*
Y568250D01*
X47250Y567500D02*X48000Y568250D01*
X45750Y567500D02*X47250D01*
X45000Y569000D02*X48000Y572000D01*
X49800Y567500D02*X50550D01*
X52350Y568250D02*X53100Y567500D01*
X52350Y572750D02*Y568250D01*
Y572750D02*X53100Y573500D01*
X54600D01*
X55350Y572750D01*
Y568250D01*
X54600Y567500D02*X55350Y568250D01*
X53100Y567500D02*X54600D01*
X52350Y569000D02*X55350Y572000D01*
X57150Y572750D02*X57900Y573500D01*
X59400D01*
X60150Y572750D01*
X59400Y567500D02*X60150Y568250D01*
X57900Y567500D02*X59400D01*
X57150Y568250D02*X57900Y567500D01*
Y570800D02*X59400D01*
X60150Y572750D02*Y571550D01*
Y570050D02*Y568250D01*
Y570050D02*X59400Y570800D01*
X60150Y571550D02*X59400Y570800D01*
X61950Y572750D02*X62700Y573500D01*
X64950D01*
X65700Y572750D01*
Y571250D01*
X61950Y567500D02*X65700Y571250D01*
X61950Y567500D02*X65700D01*
X314161Y331693D02*G75*G03X315761Y331693I800J0D01*G01*
G75*G03X314161Y331693I-800J0D01*G01*
X14200Y586250D02*G75*G03X15800Y586250I800J0D01*G01*
G75*G03X14200Y586250I-800J0D01*G01*
X135000Y588500D02*X136500Y585500D01*
X138000Y588500D01*
X136500Y585500D02*Y582500D01*
X139800Y585800D02*X142050D01*
X139800Y582500D02*X142800D01*
X139800Y588500D02*Y582500D01*
Y588500D02*X142800D01*
X147600D02*X148350Y587750D01*
X145350Y588500D02*X147600D01*
X144600Y587750D02*X145350Y588500D01*
X144600Y587750D02*Y586250D01*
X145350Y585500D01*
X147600D01*
X148350Y584750D01*
Y583250D01*
X147600Y582500D02*X148350Y583250D01*
X145350Y582500D02*X147600D01*
X144600Y583250D02*X145350Y582500D01*
X98000Y587300D02*X99200Y588500D01*
Y582500D01*
X98000D02*X100250D01*
X45000Y583250D02*X45750Y582500D01*
X45000Y587750D02*Y583250D01*
Y587750D02*X45750Y588500D01*
X47250D01*
X48000Y587750D01*
Y583250D01*
X47250Y582500D02*X48000Y583250D01*
X45750Y582500D02*X47250D01*
X45000Y584000D02*X48000Y587000D01*
X49800Y582500D02*X50550D01*
X52350Y583250D02*X53100Y582500D01*
X52350Y587750D02*Y583250D01*
Y587750D02*X53100Y588500D01*
X54600D01*
X55350Y587750D01*
Y583250D01*
X54600Y582500D02*X55350Y583250D01*
X53100Y582500D02*X54600D01*
X52350Y584000D02*X55350Y587000D01*
X57150Y587750D02*X57900Y588500D01*
X59400D01*
X60150Y587750D01*
X59400Y582500D02*X60150Y583250D01*
X57900Y582500D02*X59400D01*
X57150Y583250D02*X57900Y582500D01*
Y585800D02*X59400D01*
X60150Y587750D02*Y586550D01*
Y585050D02*Y583250D01*
Y585050D02*X59400Y585800D01*
X60150Y586550D02*X59400Y585800D01*
X61950Y583250D02*X62700Y582500D01*
X61950Y587750D02*Y583250D01*
Y587750D02*X62700Y588500D01*
X64200D01*
X64950Y587750D01*
Y583250D01*
X64200Y582500D02*X64950Y583250D01*
X62700Y582500D02*X64200D01*
X61950Y584000D02*X64950Y587000D01*
X276359Y270058D02*X278759Y267658D01*
X276359D02*X278759Y270058D01*
X276359Y250058D02*X278759Y247658D01*
X276359D02*X278759Y250058D01*
X13800Y602450D02*X16200Y600050D01*
X13800D02*X16200Y602450D01*
X135000Y603500D02*X136500Y600500D01*
X138000Y603500D01*
X136500Y600500D02*Y597500D01*
X139800Y600800D02*X142050D01*
X139800Y597500D02*X142800D01*
X139800Y603500D02*Y597500D01*
Y603500D02*X142800D01*
X147600D02*X148350Y602750D01*
X145350Y603500D02*X147600D01*
X144600Y602750D02*X145350Y603500D01*
X144600Y602750D02*Y601250D01*
X145350Y600500D01*
X147600D01*
X148350Y599750D01*
Y598250D01*
X147600Y597500D02*X148350Y598250D01*
X145350Y597500D02*X147600D01*
X144600Y598250D02*X145350Y597500D01*
X98000Y602750D02*X98750Y603500D01*
X101000D01*
X101750Y602750D01*
Y601250D01*
X98000Y597500D02*X101750Y601250D01*
X98000Y597500D02*X101750D01*
X45000Y598250D02*X45750Y597500D01*
X45000Y602750D02*Y598250D01*
Y602750D02*X45750Y603500D01*
X47250D01*
X48000Y602750D01*
Y598250D01*
X47250Y597500D02*X48000Y598250D01*
X45750Y597500D02*X47250D01*
X45000Y599000D02*X48000Y602000D01*
X49800Y597500D02*X50550D01*
X52350Y598250D02*X53100Y597500D01*
X52350Y602750D02*Y598250D01*
Y602750D02*X53100Y603500D01*
X54600D01*
X55350Y602750D01*
Y598250D01*
X54600Y597500D02*X55350Y598250D01*
X53100Y597500D02*X54600D01*
X52350Y599000D02*X55350Y602000D01*
X57150Y602750D02*X57900Y603500D01*
X60150D01*
X60900Y602750D01*
Y601250D01*
X57150Y597500D02*X60900Y601250D01*
X57150Y597500D02*X60900D01*
X62700Y598250D02*X63450Y597500D01*
X62700Y599450D02*Y598250D01*
Y599450D02*X63750Y600500D01*
X64650D01*
X65700Y599450D01*
Y598250D01*
X64950Y597500D02*X65700Y598250D01*
X63450Y597500D02*X64950D01*
X62700Y601550D02*X63750Y600500D01*
X62700Y602750D02*Y601550D01*
Y602750D02*X63450Y603500D01*
X64950D01*
X65700Y602750D01*
Y601550D01*
X64650Y600500D02*X65700Y601550D01*
X293307Y247663D02*Y244463D01*
X291707Y246063D02*X294907D01*
X353346Y239789D02*Y236589D01*
X351746Y238189D02*X354946D01*
X323819Y310655D02*Y307455D01*
X322219Y309055D02*X325419D01*
X353346Y247663D02*Y244463D01*
X351746Y246063D02*X354946D01*
X220473Y339198D02*Y335998D01*
X218873Y337598D02*X222073D01*
X250985Y324435D02*Y321235D01*
X249385Y322835D02*X252585D01*
X15000Y617850D02*Y614650D01*
X13400Y616250D02*X16600D01*
X135000Y618500D02*X136500Y615500D01*
X138000Y618500D01*
X136500Y615500D02*Y612500D01*
X139800Y615800D02*X142050D01*
X139800Y612500D02*X142800D01*
X139800Y618500D02*Y612500D01*
Y618500D02*X142800D01*
X147600D02*X148350Y617750D01*
X145350Y618500D02*X147600D01*
X144600Y617750D02*X145350Y618500D01*
X144600Y617750D02*Y616250D01*
X145350Y615500D01*
X147600D01*
X148350Y614750D01*
Y613250D01*
X147600Y612500D02*X148350Y613250D01*
X145350Y612500D02*X147600D01*
X144600Y613250D02*X145350Y612500D01*
X100250Y618500D02*X101000Y617750D01*
X98750Y618500D02*X100250D01*
X98000Y617750D02*X98750Y618500D01*
X98000Y617750D02*Y613250D01*
X98750Y612500D01*
X100250Y615800D02*X101000Y615050D01*
X98000Y615800D02*X100250D01*
X98750Y612500D02*X100250D01*
X101000Y613250D01*
Y615050D02*Y613250D01*
X45000D02*X45750Y612500D01*
X45000Y617750D02*Y613250D01*
Y617750D02*X45750Y618500D01*
X47250D01*
X48000Y617750D01*
Y613250D01*
X47250Y612500D02*X48000Y613250D01*
X45750Y612500D02*X47250D01*
X45000Y614000D02*X48000Y617000D01*
X49800Y612500D02*X50550D01*
X52350Y613250D02*X53100Y612500D01*
X52350Y617750D02*Y613250D01*
Y617750D02*X53100Y618500D01*
X54600D01*
X55350Y617750D01*
Y613250D01*
X54600Y612500D02*X55350Y613250D01*
X53100Y612500D02*X54600D01*
X52350Y614000D02*X55350Y617000D01*
X57150Y617750D02*X57900Y618500D01*
X60150D01*
X60900Y617750D01*
Y616250D01*
X57150Y612500D02*X60900Y616250D01*
X57150Y612500D02*X60900D01*
X62700Y614750D02*X65700Y618500D01*
X62700Y614750D02*X66450D01*
X65700Y618500D02*Y612500D01*
X265748Y291142D02*Y289542D01*
Y291142D02*X267135Y291942D01*
X265748Y291142D02*X264361Y291942D01*
X265748Y286417D02*Y284817D01*
Y286417D02*X267135Y287217D01*
X265748Y286417D02*X264361Y287217D01*
X301181Y285433D02*Y283833D01*
Y285433D02*X302568Y286233D01*
X301181Y285433D02*X299794Y286233D01*
X333661Y249016D02*Y247416D01*
Y249016D02*X335048Y249816D01*
X333661Y249016D02*X332275Y249816D01*
X343504Y255906D02*Y254306D01*
Y255906D02*X344891Y256706D01*
X343504Y255906D02*X342117Y256706D01*
X337598Y289370D02*Y287770D01*
Y289370D02*X338985Y290170D01*
X337598Y289370D02*X336212Y290170D01*
X250000Y242126D02*Y240526D01*
Y242126D02*X251387Y242926D01*
X250000Y242126D02*X248613Y242926D01*
X314961Y308071D02*Y306471D01*
Y308071D02*X316347Y308871D01*
X314961Y308071D02*X313574Y308871D01*
X343504Y227362D02*Y225762D01*
Y227362D02*X344891Y228162D01*
X343504Y227362D02*X342117Y228162D01*
X311024Y227362D02*Y225762D01*
Y227362D02*X312410Y228162D01*
X311024Y227362D02*X309637Y228162D01*
X215551Y263780D02*Y262180D01*
Y263780D02*X216938Y264580D01*
X215551Y263780D02*X214165Y264580D01*
X194882Y316929D02*Y315329D01*
Y316929D02*X196269Y317729D01*
X194882Y316929D02*X193495Y317729D01*
X217520Y308071D02*Y306471D01*
Y308071D02*X218906Y308871D01*
X217520Y308071D02*X216133Y308871D01*
X225394Y283465D02*Y281865D01*
Y283465D02*X226780Y284265D01*
X225394Y283465D02*X224007Y284265D01*
X240157Y308071D02*Y306471D01*
Y308071D02*X241544Y308871D01*
X240157Y308071D02*X238771Y308871D01*
X240157Y301181D02*Y299581D01*
Y301181D02*X241544Y301981D01*
X240157Y301181D02*X238771Y301981D01*
X240157Y295276D02*Y293676D01*
Y295276D02*X241544Y296076D01*
X240157Y295276D02*X238771Y296076D01*
X206693Y263780D02*Y262180D01*
Y263780D02*X208080Y264580D01*
X206693Y263780D02*X205306Y264580D01*
X194882Y308071D02*Y306471D01*
Y308071D02*X196269Y308871D01*
X194882Y308071D02*X193495Y308871D01*
X309055Y288386D02*Y286786D01*
Y288386D02*X310442Y289186D01*
X309055Y288386D02*X307668Y289186D01*
X320859Y286411D02*Y284811D01*
Y286411D02*X322246Y287211D01*
X320859Y286411D02*X319473Y287211D01*
X291339Y279528D02*Y277928D01*
Y279528D02*X292725Y280328D01*
X291339Y279528D02*X289952Y280328D01*
X272638Y316929D02*Y315329D01*
Y316929D02*X274024Y317729D01*
X272638Y316929D02*X271251Y317729D01*
X215551Y321850D02*Y320250D01*
Y321850D02*X216938Y322650D01*
X215551Y321850D02*X214165Y322650D01*
X249016Y277559D02*Y275959D01*
Y277559D02*X250402Y278359D01*
X249016Y277559D02*X247629Y278359D01*
X211614Y241142D02*Y239542D01*
Y241142D02*X213001Y241942D01*
X211614Y241142D02*X210228Y241942D01*
X15000Y631250D02*Y629650D01*
Y631250D02*X16387Y632050D01*
X15000Y631250D02*X13613Y632050D01*
X135000Y633500D02*X136500Y630500D01*
X138000Y633500D01*
X136500Y630500D02*Y627500D01*
X139800Y630800D02*X142050D01*
X139800Y627500D02*X142800D01*
X139800Y633500D02*Y627500D01*
Y633500D02*X142800D01*
X147600D02*X148350Y632750D01*
X145350Y633500D02*X147600D01*
X144600Y632750D02*X145350Y633500D01*
X144600Y632750D02*Y631250D01*
X145350Y630500D01*
X147600D01*
X148350Y629750D01*
Y628250D01*
X147600Y627500D02*X148350Y628250D01*
X145350Y627500D02*X147600D01*
X144600Y628250D02*X145350Y627500D01*
X98000Y632750D02*X98750Y633500D01*
X101000D01*
X101750Y632750D01*
Y631250D01*
X98000Y627500D02*X101750Y631250D01*
X98000Y627500D02*X101750D01*
X105800Y633500D02*X106550Y632750D01*
X104300Y633500D02*X105800D01*
X103550Y632750D02*X104300Y633500D01*
X103550Y632750D02*Y628250D01*
X104300Y627500D01*
X105800Y630800D02*X106550Y630050D01*
X103550Y630800D02*X105800D01*
X104300Y627500D02*X105800D01*
X106550Y628250D01*
Y630050D02*Y628250D01*
X45000D02*X45750Y627500D01*
X45000Y632750D02*Y628250D01*
Y632750D02*X45750Y633500D01*
X47250D01*
X48000Y632750D01*
Y628250D01*
X47250Y627500D02*X48000Y628250D01*
X45750Y627500D02*X47250D01*
X45000Y629000D02*X48000Y632000D01*
X49800Y627500D02*X50550D01*
X52350Y628250D02*X53100Y627500D01*
X52350Y632750D02*Y628250D01*
Y632750D02*X53100Y633500D01*
X54600D01*
X55350Y632750D01*
Y628250D01*
X54600Y627500D02*X55350Y628250D01*
X53100Y627500D02*X54600D01*
X52350Y629000D02*X55350Y632000D01*
X57150Y632750D02*X57900Y633500D01*
X60150D01*
X60900Y632750D01*
Y631250D01*
X57150Y627500D02*X60900Y631250D01*
X57150Y627500D02*X60900D01*
X62700Y628250D02*X63450Y627500D01*
X62700Y632750D02*Y628250D01*
Y632750D02*X63450Y633500D01*
X64950D01*
X65700Y632750D01*
Y628250D01*
X64950Y627500D02*X65700Y628250D01*
X63450Y627500D02*X64950D01*
X62700Y629000D02*X65700Y632000D01*
X3000Y648500D02*X3750Y647750D01*
X750Y648500D02*X3000D01*
X0Y647750D02*X750Y648500D01*
X0Y647750D02*Y646250D01*
X750Y645500D01*
X3000D01*
X3750Y644750D01*
Y643250D01*
X3000Y642500D02*X3750Y643250D01*
X750Y642500D02*X3000D01*
X0Y643250D02*X750Y642500D01*
X5550Y645500D02*Y643250D01*
X6300Y642500D01*
X8550Y645500D02*Y641000D01*
X7800Y640250D02*X8550Y641000D01*
X6300Y640250D02*X7800D01*
X5550Y641000D02*X6300Y640250D01*
Y642500D02*X7800D01*
X8550Y643250D01*
X11100Y644750D02*Y642500D01*
Y644750D02*X11850Y645500D01*
X12600D01*
X13350Y644750D01*
Y642500D01*
Y644750D02*X14100Y645500D01*
X14850D01*
X15600Y644750D01*
Y642500D01*
X10350Y645500D02*X11100Y644750D01*
X17400Y648500D02*Y642500D01*
Y643250D02*X18150Y642500D01*
X19650D01*
X20400Y643250D01*
Y644750D02*Y643250D01*
X19650Y645500D02*X20400Y644750D01*
X18150Y645500D02*X19650D01*
X17400Y644750D02*X18150Y645500D01*
X22200Y644750D02*Y643250D01*
Y644750D02*X22950Y645500D01*
X24450D01*
X25200Y644750D01*
Y643250D01*
X24450Y642500D02*X25200Y643250D01*
X22950Y642500D02*X24450D01*
X22200Y643250D02*X22950Y642500D01*
X27000Y648500D02*Y643250D01*
X27750Y642500D01*
X0Y639250D02*X29250D01*
X41750Y648500D02*Y642500D01*
X43700Y648500D02*X44750Y647450D01*
Y643550D01*
X43700Y642500D02*X44750Y643550D01*
X41000Y642500D02*X43700D01*
X41000Y648500D02*X43700D01*
G54D105*X46550Y647000D02*Y646850D01*
G54D104*Y644750D02*Y642500D01*
X50300Y645500D02*X51050Y644750D01*
X48800Y645500D02*X50300D01*
X48050Y644750D02*X48800Y645500D01*
X48050Y644750D02*Y643250D01*
X48800Y642500D01*
X51050Y645500D02*Y643250D01*
X51800Y642500D01*
X48800D02*X50300D01*
X51050Y643250D01*
X54350Y644750D02*Y642500D01*
Y644750D02*X55100Y645500D01*
X55850D01*
X56600Y644750D01*
Y642500D01*
Y644750D02*X57350Y645500D01*
X58100D01*
X58850Y644750D01*
Y642500D01*
X53600Y645500D02*X54350Y644750D01*
X60650Y642500D02*X61400D01*
X65900Y643250D02*X66650Y642500D01*
X65900Y647750D02*X66650Y648500D01*
X65900Y647750D02*Y643250D01*
X68450Y648500D02*X69950D01*
X69200D02*Y642500D01*
X68450D02*X69950D01*
X72500Y644750D02*Y642500D01*
Y644750D02*X73250Y645500D01*
X74000D01*
X74750Y644750D01*
Y642500D01*
X71750Y645500D02*X72500Y644750D01*
X77300Y645500D02*X79550D01*
X76550Y644750D02*X77300Y645500D01*
X76550Y644750D02*Y643250D01*
X77300Y642500D01*
X79550D01*
X81350Y648500D02*Y642500D01*
Y644750D02*X82100Y645500D01*
X83600D01*
X84350Y644750D01*
Y642500D01*
X86150Y648500D02*X86900Y647750D01*
Y643250D01*
X86150Y642500D02*X86900Y643250D01*
X41000Y639250D02*X88700D01*
X96050Y642500D02*X98000D01*
X95000Y643550D02*X96050Y642500D01*
X95000Y647450D02*Y643550D01*
Y647450D02*X96050Y648500D01*
X98000D01*
X99800Y644750D02*Y643250D01*
Y644750D02*X100550Y645500D01*
X102050D01*
X102800Y644750D01*
Y643250D01*
X102050Y642500D02*X102800Y643250D01*
X100550Y642500D02*X102050D01*
X99800Y643250D02*X100550Y642500D01*
X104600Y645500D02*Y643250D01*
X105350Y642500D01*
X106850D01*
X107600Y643250D01*
Y645500D02*Y643250D01*
X110150Y644750D02*Y642500D01*
Y644750D02*X110900Y645500D01*
X111650D01*
X112400Y644750D01*
Y642500D01*
X109400Y645500D02*X110150Y644750D01*
X114950Y648500D02*Y643250D01*
X115700Y642500D01*
X114200Y646250D02*X115700D01*
X95000Y639250D02*X117200D01*
X130750Y648500D02*Y642500D01*
X130000Y648500D02*X133000D01*
X133750Y647750D01*
Y646250D01*
X133000Y645500D02*X133750Y646250D01*
X130750Y645500D02*X133000D01*
X135550Y648500D02*Y643250D01*
X136300Y642500D01*
X140050Y645500D02*X140800Y644750D01*
X138550Y645500D02*X140050D01*
X137800Y644750D02*X138550Y645500D01*
X137800Y644750D02*Y643250D01*
X138550Y642500D01*
X140800Y645500D02*Y643250D01*
X141550Y642500D01*
X138550D02*X140050D01*
X140800Y643250D01*
X144100Y648500D02*Y643250D01*
X144850Y642500D01*
X143350Y646250D02*X144850D01*
X147100Y642500D02*X149350D01*
X146350Y643250D02*X147100Y642500D01*
X146350Y644750D02*Y643250D01*
Y644750D02*X147100Y645500D01*
X148600D01*
X149350Y644750D01*
X146350Y644000D02*X149350D01*
Y644750D02*Y644000D01*
X154150Y648500D02*Y642500D01*
X153400D02*X154150Y643250D01*
X151900Y642500D02*X153400D01*
X151150Y643250D02*X151900Y642500D01*
X151150Y644750D02*Y643250D01*
Y644750D02*X151900Y645500D01*
X153400D01*
X154150Y644750D01*
X157450Y645500D02*Y644750D01*
Y643250D02*Y642500D01*
X155950Y647750D02*Y647000D01*
Y647750D02*X156700Y648500D01*
X158200D01*
X158950Y647750D01*
Y647000D01*
X157450Y645500D02*X158950Y647000D01*
X130000Y639250D02*X160750D01*
X0Y663500D02*X3000D01*
X1500D02*Y657500D01*
X4800Y663500D02*Y657500D01*
Y659750D02*X5550Y660500D01*
X7050D01*
X7800Y659750D01*
Y657500D01*
X10350D02*X12600D01*
X9600Y658250D02*X10350Y657500D01*
X9600Y659750D02*Y658250D01*
Y659750D02*X10350Y660500D01*
X11850D01*
X12600Y659750D01*
X9600Y659000D02*X12600D01*
Y659750D02*Y659000D01*
X15150Y659750D02*Y657500D01*
Y659750D02*X15900Y660500D01*
X17400D01*
X14400D02*X15150Y659750D01*
X19950Y657500D02*X22200D01*
X19200Y658250D02*X19950Y657500D01*
X19200Y659750D02*Y658250D01*
Y659750D02*X19950Y660500D01*
X21450D01*
X22200Y659750D01*
X19200Y659000D02*X22200D01*
Y659750D02*Y659000D01*
X28950Y660500D02*X29700Y659750D01*
X27450Y660500D02*X28950D01*
X26700Y659750D02*X27450Y660500D01*
X26700Y659750D02*Y658250D01*
X27450Y657500D01*
X29700Y660500D02*Y658250D01*
X30450Y657500D01*
X27450D02*X28950D01*
X29700Y658250D01*
X33000Y659750D02*Y657500D01*
Y659750D02*X33750Y660500D01*
X35250D01*
X32250D02*X33000Y659750D01*
X37800Y657500D02*X40050D01*
X37050Y658250D02*X37800Y657500D01*
X37050Y659750D02*Y658250D01*
Y659750D02*X37800Y660500D01*
X39300D01*
X40050Y659750D01*
X37050Y659000D02*X40050D01*
Y659750D02*Y659000D01*
X45300Y657500D02*X47550Y660500D01*
Y662750D02*Y660500D01*
X46800Y663500D02*X47550Y662750D01*
X45300Y663500D02*X46800D01*
X44550Y662750D02*X45300Y663500D01*
X44550Y662750D02*Y661250D01*
X45300Y660500D01*
X47550D01*
X55050Y663500D02*Y657500D01*
X54300D02*X55050Y658250D01*
X52800Y657500D02*X54300D01*
X52050Y658250D02*X52800Y657500D01*
X52050Y659750D02*Y658250D01*
Y659750D02*X52800Y660500D01*
X54300D01*
X55050Y659750D01*
G54D105*X56850Y662000D02*Y661850D01*
G54D104*Y659750D02*Y657500D01*
X59100Y662750D02*Y657500D01*
Y662750D02*X59850Y663500D01*
X60600D01*
X58350Y660500D02*X59850D01*
X62850Y662750D02*Y657500D01*
Y662750D02*X63600Y663500D01*
X64350D01*
X62100Y660500D02*X63600D01*
X66600Y657500D02*X68850D01*
X65850Y658250D02*X66600Y657500D01*
X65850Y659750D02*Y658250D01*
Y659750D02*X66600Y660500D01*
X68100D01*
X68850Y659750D01*
X65850Y659000D02*X68850D01*
Y659750D02*Y659000D01*
X71400Y659750D02*Y657500D01*
Y659750D02*X72150Y660500D01*
X73650D01*
X70650D02*X71400Y659750D01*
X76200Y657500D02*X78450D01*
X75450Y658250D02*X76200Y657500D01*
X75450Y659750D02*Y658250D01*
Y659750D02*X76200Y660500D01*
X77700D01*
X78450Y659750D01*
X75450Y659000D02*X78450D01*
Y659750D02*Y659000D01*
X81000Y659750D02*Y657500D01*
Y659750D02*X81750Y660500D01*
X82500D01*
X83250Y659750D01*
Y657500D01*
X80250Y660500D02*X81000Y659750D01*
X85800Y663500D02*Y658250D01*
X86550Y657500D01*
X85050Y661250D02*X86550D01*
X93750Y663500D02*Y657500D01*
X93000D02*X93750Y658250D01*
X91500Y657500D02*X93000D01*
X90750Y658250D02*X91500Y657500D01*
X90750Y659750D02*Y658250D01*
Y659750D02*X91500Y660500D01*
X93000D01*
X93750Y659750D01*
X96300D02*Y657500D01*
Y659750D02*X97050Y660500D01*
X98550D01*
X95550D02*X96300Y659750D01*
G54D105*X100350Y662000D02*Y661850D01*
G54D104*Y659750D02*Y657500D01*
X101850Y663500D02*Y658250D01*
X102600Y657500D01*
X104100Y663500D02*Y658250D01*
X104850Y657500D01*
X109800D02*X112050D01*
X112800Y658250D01*
X112050Y659000D02*X112800Y658250D01*
X109800Y659000D02*X112050D01*
X109050Y659750D02*X109800Y659000D01*
X109050Y659750D02*X109800Y660500D01*
X112050D01*
X112800Y659750D01*
X109050Y658250D02*X109800Y657500D01*
G54D105*X114600Y662000D02*Y661850D01*
G54D104*Y659750D02*Y657500D01*
X116100Y660500D02*X119100D01*
X116100Y657500D02*X119100Y660500D01*
X116100Y657500D02*X119100D01*
X121650D02*X123900D01*
X120900Y658250D02*X121650Y657500D01*
X120900Y659750D02*Y658250D01*
Y659750D02*X121650Y660500D01*
X123150D01*
X123900Y659750D01*
X120900Y659000D02*X123900D01*
Y659750D02*Y659000D01*
X126450Y657500D02*X128700D01*
X129450Y658250D01*
X128700Y659000D02*X129450Y658250D01*
X126450Y659000D02*X128700D01*
X125700Y659750D02*X126450Y659000D01*
X125700Y659750D02*X126450Y660500D01*
X128700D01*
X129450Y659750D01*
X125700Y658250D02*X126450Y657500D01*
X133950Y660500D02*Y658250D01*
X134700Y657500D01*
X136200D01*
X136950Y658250D01*
Y660500D02*Y658250D01*
X139500Y657500D02*X141750D01*
X142500Y658250D01*
X141750Y659000D02*X142500Y658250D01*
X139500Y659000D02*X141750D01*
X138750Y659750D02*X139500Y659000D01*
X138750Y659750D02*X139500Y660500D01*
X141750D01*
X142500Y659750D01*
X138750Y658250D02*X139500Y657500D01*
X145050D02*X147300D01*
X144300Y658250D02*X145050Y657500D01*
X144300Y659750D02*Y658250D01*
Y659750D02*X145050Y660500D01*
X146550D01*
X147300Y659750D01*
X144300Y659000D02*X147300D01*
Y659750D02*Y659000D01*
X152100Y663500D02*Y657500D01*
X151350D02*X152100Y658250D01*
X149850Y657500D02*X151350D01*
X149100Y658250D02*X149850Y657500D01*
X149100Y659750D02*Y658250D01*
Y659750D02*X149850Y660500D01*
X151350D01*
X152100Y659750D01*
G54D105*X156600Y662000D02*Y661850D01*
G54D104*Y659750D02*Y657500D01*
X158850Y659750D02*Y657500D01*
Y659750D02*X159600Y660500D01*
X160350D01*
X161100Y659750D01*
Y657500D01*
X158100Y660500D02*X158850Y659750D01*
X166350Y663500D02*Y658250D01*
X167100Y657500D01*
X165600Y661250D02*X167100D01*
X168600Y663500D02*Y657500D01*
Y659750D02*X169350Y660500D01*
X170850D01*
X171600Y659750D01*
Y657500D01*
G54D105*X173400Y662000D02*Y661850D01*
G54D104*Y659750D02*Y657500D01*
X175650D02*X177900D01*
X178650Y658250D01*
X177900Y659000D02*X178650Y658250D01*
X175650Y659000D02*X177900D01*
X174900Y659750D02*X175650Y659000D01*
X174900Y659750D02*X175650Y660500D01*
X177900D01*
X178650Y659750D01*
X174900Y658250D02*X175650Y657500D01*
X183150Y663500D02*Y658250D01*
X183900Y657500D01*
X187650Y660500D02*X188400Y659750D01*
X186150Y660500D02*X187650D01*
X185400Y659750D02*X186150Y660500D01*
X185400Y659750D02*Y658250D01*
X186150Y657500D01*
X188400Y660500D02*Y658250D01*
X189150Y657500D01*
X186150D02*X187650D01*
X188400Y658250D01*
X190950Y660500D02*Y658250D01*
X191700Y657500D01*
X193950Y660500D02*Y656000D01*
X193200Y655250D02*X193950Y656000D01*
X191700Y655250D02*X193200D01*
X190950Y656000D02*X191700Y655250D01*
Y657500D02*X193200D01*
X193950Y658250D01*
X195750Y659750D02*Y658250D01*
Y659750D02*X196500Y660500D01*
X198000D01*
X198750Y659750D01*
Y658250D01*
X198000Y657500D02*X198750Y658250D01*
X196500Y657500D02*X198000D01*
X195750Y658250D02*X196500Y657500D01*
X200550Y660500D02*Y658250D01*
X201300Y657500D01*
X202800D01*
X203550Y658250D01*
Y660500D02*Y658250D01*
X206100Y663500D02*Y658250D01*
X206850Y657500D01*
X205350Y661250D02*X206850D01*
X208350Y656000D02*X209850Y657500D01*
X214350Y658250D02*X215100Y657500D01*
X214350Y659450D02*Y658250D01*
Y659450D02*X215400Y660500D01*
X216300D01*
X217350Y659450D01*
Y658250D01*
X216600Y657500D02*X217350Y658250D01*
X215100Y657500D02*X216600D01*
X214350Y661550D02*X215400Y660500D01*
X214350Y662750D02*Y661550D01*
Y662750D02*X215100Y663500D01*
X216600D01*
X217350Y662750D01*
Y661550D01*
X216300Y660500D02*X217350Y661550D01*
X219150Y662300D02*X220350Y663500D01*
Y657500D01*
X219150D02*X221400D01*
X225900Y663500D02*Y657500D01*
Y659750D02*X226650Y660500D01*
X228150D01*
X228900Y659750D01*
Y657500D01*
X230700Y659750D02*Y658250D01*
Y659750D02*X231450Y660500D01*
X232950D01*
X233700Y659750D01*
Y658250D01*
X232950Y657500D02*X233700Y658250D01*
X231450Y657500D02*X232950D01*
X230700Y658250D02*X231450Y657500D01*
X235500Y663500D02*Y658250D01*
X236250Y657500D01*
X238500D02*X240750D01*
X237750Y658250D02*X238500Y657500D01*
X237750Y659750D02*Y658250D01*
Y659750D02*X238500Y660500D01*
X240000D01*
X240750Y659750D01*
X237750Y659000D02*X240750D01*
Y659750D02*Y659000D01*
X243300Y657500D02*X245550D01*
X246300Y658250D01*
X245550Y659000D02*X246300Y658250D01*
X243300Y659000D02*X245550D01*
X242550Y659750D02*X243300Y659000D01*
X242550Y659750D02*X243300Y660500D01*
X245550D01*
X246300Y659750D01*
X242550Y658250D02*X243300Y657500D01*
X251550Y663500D02*Y658250D01*
X252300Y657500D01*
X250800Y661250D02*X252300D01*
X253800Y659750D02*Y658250D01*
Y659750D02*X254550Y660500D01*
X256050D01*
X256800Y659750D01*
Y658250D01*
X256050Y657500D02*X256800Y658250D01*
X254550Y657500D02*X256050D01*
X253800Y658250D02*X254550Y657500D01*
X259350Y663500D02*Y658250D01*
X260100Y657500D01*
X258600Y661250D02*X260100D01*
X263850Y660500D02*X264600Y659750D01*
X262350Y660500D02*X263850D01*
X261600Y659750D02*X262350Y660500D01*
X261600Y659750D02*Y658250D01*
X262350Y657500D01*
X264600Y660500D02*Y658250D01*
X265350Y657500D01*
X262350D02*X263850D01*
X264600Y658250D01*
X267150Y663500D02*Y658250D01*
X267900Y657500D01*
G54D106*X157480Y389764D02*X429134D01*
Y212598D01*
X157480D01*
Y389764D01*
G54D104*X213675Y-9500D02*X216675D01*
X217425Y-8750D01*
Y-6950D02*Y-8750D01*
X216675Y-6200D02*X217425Y-6950D01*
X214425Y-6200D02*X216675D01*
X214425Y-3500D02*Y-9500D01*
X213675Y-3500D02*X216675D01*
X217425Y-4250D01*
Y-5450D01*
X216675Y-6200D02*X217425Y-5450D01*
X219225Y-7250D02*Y-8750D01*
Y-7250D02*X219975Y-6500D01*
X221475D01*
X222225Y-7250D01*
Y-8750D01*
X221475Y-9500D02*X222225Y-8750D01*
X219975Y-9500D02*X221475D01*
X219225Y-8750D02*X219975Y-9500D01*
X226275Y-6500D02*X227025Y-7250D01*
X224775Y-6500D02*X226275D01*
X224025Y-7250D02*X224775Y-6500D01*
X224025Y-7250D02*Y-8750D01*
X224775Y-9500D01*
X227025Y-6500D02*Y-8750D01*
X227775Y-9500D01*
X224775D02*X226275D01*
X227025Y-8750D01*
X230325Y-7250D02*Y-9500D01*
Y-7250D02*X231075Y-6500D01*
X232575D01*
X229575D02*X230325Y-7250D01*
X237375Y-3500D02*Y-9500D01*
X236625D02*X237375Y-8750D01*
X235125Y-9500D02*X236625D01*
X234375Y-8750D02*X235125Y-9500D01*
X234375Y-7250D02*Y-8750D01*
Y-7250D02*X235125Y-6500D01*
X236625D01*
X237375Y-7250D01*
X241875D02*Y-8750D01*
Y-7250D02*X242625Y-6500D01*
X244125D01*
X244875Y-7250D01*
Y-8750D01*
X244125Y-9500D02*X244875Y-8750D01*
X242625Y-9500D02*X244125D01*
X241875Y-8750D02*X242625Y-9500D01*
X246675Y-6500D02*Y-8750D01*
X247425Y-9500D01*
X248925D01*
X249675Y-8750D01*
Y-6500D02*Y-8750D01*
X252225Y-3500D02*Y-8750D01*
X252975Y-9500D01*
X251475Y-5750D02*X252975D01*
X254475Y-3500D02*Y-8750D01*
X255225Y-9500D01*
G54D105*X256725Y-5000D02*Y-5150D01*
G54D104*Y-7250D02*Y-9500D01*
X258975Y-7250D02*Y-9500D01*
Y-7250D02*X259725Y-6500D01*
X260475D01*
X261225Y-7250D01*
Y-9500D01*
X258225Y-6500D02*X258975Y-7250D01*
X263775Y-9500D02*X266025D01*
X263025Y-8750D02*X263775Y-9500D01*
X263025Y-7250D02*Y-8750D01*
Y-7250D02*X263775Y-6500D01*
X265275D01*
X266025Y-7250D01*
X263025Y-8000D02*X266025D01*
Y-7250D02*Y-8000D01*
G54D105*X270525Y-5000D02*Y-5150D01*
G54D104*Y-7250D02*Y-9500D01*
X272775D02*X275025D01*
X275775Y-8750D01*
X275025Y-8000D02*X275775Y-8750D01*
X272775Y-8000D02*X275025D01*
X272025Y-7250D02*X272775Y-8000D01*
X272025Y-7250D02*X272775Y-6500D01*
X275025D01*
X275775Y-7250D01*
X272025Y-8750D02*X272775Y-9500D01*
X281025Y-3500D02*Y-8750D01*
X281775Y-9500D01*
X280275Y-5750D02*X281775D01*
X283275Y-3500D02*Y-9500D01*
Y-7250D02*X284025Y-6500D01*
X285525D01*
X286275Y-7250D01*
Y-9500D01*
X288825D02*X291075D01*
X288075Y-8750D02*X288825Y-9500D01*
X288075Y-7250D02*Y-8750D01*
Y-7250D02*X288825Y-6500D01*
X290325D01*
X291075Y-7250D01*
X288075Y-8000D02*X291075D01*
Y-7250D02*Y-8000D01*
X296325Y-6500D02*X298575D01*
X295575Y-7250D02*X296325Y-6500D01*
X295575Y-7250D02*Y-8750D01*
X296325Y-9500D01*
X298575D01*
X301125D02*X303375D01*
X300375Y-8750D02*X301125Y-9500D01*
X300375Y-7250D02*Y-8750D01*
Y-7250D02*X301125Y-6500D01*
X302625D01*
X303375Y-7250D01*
X300375Y-8000D02*X303375D01*
Y-7250D02*Y-8000D01*
X305925Y-7250D02*Y-9500D01*
Y-7250D02*X306675Y-6500D01*
X307425D01*
X308175Y-7250D01*
Y-9500D01*
X305175Y-6500D02*X305925Y-7250D01*
X310725Y-3500D02*Y-8750D01*
X311475Y-9500D01*
X309975Y-5750D02*X311475D01*
X313725Y-9500D02*X315975D01*
X312975Y-8750D02*X313725Y-9500D01*
X312975Y-7250D02*Y-8750D01*
Y-7250D02*X313725Y-6500D01*
X315225D01*
X315975Y-7250D01*
X312975Y-8000D02*X315975D01*
Y-7250D02*Y-8000D01*
X318525Y-7250D02*Y-9500D01*
Y-7250D02*X319275Y-6500D01*
X320775D01*
X317775D02*X318525Y-7250D01*
X322575Y-3500D02*Y-8750D01*
X323325Y-9500D01*
G54D105*X324825Y-5000D02*Y-5150D01*
G54D104*Y-7250D02*Y-9500D01*
X327075Y-7250D02*Y-9500D01*
Y-7250D02*X327825Y-6500D01*
X328575D01*
X329325Y-7250D01*
Y-9500D01*
X326325Y-6500D02*X327075Y-7250D01*
X331875Y-9500D02*X334125D01*
X331125Y-8750D02*X331875Y-9500D01*
X331125Y-7250D02*Y-8750D01*
Y-7250D02*X331875Y-6500D01*
X333375D01*
X334125Y-7250D01*
X331125Y-8000D02*X334125D01*
Y-7250D02*Y-8000D01*
X338625Y-7250D02*Y-8750D01*
Y-7250D02*X339375Y-6500D01*
X340875D01*
X341625Y-7250D01*
Y-8750D01*
X340875Y-9500D02*X341625Y-8750D01*
X339375Y-9500D02*X340875D01*
X338625Y-8750D02*X339375Y-9500D01*
X344175Y-4250D02*Y-9500D01*
Y-4250D02*X344925Y-3500D01*
X345675D01*
X343425Y-6500D02*X344925D01*
X350625Y-3500D02*Y-8750D01*
X351375Y-9500D01*
X349875Y-5750D02*X351375D01*
X352875Y-3500D02*Y-9500D01*
Y-7250D02*X353625Y-6500D01*
X355125D01*
X355875Y-7250D01*
Y-9500D01*
G54D105*X357675Y-5000D02*Y-5150D01*
G54D104*Y-7250D02*Y-9500D01*
X359925D02*X362175D01*
X362925Y-8750D01*
X362175Y-8000D02*X362925Y-8750D01*
X359925Y-8000D02*X362175D01*
X359175Y-7250D02*X359925Y-8000D01*
X359175Y-7250D02*X359925Y-6500D01*
X362175D01*
X362925Y-7250D01*
X359175Y-8750D02*X359925Y-9500D01*
X368175Y-7250D02*Y-11750D01*
X367425Y-6500D02*X368175Y-7250D01*
X368925Y-6500D01*
X370425D01*
X371175Y-7250D01*
Y-8750D01*
X370425Y-9500D02*X371175Y-8750D01*
X368925Y-9500D02*X370425D01*
X368175Y-8750D02*X368925Y-9500D01*
X375225Y-6500D02*X375975Y-7250D01*
X373725Y-6500D02*X375225D01*
X372975Y-7250D02*X373725Y-6500D01*
X372975Y-7250D02*Y-8750D01*
X373725Y-9500D01*
X375975Y-6500D02*Y-8750D01*
X376725Y-9500D01*
X373725D02*X375225D01*
X375975Y-8750D01*
X379275Y-3500D02*Y-8750D01*
X380025Y-9500D01*
X378525Y-5750D02*X380025D01*
X381525Y-3500D02*Y-9500D01*
Y-7250D02*X382275Y-6500D01*
X383775D01*
X384525Y-7250D01*
Y-9500D01*
X200750Y528500D02*Y522500D01*
X202700Y528500D02*X203750Y527450D01*
Y523550D01*
X202700Y522500D02*X203750Y523550D01*
X200000Y522500D02*X202700D01*
X200000Y528500D02*X202700D01*
X207800Y525500D02*X208550Y524750D01*
X206300Y525500D02*X207800D01*
X205550Y524750D02*X206300Y525500D01*
X205550Y524750D02*Y523250D01*
X206300Y522500D01*
X208550Y525500D02*Y523250D01*
X209300Y522500D01*
X206300D02*X207800D01*
X208550Y523250D01*
X211850Y528500D02*Y523250D01*
X212600Y522500D01*
X211100Y526250D02*X212600D01*
X214850Y522500D02*X217100D01*
X214100Y523250D02*X214850Y522500D01*
X214100Y524750D02*Y523250D01*
Y524750D02*X214850Y525500D01*
X216350D01*
X217100Y524750D01*
X214100Y524000D02*X217100D01*
Y524750D02*Y524000D01*
X218900Y526250D02*X219650D01*
X218900Y524750D02*X219650D01*
X224150Y528500D02*Y522500D01*
Y528500D02*X227150D01*
X224150Y525800D02*X226400D01*
X229700Y524750D02*Y522500D01*
Y524750D02*X230450Y525500D01*
X231950D01*
X228950D02*X229700Y524750D01*
G54D105*X233750Y527000D02*Y526850D01*
G54D104*Y524750D02*Y522500D01*
X237950Y527000D02*Y522500D01*
Y527000D02*X239000Y528500D01*
X240650D01*
X241700Y527000D01*
Y522500D01*
X237950Y525500D02*X241700D01*
X243500D02*Y523250D01*
X244250Y522500D01*
X245750D01*
X246500Y523250D01*
Y525500D02*Y523250D01*
X250550Y525500D02*X251300Y524750D01*
X249050Y525500D02*X250550D01*
X248300Y524750D02*X249050Y525500D01*
X248300Y524750D02*Y523250D01*
X249050Y522500D01*
X250550D01*
X251300Y523250D01*
X248300Y521000D02*X249050Y520250D01*
X250550D01*
X251300Y521000D01*
Y525500D02*Y521000D01*
X255800Y527300D02*X257000Y528500D01*
Y522500D01*
X255800D02*X258050D01*
X259850Y524750D02*X262850Y528500D01*
X259850Y524750D02*X263600D01*
X262850Y528500D02*Y522500D01*
X268100Y523250D02*X268850Y522500D01*
X268100Y527750D02*Y523250D01*
Y527750D02*X268850Y528500D01*
X270350D01*
X271100Y527750D01*
Y523250D01*
X270350Y522500D02*X271100Y523250D01*
X268850Y522500D02*X270350D01*
X268100Y524000D02*X271100Y527000D01*
X272900Y527750D02*X273650Y528500D01*
X275150D01*
X275900Y527750D01*
X275150Y522500D02*X275900Y523250D01*
X273650Y522500D02*X275150D01*
X272900Y523250D02*X273650Y522500D01*
Y525800D02*X275150D01*
X275900Y527750D02*Y526550D01*
Y525050D02*Y523250D01*
Y525050D02*X275150Y525800D01*
X275900Y526550D02*X275150Y525800D01*
X277700Y526250D02*X278450D01*
X277700Y524750D02*X278450D01*
X280250Y527300D02*X281450Y528500D01*
Y522500D01*
X280250D02*X282500D01*
X284300Y523250D02*X285050Y522500D01*
X284300Y527750D02*Y523250D01*
Y527750D02*X285050Y528500D01*
X286550D01*
X287300Y527750D01*
Y523250D01*
X286550Y522500D02*X287300Y523250D01*
X285050Y522500D02*X286550D01*
X284300Y524000D02*X287300Y527000D01*
X289100Y526250D02*X289850D01*
X289100Y524750D02*X289850D01*
X291650D02*X294650Y528500D01*
X291650Y524750D02*X295400D01*
X294650Y528500D02*Y522500D01*
X297950D02*X300950Y528500D01*
X297200D02*X300950D01*
X305450Y527750D02*X306200Y528500D01*
X308450D01*
X309200Y527750D01*
Y526250D01*
X305450Y522500D02*X309200Y526250D01*
X305450Y522500D02*X309200D01*
X311000Y523250D02*X311750Y522500D01*
X311000Y527750D02*Y523250D01*
Y527750D02*X311750Y528500D01*
X313250D01*
X314000Y527750D01*
Y523250D01*
X313250Y522500D02*X314000Y523250D01*
X311750Y522500D02*X313250D01*
X311000Y524000D02*X314000Y527000D01*
X315800Y527750D02*X316550Y528500D01*
X318800D01*
X319550Y527750D01*
Y526250D01*
X315800Y522500D02*X319550Y526250D01*
X315800Y522500D02*X319550D01*
X321350Y523250D02*X322100Y522500D01*
X321350Y527750D02*Y523250D01*
Y527750D02*X322100Y528500D01*
X323600D01*
X324350Y527750D01*
Y523250D01*
X323600Y522500D02*X324350Y523250D01*
X322100Y522500D02*X323600D01*
X321350Y524000D02*X324350Y527000D01*
X328850Y528500D02*Y523250D01*
X329600Y522500D01*
X331100D01*
X331850Y523250D01*
Y528500D02*Y523250D01*
X333650Y528500D02*X336650D01*
X335150D02*Y522500D01*
X339500D02*X341450D01*
X338450Y523550D02*X339500Y522500D01*
X338450Y527450D02*Y523550D01*
Y527450D02*X339500Y528500D01*
X341450D01*
X200000Y542000D02*Y537500D01*
Y542000D02*X201050Y543500D01*
X202700D01*
X203750Y542000D01*
Y537500D01*
X200000Y540500D02*X203750D01*
X205550D02*Y538250D01*
X206300Y537500D01*
X207800D01*
X208550Y538250D01*
Y540500D02*Y538250D01*
X211100Y543500D02*Y538250D01*
X211850Y537500D01*
X210350Y541250D02*X211850D01*
X213350Y543500D02*Y537500D01*
Y539750D02*X214100Y540500D01*
X215600D01*
X216350Y539750D01*
Y537500D01*
X218150Y539750D02*Y538250D01*
Y539750D02*X218900Y540500D01*
X220400D01*
X221150Y539750D01*
Y538250D01*
X220400Y537500D02*X221150Y538250D01*
X218900Y537500D02*X220400D01*
X218150Y538250D02*X218900Y537500D01*
X223700Y539750D02*Y537500D01*
Y539750D02*X224450Y540500D01*
X225950D01*
X222950D02*X223700Y539750D01*
X227750Y541250D02*X228500D01*
X227750Y539750D02*X228500D01*
X233000Y543500D02*Y537500D01*
Y539750D02*X233750Y540500D01*
X235250D01*
X236000Y539750D01*
Y537500D01*
X240050Y540500D02*X240800Y539750D01*
X238550Y540500D02*X240050D01*
X237800Y539750D02*X238550Y540500D01*
X237800Y539750D02*Y538250D01*
X238550Y537500D01*
X240800Y540500D02*Y538250D01*
X241550Y537500D01*
X238550D02*X240050D01*
X240800Y538250D01*
X244100Y539750D02*Y537500D01*
Y539750D02*X244850Y540500D01*
X246350D01*
X243350D02*X244100Y539750D01*
X248150D02*Y538250D01*
Y539750D02*X248900Y540500D01*
X250400D01*
X251150Y539750D01*
Y538250D01*
X250400Y537500D02*X251150Y538250D01*
X248900Y537500D02*X250400D01*
X248150Y538250D02*X248900Y537500D01*
X252950Y543500D02*Y538250D01*
X253700Y537500D01*
X258200Y543500D02*Y537500D01*
X257450D02*X258200Y538250D01*
X255950Y537500D02*X257450D01*
X255200Y538250D02*X255950Y537500D01*
X255200Y539750D02*Y538250D01*
Y539750D02*X255950Y540500D01*
X257450D01*
X258200Y539750D01*
X200000Y558500D02*X203000D01*
X201500D02*Y552500D01*
G54D105*X204800Y557000D02*Y556850D01*
G54D104*Y554750D02*Y552500D01*
X207050Y558500D02*Y553250D01*
X207800Y552500D01*
X206300Y556250D02*X207800D01*
X209300Y558500D02*Y553250D01*
X210050Y552500D01*
X212300D02*X214550D01*
X211550Y553250D02*X212300Y552500D01*
X211550Y554750D02*Y553250D01*
Y554750D02*X212300Y555500D01*
X213800D01*
X214550Y554750D01*
X211550Y554000D02*X214550D01*
Y554750D02*Y554000D01*
X216350Y556250D02*X217100D01*
X216350Y554750D02*X217100D01*
X221600Y553250D02*X222350Y552500D01*
X221600Y557750D02*X222350Y558500D01*
X221600Y557750D02*Y553250D01*
X224150Y555500D02*Y553250D01*
X224900Y552500D01*
X226400D01*
X227150Y553250D01*
Y555500D02*Y553250D01*
X229700Y554750D02*Y552500D01*
Y554750D02*X230450Y555500D01*
X231200D01*
X231950Y554750D01*
Y552500D01*
X228950Y555500D02*X229700Y554750D01*
X233750Y558500D02*Y552500D01*
Y554750D02*X236000Y552500D01*
X233750Y554750D02*X235250Y556250D01*
X238550Y554750D02*Y552500D01*
Y554750D02*X239300Y555500D01*
X240050D01*
X240800Y554750D01*
Y552500D01*
X237800Y555500D02*X238550Y554750D01*
X242600D02*Y553250D01*
Y554750D02*X243350Y555500D01*
X244850D01*
X245600Y554750D01*
Y553250D01*
X244850Y552500D02*X245600Y553250D01*
X243350Y552500D02*X244850D01*
X242600Y553250D02*X243350Y552500D01*
X247400Y555500D02*Y553250D01*
X248150Y552500D01*
X248900D01*
X249650Y553250D01*
Y555500D02*Y553250D01*
X250400Y552500D01*
X251150D01*
X251900Y553250D01*
Y555500D02*Y553250D01*
X254450Y554750D02*Y552500D01*
Y554750D02*X255200Y555500D01*
X255950D01*
X256700Y554750D01*
Y552500D01*
X253700Y555500D02*X254450Y554750D01*
X258500Y558500D02*X259250Y557750D01*
Y553250D01*
X258500Y552500D02*X259250Y553250D01*
X263750Y555500D02*X266750D01*
X271250Y558500D02*Y552500D01*
Y558500D02*X274250D01*
X271250Y555800D02*X273500D01*
X278300Y555500D02*X279050Y554750D01*
X276800Y555500D02*X278300D01*
X276050Y554750D02*X276800Y555500D01*
X276050Y554750D02*Y553250D01*
X276800Y552500D01*
X279050Y555500D02*Y553250D01*
X279800Y552500D01*
X276800D02*X278300D01*
X279050Y553250D01*
X281600Y558500D02*Y552500D01*
Y553250D02*X282350Y552500D01*
X283850D01*
X284600Y553250D01*
Y554750D02*Y553250D01*
X283850Y555500D02*X284600Y554750D01*
X282350Y555500D02*X283850D01*
X281600Y554750D02*X282350Y555500D01*
X287150Y554750D02*Y552500D01*
Y554750D02*X287900Y555500D01*
X289400D01*
X286400D02*X287150Y554750D01*
G54D105*X291200Y557000D02*Y556850D01*
G54D104*Y554750D02*Y552500D01*
X293450Y555500D02*X295700D01*
X292700Y554750D02*X293450Y555500D01*
X292700Y554750D02*Y553250D01*
X293450Y552500D01*
X295700D01*
X299750Y555500D02*X300500Y554750D01*
X298250Y555500D02*X299750D01*
X297500Y554750D02*X298250Y555500D01*
X297500Y554750D02*Y553250D01*
X298250Y552500D01*
X300500Y555500D02*Y553250D01*
X301250Y552500D01*
X298250D02*X299750D01*
X300500Y553250D01*
X303800Y558500D02*Y553250D01*
X304550Y552500D01*
X303050Y556250D02*X304550D01*
G54D105*X306050Y557000D02*Y556850D01*
G54D104*Y554750D02*Y552500D01*
X307550Y554750D02*Y553250D01*
Y554750D02*X308300Y555500D01*
X309800D01*
X310550Y554750D01*
Y553250D01*
X309800Y552500D02*X310550Y553250D01*
X308300Y552500D02*X309800D01*
X307550Y553250D02*X308300Y552500D01*
X313100Y554750D02*Y552500D01*
Y554750D02*X313850Y555500D01*
X314600D01*
X315350Y554750D01*
Y552500D01*
X312350Y555500D02*X313100Y554750D01*
X320600Y558500D02*Y552500D01*
X322550Y558500D02*X323600Y557450D01*
Y553550D01*
X322550Y552500D02*X323600Y553550D01*
X319850Y552500D02*X322550D01*
X319850Y558500D02*X322550D01*
X326150Y554750D02*Y552500D01*
Y554750D02*X326900Y555500D01*
X328400D01*
X325400D02*X326150Y554750D01*
X332450Y555500D02*X333200Y554750D01*
X330950Y555500D02*X332450D01*
X330200Y554750D02*X330950Y555500D01*
X330200Y554750D02*Y553250D01*
X330950Y552500D01*
X333200Y555500D02*Y553250D01*
X333950Y552500D01*
X330950D02*X332450D01*
X333200Y553250D01*
X335750Y555500D02*Y553250D01*
X336500Y552500D01*
X337250D01*
X338000Y553250D01*
Y555500D02*Y553250D01*
X338750Y552500D01*
X339500D01*
X340250Y553250D01*
Y555500D02*Y553250D01*
G54D105*X342050Y557000D02*Y556850D01*
G54D104*Y554750D02*Y552500D01*
X344300Y554750D02*Y552500D01*
Y554750D02*X345050Y555500D01*
X345800D01*
X346550Y554750D01*
Y552500D01*
X343550Y555500D02*X344300Y554750D01*
X350600Y555500D02*X351350Y554750D01*
X349100Y555500D02*X350600D01*
X348350Y554750D02*X349100Y555500D01*
X348350Y554750D02*Y553250D01*
X349100Y552500D01*
X350600D01*
X351350Y553250D01*
X348350Y551000D02*X349100Y550250D01*
X350600D01*
X351350Y551000D01*
Y555500D02*Y551000D01*
M02*
