G04 start of page 2 for group 0 idx 0 *
G04 Title: (unknown), top *
G04 Creator: pcb 4.2.2 *
G04 CreationDate: Fri Aug 14 03:10:47 2020 UTC *
G04 For: harold *
G04 Format: Gerber/RS-274X *
G04 PCB-Dimensions (mil): 6000.00 5000.00 *
G04 PCB-Coordinate-Origin: lower left *
%MOIN*%
%FSLAX25Y25*%
%LNTOP*%
%ADD37C,0.0390*%
%ADD36C,0.0280*%
%ADD35C,0.0380*%
%ADD34C,0.0300*%
%ADD33C,0.0240*%
%ADD32C,0.1350*%
%ADD31C,0.0479*%
%ADD30C,0.0400*%
%ADD29C,0.0439*%
%ADD28C,0.0360*%
%ADD27C,0.1600*%
%ADD26C,0.0740*%
%ADD25C,0.0840*%
%ADD24C,0.0500*%
%ADD23C,0.0600*%
%ADD22C,0.0381*%
%ADD21C,0.0760*%
%ADD20C,0.0671*%
%ADD19C,0.0340*%
%ADD18C,0.0320*%
%ADD17C,0.0750*%
%ADD16C,0.0001*%
%ADD15C,0.0640*%
%ADD14C,0.0179*%
%ADD13C,0.0250*%
%ADD12C,0.0200*%
%ADD11C,0.0100*%
G54D11*X378937Y313976D02*X380236Y312874D01*
Y309213D02*Y312874D01*
X391772Y309213D02*X390236D01*
X390554Y309530D01*
X393366Y309390D02*X390413D01*
X383858Y285433D02*X389764Y291339D01*
X394685D01*
X400591D02*X390748Y281496D01*
X394685Y291339D02*X397638Y294291D01*
Y305118D01*
X393366Y309390D01*
X400591Y318112D02*Y291339D01*
G54D12*X390748Y336614D02*Y309449D01*
X400591Y336614D02*Y318112D01*
G54D11*X351378Y313976D02*X378937D01*
X351378D02*X346457Y309055D01*
X380236Y299213D02*X372362Y291339D01*
X347441Y316929D02*X390748D01*
X370236Y298661D02*Y299213D01*
X370079Y299055D01*
X370236Y299213D02*X364331Y293307D01*
X346457Y309055D02*Y303150D01*
X341535Y287402D02*Y310039D01*
X346457Y303150D02*X344488Y301181D01*
Y287402D01*
X347441Y289370D02*Y284449D01*
X350394Y287402D02*Y279528D01*
X347441Y284449D02*X339567Y276575D01*
X372362Y291339D02*X354331D01*
X383858Y285433D02*X355315D01*
X364331Y293307D02*X351378D01*
X347441Y289370D01*
X354331Y291339D02*X350394Y287402D01*
Y279528D02*X347441Y276575D01*
Y274606D01*
X355315Y279429D02*Y274606D01*
X363189Y279429D02*Y274606D01*
G54D12*X342520Y326772D02*X355315Y339567D01*
X364367Y350787D02*X363189Y351965D01*
Y357283D01*
X355315D02*Y359252D01*
X363189Y357283D02*X355315D01*
X341535Y368110D02*X367126D01*
X355315Y357283D02*Y339567D01*
G54D11*X367126Y374016D02*X347441D01*
X370989Y357883D02*X371853Y357019D01*
X370989Y357883D02*X372047Y356825D01*
G54D12*Y349606D01*
G54D11*X372244Y349409D01*
G54D12*X370989Y357283D02*X375910Y362205D01*
X411417D01*
G54D13*X355315Y340551D02*X407480D01*
X410433Y343504D01*
X389371Y344294D02*X389565Y344488D01*
X399606D01*
X410433Y355315D01*
Y343504D02*X411417D01*
X410433Y355315D02*X411417D01*
G54D11*X375984Y362205D02*Y365157D01*
X367126Y374016D01*
X337598Y289370D02*X327756Y279528D01*
X331693Y277559D02*X341535Y287402D01*
X331693Y274606D02*X344488Y287402D01*
X339567Y276575D02*Y274606D01*
X314757Y292526D02*Y280308D01*
X316726Y294495D02*Y279522D01*
X312789Y290558D02*Y279522D01*
X308852Y277626D02*Y288182D01*
X309055Y288386D01*
X320866Y286417D02*Y292323D01*
Y302165D02*X323819D01*
X320866D02*X313976Y309055D01*
D03*
X328666Y292323D02*X335630Y299287D01*
Y311024D01*
X316726Y294291D02*X300813Y310205D01*
X314757Y292323D02*X298678Y308402D01*
X312789Y290557D02*X296756Y306591D01*
G54D13*X298228Y343504D02*X325787D01*
X298228D02*X291339Y350394D01*
Y356299D01*
X284449Y373031D02*Y346457D01*
X325787Y343504D02*X329724Y339567D01*
X319882Y356299D02*X301181D01*
X328937Y380906D02*X292323D01*
X284449Y373031D01*
G54D11*X289370Y386811D02*X280512Y377953D01*
X311024Y325787D02*X297244D01*
X307087Y333467D02*X306967Y333587D01*
G54D12*X296944D01*
G54D11*X311024Y325787D02*X314961Y321850D01*
G54D13*X296260Y335630D02*Y333661D01*
G54D12*X312008Y320866D02*X277559Y321060D01*
G54D11*X334646Y386811D02*X289370D01*
G54D13*X319882Y356299D02*X328740Y365157D01*
Y369094D01*
G54D11*X329134Y380709D02*X328937Y380906D01*
G54D13*X329134Y380709D02*X341535Y368307D01*
Y368110D01*
G54D11*X347441Y374016D02*X334646Y386811D01*
X330635Y326772D02*X329724D01*
X331693D02*X329724D01*
X329134D02*X338067Y317839D01*
G54D12*X329134Y326772D02*X342520D01*
X323819Y309055D02*X312008Y320866D01*
G54D11*X331730Y313939D02*X332035D01*
X338067Y317839D02*X341235D01*
X335630Y311024D02*X338583Y313976D01*
X344488D01*
X347441Y316929D01*
G54D13*X314961Y331693D02*X319882Y326772D01*
X329134D01*
G54D11*X314961Y321850D02*X323819D01*
X331730Y313939D01*
X311024Y312008D02*X313976Y309055D01*
X320663Y246267D02*X321063Y245079D01*
G54D12*X325787D01*
G54D11*X324435Y248031D02*X328740D01*
X320663Y247966D02*Y246267D01*
X318695Y247966D02*Y246267D01*
Y250202D01*
X316735Y252163D01*
X320663Y252172D02*Y247829D01*
X318695Y247966D02*Y240554D01*
X321060Y237205D01*
X316727Y239173D02*Y246070D01*
X314758Y247966D02*Y242908D01*
X313976Y242126D01*
X316727Y239173D02*X316533Y238979D01*
X324666Y255907D02*X324668Y255906D01*
X324666Y253938D02*X326365D01*
X324666Y255907D02*X324665Y255906D01*
X322835D01*
X322467Y255537D01*
Y250000D01*
X324435Y248031D01*
X326365Y253938D02*X326366Y253937D01*
X324803Y251969D02*X330709D01*
X326367D01*
X335630Y253937D02*X326772D01*
X324666Y263781D02*X330129D01*
X329724Y263780D02*X345472D01*
G54D12*X328546Y220472D02*Y237205D01*
G54D11*X321060Y235828D02*Y220472D01*
X313976Y242126D02*X307087D01*
X303940Y238979D01*
X316533D02*X311024D01*
X307281Y235236D01*
X307087D01*
X289000Y218000D02*X289504Y218504D01*
X289370D02*X289504D01*
X303940Y238979D02*X303150D01*
X311024Y231493D02*X303150D01*
X311024Y231299D02*Y220472D01*
Y231493D02*Y227362D01*
X306102Y215551D02*Y222441D01*
X304134Y224409D01*
X303150Y238979D02*X302956Y239173D01*
X287402D02*X302956D01*
X289504Y218504D02*X302165D01*
X317913Y214567D03*
X307087D01*
X306102Y215551D01*
X304134Y224409D02*X294291D01*
X287402Y236220D02*X295276D01*
X296260Y235236D01*
X307281D01*
X335630Y257874D02*X341535Y251969D01*
X343504Y255906D02*X343898Y255511D01*
X341535Y248031D02*Y244094D01*
X343504Y242126D01*
X330709Y251969D02*X336614Y246063D01*
Y245869D01*
G54D12*X325787Y245079D02*X328740Y242126D01*
Y238189D01*
G54D11*Y248031D02*X330709Y246063D01*
Y244094D01*
X332677Y242126D01*
X339567D01*
X343310Y238383D01*
X342520Y232283D02*X339961Y229724D01*
X336614D01*
G54D12*X343504Y227362D02*X341341Y225200D01*
X328546D01*
G54D11*X335237Y238383D02*X336614D01*
Y234843D01*
X299213Y252163D02*Y257874D01*
G54D14*Y252163D02*X292913Y245866D01*
D03*
G54D11*X293307Y246063D02*X292323Y247047D01*
X287402Y253937D02*X289370Y255906D01*
X293110D01*
X285433Y254921D02*X288386Y257874D01*
X293110D01*
X283465Y238189D02*X268701D01*
X281496Y240157D02*X272835D01*
X285433Y244094D02*Y254921D01*
X283465Y255906D02*Y245079D01*
X281496Y257874D02*Y247047D01*
X283465Y238189D02*X287402Y242126D01*
Y253937D01*
X281496Y240157D02*X285433Y244094D01*
X284449Y236220D02*X287402Y239173D01*
X283465Y245079D02*X280512Y242126D01*
X281496Y247047D02*X278543Y244094D01*
X280512Y242126D02*X274606D01*
X278543Y244094D02*X276575D01*
X272835Y240157D02*X267323Y245669D01*
X276575Y244094D02*X269685Y250984D01*
Y257874D01*
X283465Y234252D02*X278543Y229331D01*
X283465Y234252D02*X285433D01*
X276575Y236220D02*X269685Y229331D01*
X276575Y236220D02*X284449D01*
X244094Y224409D02*X294291D01*
X285433Y234252D02*X287402Y236220D01*
X267323Y245669D02*X256693D01*
X274606Y242126D02*X266732Y250000D01*
X268701Y238189D02*X266732Y240157D01*
X261811D01*
X259843Y238189D01*
Y230315D01*
X250000Y242126D02*X253937D01*
X256693Y245669D02*X254134Y248228D01*
Y256890D01*
X254131Y248623D02*X252555Y247047D01*
X248031D01*
X242126Y241142D01*
Y226378D01*
X244094Y224409D01*
X316735Y252163D02*X299213D01*
X299009Y273826D02*X320663Y252172D01*
X314757Y273826D02*X314961Y273622D01*
X316929D01*
X310820Y271857D02*X311024Y271654D01*
X318898D01*
X314757Y281024D02*Y273826D01*
X310820Y281024D02*Y271857D01*
X316929Y273622D02*X318694Y275387D01*
X318694Y279522D01*
X318898Y271654D02*X324803Y277559D01*
X331693D01*
X320865Y279528D02*X327756D01*
X331693Y271654D02*Y274606D01*
X324667Y269685D02*X329724D01*
X331693Y271654D01*
X320662Y281024D02*Y279325D01*
X320865Y279528D01*
X291608Y263780D02*X291608Y263780D01*
X291608Y265748D02*X282480D01*
X299213Y257874D02*X297244Y259843D01*
X293307D01*
X291215Y263780D03*
Y261811D02*X285433D01*
X291215Y259843D02*X287402D01*
X283465Y255906D01*
X285433Y261811D02*X281496Y257874D01*
X269685D02*X263780Y263780D01*
X261811D01*
X324666Y269686D02*X324667Y269685D01*
X269685Y263780D02*X291608D01*
X269685D02*X264764Y268701D01*
X299009Y281024D02*Y273826D01*
X291608Y269685D02*X289370D01*
X287402Y271654D01*
Y267717D02*X283465Y271654D01*
X291608Y267717D02*X291608Y267717D01*
X287402D01*
X291339Y279528D02*Y273622D01*
X287402Y271654D02*Y278937D01*
G54D12*X249016Y277559D02*X253937D01*
G54D11*X269685Y270669D02*X263780Y276575D01*
X261811D01*
X264764Y268701D02*X261811D01*
X326365Y257875D02*X326366Y257874D01*
X335630D01*
X324667Y261811D02*X355315D01*
X328458Y259844D02*X328460Y259843D01*
X360236D01*
X363189Y262795D01*
X324666Y257875D02*X326365D01*
X324666Y261812D02*X324667Y261811D01*
X343898Y255511D02*X370079D01*
X361024Y251181D02*X370079D01*
X355315Y261811D02*Y270669D01*
X345472Y263780D02*X347441Y265748D01*
Y267717D01*
X363189Y262795D02*Y266732D01*
X355315Y270669D02*X339567D01*
Y266732D01*
X341535Y248031D02*X335630Y253937D01*
X341535Y251969D02*X360236D01*
X346457Y238383D02*X350394Y234252D01*
X343310Y238383D02*X346457D01*
X372047Y246850D02*X372244Y247047D01*
X377953Y214567D02*X390748Y227362D01*
Y281496D01*
X375984Y247047D02*X379921Y243110D01*
Y221457D01*
X375000Y216535D01*
X360236Y251969D02*X361024Y251181D01*
X368504Y242520D02*X368110Y242126D01*
G54D14*X361613Y245869D02*X362595Y246850D01*
X370079D01*
G54D11*X367717D02*X367913Y247047D01*
X375984D01*
X317913Y214567D02*X377953D01*
X353346Y238189D02*X353819Y238661D01*
X368504Y238189D02*X368503Y238189D01*
G54D14*X353346D01*
G54D11*X368110Y242126D02*X343504D01*
X350394Y234252D02*X369490D01*
X348425Y232283D02*X342520D01*
G54D14*X361613Y245869D02*X346457D01*
G54D11*X375000Y216535D02*X364173D01*
X348425Y232283D01*
G54D12*X204725Y369094D02*Y350394D01*
G54D11*X212525Y369094D02*X212599Y369020D01*
G54D14*Y346651D01*
G54D11*X212405Y346457D01*
G54D14*X199804D01*
G54D11*X203348Y342714D02*X203542Y342520D01*
G54D14*X199804Y346457D02*X190945Y337598D01*
X203542Y342520D02*X220473D01*
Y337598D02*Y342520D01*
G54D11*X208661Y334646D02*X205709D01*
G54D14*X250984Y378937D02*X208662D01*
G54D11*X220473Y370079D02*Y350200D01*
G54D12*X230315Y360236D02*X232284Y362205D01*
G54D14*X231103Y369095D02*X225394Y363386D01*
Y356299D01*
G54D12*X232284Y362205D02*X251969D01*
G54D14*X228347Y353346D02*X234252D01*
G54D11*X240515Y353383D02*X240552Y353346D01*
X241142D01*
G54D12*X230315Y357283D02*Y360236D01*
G54D14*X225394Y356299D02*X228347Y353346D01*
G54D11*X219886Y349409D02*X231300D01*
X218504Y324803D02*X208661Y334646D01*
X174823Y317421D02*X175315Y316929D01*
X180118D01*
X183071Y313976D01*
X164823Y317421D02*X165354Y317953D01*
Y319882D01*
X169291Y323819D01*
X180118D01*
X187008Y316929D01*
G54D14*X182087Y281496D02*X205709D01*
G54D12*X209252Y277952D01*
G54D11*X206693Y275591D02*X204725Y277559D01*
X199803D01*
X188583Y281302D02*X188390Y281496D01*
X209252Y277952D02*Y272048D01*
X199803Y277559D02*X196060Y273816D01*
X182087D01*
X181102Y281850D02*X181260Y281693D01*
G54D12*X180710Y281302D02*X174213Y287799D01*
G54D11*X183858Y265748D02*X195866D01*
X194091Y258068D02*X182087D01*
X195866Y265748D02*X202165Y272047D01*
X204134D01*
X205709Y263780D02*X199803D01*
X194091Y258068D01*
D03*
X219488Y274606D02*X222441Y277559D01*
X216929Y275000D02*X225394Y283465D01*
X222441Y277559D02*X226378D01*
X231299Y282480D01*
X206693Y264764D02*Y275591D01*
X211811Y274350D02*X211614Y274154D01*
Y241142D01*
X211811Y274350D02*X211614Y274548D01*
X219488Y274350D02*Y272638D01*
Y274606D01*
X215551Y263780D02*X214370Y264961D01*
Y272047D01*
X216929Y274350D02*Y275000D01*
X206693Y264764D02*X203934Y262005D01*
Y249016D01*
X262690Y378059D02*X262795Y377953D01*
G54D14*Y362679D01*
G54D12*X264764Y345472D02*Y335630D01*
G54D11*X280512Y377953D02*Y342520D01*
G54D12*X284449Y346457D02*X296260Y334646D01*
G54D11*X280512Y342520D02*X291339Y331693D01*
X205709Y323819D02*Y324803D01*
Y323819D02*X200787Y318898D01*
X197835Y325787D02*X194882Y322834D01*
Y313976D01*
X196850Y312008D02*X200787D01*
Y312045D02*X200824Y312008D01*
X204724D01*
X202313Y308071D02*X194882D01*
Y313976D02*X196850Y312008D01*
X200787Y315945D02*Y318898D01*
X204724Y312008D02*X206693Y310039D01*
Y303150D01*
X209252Y300591D01*
X202387Y308145D02*X202313Y308071D01*
X206693Y299213D02*X204724Y301181D01*
X209252Y295276D02*X211811D01*
X216929Y297578D02*Y290354D01*
X221457D01*
X223425Y292323D01*
X214370Y297578D02*X214567Y297775D01*
Y299213D01*
X231299Y282480D02*Y298228D01*
X229331Y300197D01*
X227362D01*
X223425Y292323D02*X227750D01*
X209252Y300591D02*Y295276D01*
X235236Y292323D02*X237205D01*
X235236Y300197D02*X235042D01*
X239173D01*
X224409Y312008D02*X220472Y315945D01*
X212598D01*
X210987Y312045D02*X210950Y312008D01*
X208661D01*
X206693Y316929D02*Y313976D01*
X208661Y312008D01*
X206693Y316929D02*X210630Y320866D01*
X214567D01*
X218504Y324803D01*
X214567Y299213D02*X224409Y309055D01*
Y312008D01*
X217520Y308071D02*X211614D01*
G54D14*X190945Y337598D02*Y281496D01*
G54D11*X206693Y297578D03*
Y299213D01*
X204724Y301181D02*X194882D01*
X194688Y293700D02*X195081Y293307D01*
X203740D01*
X183071Y313976D02*Y295276D01*
X185039Y293307D01*
X187008D01*
Y316929D02*Y300197D01*
G54D12*X174213Y287799D02*Y297244D01*
G54D14*X234252Y353346D02*X236221Y351378D01*
Y341535D01*
G54D11*X241142Y353346D02*Y338583D01*
G54D14*X236221Y341535D02*X232284Y337598D01*
X220473D02*X232284D01*
X218504Y324803D02*X230315D01*
G54D11*X282480Y265748D02*X279528Y268701D01*
X277559D01*
X275591Y270669D01*
X269685D01*
X277559Y263780D02*Y249016D01*
X266732Y250000D02*X262205D01*
X262008Y250197D01*
Y256496D01*
G54D14*X267717Y317913D02*X230315D01*
X256890Y326772D02*X239174D01*
X250985Y322835D02*Y326772D01*
X259843Y323819D02*X256890Y326772D01*
X267643Y324419D02*X271770Y328546D01*
X242913Y335630D02*X279528D01*
G54D11*X263743Y334987D02*X263701Y334946D01*
G54D12*X279528Y335630D02*X286417Y328740D01*
G54D14*X271770Y328546D02*X277559D01*
G54D11*X291339Y331693D02*Y326772D01*
X240157Y308071D02*X242291Y310205D01*
X239173Y300197D02*X247378Y308402D01*
X237205Y292323D02*X251480Y306598D01*
X254131Y300590D02*Y292323D01*
X273622Y324803D02*X272638Y323819D01*
Y316929D01*
X240157Y308071D02*X235236D01*
X306883Y281418D02*Y282683D01*
X304678Y284889D01*
Y295276D01*
X295276Y294685D02*Y284449D01*
X298977Y280747D01*
Y280715D01*
X301181Y285433D02*X300978Y285230D01*
Y279522D01*
X265748Y290748D02*X261024D01*
X253937Y292522D02*Y283465D01*
X266142Y291535D02*X274803D01*
X274409D01*
X265748Y286417D02*X263780Y284449D01*
G54D14*X253937D02*Y264764D01*
G54D11*X265945Y286220D02*X275197D01*
X263780Y284449D02*X261617D01*
X275197Y286220D02*X283465Y277953D01*
Y271654D02*Y277953D01*
X274803Y291535D02*X287402Y278937D01*
Y278543D01*
G54D12*X267717Y317913D02*Y324803D01*
G54D11*X280748Y299213D02*X261617D01*
X224409Y312008D02*X311024D01*
X242291Y310205D02*X300813D01*
X247378Y308402D02*X298678D01*
X251480Y306598D02*X296756D01*
X281339Y298622D02*X280748Y299213D01*
X281339Y298622D02*X286630Y303914D01*
X291339Y298622D02*X295276Y294685D01*
X291339Y326772D02*X289370Y324803D01*
X273622D01*
X286630Y303914D02*X296040D01*
X300813Y310205D02*X300362D01*
X298678Y308402D02*X298228D01*
X296756Y306591D02*Y306598D01*
X296040Y303914D02*X295496D01*
X304678Y295276D02*X296040Y303914D01*
X219488Y297578D03*
Y295276D01*
X224409Y300197D01*
Y305118D01*
X226378Y307087D01*
X227362D01*
G54D15*X411811Y231811D03*
G54D16*G36*
X386486Y312963D02*Y305463D01*
X393986D01*
Y312963D01*
X386486D01*
G37*
G54D17*X380236Y309213D03*
G54D16*G36*
X386486Y302963D02*Y295463D01*
X393986D01*
Y302963D01*
X386486D01*
G37*
G54D17*X380236Y299213D03*
G54D18*X420669Y347441D03*
X420866Y358858D03*
G54D19*X419291Y326772D03*
G54D20*X370236Y309213D03*
X360236D03*
X370236Y299213D03*
X360236D03*
G54D19*X329134Y338977D03*
Y326772D03*
G54D15*X411811Y263150D03*
G54D16*G36*
X274559Y271858D02*Y265858D01*
X280559D01*
Y271858D01*
X274559D01*
G37*
G54D19*X419291Y380709D03*
X329134D03*
Y368504D03*
G54D16*G36*
X297382Y360099D02*Y352499D01*
X304982D01*
Y360099D01*
X297382D01*
G37*
G54D21*X291339Y356299D03*
G54D22*X265748Y291142D03*
Y286417D03*
G54D16*G36*
X288339Y301622D02*Y295622D01*
X294339D01*
Y301622D01*
X288339D01*
G37*
G54D23*X281339Y298622D03*
G54D16*G36*
X285620Y222254D02*Y214754D01*
X293120D01*
Y222254D01*
X285620D01*
G37*
G54D17*X279370Y218504D03*
X289370Y230315D03*
X279370D03*
X259370Y218504D03*
X249370D03*
X239370D03*
X269370D03*
Y230315D03*
X259370D03*
X249370D03*
G54D24*X277559Y248858D03*
G54D17*X229370Y218504D03*
X219370D03*
X209370D03*
X199370D03*
G54D16*G36*
X171073Y321171D02*Y313671D01*
X178573D01*
Y321171D01*
X171073D01*
G37*
G36*
X161073D02*Y313671D01*
X168573D01*
Y321171D01*
X161073D01*
G37*
G54D17*X164823Y307421D03*
Y297421D03*
X174823Y307421D03*
Y297421D03*
G54D16*G36*
X206299Y361025D02*X203539D01*
Y355511D01*
X206299D01*
Y361025D01*
G37*
G36*
X213785D02*X211025D01*
Y355511D01*
X213785D01*
Y361025D01*
G37*
G36*
X210325Y380594D02*X206925D01*
Y376594D01*
X210325D01*
Y380594D01*
G37*
G36*
X206425Y371394D02*X203025D01*
Y367394D01*
X206425D01*
Y371394D01*
G37*
G36*
X214225D02*X210825D01*
Y367394D01*
X214225D01*
Y371394D01*
G37*
G36*
X217716Y371653D02*Y368893D01*
X223230D01*
Y371653D01*
X217716D01*
G37*
G36*
X228544Y371654D02*Y366536D01*
X236024D01*
Y371654D01*
X228544D01*
G37*
G36*
X229115Y354583D02*Y352183D01*
X233115D01*
Y354583D01*
X229115D01*
G37*
G36*
Y358483D02*Y356083D01*
X233115D01*
Y358483D01*
X229115D01*
G37*
G36*
X217716Y351580D02*Y348820D01*
X223230D01*
Y351580D01*
X217716D01*
G37*
G36*
X239315Y358483D02*Y356083D01*
X243315D01*
Y358483D01*
X239315D01*
G37*
G36*
Y354583D02*Y352183D01*
X243315D01*
Y354583D01*
X239315D01*
G37*
G36*
Y350683D02*Y348283D01*
X243315D01*
Y350683D01*
X239315D01*
G37*
G36*
X229115D02*Y348283D01*
X233115D01*
Y350683D01*
X229115D01*
G37*
G36*
X217716Y379139D02*Y376379D01*
X223230D01*
Y379139D01*
X217716D01*
G37*
G36*
X228544Y383464D02*Y378346D01*
X236024D01*
Y383464D01*
X228544D01*
G37*
G36*
X249107Y351091D02*Y342217D01*
X270973D01*
Y351091D01*
X249107D01*
G37*
G36*
Y366051D02*Y357177D01*
X270973D01*
Y366051D01*
X249107D01*
G37*
G36*
X232875Y341338D02*X227757D01*
Y333858D01*
X232875D01*
Y341338D01*
G37*
G36*
X244685D02*X239567D01*
Y333858D01*
X244685D01*
Y341338D01*
G37*
G36*
X247925Y381406D02*Y376469D01*
X254043D01*
Y381406D01*
X247925D01*
G37*
G36*
X259343D02*Y376469D01*
X265461D01*
Y381406D01*
X259343D01*
G37*
G36*
X357479Y239763D02*Y237003D01*
X362993D01*
Y239763D01*
X357479D01*
G37*
G36*
Y247249D02*Y244489D01*
X362993D01*
Y247249D01*
X357479D01*
G37*
G36*
X366217Y244020D02*X366216Y241020D01*
X373547Y241019D01*
X373547Y244019D01*
X366217Y244020D01*
G37*
G36*
X366217Y239689D02*X366216Y236689D01*
X373547Y236688D01*
X373547Y239688D01*
X366217Y239689D01*
G37*
G36*
X366217Y235359D02*X366216Y232359D01*
X373547Y232357D01*
X373548Y235357D01*
X366217Y235359D01*
G37*
G36*
X366217Y231028D02*X366217Y228028D01*
X373547Y228028D01*
X373547Y231028D01*
X366217Y231028D01*
G37*
G36*
X366217Y226697D02*X366216Y223697D01*
X373547Y223696D01*
X373547Y226696D01*
X366217Y226697D01*
G37*
G36*
X374638Y218473D02*X374637Y222473D01*
X370047Y222472D01*
X370048Y218472D01*
X374638Y218473D01*
G37*
G36*
X366217Y261343D02*Y258343D01*
X373547D01*
Y261343D01*
X366217D01*
G37*
G36*
X366217Y257012D02*X366216Y254012D01*
X373547Y254011D01*
X373547Y257011D01*
X366217Y257012D01*
G37*
G36*
X366217Y252681D02*X366216Y249681D01*
X373547Y249680D01*
X373547Y252680D01*
X366217Y252681D01*
G37*
G36*
X373547Y245351D02*X373547Y248351D01*
X366216Y248350D01*
X366217Y245350D01*
X373547Y245351D01*
G37*
G36*
X361221Y286515D02*Y283563D01*
X365157D01*
Y286515D01*
X361221D01*
G37*
G36*
Y281397D02*Y278445D01*
X365157D01*
Y281397D01*
X361221D01*
G37*
G36*
X353347Y286515D02*Y283563D01*
X357283D01*
Y286515D01*
X353347D01*
G37*
G36*
Y281397D02*Y278445D01*
X357283D01*
Y281397D01*
X353347D01*
G37*
G36*
X409736Y346169D02*Y342807D01*
X417035D01*
Y346169D01*
X409736D01*
G37*
G36*
X417823Y341839D02*X414461D01*
Y336114D01*
X417823D01*
Y341839D01*
G37*
G36*
X426878D02*X423516D01*
Y336114D01*
X426878D01*
Y341839D01*
G37*
G54D25*X419291Y326772D03*
G54D16*G36*
X404050Y222919D02*Y218419D01*
X416424D01*
Y222919D01*
X404050D01*
G37*
G36*
Y283943D02*Y279443D01*
X416424D01*
Y283943D01*
X404050D01*
G37*
G36*
X344684Y268306D02*Y265546D01*
X350198D01*
Y268306D01*
X344684D01*
G37*
G36*
X352558D02*Y265546D01*
X358072D01*
Y268306D01*
X352558D01*
G37*
G36*
X360432D02*Y265546D01*
X365946D01*
Y268306D01*
X360432D01*
G37*
G36*
X344684Y275792D02*Y273032D01*
X350198D01*
Y275792D01*
X344684D01*
G37*
G36*
X330035Y315639D02*Y312239D01*
X334035D01*
Y315639D01*
X330035D01*
G37*
G36*
X339235Y311739D02*Y308339D01*
X343235D01*
Y311739D01*
X339235D01*
G37*
G36*
Y319539D02*Y316139D01*
X343235D01*
Y319539D01*
X339235D01*
G37*
G36*
X336810Y275792D02*Y273032D01*
X342324D01*
Y275792D01*
X336810D01*
G37*
G36*
X375188Y281493D02*X369688Y281487D01*
X369695Y275200D01*
X375195Y275205D01*
X375188Y281493D01*
G37*
G36*
X352558Y275792D02*Y273032D01*
X358072D01*
Y275792D01*
X352558D01*
G37*
G36*
X360432D02*Y273032D01*
X365946D01*
Y275792D01*
X360432D01*
G37*
G36*
X336810Y268306D02*Y265546D01*
X342324D01*
Y268306D01*
X336810D01*
G37*
G36*
X329009Y265199D02*X329009Y266301D01*
X324115Y266300D01*
X324116Y265198D01*
X329009Y265199D01*
G37*
G36*
X324116Y268269D02*Y267167D01*
X329009D01*
Y268269D01*
X324116D01*
G37*
G36*
X329009Y269136D02*X329009Y270238D01*
X324115Y270237D01*
X324116Y269135D01*
X329009Y269136D01*
G37*
G36*
X324116Y272206D02*Y271104D01*
X329009D01*
Y272206D01*
X324116D01*
G37*
G36*
X329009Y273073D02*X329009Y274175D01*
X324115Y274174D01*
X324116Y273072D01*
X329009Y273073D01*
G37*
G36*
X326466Y303823D02*X323066D01*
Y299823D01*
X326466D01*
Y303823D01*
G37*
G36*
X322566Y294623D02*X319166D01*
Y290623D01*
X322566D01*
Y294623D01*
G37*
G36*
X330366D02*X326966D01*
Y290623D01*
X330366D01*
Y294623D01*
G37*
G36*
X321214Y281969D02*X320112Y281969D01*
X320112Y277075D01*
X321214Y277075D01*
X321214Y281969D01*
G37*
G36*
X343700Y239763D02*Y237003D01*
X349214D01*
Y239763D01*
X343700D01*
G37*
G36*
X334646Y231200D02*Y228248D01*
X338582D01*
Y231200D01*
X334646D01*
G37*
G36*
Y236318D02*Y233366D01*
X338582D01*
Y236318D01*
X334646D01*
G37*
G36*
X333857Y239763D02*Y237003D01*
X339371D01*
Y239763D01*
X333857D01*
G37*
G36*
X343700Y247249D02*Y244489D01*
X349214D01*
Y247249D01*
X343700D01*
G37*
G36*
X333857D02*Y244489D01*
X339371D01*
Y247249D01*
X333857D01*
G37*
G36*
X321214Y248517D02*X320112Y248517D01*
X320113Y243623D01*
X321215Y243624D01*
X321214Y248517D01*
G37*
G36*
X324116Y252521D02*Y251419D01*
X329009D01*
Y252521D01*
X324116D01*
G37*
G36*
X329009Y253388D02*X329009Y254490D01*
X324115Y254489D01*
X324116Y253387D01*
X329009Y253388D01*
G37*
G36*
X324116Y256458D02*Y255356D01*
X329009D01*
Y256458D01*
X324116D01*
G37*
G36*
X329009Y257325D02*X329009Y258427D01*
X324115Y258426D01*
X324116Y257324D01*
X329009Y257325D01*
G37*
G36*
X324116Y260395D02*Y259293D01*
X329009D01*
Y260395D01*
X324116D01*
G37*
G36*
X329009Y261262D02*X329009Y262364D01*
X324115Y262363D01*
X324116Y261261D01*
X329009Y261262D01*
G37*
G36*
X324116Y264332D02*Y263230D01*
X329009D01*
Y264332D01*
X324116D01*
G37*
G36*
X322440Y223229D02*X319680D01*
Y217715D01*
X322440D01*
Y223229D01*
G37*
G36*
X329926D02*X327166D01*
Y217715D01*
X329926D01*
Y223229D01*
G37*
G36*
X322440Y231103D02*X319680D01*
Y225589D01*
X322440D01*
Y231103D01*
G37*
G36*
X329926D02*X327166D01*
Y225589D01*
X329926D01*
Y231103D01*
G37*
G36*
X322440Y238977D02*X319680D01*
Y233463D01*
X322440D01*
Y238977D01*
G37*
G36*
X329926D02*X327166D01*
Y233463D01*
X329926D01*
Y238977D01*
G37*
G36*
X248228Y329330D02*Y326570D01*
X253742D01*
Y329330D01*
X248228D01*
G37*
G36*
X237401Y326973D02*Y324213D01*
X242915D01*
Y326973D01*
X237401D01*
G37*
G36*
Y319487D02*Y316727D01*
X242915D01*
Y319487D01*
X237401D01*
G37*
G36*
X261543Y326119D02*X258143D01*
Y322119D01*
X261543D01*
Y326119D01*
G37*
G36*
X269343D02*X265943D01*
Y322119D01*
X269343D01*
Y326119D01*
G37*
G36*
X248228Y336816D02*Y334056D01*
X253742D01*
Y336816D01*
X248228D01*
G37*
G36*
X265443Y335319D02*X262043D01*
Y331319D01*
X265443D01*
Y335319D01*
G37*
G36*
X284760Y331387D02*Y327987D01*
X288760D01*
Y331387D01*
X284760D01*
G37*
G36*
X293960Y327487D02*Y324087D01*
X297960D01*
Y327487D01*
X293960D01*
G37*
G36*
Y335287D02*Y331887D01*
X297960D01*
Y335287D01*
X293960D01*
G37*
G36*
X303346Y327361D02*Y324601D01*
X308860D01*
Y327361D01*
X303346D01*
G37*
G36*
Y334847D02*Y332087D01*
X308860D01*
Y334847D01*
X303346D01*
G37*
G36*
X227558Y319487D02*Y316727D01*
X233072D01*
Y319487D01*
X227558D01*
G37*
G36*
Y326973D02*Y324213D01*
X233072D01*
Y326973D01*
X227558D01*
G37*
G36*
X274802Y329926D02*Y327166D01*
X280316D01*
Y329926D01*
X274802D01*
G37*
G36*
Y322440D02*Y319680D01*
X280316D01*
Y322440D01*
X274802D01*
G37*
G36*
X209842Y344094D02*Y341334D01*
X215356D01*
Y344094D01*
X209842D01*
G37*
G36*
Y351580D02*Y348820D01*
X215356D01*
Y351580D01*
X209842D01*
G37*
G36*
X201968D02*Y348820D01*
X207482D01*
Y351580D01*
X201968D01*
G37*
G36*
X217716Y344094D02*Y341334D01*
X223230D01*
Y344094D01*
X217716D01*
G37*
G36*
X201968D02*Y341334D01*
X207482D01*
Y344094D01*
X201968D01*
G37*
G36*
X199910Y337705D02*X195760D01*
Y332768D01*
X199910D01*
Y337705D01*
G37*
G36*
Y328650D02*X195760D01*
Y323713D01*
X199910D01*
Y328650D01*
G37*
G36*
X207390D02*X203241D01*
Y323713D01*
X207390D01*
Y328650D01*
G37*
G36*
Y337705D02*X203241D01*
Y332768D01*
X207390D01*
Y337705D01*
G37*
G36*
X209787Y317145D02*Y314745D01*
X213787D01*
Y317145D01*
X209787D01*
G37*
G36*
X199587D02*Y314745D01*
X203587D01*
Y317145D01*
X199587D01*
G37*
G36*
X209787Y313245D02*Y310845D01*
X213787D01*
Y313245D01*
X209787D01*
G37*
G36*
X199587D02*Y310845D01*
X203587D01*
Y313245D01*
X199587D01*
G37*
G36*
X209787Y309345D02*Y306945D01*
X213787D01*
Y309345D01*
X209787D01*
G37*
G36*
X199587D02*Y306945D01*
X203587D01*
Y309345D01*
X199587D01*
G37*
G36*
X228936Y309844D02*X226176D01*
Y304330D01*
X228936D01*
Y309844D01*
G37*
G36*
X290664Y274173D02*Y273071D01*
X295557D01*
Y274173D01*
X290664D01*
G37*
G36*
X295557Y271103D02*X295557Y272205D01*
X290664Y272204D01*
X290664Y271102D01*
X295557Y271103D01*
G37*
G36*
X290664Y270236D02*Y269134D01*
X295557D01*
Y270236D01*
X290664D01*
G37*
G36*
X295557Y267166D02*X295557Y268268D01*
X290664Y268268D01*
X290664Y267166D01*
X295557Y267166D01*
G37*
G36*
X295557Y265197D02*X295557Y266299D01*
X290664Y266299D01*
X290664Y265197D01*
X295557Y265197D01*
G37*
G36*
X295557Y263229D02*X295557Y264331D01*
X290664Y264331D01*
X290664Y263229D01*
X295557Y263229D01*
G37*
G36*
X290664Y262362D02*Y261260D01*
X295557D01*
Y262362D01*
X290664D01*
G37*
G36*
X295557Y259292D02*X295557Y260394D01*
X290664Y260393D01*
X290664Y259291D01*
X295557Y259292D01*
G37*
G36*
X290664Y258425D02*Y257323D01*
X295557D01*
Y258425D01*
X290664D01*
G37*
G36*
X307434Y281969D02*X306332D01*
Y277075D01*
X307434D01*
Y281969D01*
G37*
G36*
X305466Y281969D02*X304364Y281969D01*
X304364Y277075D01*
X305466Y277075D01*
X305466Y281969D01*
G37*
G36*
X303497Y281969D02*X302395D01*
Y277075D01*
X303497D01*
Y281969D01*
G37*
G36*
X301529Y281969D02*X300427Y281969D01*
X300426Y277075D01*
X301528Y277075D01*
X301529Y281969D01*
G37*
G36*
X299560Y281969D02*X298458D01*
Y277075D01*
X299560D01*
Y281969D01*
G37*
G36*
X255511Y295080D02*X252751D01*
Y289566D01*
X255511D01*
Y295080D01*
G37*
G36*
X262997D02*X260237D01*
Y289566D01*
X262997D01*
Y295080D01*
G37*
G36*
X255511Y287206D02*X252751D01*
Y281692D01*
X255511D01*
Y287206D01*
G37*
G36*
X262997D02*X260237D01*
Y281692D01*
X262997D01*
Y287206D01*
G37*
G36*
Y301970D02*X260237D01*
Y296456D01*
X262997D01*
Y301970D01*
G37*
G36*
X255511D02*X252751D01*
Y296456D01*
X255511D01*
Y301970D01*
G37*
G36*
Y266537D02*X252751D01*
Y261023D01*
X255511D01*
Y266537D01*
G37*
G36*
Y273426D02*X252751D01*
Y267912D01*
X255511D01*
Y273426D01*
G37*
G36*
X262997Y266537D02*X260237D01*
Y261023D01*
X262997D01*
Y266537D01*
G37*
G36*
Y273426D02*X260237D01*
Y267912D01*
X262997D01*
Y273426D01*
G37*
G36*
X255511Y280316D02*X252751D01*
Y274802D01*
X255511D01*
Y280316D01*
G37*
G36*
X262997D02*X260237D01*
Y274802D01*
X262997D01*
Y280316D01*
G37*
G36*
X196068Y302954D02*X193308D01*
Y297440D01*
X196068D01*
Y302954D01*
G37*
G36*
X188582D02*X185822D01*
Y297440D01*
X188582D01*
Y302954D01*
G37*
G36*
Y295080D02*X185822D01*
Y289566D01*
X188582D01*
Y295080D01*
G37*
G36*
X196068D02*X193308D01*
Y289566D01*
X196068D01*
Y295080D01*
G37*
G36*
X228936Y302954D02*X226176D01*
Y297440D01*
X228936D01*
Y302954D01*
G37*
G36*
X229130Y295080D02*X226370D01*
Y289566D01*
X229130D01*
Y295080D01*
G37*
G36*
X236422Y302954D02*X233662D01*
Y297440D01*
X236422D01*
Y302954D01*
G37*
G36*
X236616Y295080D02*X233856D01*
Y289566D01*
X236616D01*
Y295080D01*
G37*
G36*
X236422Y309844D02*X233662D01*
Y304330D01*
X236422D01*
Y309844D01*
G37*
G36*
X204784Y275000D02*X203485D01*
Y269095D01*
X204784D01*
Y275000D01*
G37*
G36*
X207343D02*X206044D01*
Y269095D01*
X207343D01*
Y275000D01*
G37*
G36*
X209902D02*X208603D01*
Y269095D01*
X209902D01*
Y275000D01*
G37*
G36*
X212461D02*X211162D01*
Y269095D01*
X212461D01*
Y275000D01*
G37*
G36*
X215020D02*X213721D01*
Y269095D01*
X215020D01*
Y275000D01*
G37*
G36*
X217579D02*X216280D01*
Y269095D01*
X217579D01*
Y275000D01*
G37*
G36*
X220138D02*X218839D01*
Y269095D01*
X220138D01*
Y275000D01*
G37*
G36*
X205314Y259647D02*X202554D01*
Y254133D01*
X205314D01*
Y259647D01*
G37*
G36*
Y251773D02*X202554D01*
Y246259D01*
X205314D01*
Y251773D01*
G37*
G36*
X212800Y259647D02*X210040D01*
Y254133D01*
X212800D01*
Y259647D01*
G37*
G36*
Y251773D02*X210040D01*
Y246259D01*
X212800D01*
Y251773D01*
G37*
G36*
X188188Y259448D02*Y256688D01*
X193702D01*
Y259448D01*
X188188D01*
G37*
G36*
X179330D02*Y256688D01*
X184844D01*
Y259448D01*
X179330D01*
G37*
G36*
X188188Y266934D02*Y264174D01*
X193702D01*
Y266934D01*
X188188D01*
G37*
G36*
X179330Y275196D02*Y272436D01*
X184844D01*
Y275196D01*
X179330D01*
G37*
G36*
Y266934D02*Y264174D01*
X184844D01*
Y266934D01*
X179330D01*
G37*
G36*
X220138Y298228D02*X218839D01*
Y292323D01*
X220138D01*
Y298228D01*
G37*
G36*
X217579D02*X216280D01*
Y292323D01*
X217579D01*
Y298228D01*
G37*
G36*
X215020D02*X213721D01*
Y292323D01*
X215020D01*
Y298228D01*
G37*
G36*
X212461D02*X211162D01*
Y292323D01*
X212461D01*
Y298228D01*
G37*
G36*
X209902D02*X208603D01*
Y292323D01*
X209902D01*
Y298228D01*
G37*
G36*
X207343D02*X206044D01*
Y292323D01*
X207343D01*
Y298228D01*
G37*
G36*
X204784D02*X203485D01*
Y292323D01*
X204784D01*
Y298228D01*
G37*
G36*
X188188Y275196D02*Y272436D01*
X193702D01*
Y275196D01*
X188188D01*
G37*
G36*
Y282682D02*Y279922D01*
X193702D01*
Y282682D01*
X188188D01*
G37*
G36*
X179330D02*Y279922D01*
X184844D01*
Y282682D01*
X179330D01*
G37*
G36*
X262997Y259647D02*X260237D01*
Y254133D01*
X262997D01*
Y259647D01*
G37*
G36*
X255511D02*X252751D01*
Y254133D01*
X255511D01*
Y259647D01*
G37*
G36*
X262997Y243899D02*X260237D01*
Y238385D01*
X262997D01*
Y243899D01*
G37*
G36*
X255511D02*X252751D01*
Y238385D01*
X255511D01*
Y243899D01*
G37*
G36*
X262997Y252757D02*X260237D01*
Y247243D01*
X262997D01*
Y252757D01*
G37*
G36*
X255511D02*X252751D01*
Y247243D01*
X255511D01*
Y252757D01*
G37*
G36*
X313340Y248517D02*X312238Y248517D01*
X312239Y243623D01*
X313341Y243623D01*
X313340Y248517D01*
G37*
G36*
X315309Y248517D02*X314207Y248517D01*
X314208Y243623D01*
X315310Y243623D01*
X315309Y248517D01*
G37*
G36*
X317277Y248517D02*X316175Y248517D01*
X316176Y243623D01*
X317278Y243623D01*
X317277Y248517D01*
G37*
G36*
X319246Y248517D02*X318144Y248517D01*
X318145Y243623D01*
X319247Y243623D01*
X319246Y248517D01*
G37*
G36*
X319245Y281969D02*X318143D01*
Y277075D01*
X319245D01*
Y281969D01*
G37*
G36*
X317277Y281969D02*X316175Y281969D01*
X316175Y277075D01*
X317277Y277075D01*
X317277Y281969D01*
G37*
G36*
X315308Y281969D02*X314206D01*
Y277075D01*
X315308D01*
Y281969D01*
G37*
G36*
X313340Y281969D02*X312238Y281969D01*
X312238Y277075D01*
X313340Y277075D01*
X313340Y281969D01*
G37*
G36*
X311371Y281969D02*X310269D01*
Y277075D01*
X311371D01*
Y281969D01*
G37*
G36*
X309403Y281969D02*X308301Y281969D01*
X308301Y277075D01*
X309403Y277075D01*
X309403Y281969D01*
G37*
G36*
X295557Y255355D02*X295557Y256457D01*
X290664Y256456D01*
X290664Y255354D01*
X295557Y255355D01*
G37*
G36*
X290664Y254488D02*Y253386D01*
X295557D01*
Y254488D01*
X290664D01*
G37*
G36*
X295557Y251418D02*X295557Y252520D01*
X290664Y252519D01*
X290664Y251417D01*
X295557Y251418D01*
G37*
G36*
X299562Y248517D02*X298460D01*
Y243623D01*
X299562D01*
Y248517D01*
G37*
G36*
X301529Y248517D02*X300427Y248517D01*
X300428Y243623D01*
X301530Y243624D01*
X301529Y248517D01*
G37*
G36*
X303499Y248517D02*X302397D01*
Y243623D01*
X303499D01*
Y248517D01*
G37*
G36*
X305466Y248517D02*X304364Y248517D01*
X304365Y243623D01*
X305467Y243623D01*
X305466Y248517D01*
G37*
G36*
X307435Y248517D02*X306333Y248517D01*
X306334Y243623D01*
X307436Y243623D01*
X307435Y248517D01*
G37*
G36*
X309403Y248517D02*X308301Y248517D01*
X308302Y243623D01*
X309404Y243623D01*
X309403Y248517D01*
G37*
G36*
X311372Y248517D02*X310270Y248517D01*
X310271Y243623D01*
X311373Y243623D01*
X311372Y248517D01*
G37*
G36*
X308267Y240359D02*Y237599D01*
X313781D01*
Y240359D01*
X308267D01*
G37*
G36*
Y232873D02*Y230113D01*
X313781D01*
Y232873D01*
X308267D01*
G37*
G36*
X308555Y221957D02*Y217020D01*
X314673D01*
Y221957D01*
X308555D01*
G37*
G36*
X300393Y240359D02*Y237599D01*
X305907D01*
Y240359D01*
X300393D01*
G37*
G36*
Y232873D02*Y230113D01*
X305907D01*
Y232873D01*
X300393D01*
G37*
G36*
X297138Y221957D02*Y217020D01*
X303256D01*
Y221957D01*
X297138D01*
G37*
G54D25*X329134Y380709D03*
Y368504D03*
G54D26*Y338977D03*
Y326772D03*
G54D16*G36*
X417823Y370185D02*X414461D01*
Y364461D01*
X417823D01*
Y370185D01*
G37*
G36*
X426878D02*X423516D01*
Y364461D01*
X426878D01*
Y370185D01*
G37*
G54D25*X419291Y380709D03*
G54D16*G36*
X409736Y357587D02*Y354224D01*
X417035D01*
Y357587D01*
X409736D01*
G37*
G36*
Y363492D02*Y360130D01*
X417035D01*
Y363492D01*
X409736D01*
G37*
G36*
X396849Y345674D02*Y342914D01*
X402363D01*
Y345674D01*
X396849D01*
G37*
G36*
Y338188D02*Y335428D01*
X402363D01*
Y338188D01*
X396849D01*
G37*
G36*
X387991D02*Y335428D01*
X393505D01*
Y338188D01*
X387991D01*
G37*
G36*
Y345674D02*Y342914D01*
X393505D01*
Y345674D01*
X387991D01*
G37*
G36*
X365747Y352166D02*X362987D01*
Y346652D01*
X365747D01*
Y352166D01*
G37*
G36*
X352558Y360826D02*Y358066D01*
X358072D01*
Y360826D01*
X352558D01*
G37*
G36*
Y368312D02*Y365552D01*
X358072D01*
Y368312D01*
X352558D01*
G37*
G36*
X368789Y368783D02*X365389D01*
Y364783D01*
X368789D01*
Y368783D01*
G37*
G36*
X364889Y359583D02*X361489D01*
Y355583D01*
X364889D01*
Y359583D01*
G37*
G36*
X373233Y352166D02*X370473D01*
Y346652D01*
X373233D01*
Y352166D01*
G37*
G36*
X372689Y359583D02*X369289D01*
Y355583D01*
X372689D01*
Y359583D01*
G37*
G54D27*X167323Y222441D03*
G54D28*X206693Y263780D03*
G54D29*X211614Y241142D03*
X333661Y249016D03*
G54D30*X353346Y238189D03*
G54D29*X343504Y255906D03*
G54D30*X353346Y246063D03*
G54D29*X250000Y242126D03*
G54D28*X215551Y263780D03*
G54D31*X293307Y246063D03*
G54D29*X311024Y227362D03*
G54D27*X419291Y301181D03*
G54D29*X337598Y289370D03*
X343504Y227362D03*
X301181Y285433D03*
G54D31*X323819Y309055D03*
G54D23*X314961Y331693D03*
G54D29*X314961Y308071D03*
X309055Y288386D03*
X320859Y286411D03*
G54D28*X291339Y279528D03*
X272638Y316929D03*
G54D27*X167323Y379921D03*
G54D31*X220473Y337598D03*
G54D28*X194882Y316929D03*
G54D29*X215551Y321850D03*
G54D31*X250985Y322835D03*
G54D29*X217520Y308071D03*
G54D28*X240157D03*
X194882D03*
G54D29*X225394Y283465D03*
G54D28*X240157Y301181D03*
Y295276D03*
X249016Y277559D03*
G54D32*G54D12*G54D33*G54D12*G54D33*G54D12*G54D33*G54D12*G54D32*G54D12*G54D33*G54D34*G54D12*G54D32*G54D33*G54D12*G54D33*G54D12*G54D35*G54D19*G54D18*G54D19*G54D35*G54D36*G54D19*G54D37*G54D12*G54D19*G54D36*G54D19*M02*
