M48
INCH
T71C0.030
T70C0.024
T69C0.135
T68C0.020
T67C0.039
T66C0.028
T65C0.032
T64C0.034
T63C0.038
%
T68
X019488Y031693
X019488Y030807
X020669Y026378
X021161Y024114
X021555Y032185
X021555Y026378
X021752Y030807
X022539Y028346
X024016Y030807
X024016Y030118
X024016Y029528
X024902Y027756
X025000Y024213
X026575Y029114
X026575Y028642
X027264Y031693
X029134Y027953
X030118Y028543
X030906Y028839
X031102Y022736
X031496Y030807
X032086Y028641
X033366Y024902
X033760Y028937
X034350Y025591
X034350Y022736
T70
X022047Y033760
X025098Y032283
X029331Y024606
X032382Y030906
X035335Y024606
X035335Y023819
T66
X027756Y026886
X027756Y024886
T71
X031496Y033169
T65
X042067Y034744
X042087Y035886
T64
X016482Y031742
X016482Y030742
X016482Y029742
X017482Y031742
X017482Y030742
X017482Y029742
X019937Y021850
X020937Y021850
X021937Y021850
X022937Y021850
X023937Y021850
X024937Y023031
X024937Y021850
X025937Y023031
X025937Y021850
X026937Y023031
X026937Y021850
X027937Y023031
X027937Y021850
X028134Y029862
X028937Y023031
X028937Y021850
X029134Y029862
X032913Y038071
X032913Y036850
X032913Y033898
X032913Y032677
X036024Y030921
X036024Y029921
X037024Y030921
X037024Y029921
X038024Y030921
X038024Y029921
X039024Y030921
X039024Y029921
X041929Y038071
X041929Y032677
T63
X041181Y026315
X041181Y023181
T67
X029134Y035630
X030118Y035630
T69
X016732Y037992
X016732Y022244
X041929Y030118
M30
