G04 start of page 8 for group -4079 idx -4079 *
G04 Title: (unknown), topsilk *
G04 Creator: pcb 4.2.2 *
G04 CreationDate: Fri Aug 14 03:10:47 2020 UTC *
G04 For: harold *
G04 Format: Gerber/RS-274X *
G04 PCB-Dimensions (mil): 6000.00 5000.00 *
G04 PCB-Coordinate-Origin: lower left *
%MOIN*%
%FSLAX25Y25*%
%LNTOPSILK*%
%ADD98C,0.0080*%
%ADD97C,0.0102*%
%ADD96C,0.0100*%
G54D96*X398622Y371526D02*Y366546D01*
Y371526D02*X399452Y372356D01*
X401112D01*
X401942Y371526D01*
Y366546D01*
X401112Y365716D02*X401942Y366546D01*
X399452Y365716D02*X401112D01*
X398622Y366546D02*X399452Y365716D01*
X403934Y372356D02*Y365716D01*
Y372356D02*X408084Y365716D01*
Y372356D02*Y365716D01*
X398622Y332156D02*Y327176D01*
Y332156D02*X399452Y332986D01*
X401112D01*
X401942Y332156D01*
Y327176D01*
X401112Y326346D02*X401942Y327176D01*
X399452Y326346D02*X401112D01*
X398622Y327176D02*X399452Y326346D01*
X403934Y332986D02*Y326346D01*
Y332986D02*X407254D01*
X403934Y329998D02*X406424D01*
X409246Y332986D02*Y326346D01*
Y332986D02*X412566D01*
X409246Y329998D02*X411736D01*
X387795Y321674D02*X388510Y322389D01*
X389940D01*
X390655Y321674D01*
X389940Y316669D02*X390655Y317384D01*
X388510Y316669D02*X389940D01*
X387795Y317384D02*X388510Y316669D01*
Y319815D02*X389940D01*
X390655Y321674D02*Y320530D01*
Y319100D02*Y317384D01*
Y319100D02*X389940Y319815D01*
X390655Y320530D02*X389940Y319815D01*
X392371Y319529D02*X393801Y316669D01*
X395231Y319529D02*X393801Y316669D01*
X396947Y321674D02*X397662Y322389D01*
X399092D01*
X399807Y321674D01*
X399092Y316669D02*X399807Y317384D01*
X397662Y316669D02*X399092D01*
X396947Y317384D02*X397662Y316669D01*
Y319815D02*X399092D01*
X399807Y321674D02*Y320530D01*
Y319100D02*Y317384D01*
Y319100D02*X399092Y319815D01*
X399807Y320530D02*X399092Y319815D01*
X379829Y322389D02*Y316669D01*
X379114D02*X379829Y317384D01*
X377684Y316669D02*X379114D01*
X376969Y317384D02*X377684Y316669D01*
X376969Y318814D02*Y317384D01*
Y318814D02*X377684Y319529D01*
X379114D01*
X379829Y318814D01*
X381545Y320959D02*Y320816D01*
Y318814D02*Y316669D01*
X382975Y318814D02*Y317384D01*
Y318814D02*X383690Y319529D01*
X385120D01*
X385835Y318814D01*
Y317384D01*
X385120Y316669D02*X385835Y317384D01*
X383690Y316669D02*X385120D01*
X382975Y317384D02*X383690Y316669D01*
X173228Y332231D02*X176088D01*
X176803Y331516D01*
Y330086D01*
X176088Y329371D02*X176803Y330086D01*
X173943Y329371D02*X176088D01*
X173943Y332231D02*Y326511D01*
X175087Y329371D02*X176803Y326511D01*
X165354Y332231D02*Y326511D01*
X168214D01*
X159449Y289909D02*X162309D01*
X159449D02*Y287049D01*
X160164Y287764D01*
X161594D01*
X162309Y287049D01*
Y284904D01*
X161594Y284189D02*X162309Y284904D01*
X160164Y284189D02*X161594D01*
X159449Y284904D02*X160164Y284189D01*
X164025Y289909D02*X165455Y284189D01*
X166885Y289909D01*
X365715Y319371D02*X367860D01*
X365000Y318656D02*X365715Y319371D01*
X365000Y318656D02*Y317226D01*
X365715Y316511D01*
X367860D01*
X369576Y322231D02*Y317226D01*
X370291Y316511D01*
X371721Y322231D02*Y316511D01*
Y318656D02*X373866Y316511D01*
X371721Y318656D02*X373151Y320086D01*
X360143Y322389D02*X360858Y321674D01*
X357998Y322389D02*X360143D01*
X357283Y321674D02*X357998Y322389D01*
X357283Y321674D02*Y317384D01*
X357998Y316669D01*
X360143D01*
X360858Y317384D01*
Y318814D02*Y317384D01*
X360143Y319529D02*X360858Y318814D01*
X358713Y319529D02*X360143D01*
X304134Y339497D02*X308774D01*
X306454Y341817D02*Y337177D01*
G54D97*X284449Y339821D02*X289529D01*
G54D96*X361128Y292861D02*X361843Y292146D01*
X358983Y292861D02*X361128D01*
X358268Y292146D02*X358983Y292861D01*
X358268Y292146D02*Y287856D01*
X358983Y287141D01*
X361128D01*
X361843Y287856D01*
Y289286D02*Y287856D01*
X361128Y290001D02*X361843Y289286D01*
X359698Y290001D02*X361128D01*
X344935Y224678D02*X345785Y223828D01*
X342385Y224678D02*X344935D01*
X341535Y223828D02*X342385Y224678D01*
X341535Y223828D02*Y222128D01*
X342385Y221278D01*
X344935D01*
X345785Y220428D01*
Y218728D01*
X344935Y217878D02*X345785Y218728D01*
X342385Y217878D02*X344935D01*
X341535Y218728D02*X342385Y217878D01*
X348675Y224678D02*Y217878D01*
X350885Y224678D02*X352075Y223488D01*
Y219068D01*
X350885Y217878D02*X352075Y219068D01*
X347825Y217878D02*X350885D01*
X347825Y224678D02*X350885D01*
X376969Y293091D02*X379369D01*
X379969Y292491D01*
Y291291D01*
X379369Y290691D02*X379969Y291291D01*
X377569Y290691D02*X379369D01*
X377569Y293091D02*Y288291D01*
X378529Y290691D02*X379969Y288291D01*
X381409Y290691D02*X383809Y288291D01*
X381409D02*X383809Y290691D01*
X367126Y293091D02*X369526D01*
X368326D02*Y288291D01*
X370966Y290691D02*X373366Y288291D01*
X370966D02*X373366Y290691D01*
X387795Y293091D02*Y288291D01*
Y293091D02*X390795Y288291D01*
Y293091D02*Y288291D01*
X393075D02*X394635D01*
X392235Y289131D02*X393075Y288291D01*
X392235Y292251D02*Y289131D01*
Y292251D02*X393075Y293091D01*
X394635D01*
X248426Y341535D02*X271654D01*
X248426Y366732D02*Y341535D01*
Y366732D02*X271654D01*
Y341535D01*
X248230Y332086D02*Y331300D01*
X253740Y332086D02*Y331300D01*
X242913Y322243D02*Y321457D01*
X237403Y322243D02*Y321457D01*
X227560Y322243D02*Y321457D01*
X233070Y322243D02*Y321457D01*
X281693Y369685D02*X310827D01*
Y347047D01*
X281693Y369685D02*Y347047D01*
X291339D01*
X301182D02*X310827D01*
X257343Y335619D02*X270143D01*
Y321719D01*
X257343D02*X270143D01*
X257343Y335619D02*Y321719D01*
X284460Y336087D02*Y323287D01*
Y336087D02*X298360D01*
Y323287D01*
X284460D02*X298360D01*
X303348Y330117D02*Y329331D01*
X308858Y330117D02*Y329331D01*
X280314Y325196D02*Y324410D01*
X274804Y325196D02*Y324410D01*
X246850Y384449D02*X266535D01*
Y373425D01*
X246850D01*
Y384449D01*
X254528Y378937D02*X258661Y374803D01*
Y383071D01*
X254528Y378937D02*X258661Y383071D01*
X357481Y242519D02*Y241733D01*
X362991Y242519D02*Y241733D01*
X344686Y271062D02*Y270276D01*
X350196Y271062D02*Y270276D01*
X372442Y280118D02*Y222244D01*
Y280118D02*X429528D01*
Y222244D01*
X372442D02*X429528D01*
X352560Y271062D02*Y270276D01*
X358070Y271062D02*Y270276D01*
X360434Y271062D02*Y270276D01*
X365944Y271062D02*Y270276D01*
X336812Y271062D02*Y270276D01*
X342322Y271062D02*Y270276D01*
X343702Y242519D02*Y241733D01*
X349212Y242519D02*Y241733D01*
X324410Y223227D02*X325196D01*
X324410Y217717D02*X325196D01*
X324410Y231101D02*X325196D01*
X324410Y225591D02*X325196D01*
X324410Y238975D02*X325196D01*
X324410Y233465D02*X325196D01*
X334114Y231783D02*X339114D01*
X336614Y232783D02*Y231783D01*
X339369Y242519D02*Y241733D01*
X333859Y242519D02*Y241733D01*
G54D98*X299357Y276175D02*X323215D01*
Y249417D01*
X296457D01*
Y273275D01*
X299357Y276175D01*
X298357Y273275D02*G75*G03X298357Y273275I1000J0D01*G01*
G54D96*X305905Y235629D02*Y234843D01*
X300395Y235629D02*Y234843D01*
X313779Y235629D02*Y234843D01*
X308269Y235629D02*Y234843D01*
X296063Y225000D02*X315748D01*
Y213976D01*
X296063D01*
Y225000D01*
X303740Y219488D02*X307874Y215354D01*
Y223622D01*
X303740Y219488D02*X307874Y223622D01*
X360689Y282980D02*X365689D01*
X363189D02*Y281980D01*
X352815Y282980D02*X357815D01*
X355315D02*Y281980D01*
X208269Y361023D02*X209055D01*
X208269Y355513D02*X209055D01*
X202225Y380894D02*X215025D01*
Y366994D01*
X202225D02*X215025D01*
X202225Y380894D02*Y366994D01*
X217718Y374409D02*Y373623D01*
X223228Y374409D02*Y373623D01*
X228544Y377362D02*Y372638D01*
X236024Y377362D02*Y372638D01*
X243115Y359283D02*Y347483D01*
X229215D02*X243115D01*
X229215Y359283D02*Y347483D01*
Y359283D02*X243115D01*
X233859Y341338D02*X238583D01*
X233859Y333858D02*X238583D01*
X230906Y302952D02*X231692D01*
X230906Y297442D02*X231692D01*
X230906Y309842D02*X231692D01*
X230906Y304332D02*X231692D01*
X231100Y295078D02*X231886D01*
X231100Y289568D02*X231886D01*
X209844Y346850D02*Y346064D01*
X215354Y346850D02*Y346064D01*
X217718Y346850D02*Y346064D01*
X223228Y346850D02*Y346064D01*
X201970Y346850D02*Y346064D01*
X207480Y346850D02*Y346064D01*
X194882Y335827D02*Y322835D01*
X198032Y338583D02*X208268D01*
Y322835D01*
X194882D02*X208268D01*
X213587Y317945D02*Y306145D01*
X199687D02*X213587D01*
X199687Y317945D02*Y306145D01*
Y317945D02*X213587D01*
X169823Y322421D02*Y292421D01*
X179823D01*
Y322421D01*
X169823D01*
Y312421D02*X179823D01*
X159823Y322421D02*Y292421D01*
X169823D01*
Y322421D01*
X159823D01*
Y312421D02*X169823D01*
X190552Y297442D02*X191338D01*
X190552Y302952D02*X191338D01*
X190552Y289568D02*X191338D01*
X190552Y295078D02*X191338D01*
X202485Y268095D02*X221137D01*
Y299227D02*Y268095D01*
X202485Y299227D02*X221137D01*
X202485Y281161D02*Y268095D01*
Y299227D02*Y286161D01*
Y281161D02*G75*G03X202485Y286161I0J2500D01*G01*
X207284Y259645D02*X208070D01*
X207284Y254135D02*X208070D01*
X188190Y277952D02*Y277166D01*
X193700Y277952D02*Y277166D01*
X188190Y262204D02*Y261418D01*
X193700Y262204D02*Y261418D01*
X179332Y277952D02*Y277166D01*
X184842Y277952D02*Y277166D01*
X179332Y262204D02*Y261418D01*
X184842Y262204D02*Y261418D01*
X425984Y364173D02*Y342126D01*
X418110Y340157D02*X423228D01*
X415354Y353937D02*Y346457D01*
X431496Y352362D02*Y347244D01*
X425984D02*X431496D01*
X425984Y352362D02*X431496D01*
X418110Y366142D02*X423228D01*
X415354Y359843D02*Y357874D01*
X355236Y314213D02*X395236D01*
X355236D02*Y304213D01*
X395236D01*
Y314213D02*Y304213D01*
X385236Y314213D02*Y304213D01*
X355236D02*X395236D01*
X355236D02*Y294213D01*
X395236D01*
Y304213D02*Y294213D01*
X385236Y304213D02*Y294213D01*
X360689Y369083D02*X373489D01*
Y355183D01*
X360689D02*X373489D01*
X360689Y369083D02*Y355183D01*
X402361Y340944D02*Y340158D01*
X396851Y340944D02*Y340158D01*
X393503Y340944D02*Y340158D01*
X387993Y340944D02*Y340158D01*
X331166Y304123D02*X318366D01*
X331166Y290223D02*Y304123D01*
X318366Y290223D02*X331166D01*
X318366Y304123D02*Y290223D01*
X329735Y320339D02*Y307539D01*
Y320339D02*X343635D01*
Y307539D01*
X329735D02*X343635D01*
X367717Y352164D02*X368503D01*
X367717Y346654D02*X368503D01*
X352560Y363582D02*Y362796D01*
X358070Y363582D02*Y362796D01*
X194370Y223504D02*X294370D01*
X194370D02*Y213504D01*
X294370D01*
Y223504D02*Y213504D01*
X284370Y223504D02*Y213504D01*
X244370Y235315D02*X294370D01*
X244370D02*Y225315D01*
X294370D01*
Y235315D02*Y225315D01*
X284370Y235315D02*Y225315D01*
X257481Y254135D02*X258267D01*
X257481Y259645D02*X258267D01*
X257481Y247245D02*X258267D01*
X257481Y252755D02*X258267D01*
X257481Y266535D02*X258267D01*
X257481Y261025D02*X258267D01*
X257481Y273424D02*X258267D01*
X257481Y267914D02*X258267D01*
X257481Y238387D02*X258267D01*
X257481Y243897D02*X258267D01*
X207284Y251771D02*X208070D01*
X207284Y246261D02*X208070D01*
X287559Y271358D02*Y246358D01*
X267559Y271358D02*Y246358D01*
X287559Y271358D02*G75*G03X277559Y281358I-10000J0D01*G01*
G75*G03X267559Y271358I0J-10000D01*G01*
Y246358D02*G75*G03X277559Y236358I10000J0D01*G01*
G75*G03X287559Y246358I0J10000D01*G01*
X272047Y284449D02*X296850D01*
X272047Y293110D02*Y284449D01*
Y293110D02*X296850D01*
Y284449D01*
X296339Y303622D02*Y293622D01*
X276339Y303622D02*X296339D01*
X276339D02*Y293622D01*
X296339D01*
X286339Y303622D02*X296339D01*
X286339D02*Y293622D01*
X257481Y295078D02*X258267D01*
X257481Y289568D02*X258267D01*
X257481Y287204D02*X258267D01*
X257481Y281694D02*X258267D01*
X257481Y296458D02*X258267D01*
X257481Y301968D02*X258267D01*
X257481Y280314D02*X258267D01*
X257481Y274804D02*X258267D01*
X210149Y335748D02*X211449D01*
X209449Y336448D02*X210149Y335748D01*
X209449Y339048D02*Y336448D01*
Y339048D02*X210149Y339748D01*
X211449D01*
X212649D02*X214649D01*
X212649D02*Y337748D01*
X213149Y338248D01*
X214149D01*
X214649Y337748D01*
Y336248D01*
X214149Y335748D02*X214649Y336248D01*
X213149Y335748D02*X214149D01*
X212649Y336248D02*X213149Y335748D01*
X196850Y360220D02*X198850D01*
X199350Y359720D01*
Y358720D01*
X198850Y358220D02*X199350Y358720D01*
X197350Y358220D02*X198850D01*
X197350Y360220D02*Y356220D01*
X198150Y358220D02*X199350Y356220D01*
X202050Y360220D02*X202550Y359720D01*
X201050Y360220D02*X202050D01*
X200550Y359720D02*X201050Y360220D01*
X200550Y359720D02*Y356720D01*
X201050Y356220D01*
X202050Y358420D02*X202550Y357920D01*
X200550Y358420D02*X202050D01*
X201050Y356220D02*X202050D01*
X202550Y356720D01*
Y357920D02*Y356720D01*
X204725Y386795D02*Y383295D01*
X205225Y382795D01*
X206225D01*
X206725Y383295D01*
Y386795D02*Y383295D01*
X207925Y384295D02*X209925Y386795D01*
X207925Y384295D02*X210425D01*
X209925Y386795D02*Y382795D01*
X216339Y384040D02*X218339D01*
X218839Y383540D01*
Y382540D01*
X218339Y382040D02*X218839Y382540D01*
X216839Y382040D02*X218339D01*
X216839Y384040D02*Y380040D01*
X217639Y382040D02*X218839Y380040D01*
X220039Y383540D02*X220539Y384040D01*
X221539D01*
X222039Y383540D01*
X221539Y380040D02*X222039Y380540D01*
X220539Y380040D02*X221539D01*
X220039Y380540D02*X220539Y380040D01*
Y382240D02*X221539D01*
X222039Y383540D02*Y382740D01*
Y381740D02*Y380540D01*
Y381740D02*X221539Y382240D01*
X222039Y382740D02*X221539Y382240D01*
X193898Y348409D02*X195898D01*
X196398Y347909D01*
Y346909D01*
X195898Y346409D02*X196398Y346909D01*
X194398Y346409D02*X195898D01*
X194398Y348409D02*Y344409D01*
X195198Y346409D02*X196398Y344409D01*
X198098D02*X200098Y348409D01*
X197598D02*X200098D01*
X237905Y372953D02*X239205D01*
X237205Y373653D02*X237905Y372953D01*
X237205Y376253D02*Y373653D01*
Y376253D02*X237905Y376953D01*
X239205D01*
X240405Y376453D02*X240905Y376953D01*
X242405D01*
X242905Y376453D01*
Y375453D01*
X240405Y372953D02*X242905Y375453D01*
X240405Y372953D02*X242905D01*
X235236Y365142D02*Y361642D01*
X235736Y361142D01*
X236736D01*
X237236Y361642D01*
Y365142D02*Y361642D01*
X238436Y364342D02*X239236Y365142D01*
Y361142D01*
X238436D02*X239936D01*
X159158Y328734D02*X159950D01*
Y325269D01*
X159455Y324774D02*X159950Y325269D01*
X158960Y324774D02*X159455D01*
X158465Y325269D02*X158960Y324774D01*
X158465Y325764D02*Y325269D01*
X161633Y324774D02*X163613Y328734D01*
X161138D02*X163613D01*
X408496Y352346D02*X408996Y351846D01*
X406996Y352346D02*X408496D01*
X406496Y351846D02*X406996Y352346D01*
X406496Y351846D02*Y350846D01*
X406996Y350346D01*
X408496D01*
X408996Y349846D01*
Y348846D01*
X408496Y348346D02*X408996Y348846D01*
X406996Y348346D02*X408496D01*
X406496Y348846D02*X406996Y348346D01*
X410196Y351546D02*X410996Y352346D01*
Y348346D01*
X410196D02*X411696D01*
X398771Y311756D02*X399571D01*
Y308256D01*
X399071Y307756D02*X399571Y308256D01*
X398571Y307756D02*X399071D01*
X398071Y308256D02*X398571Y307756D01*
X398071Y308756D02*Y308256D01*
X400771Y311256D02*X401271Y311756D01*
X402771D01*
X403271Y311256D01*
Y310256D01*
X400771Y307756D02*X403271Y310256D01*
X400771Y307756D02*X403271D01*
X398771Y301087D02*X399571D01*
Y297587D01*
X399071Y297087D02*X399571Y297587D01*
X398571Y297087D02*X399071D01*
X398071Y297587D02*X398571Y297087D01*
X398071Y298087D02*Y297587D01*
X400771Y300287D02*X401571Y301087D01*
Y297087D01*
X400771D02*X402271D01*
X395669Y351362D02*Y347362D01*
X397669D01*
X398869Y351362D02*X400869D01*
X398869D02*Y349362D01*
X399369Y349862D01*
X400369D01*
X400869Y349362D01*
Y347862D01*
X400369Y347362D02*X400869Y347862D01*
X399369Y347362D02*X400369D01*
X398869Y347862D02*X399369Y347362D01*
X357268Y263780D02*Y261780D01*
X356768Y261280D01*
X355768D02*X356768D01*
X355268Y261780D02*X355768Y261280D01*
X355268Y263280D02*Y261780D01*
X353268Y263280D02*X357268D01*
X355268Y262480D02*X353268Y261280D01*
X356468Y260080D02*X357268Y259280D01*
X353268D02*X357268D01*
X353268Y260080D02*Y258580D01*
X354768Y257380D02*X357268Y255380D01*
X354768Y257380D02*Y254880D01*
X353268Y255380D02*X357268D01*
X351881Y370197D02*X353181D01*
X351181Y370897D02*X351881Y370197D01*
X351181Y373497D02*Y370897D01*
Y373497D02*X351881Y374197D01*
X353181D01*
X354381Y373397D02*X355181Y374197D01*
Y370197D01*
X354381D02*X355881D01*
X357581D02*X359581Y374197D01*
X357081D02*X359581D01*
X363189Y374984D02*Y371484D01*
X363689Y370984D01*
X364689D01*
X365189Y371484D01*
Y374984D02*Y371484D01*
X366889Y370984D02*X368389Y372984D01*
Y374484D02*Y372984D01*
X367889Y374984D02*X368389Y374484D01*
X366889Y374984D02*X367889D01*
X366389Y374484D02*X366889Y374984D01*
X366389Y374484D02*Y373484D01*
X366889Y372984D01*
X368389D01*
X345472Y315099D02*Y311439D01*
Y315099D02*X346082Y315709D01*
X347302D01*
X347912Y315099D01*
Y312049D01*
X346692Y310829D02*X347912Y312049D01*
X346082Y310829D02*X346692D01*
X345472Y311439D02*X346082Y310829D01*
X346692Y312659D02*X347912Y310829D01*
X349376Y315099D02*X349986Y315709D01*
X351816D01*
X352426Y315099D01*
Y313879D01*
X349376Y310829D02*X352426Y313879D01*
X349376Y310829D02*X352426D01*
X363889Y341457D02*X365189D01*
X363189Y342157D02*X363889Y341457D01*
X363189Y344757D02*Y342157D01*
Y344757D02*X363889Y345457D01*
X365189D01*
X366389Y344957D02*X366889Y345457D01*
X368389D01*
X368889Y344957D01*
Y343957D01*
X366389Y341457D02*X368889Y343957D01*
X366389Y341457D02*X368889D01*
X370089Y341957D02*X370589Y341457D01*
X370089Y344957D02*Y341957D01*
Y344957D02*X370589Y345457D01*
X371589D01*
X372089Y344957D01*
Y341957D01*
X371589Y341457D02*X372089Y341957D01*
X370589Y341457D02*X371589D01*
X370089Y342457D02*X372089Y344457D01*
X385827Y351362D02*Y347362D01*
X387827D01*
X389027Y348862D02*X391027Y351362D01*
X389027Y348862D02*X391527D01*
X391027Y351362D02*Y347362D01*
X368110Y286402D02*Y282402D01*
X370110D01*
X371310Y284602D02*X372810D01*
X371310Y282402D02*X373310D01*
X371310Y286402D02*Y282402D01*
Y286402D02*X373310D01*
X375010D02*Y282402D01*
X376310Y286402D02*X377010Y285702D01*
Y283102D01*
X376310Y282402D02*X377010Y283102D01*
X374510Y282402D02*X376310D01*
X374510Y286402D02*X376310D01*
X378210Y285902D02*X378710Y286402D01*
X379710D01*
X380210Y285902D01*
X379710Y282402D02*X380210Y282902D01*
X378710Y282402D02*X379710D01*
X378210Y282902D02*X378710Y282402D01*
Y284602D02*X379710D01*
X380210Y285902D02*Y285102D01*
Y284102D02*Y282902D01*
Y284102D02*X379710Y284602D01*
X380210Y285102D02*X379710Y284602D01*
X347362Y288386D02*X351362D01*
X347362D02*Y286386D01*
X349562Y285186D02*Y283686D01*
X347362Y285186D02*Y283186D01*
Y285186D02*X351362D01*
Y283186D01*
X347362Y281486D02*X351362D01*
Y280186D02*X350662Y279486D01*
X348062D02*X350662D01*
X347362Y280186D02*X348062Y279486D01*
X347362Y281986D02*Y280186D01*
X351362Y281986D02*Y280186D01*
X350562Y278286D02*X351362Y277486D01*
X347362D02*X351362D01*
X347362Y278286D02*Y276786D01*
X274607Y351362D02*Y347362D01*
X276607D01*
X277807Y350562D02*X278607Y351362D01*
Y347362D01*
X277807D02*X279307D01*
X293307Y342658D02*Y338998D01*
Y342658D02*X293917Y343268D01*
X295137D01*
X295747Y342658D01*
Y339608D01*
X294527Y338388D02*X295747Y339608D01*
X293917Y338388D02*X294527D01*
X293307Y338998D02*X293917Y338388D01*
X294527Y340218D02*X295747Y338388D01*
X297211Y342658D02*X297821Y343268D01*
X299041D01*
X299651Y342658D01*
X299041Y338388D02*X299651Y338998D01*
X297821Y338388D02*X299041D01*
X297211Y338998D02*X297821Y338388D01*
Y341072D02*X299041D01*
X299651Y342658D02*Y341682D01*
Y340462D02*Y338998D01*
Y340462D02*X299041Y341072D01*
X299651Y341682D02*X299041Y341072D01*
X302165Y322819D02*X304165D01*
X304665Y322319D01*
Y321319D01*
X304165Y320819D02*X304665Y321319D01*
X302665Y320819D02*X304165D01*
X302665Y322819D02*Y318819D01*
X303465Y320819D02*X304665Y318819D01*
X305865Y322019D02*X306665Y322819D01*
Y318819D01*
X305865D02*X307365D01*
X308565Y322319D02*X309065Y322819D01*
X310565D01*
X311065Y322319D01*
Y321319D01*
X308565Y318819D02*X311065Y321319D01*
X308565Y318819D02*X311065D01*
X313692Y375969D02*X314492D01*
Y372469D01*
X313992Y371969D02*X314492Y372469D01*
X313492Y371969D02*X313992D01*
X312992Y372469D02*X313492Y371969D01*
X312992Y372969D02*Y372469D01*
X317192Y375969D02*X317692Y375469D01*
X316192Y375969D02*X317192D01*
X315692Y375469D02*X316192Y375969D01*
X315692Y375469D02*Y372469D01*
X316192Y371969D01*
X317192Y374169D02*X317692Y373669D01*
X315692Y374169D02*X317192D01*
X316192Y371969D02*X317192D01*
X317692Y372469D01*
Y373669D02*Y372469D01*
X269201Y380890D02*Y376890D01*
X270501Y380890D02*X271201Y380190D01*
Y377590D01*
X270501Y376890D02*X271201Y377590D01*
X268701Y376890D02*X270501D01*
X268701Y380890D02*X270501D01*
X272401Y380090D02*X273201Y380890D01*
Y376890D01*
X272401D02*X273901D01*
X218504Y357268D02*X220504D01*
X221004Y356768D01*
Y355768D01*
X220504Y355268D02*X221004Y355768D01*
X219004Y355268D02*X220504D01*
X219004Y357268D02*Y353268D01*
X219804Y355268D02*X221004Y353268D01*
X222204Y357268D02*X224204D01*
X222204D02*Y355268D01*
X222704Y355768D01*
X223704D01*
X224204Y355268D01*
Y353768D01*
X223704Y353268D02*X224204Y353768D01*
X222704Y353268D02*X223704D01*
X222204Y353768D02*X222704Y353268D01*
X222441Y280496D02*Y276996D01*
X222941Y276496D01*
X223941D01*
X224441Y276996D01*
Y280496D02*Y276996D01*
X225641Y279996D02*X226141Y280496D01*
X227141D01*
X227641Y279996D01*
X227141Y276496D02*X227641Y276996D01*
X226141Y276496D02*X227141D01*
X225641Y276996D02*X226141Y276496D01*
Y278696D02*X227141D01*
X227641Y279996D02*Y279196D01*
Y278196D02*Y276996D01*
Y278196D02*X227141Y278696D01*
X227641Y279196D02*X227141Y278696D01*
X215551Y315929D02*Y312429D01*
X216051Y311929D01*
X217051D01*
X217551Y312429D01*
Y315929D02*Y312429D01*
X218751Y315129D02*X219551Y315929D01*
Y311929D01*
X218751D02*X220251D01*
X221451Y315429D02*X221951Y315929D01*
X223451D01*
X223951Y315429D01*
Y314429D01*
X221451Y311929D02*X223951Y314429D01*
X221451Y311929D02*X223951D01*
X216251Y255827D02*X217551D01*
X215551Y256527D02*X216251Y255827D01*
X215551Y259127D02*Y256527D01*
Y259127D02*X216251Y259827D01*
X217551D01*
X218751Y259027D02*X219551Y259827D01*
Y255827D01*
X218751D02*X220251D01*
X221451Y256327D02*X221951Y255827D01*
X221451Y259327D02*Y256327D01*
Y259327D02*X221951Y259827D01*
X222951D01*
X223451Y259327D01*
Y256327D01*
X222951Y255827D02*X223451Y256327D01*
X221951Y255827D02*X222951D01*
X221451Y256827D02*X223451Y258827D01*
X219488Y308055D02*X221488D01*
X221988Y307555D01*
Y306555D01*
X221488Y306055D02*X221988Y306555D01*
X219988Y306055D02*X221488D01*
X219988Y308055D02*Y304055D01*
X220788Y306055D02*X221988Y304055D01*
X223688D02*X225188Y306055D01*
Y307555D02*Y306055D01*
X224688Y308055D02*X225188Y307555D01*
X223688Y308055D02*X224688D01*
X223188Y307555D02*X223688Y308055D01*
X223188Y307555D02*Y306555D01*
X223688Y306055D01*
X225188D01*
X216251Y247953D02*X217551D01*
X215551Y248653D02*X216251Y247953D01*
X215551Y251253D02*Y248653D01*
Y251253D02*X216251Y251953D01*
X217551D01*
X218751Y251153D02*X219551Y251953D01*
Y247953D01*
X218751D02*X220251D01*
X221451Y251153D02*X222251Y251953D01*
Y247953D01*
X221451D02*X222951D01*
X189676Y250906D02*X190976D01*
X188976Y251606D02*X189676Y250906D01*
X188976Y254206D02*Y251606D01*
Y254206D02*X189676Y254906D01*
X190976D01*
X193676D02*X194176Y254406D01*
X192676Y254906D02*X193676D01*
X192176Y254406D02*X192676Y254906D01*
X192176Y254406D02*Y251406D01*
X192676Y250906D01*
X193676Y253106D02*X194176Y252606D01*
X192176Y253106D02*X193676D01*
X192676Y250906D02*X193676D01*
X194176Y251406D01*
Y252606D02*Y251406D01*
X187862Y221221D02*X188838D01*
Y216951D01*
X188228Y216341D02*X188838Y216951D01*
X187618Y216341D02*X188228D01*
X187008Y216951D02*X187618Y216341D01*
X187008Y217561D02*Y216951D01*
X190302D02*X190912Y216341D01*
X190302Y217927D02*Y216951D01*
Y217927D02*X191156Y218781D01*
X191888D01*
X192742Y217927D01*
Y216951D01*
X192132Y216341D02*X192742Y216951D01*
X190912Y216341D02*X192132D01*
X190302Y219635D02*X191156Y218781D01*
X190302Y220611D02*Y219635D01*
Y220611D02*X190912Y221221D01*
X192132D01*
X192742Y220611D01*
Y219635D01*
X191888Y218781D02*X192742Y219635D01*
X179834Y250906D02*X181134D01*
X179134Y251606D02*X179834Y250906D01*
X179134Y254206D02*Y251606D01*
Y254206D02*X179834Y254906D01*
X181134D01*
X182834Y250906D02*X184834Y254906D01*
X182334D02*X184834D01*
X238189Y302150D02*X240189D01*
X240689Y301650D01*
Y300650D01*
X240189Y300150D02*X240689Y300650D01*
X238689Y300150D02*X240189D01*
X238689Y302150D02*Y298150D01*
X239489Y300150D02*X240689Y298150D01*
X241889Y301350D02*X242689Y302150D01*
Y298150D01*
X241889D02*X243389D01*
X244589Y298650D02*X245089Y298150D01*
X244589Y301650D02*Y298650D01*
Y301650D02*X245089Y302150D01*
X246089D01*
X246589Y301650D01*
Y298650D01*
X246089Y298150D02*X246589Y298650D01*
X245089Y298150D02*X246089D01*
X244589Y299150D02*X246589Y301150D01*
X230315Y288370D02*X232315D01*
X232815Y287870D01*
Y286870D01*
X232315Y286370D02*X232815Y286870D01*
X230815Y286370D02*X232315D01*
X230815Y288370D02*Y284370D01*
X231615Y286370D02*X232815Y284370D01*
X234015Y284870D02*X234515Y284370D01*
X234015Y285670D02*Y284870D01*
Y285670D02*X234715Y286370D01*
X235315D01*
X236015Y285670D01*
Y284870D01*
X235515Y284370D02*X236015Y284870D01*
X234515Y284370D02*X235515D01*
X234015Y287070D02*X234715Y286370D01*
X234015Y287870D02*Y287070D01*
Y287870D02*X234515Y288370D01*
X235515D01*
X236015Y287870D01*
Y287070D01*
X235315Y286370D02*X236015Y287070D01*
X243803Y275562D02*X245090D01*
X243110Y276255D02*X243803Y275562D01*
X243110Y278829D02*Y276255D01*
Y278829D02*X243803Y279522D01*
X245090D01*
X246278Y278730D02*X247070Y279522D01*
Y275562D01*
X246278D02*X247763D01*
X249446D02*X250931Y277542D01*
Y279027D02*Y277542D01*
X250436Y279522D02*X250931Y279027D01*
X249446Y279522D02*X250436D01*
X248951Y279027D02*X249446Y279522D01*
X248951Y279027D02*Y278037D01*
X249446Y277542D01*
X250931D01*
X187008Y334630D02*Y331130D01*
X187508Y330630D01*
X188508D01*
X189008Y331130D01*
Y334630D02*Y331130D01*
X190208Y334130D02*X190708Y334630D01*
X192208D01*
X192708Y334130D01*
Y333130D01*
X190208Y330630D02*X192708Y333130D01*
X190208Y330630D02*X192708D01*
X183771Y304055D02*X185071D01*
X183071Y304755D02*X183771Y304055D01*
X183071Y307355D02*Y304755D01*
Y307355D02*X183771Y308055D01*
X185071D01*
X186271Y305555D02*X188271Y308055D01*
X186271Y305555D02*X188771D01*
X188271Y308055D02*Y304055D01*
X179834Y287323D02*X181134D01*
X179134Y288023D02*X179834Y287323D01*
X179134Y290623D02*Y288023D01*
Y290623D02*X179834Y291323D01*
X181134D01*
X182334Y290823D02*X182834Y291323D01*
X183834D01*
X184334Y290823D01*
X183834Y287323D02*X184334Y287823D01*
X182834Y287323D02*X183834D01*
X182334Y287823D02*X182834Y287323D01*
Y289523D02*X183834D01*
X184334Y290823D02*Y290023D01*
Y289023D02*Y287823D01*
Y289023D02*X183834Y289523D01*
X184334Y290023D02*X183834Y289523D01*
X188692Y283386D02*X189992D01*
X187992Y284086D02*X188692Y283386D01*
X187992Y286686D02*Y284086D01*
Y286686D02*X188692Y287386D01*
X189992D01*
X191192Y283886D02*X191692Y283386D01*
X191192Y284686D02*Y283886D01*
Y284686D02*X191892Y285386D01*
X192492D01*
X193192Y284686D01*
Y283886D01*
X192692Y283386D02*X193192Y283886D01*
X191692Y283386D02*X192692D01*
X191192Y286086D02*X191892Y285386D01*
X191192Y286886D02*Y286086D01*
Y286886D02*X191692Y287386D01*
X192692D01*
X193192Y286886D01*
Y286086D01*
X192492Y285386D02*X193192Y286086D01*
X181949Y319656D02*X182917D01*
Y315421D01*
X182312Y314816D02*X182917Y315421D01*
X181707Y314816D02*X182312D01*
X181102Y315421D02*X181707Y314816D01*
X181102Y316026D02*Y315421D01*
X184369Y319051D02*X184974Y319656D01*
X186184D01*
X186789Y319051D01*
X186184Y314816D02*X186789Y315421D01*
X184974Y314816D02*X186184D01*
X184369Y315421D02*X184974Y314816D01*
Y317478D02*X186184D01*
X186789Y319051D02*Y318083D01*
Y316873D02*Y315421D01*
Y316873D02*X186184Y317478D01*
X186789Y318083D02*X186184Y317478D01*
X237905Y233252D02*X238705D01*
Y229752D01*
X238205Y229252D02*X238705Y229752D01*
X237705Y229252D02*X238205D01*
X237205Y229752D02*X237705Y229252D01*
X237205Y230252D02*Y229752D01*
X239905Y230752D02*X241905Y233252D01*
X239905Y230752D02*X242405D01*
X241905Y233252D02*Y229252D01*
X242819Y254893D02*X244106D01*
X242126Y255586D02*X242819Y254893D01*
X242126Y258160D02*Y255586D01*
Y258160D02*X242819Y258853D01*
X244106D01*
X245294Y258358D02*X245789Y258853D01*
X247274D01*
X247769Y258358D01*
Y257368D01*
X245294Y254893D02*X247769Y257368D01*
X245294Y254893D02*X247769D01*
X248957Y258358D02*X249452Y258853D01*
X250442D01*
X250937Y258358D01*
X250442Y254893D02*X250937Y255388D01*
X249452Y254893D02*X250442D01*
X248957Y255388D02*X249452Y254893D01*
Y257071D02*X250442D01*
X250937Y258358D02*Y257566D01*
Y256576D02*Y255388D01*
Y256576D02*X250442Y257071D01*
X250937Y257566D02*X250442Y257071D01*
X238189Y244089D02*X240169D01*
X240664Y243594D01*
Y242604D01*
X240169Y242109D02*X240664Y242604D01*
X238684Y242109D02*X240169D01*
X238684Y244089D02*Y240129D01*
X239476Y242109D02*X240664Y240129D01*
X241852Y243297D02*X242644Y244089D01*
Y240129D01*
X241852D02*X243337D01*
X245020D02*X247000Y244089D01*
X244525D02*X247000D01*
X243803Y248003D02*X245090D01*
X243110Y248696D02*X243803Y248003D01*
X243110Y251270D02*Y248696D01*
Y251270D02*X243803Y251963D01*
X245090D01*
X246278Y251171D02*X247070Y251963D01*
Y248003D01*
X246278D02*X247763D01*
X248951Y251963D02*X250931D01*
X248951D02*Y249983D01*
X249446Y250478D01*
X250436D01*
X250931Y249983D01*
Y248498D01*
X250436Y248003D02*X250931Y248498D01*
X249446Y248003D02*X250436D01*
X248951Y248498D02*X249446Y248003D01*
X173928Y281417D02*X175228D01*
X173228Y282117D02*X173928Y281417D01*
X173228Y284717D02*Y282117D01*
Y284717D02*X173928Y285417D01*
X175228D01*
X176928Y281417D02*X178428Y283417D01*
Y284917D02*Y283417D01*
X177928Y285417D02*X178428Y284917D01*
X176928Y285417D02*X177928D01*
X176428Y284917D02*X176928Y285417D01*
X176428Y284917D02*Y283917D01*
X176928Y283417D01*
X178428D01*
X356015Y231220D02*X357315D01*
X355315Y231920D02*X356015Y231220D01*
X355315Y234520D02*Y231920D01*
Y234520D02*X356015Y235220D01*
X357315D01*
X358515Y234720D02*X359015Y235220D01*
X360515D01*
X361015Y234720D01*
Y233720D01*
X358515Y231220D02*X361015Y233720D01*
X358515Y231220D02*X361015D01*
X362215Y234720D02*X362715Y235220D01*
X364215D01*
X364715Y234720D01*
Y233720D01*
X362215Y231220D02*X364715Y233720D01*
X362215Y231220D02*X364715D01*
X345472Y263764D02*X347472D01*
X347972Y263264D01*
Y262264D01*
X347472Y261764D02*X347972Y262264D01*
X345972Y261764D02*X347472D01*
X345972Y263764D02*Y259764D01*
X346772Y261764D02*X347972Y259764D01*
X349172Y262964D02*X349972Y263764D01*
Y259764D01*
X349172D02*X350672D01*
X359252Y221441D02*Y217941D01*
X359752Y217441D01*
X360752D01*
X361252Y217941D01*
Y221441D02*Y217941D01*
X362452Y220641D02*X363252Y221441D01*
Y217441D01*
X362452D02*X363952D01*
X365152Y220641D02*X365952Y221441D01*
Y217441D01*
X365152D02*X366652D01*
X331402Y218475D02*X332689D01*
X330709Y219168D02*X331402Y218475D01*
X330709Y221742D02*Y219168D01*
Y221742D02*X331402Y222435D01*
X332689D01*
X333877Y221940D02*X334372Y222435D01*
X335857D01*
X336352Y221940D01*
Y220950D01*
X333877Y218475D02*X336352Y220950D01*
X333877Y218475D02*X336352D01*
X337540Y222435D02*X339520D01*
X337540D02*Y220455D01*
X338035Y220950D01*
X339025D01*
X339520Y220455D01*
Y218970D01*
X339025Y218475D02*X339520Y218970D01*
X338035Y218475D02*X339025D01*
X337540Y218970D02*X338035Y218475D01*
X340551Y235220D02*Y231220D01*
X342551D01*
X343751Y233420D02*X345251D01*
X343751Y231220D02*X345751D01*
X343751Y235220D02*Y231220D01*
Y235220D02*X345751D01*
X347451D02*Y231220D01*
X348751Y235220D02*X349451Y234520D01*
Y231920D01*
X348751Y231220D02*X349451Y231920D01*
X346951Y231220D02*X348751D01*
X346951Y235220D02*X348751D01*
X350651Y234720D02*X351151Y235220D01*
X352651D01*
X353151Y234720D01*
Y233720D01*
X350651Y231220D02*X353151Y233720D01*
X350651Y231220D02*X353151D01*
X332677Y255900D02*X334657D01*
X335152Y255405D01*
Y254415D01*
X334657Y253920D02*X335152Y254415D01*
X333172Y253920D02*X334657D01*
X333172Y255900D02*Y251940D01*
X333964Y253920D02*X335152Y251940D01*
X336340Y255108D02*X337132Y255900D01*
Y251940D01*
X336340D02*X337825D01*
X339013Y255900D02*X340993D01*
X339013D02*Y253920D01*
X339508Y254415D01*
X340498D01*
X340993Y253920D01*
Y252435D01*
X340498Y251940D02*X340993Y252435D01*
X339508Y251940D02*X340498D01*
X339013Y252435D02*X339508Y251940D01*
X365142Y263780D02*Y261780D01*
X364642Y261280D01*
X363642D02*X364642D01*
X363142Y261780D02*X363642Y261280D01*
X363142Y263280D02*Y261780D01*
X361142Y263280D02*X365142D01*
X363142Y262480D02*X361142Y261280D01*
X364342Y260080D02*X365142Y259280D01*
X361142D02*X365142D01*
X361142Y260080D02*Y258580D01*
X365142Y255880D02*X364642Y255380D01*
X365142Y256880D02*Y255880D01*
X364642Y257380D02*X365142Y256880D01*
X361642Y257380D02*X364642D01*
X361642D02*X361142Y256880D01*
X363342Y255880D02*X362842Y255380D01*
X363342Y257380D02*Y255880D01*
X361142Y256880D02*Y255880D01*
X361642Y255380D01*
X362842D01*
X335630Y263764D02*X337630D01*
X338130Y263264D01*
Y262264D01*
X337630Y261764D02*X338130Y262264D01*
X336130Y261764D02*X337630D01*
X336130Y263764D02*Y259764D01*
X336930Y261764D02*X338130Y259764D01*
X339330Y263264D02*X339830Y263764D01*
X341330D01*
X341830Y263264D01*
Y262264D01*
X339330Y259764D02*X341830Y262264D01*
X339330Y259764D02*X341830D01*
X325787Y287870D02*Y284870D01*
Y287870D02*X326287Y288370D01*
X327287D01*
X327787Y287870D01*
Y285370D01*
X326787Y284370D02*X327787Y285370D01*
X326287Y284370D02*X326787D01*
X325787Y284870D02*X326287Y284370D01*
X326787Y285870D02*X327787Y284370D01*
X328987Y285870D02*X330987Y288370D01*
X328987Y285870D02*X331487D01*
X330987Y288370D02*Y284370D01*
X323819Y281480D02*Y277980D01*
X324319Y277480D01*
X325319D01*
X325819Y277980D01*
Y281480D02*Y277980D01*
X328519Y281480D02*X329019Y280980D01*
X327519Y281480D02*X328519D01*
X327019Y280980D02*X327519Y281480D01*
X327019Y280980D02*Y277980D01*
X327519Y277480D01*
X328519Y279680D02*X329019Y279180D01*
X327019Y279680D02*X328519D01*
X327519Y277480D02*X328519D01*
X329019Y277980D01*
Y279180D02*Y277980D01*
X344488Y252947D02*X346468D01*
X346963Y252452D01*
Y251462D01*
X346468Y250967D02*X346963Y251462D01*
X344983Y250967D02*X346468D01*
X344983Y252947D02*Y248987D01*
X345775Y250967D02*X346963Y248987D01*
X348151Y252155D02*X348943Y252947D01*
Y248987D01*
X348151D02*X349636D01*
X350824Y252452D02*X351319Y252947D01*
X352309D01*
X352804Y252452D01*
X352309Y248987D02*X352804Y249482D01*
X351319Y248987D02*X352309D01*
X350824Y249482D02*X351319Y248987D01*
Y251165D02*X352309D01*
X352804Y252452D02*Y251660D01*
Y250670D02*Y249482D01*
Y250670D02*X352309Y251165D01*
X352804Y251660D02*X352309Y251165D01*
X316082Y231751D02*Y230763D01*
X316614Y232283D02*X316082Y231751D01*
X316614Y232283D02*X318590D01*
X319122Y231751D01*
Y230763D01*
X318742Y229851D02*X319122Y229471D01*
Y228331D01*
X318742Y227951D01*
X317982D02*X318742D01*
X316082Y229851D02*X317982Y227951D01*
X316082Y229851D02*Y227951D01*
X317222Y227039D02*X319122Y225519D01*
X317222Y227039D02*Y225139D01*
X316082Y225519D02*X319122D01*
X324512Y240129D02*X325799D01*
X323819Y240822D02*X324512Y240129D01*
X323819Y243396D02*Y240822D01*
Y243396D02*X324512Y244089D01*
X325799D01*
X326987Y243297D02*X327779Y244089D01*
Y240129D01*
X326987D02*X328472D01*
X329660Y243594D02*X330155Y244089D01*
X331145D01*
X331640Y243594D01*
X331145Y240129D02*X331640Y240624D01*
X330155Y240129D02*X331145D01*
X329660Y240624D02*X330155Y240129D01*
Y242307D02*X331145D01*
X331640Y243594D02*Y242802D01*
Y241812D02*Y240624D01*
Y241812D02*X331145Y242307D01*
X331640Y242802D02*X331145Y242307D01*
X247747Y315866D02*X249047D01*
X247047Y316566D02*X247747Y315866D01*
X247047Y319166D02*Y316566D01*
Y319166D02*X247747Y319866D01*
X249047D01*
X250247Y319066D02*X251047Y319866D01*
Y315866D01*
X250247D02*X251747D01*
X252947Y317366D02*X254947Y319866D01*
X252947Y317366D02*X255447D01*
X254947Y319866D02*Y315866D01*
X232983Y328661D02*X234283D01*
X232283Y329361D02*X232983Y328661D01*
X232283Y331961D02*Y329361D01*
Y331961D02*X232983Y332661D01*
X234283D01*
X235483Y331861D02*X236283Y332661D01*
Y328661D01*
X235483D02*X236983D01*
X236039Y311826D02*X237339D01*
X235339Y312526D02*X236039Y311826D01*
X235339Y315126D02*Y312526D01*
Y315126D02*X236039Y315826D01*
X237339D01*
X238539Y315026D02*X239339Y315826D01*
Y311826D01*
X238539D02*X240039D01*
X241239Y312326D02*X241739Y311826D01*
X241239Y313126D02*Y312326D01*
Y313126D02*X241939Y313826D01*
X242539D01*
X243239Y313126D01*
Y312326D01*
X242739Y311826D02*X243239Y312326D01*
X241739Y311826D02*X242739D01*
X241239Y314526D02*X241939Y313826D01*
X241239Y315326D02*Y314526D01*
Y315326D02*X241739Y315826D01*
X242739D01*
X243239Y315326D01*
Y314526D01*
X242539Y313826D02*X243239Y314526D01*
X258859Y318882D02*Y315382D01*
X259359Y314882D01*
X260359D01*
X260859Y315382D01*
Y318882D02*Y315382D01*
X262059D02*X262559Y314882D01*
X262059Y316182D02*Y315382D01*
Y316182D02*X262759Y316882D01*
X263359D01*
X264059Y316182D01*
Y315382D01*
X263559Y314882D02*X264059Y315382D01*
X262559Y314882D02*X263559D01*
X262059Y317582D02*X262759Y316882D01*
X262059Y318382D02*Y317582D01*
Y318382D02*X262559Y318882D01*
X263559D01*
X264059Y318382D01*
Y317582D01*
X263359Y316882D02*X264059Y317582D01*
X227362Y315929D02*Y311929D01*
X229362D01*
X230562Y315429D02*X231062Y315929D01*
X232062D01*
X232562Y315429D01*
X232062Y311929D02*X232562Y312429D01*
X231062Y311929D02*X232062D01*
X230562Y312429D02*X231062Y311929D01*
Y314129D02*X232062D01*
X232562Y315429D02*Y314629D01*
Y313629D02*Y312429D01*
Y313629D02*X232062Y314129D01*
X232562Y314629D02*X232062Y314129D01*
X273622Y278528D02*Y275028D01*
X274122Y274528D01*
X275122D01*
X275622Y275028D01*
Y278528D02*Y275028D01*
X276822Y277728D02*X277622Y278528D01*
Y274528D01*
X276822D02*X278322D01*
X279522Y275028D02*X280022Y274528D01*
X279522Y278028D02*Y275028D01*
Y278028D02*X280022Y278528D01*
X281022D01*
X281522Y278028D01*
Y275028D01*
X281022Y274528D02*X281522Y275028D01*
X280022Y274528D02*X281022D01*
X279522Y275528D02*X281522Y277528D01*
X288386Y241136D02*X290366D01*
X290861Y240641D01*
Y239651D01*
X290366Y239156D02*X290861Y239651D01*
X288881Y239156D02*X290366D01*
X288881Y241136D02*Y237176D01*
X289673Y239156D02*X290861Y237176D01*
X292049Y240641D02*X292544Y241136D01*
X294029D01*
X294524Y240641D01*
Y239651D01*
X292049Y237176D02*X294524Y239651D01*
X292049Y237176D02*X294524D01*
X295712Y237671D02*X296207Y237176D01*
X295712Y240641D02*Y237671D01*
Y240641D02*X296207Y241136D01*
X297197D01*
X297692Y240641D01*
Y237671D01*
X297197Y237176D02*X297692Y237671D01*
X296207Y237176D02*X297197D01*
X295712Y238166D02*X297692Y240146D01*
X313976Y242340D02*X315516D01*
X315901Y241955D01*
Y241185D01*
X315516Y240800D02*X315901Y241185D01*
X314361Y240800D02*X315516D01*
X314361Y242340D02*Y239260D01*
X314977Y240800D02*X315901Y239260D01*
X316825Y241724D02*X317441Y242340D01*
Y239260D01*
X316825D02*X317980D01*
X319289D02*X320444Y240800D01*
Y241955D02*Y240800D01*
X320059Y242340D02*X320444Y241955D01*
X319289Y242340D02*X320059D01*
X318904Y241955D02*X319289Y242340D01*
X318904Y241955D02*Y241185D01*
X319289Y240800D01*
X320444D01*
X298613Y228561D02*Y225481D01*
X299614Y228561D02*X300153Y228022D01*
Y226020D01*
X299614Y225481D02*X300153Y226020D01*
X298228Y225481D02*X299614D01*
X298228Y228561D02*X299614D01*
X301077Y228176D02*X301462Y228561D01*
X302617D01*
X303002Y228176D01*
Y227406D01*
X301077Y225481D02*X303002Y227406D01*
X301077Y225481D02*X303002D01*
X243810Y290276D02*X245110D01*
X243110Y290976D02*X243810Y290276D01*
X243110Y293576D02*Y290976D01*
Y293576D02*X243810Y294276D01*
X245110D01*
X246310Y293476D02*X247110Y294276D01*
Y290276D01*
X246310D02*X247810D01*
X249010Y293776D02*X249510Y294276D01*
X251010D01*
X251510Y293776D01*
Y292776D01*
X249010Y290276D02*X251510Y292776D01*
X249010Y290276D02*X251510D01*
X243803Y282452D02*X245090D01*
X243110Y283145D02*X243803Y282452D01*
X243110Y285719D02*Y283145D01*
Y285719D02*X243803Y286412D01*
X245090D01*
X246278Y285620D02*X247070Y286412D01*
Y282452D01*
X246278D02*X247763D01*
X250436Y286412D02*X250931Y285917D01*
X249446Y286412D02*X250436D01*
X248951Y285917D02*X249446Y286412D01*
X248951Y285917D02*Y282947D01*
X249446Y282452D01*
X250436Y284630D02*X250931Y284135D01*
X248951Y284630D02*X250436D01*
X249446Y282452D02*X250436D01*
X250931Y282947D01*
Y284135D02*Y282947D01*
X243613Y261930D02*X244913D01*
X242913Y262630D02*X243613Y261930D01*
X242913Y265230D02*Y262630D01*
Y265230D02*X243613Y265930D01*
X244913D01*
X246113Y265430D02*X246613Y265930D01*
X248113D01*
X248613Y265430D01*
Y264430D01*
X246113Y261930D02*X248613Y264430D01*
X246113Y261930D02*X248613D01*
X251313Y265930D02*X251813Y265430D01*
X250313Y265930D02*X251313D01*
X249813Y265430D02*X250313Y265930D01*
X249813Y265430D02*Y262430D01*
X250313Y261930D01*
X251313Y264130D02*X251813Y263630D01*
X249813Y264130D02*X251313D01*
X250313Y261930D02*X251313D01*
X251813Y262430D01*
Y263630D02*Y262430D01*
X243803Y268672D02*X245090D01*
X243110Y269365D02*X243803Y268672D01*
X243110Y271939D02*Y269365D01*
Y271939D02*X243803Y272632D01*
X245090D01*
X246278Y272137D02*X246773Y272632D01*
X248258D01*
X248753Y272137D01*
Y271147D01*
X246278Y268672D02*X248753Y271147D01*
X246278Y268672D02*X248753D01*
X249941Y271840D02*X250733Y272632D01*
Y268672D01*
X249941D02*X251426D01*
X255906Y307071D02*X257906D01*
X258406Y306571D01*
Y305571D01*
X257906Y305071D02*X258406Y305571D01*
X256406Y305071D02*X257906D01*
X256406Y307071D02*Y303071D01*
X257206Y305071D02*X258406Y303071D01*
X259606Y304571D02*X261606Y307071D01*
X259606Y304571D02*X262106D01*
X261606Y307071D02*Y303071D01*
X275591Y316913D02*Y312913D01*
X277591D01*
X278791Y316413D02*X279291Y316913D01*
X280791D01*
X281291Y316413D01*
Y315413D01*
X278791Y312913D02*X281291Y315413D01*
X278791Y312913D02*X281291D01*
X300197Y291323D02*Y287823D01*
X300697Y287323D01*
X301697D01*
X302197Y287823D01*
Y291323D02*Y287823D01*
X303897Y287323D02*X305897Y291323D01*
X303397D02*X305897D01*
X299913Y301165D02*X300713D01*
Y297665D01*
X300213Y297165D02*X300713Y297665D01*
X299713Y297165D02*X300213D01*
X299213Y297665D02*X299713Y297165D01*
X299213Y298165D02*Y297665D01*
X301913Y301165D02*X303913D01*
X301913D02*Y299165D01*
X302413Y299665D01*
X303413D01*
X303913Y299165D01*
Y297665D01*
X303413Y297165D02*X303913Y297665D01*
X302413Y297165D02*X303413D01*
X301913Y297665D02*X302413Y297165D01*
M02*
