G04 start of page 3 for group 5 idx 5 *
G04 Title: (unknown), bottom *
G04 Creator: pcb 4.2.2 *
G04 CreationDate: Fri Aug 14 03:10:47 2020 UTC *
G04 For: harold *
G04 Format: Gerber/RS-274X *
G04 PCB-Dimensions (mil): 6000.00 5000.00 *
G04 PCB-Coordinate-Origin: lower left *
%MOIN*%
%FSLAX25Y25*%
%LNBOTTOM*%
%ADD61C,0.0390*%
%ADD60C,0.0280*%
%ADD59C,0.0380*%
%ADD58C,0.0300*%
%ADD57C,0.0240*%
%ADD56C,0.1350*%
%ADD55C,0.0479*%
%ADD54C,0.0400*%
%ADD53C,0.0439*%
%ADD52C,0.0360*%
%ADD51C,0.1600*%
%ADD50C,0.0500*%
%ADD49C,0.0600*%
%ADD48C,0.0381*%
%ADD47C,0.0760*%
%ADD46C,0.0671*%
%ADD45C,0.0340*%
%ADD44C,0.0320*%
%ADD43C,0.0750*%
%ADD42C,0.0640*%
%ADD41C,0.0179*%
%ADD40C,0.0200*%
%ADD39C,0.0100*%
%ADD38C,0.0001*%
G54D38*G36*
X323220Y297690D02*X323303Y297607D01*
Y288467D01*
X323220Y288564D01*
Y297690D01*
G37*
G36*
Y305709D02*X323286Y305693D01*
X323819Y305651D01*
X324351Y305693D01*
X324474Y305722D01*
X325862Y304334D01*
Y299296D01*
X325822Y299331D01*
X323220Y301933D01*
Y305709D01*
G37*
G36*
Y284257D02*X323303Y284354D01*
Y241763D01*
X323220Y241680D01*
Y284257D01*
G37*
G36*
X355755Y287870D02*X370020D01*
X370079Y287865D01*
X370314Y287884D01*
X370314Y287884D01*
X370544Y287939D01*
X370762Y288029D01*
X370963Y288153D01*
X371143Y288306D01*
X371181Y288351D01*
X376019Y293189D01*
X376064Y293227D01*
X376217Y293407D01*
X376217Y293407D01*
X376341Y293608D01*
X376431Y293826D01*
X376486Y294056D01*
X376505Y294291D01*
X376500Y294350D01*
Y295503D01*
X376512Y295489D01*
X377141Y294952D01*
X377845Y294520D01*
X378609Y294204D01*
X379412Y294011D01*
X380236Y293946D01*
X381060Y294011D01*
X381864Y294204D01*
X382627Y294520D01*
X383332Y294952D01*
X383960Y295489D01*
X384497Y296117D01*
X384928Y296822D01*
X384997Y296987D01*
X385000Y295227D01*
X385055Y294998D01*
X385146Y294780D01*
X385269Y294578D01*
X385422Y294399D01*
X385602Y294245D01*
X385803Y294122D01*
X386021Y294032D01*
X386251Y293976D01*
X386486Y293963D01*
X394222Y293976D01*
X394451Y294032D01*
X394669Y294122D01*
X394871Y294245D01*
X395050Y294399D01*
X395203Y294578D01*
X395327Y294780D01*
X395417Y294998D01*
X395472Y295227D01*
X395486Y295463D01*
X395472Y303198D01*
X395417Y303428D01*
X395327Y303646D01*
X395203Y303847D01*
X395050Y304027D01*
X394871Y304180D01*
X394817Y304213D01*
X394871Y304245D01*
X395050Y304399D01*
X395203Y304578D01*
X395316Y304762D01*
X395744Y304334D01*
Y275541D01*
X355755Y235552D01*
Y236758D01*
X355784Y236762D01*
X355858Y236787D01*
X355928Y236823D01*
X355992Y236870D01*
X356047Y236926D01*
X356093Y236990D01*
X356126Y237061D01*
X356225Y237333D01*
X356294Y237614D01*
X356336Y237900D01*
X356350Y238189D01*
X356336Y238478D01*
X356294Y238764D01*
X356225Y239045D01*
X356130Y239318D01*
X356095Y239389D01*
X356049Y239453D01*
X355993Y239510D01*
X355929Y239556D01*
X355859Y239593D01*
X355784Y239618D01*
X355755Y239623D01*
Y244264D01*
X355781Y244294D01*
X356028Y244697D01*
X356208Y245133D01*
X356319Y245592D01*
X356346Y246063D01*
X356319Y246534D01*
X356208Y246993D01*
X356028Y247429D01*
X355781Y247832D01*
X355755Y247862D01*
Y287870D01*
G37*
G36*
Y235552D02*X353348Y233145D01*
Y235186D01*
X353635Y235199D01*
X353922Y235241D01*
X354203Y235310D01*
X354476Y235406D01*
X354546Y235441D01*
X354611Y235487D01*
X354667Y235542D01*
X354714Y235606D01*
X354750Y235676D01*
X354775Y235751D01*
X354788Y235829D01*
X354789Y235908D01*
X354777Y235986D01*
X354753Y236062D01*
X354718Y236132D01*
X354672Y236197D01*
X354616Y236253D01*
X354553Y236300D01*
X354482Y236336D01*
X354407Y236361D01*
X354329Y236374D01*
X354250Y236375D01*
X354172Y236363D01*
X354097Y236338D01*
X353917Y236272D01*
X353729Y236226D01*
X353539Y236198D01*
X353348Y236189D01*
Y240189D01*
X353539Y240180D01*
X353729Y240152D01*
X353917Y240106D01*
X354098Y240042D01*
X354173Y240017D01*
X354251Y240005D01*
X354329Y240006D01*
X354407Y240019D01*
X354482Y240044D01*
X354551Y240080D01*
X354615Y240127D01*
X354670Y240183D01*
X354716Y240247D01*
X354751Y240317D01*
X354775Y240392D01*
X354787Y240470D01*
X354786Y240549D01*
X354773Y240626D01*
X354748Y240701D01*
X354712Y240771D01*
X354665Y240834D01*
X354609Y240889D01*
X354545Y240935D01*
X354474Y240969D01*
X354203Y241068D01*
X353922Y241137D01*
X353635Y241179D01*
X353348Y241192D01*
Y243054D01*
X353817Y243091D01*
X354276Y243201D01*
X354713Y243382D01*
X355115Y243628D01*
X355474Y243935D01*
X355755Y244264D01*
Y239623D01*
X355706Y239631D01*
X355627Y239631D01*
X355549Y239620D01*
X355474Y239596D01*
X355403Y239560D01*
X355339Y239514D01*
X355282Y239459D01*
X355235Y239395D01*
X355199Y239325D01*
X355174Y239250D01*
X355161Y239172D01*
X355160Y239093D01*
X355172Y239015D01*
X355198Y238940D01*
X355263Y238759D01*
X355309Y238572D01*
X355337Y238381D01*
X355346Y238189D01*
X355337Y237997D01*
X355309Y237806D01*
X355263Y237619D01*
X355200Y237437D01*
X355175Y237363D01*
X355163Y237285D01*
X355163Y237206D01*
X355176Y237129D01*
X355201Y237054D01*
X355237Y236984D01*
X355284Y236921D01*
X355340Y236865D01*
X355404Y236820D01*
X355475Y236784D01*
X355550Y236761D01*
X355627Y236749D01*
X355706Y236749D01*
X355755Y236758D01*
Y235552D01*
G37*
G36*
X353348Y287870D02*X355755D01*
Y247862D01*
X355474Y248191D01*
X355240Y248391D01*
Y259768D01*
X355246Y259843D01*
X355223Y260140D01*
X355153Y260430D01*
X355039Y260705D01*
X354883Y260959D01*
X354690Y261186D01*
X354633Y261234D01*
X353348Y262519D01*
Y287870D01*
G37*
G36*
X350938Y259573D02*X351453Y259058D01*
Y248391D01*
X351219Y248191D01*
X350938Y247862D01*
Y259573D01*
G37*
G36*
X353348Y233145D02*X350938Y230735D01*
Y236755D01*
X350987Y236747D01*
X351066Y236747D01*
X351144Y236758D01*
X351219Y236782D01*
X351290Y236818D01*
X351354Y236864D01*
X351411Y236919D01*
X351458Y236983D01*
X351494Y237053D01*
X351519Y237128D01*
X351532Y237206D01*
X351532Y237285D01*
X351521Y237363D01*
X351495Y237438D01*
X351429Y237619D01*
X351383Y237806D01*
X351356Y237997D01*
X351346Y238189D01*
X351356Y238381D01*
X351383Y238572D01*
X351429Y238759D01*
X351493Y238941D01*
X351518Y239015D01*
X351530Y239093D01*
X351530Y239172D01*
X351517Y239249D01*
X351492Y239324D01*
X351456Y239394D01*
X351409Y239457D01*
X351353Y239513D01*
X351289Y239558D01*
X351218Y239594D01*
X351143Y239617D01*
X351066Y239629D01*
X350987Y239628D01*
X350938Y239620D01*
Y244264D01*
X351219Y243935D01*
X351578Y243628D01*
X351980Y243382D01*
X352417Y243201D01*
X352876Y243091D01*
X353346Y243054D01*
X353348Y243054D01*
Y241192D01*
X353346Y241192D01*
X353058Y241179D01*
X352771Y241137D01*
X352490Y241068D01*
X352217Y240972D01*
X352147Y240937D01*
X352082Y240891D01*
X352026Y240836D01*
X351979Y240772D01*
X351943Y240702D01*
X351918Y240627D01*
X351905Y240549D01*
X351904Y240470D01*
X351916Y240392D01*
X351940Y240316D01*
X351975Y240245D01*
X352021Y240181D01*
X352077Y240125D01*
X352140Y240078D01*
X352210Y240042D01*
X352285Y240017D01*
X352363Y240004D01*
X352442Y240003D01*
X352521Y240015D01*
X352595Y240040D01*
X352776Y240106D01*
X352963Y240152D01*
X353154Y240180D01*
X353346Y240189D01*
X353348Y240189D01*
Y236189D01*
X353346Y236189D01*
X353154Y236198D01*
X352963Y236226D01*
X352776Y236272D01*
X352595Y236336D01*
X352520Y236361D01*
X352442Y236373D01*
X352364Y236372D01*
X352286Y236359D01*
X352211Y236334D01*
X352141Y236298D01*
X352078Y236251D01*
X352023Y236195D01*
X351977Y236131D01*
X351942Y236061D01*
X351918Y235986D01*
X351906Y235908D01*
X351907Y235829D01*
X351920Y235752D01*
X351945Y235677D01*
X351981Y235607D01*
X352028Y235544D01*
X352084Y235489D01*
X352148Y235443D01*
X352219Y235409D01*
X352490Y235310D01*
X352771Y235241D01*
X353058Y235199D01*
X353346Y235185D01*
X353348Y235186D01*
Y233145D01*
G37*
G36*
X350938Y230735D02*X349565Y229362D01*
X345996D01*
X345769Y229627D01*
X345387Y229954D01*
X344958Y230217D01*
X344494Y230409D01*
X344005Y230526D01*
X343504Y230566D01*
X343003Y230526D01*
X342514Y230409D01*
X342050Y230217D01*
X341621Y229954D01*
X341239Y229627D01*
X340912Y229245D01*
X340650Y228817D01*
X340457Y228352D01*
X340340Y227863D01*
X340300Y227362D01*
X340340Y226861D01*
X340445Y226424D01*
X338578Y224557D01*
Y250939D01*
X341626Y253310D01*
X342050Y253051D01*
X342514Y252859D01*
X343003Y252741D01*
X343504Y252702D01*
X344005Y252741D01*
X344494Y252859D01*
X344958Y253051D01*
X345387Y253314D01*
X345769Y253640D01*
X346096Y254023D01*
X346358Y254451D01*
X346551Y254916D01*
X346668Y255404D01*
X346698Y255906D01*
X346668Y256407D01*
X346551Y256895D01*
X346358Y257360D01*
X346096Y257789D01*
X345769Y258171D01*
X345387Y258497D01*
X344958Y258760D01*
X344494Y258952D01*
X344005Y259070D01*
X343504Y259109D01*
X343003Y259070D01*
X342514Y258952D01*
X342050Y258760D01*
X341621Y258497D01*
X341239Y258171D01*
X340912Y257789D01*
X340650Y257360D01*
X340457Y256895D01*
X340340Y256407D01*
X340315Y256091D01*
X338578Y254740D01*
Y271933D01*
X350938Y259573D01*
Y247862D01*
X350912Y247832D01*
X350665Y247429D01*
X350484Y246993D01*
X350374Y246534D01*
X350337Y246063D01*
X350374Y245592D01*
X350484Y245133D01*
X350665Y244697D01*
X350912Y244294D01*
X350938Y244264D01*
Y239620D01*
X350909Y239616D01*
X350835Y239591D01*
X350765Y239555D01*
X350701Y239508D01*
X350646Y239452D01*
X350600Y239388D01*
X350567Y239317D01*
X350468Y239045D01*
X350399Y238764D01*
X350357Y238478D01*
X350343Y238189D01*
X350357Y237900D01*
X350399Y237614D01*
X350468Y237333D01*
X350563Y237060D01*
X350598Y236989D01*
X350644Y236925D01*
X350700Y236868D01*
X350763Y236821D01*
X350834Y236785D01*
X350909Y236760D01*
X350938Y236755D01*
Y230735D01*
G37*
G36*
X338578Y286321D02*X338588Y286323D01*
X339053Y286516D01*
X339481Y286778D01*
X339864Y287105D01*
X340190Y287487D01*
X340425Y287870D01*
X353348D01*
Y262519D01*
X338578Y277289D01*
Y286321D01*
G37*
G36*
X411805Y296173D02*X411988Y295875D01*
X412908Y294798D01*
X413985Y293877D01*
X415193Y293137D01*
X416502Y292595D01*
X417879Y292264D01*
X419291Y292153D01*
X420704Y292264D01*
X422081Y292595D01*
X423390Y293137D01*
X424598Y293877D01*
X425675Y294798D01*
X426595Y295875D01*
X427335Y297083D01*
X427877Y298391D01*
X428150Y299526D01*
Y213583D01*
X411805D01*
Y227598D01*
X411811Y227598D01*
X412470Y227649D01*
X413113Y227804D01*
X413724Y228057D01*
X414288Y228402D01*
X414790Y228832D01*
X415220Y229334D01*
X415565Y229898D01*
X415818Y230509D01*
X415973Y231151D01*
X416011Y231811D01*
X415973Y232470D01*
X415818Y233112D01*
X415565Y233723D01*
X415220Y234287D01*
X414790Y234790D01*
X414288Y235219D01*
X413724Y235564D01*
X413113Y235817D01*
X412470Y235972D01*
X411811Y236023D01*
X411805Y236023D01*
Y258937D01*
X411811Y258937D01*
X412470Y258988D01*
X413113Y259143D01*
X413724Y259396D01*
X414288Y259741D01*
X414790Y260171D01*
X415220Y260673D01*
X415565Y261237D01*
X415818Y261848D01*
X415973Y262490D01*
X416011Y263150D01*
X415973Y263809D01*
X415818Y264451D01*
X415565Y265062D01*
X415220Y265626D01*
X414790Y266129D01*
X414288Y266558D01*
X413724Y266903D01*
X413113Y267156D01*
X412470Y267311D01*
X411811Y267362D01*
X411805Y267362D01*
Y296173D01*
G37*
G36*
X420665Y388780D02*X428150D01*
Y302836D01*
X427877Y303971D01*
X427335Y305280D01*
X426595Y306487D01*
X425675Y307565D01*
X424598Y308485D01*
X423390Y309225D01*
X422081Y309767D01*
X420704Y310098D01*
X420665Y310101D01*
Y324447D01*
X420883Y324581D01*
X421206Y324857D01*
X421482Y325180D01*
X421704Y325542D01*
X421867Y325935D01*
X421966Y326348D01*
X421991Y326772D01*
X421966Y327195D01*
X421867Y327609D01*
X421704Y328001D01*
X421482Y328364D01*
X421206Y328687D01*
X420883Y328963D01*
X420665Y329096D01*
Y344833D01*
X420669Y344833D01*
X421077Y344865D01*
X421475Y344961D01*
X421853Y345117D01*
X422202Y345331D01*
X422513Y345597D01*
X422779Y345908D01*
X422993Y346257D01*
X423150Y346635D01*
X423245Y347033D01*
X423269Y347441D01*
X423245Y347849D01*
X423150Y348247D01*
X422993Y348625D01*
X422779Y348974D01*
X422513Y349285D01*
X422202Y349551D01*
X421853Y349765D01*
X421475Y349921D01*
X421077Y350017D01*
X420669Y350049D01*
X420665Y350049D01*
Y356266D01*
X420866Y356250D01*
X421274Y356282D01*
X421672Y356378D01*
X422050Y356535D01*
X422399Y356748D01*
X422710Y357014D01*
X422976Y357325D01*
X423190Y357674D01*
X423347Y358052D01*
X423442Y358450D01*
X423466Y358858D01*
X423442Y359266D01*
X423347Y359664D01*
X423190Y360042D01*
X422976Y360391D01*
X422710Y360702D01*
X422399Y360968D01*
X422050Y361182D01*
X421672Y361339D01*
X421274Y361434D01*
X420866Y361466D01*
X420665Y361450D01*
Y378384D01*
X420883Y378518D01*
X421206Y378794D01*
X421482Y379117D01*
X421704Y379479D01*
X421867Y379872D01*
X421966Y380285D01*
X421991Y380709D01*
X421966Y381132D01*
X421867Y381546D01*
X421704Y381938D01*
X421482Y382301D01*
X421206Y382624D01*
X420883Y382900D01*
X420665Y383033D01*
Y388780D01*
G37*
G36*
X411805D02*X420665D01*
Y383033D01*
X420521Y383122D01*
X420128Y383284D01*
X419715Y383384D01*
X419291Y383417D01*
X418868Y383384D01*
X418454Y383284D01*
X418062Y383122D01*
X417699Y382900D01*
X417376Y382624D01*
X417100Y382301D01*
X416878Y381938D01*
X416716Y381546D01*
X416616Y381132D01*
X416583Y380709D01*
X416616Y380285D01*
X416716Y379872D01*
X416878Y379479D01*
X417100Y379117D01*
X417376Y378794D01*
X417699Y378518D01*
X418062Y378296D01*
X418454Y378133D01*
X418868Y378034D01*
X419291Y378000D01*
X419715Y378034D01*
X420128Y378133D01*
X420521Y378296D01*
X420665Y378384D01*
Y361450D01*
X420458Y361434D01*
X420060Y361339D01*
X419682Y361182D01*
X419333Y360968D01*
X419022Y360702D01*
X418756Y360391D01*
X418542Y360042D01*
X418386Y359664D01*
X418290Y359266D01*
X418258Y358858D01*
X418290Y358450D01*
X418386Y358052D01*
X418542Y357674D01*
X418756Y357325D01*
X419022Y357014D01*
X419333Y356748D01*
X419682Y356535D01*
X420060Y356378D01*
X420458Y356282D01*
X420665Y356266D01*
Y350049D01*
X420261Y350017D01*
X419863Y349921D01*
X419485Y349765D01*
X419136Y349551D01*
X418825Y349285D01*
X418559Y348974D01*
X418346Y348625D01*
X418189Y348247D01*
X418093Y347849D01*
X418061Y347441D01*
X418093Y347033D01*
X418189Y346635D01*
X418346Y346257D01*
X418559Y345908D01*
X418825Y345597D01*
X419136Y345331D01*
X419485Y345117D01*
X419863Y344961D01*
X420261Y344865D01*
X420665Y344833D01*
Y329096D01*
X420521Y329185D01*
X420128Y329347D01*
X419715Y329447D01*
X419291Y329480D01*
X418868Y329447D01*
X418454Y329347D01*
X418062Y329185D01*
X417699Y328963D01*
X417376Y328687D01*
X417100Y328364D01*
X416878Y328001D01*
X416716Y327609D01*
X416616Y327195D01*
X416583Y326772D01*
X416616Y326348D01*
X416716Y325935D01*
X416878Y325542D01*
X417100Y325180D01*
X417376Y324857D01*
X417699Y324581D01*
X418062Y324359D01*
X418454Y324196D01*
X418868Y324097D01*
X419291Y324063D01*
X419715Y324097D01*
X420128Y324196D01*
X420521Y324359D01*
X420665Y324447D01*
Y310101D01*
X419291Y310209D01*
X417879Y310098D01*
X416502Y309767D01*
X415193Y309225D01*
X413985Y308485D01*
X412908Y307565D01*
X411988Y306487D01*
X411805Y306189D01*
Y388780D01*
G37*
G36*
X364161D02*X411805D01*
Y306189D01*
X411248Y305280D01*
X410705Y303971D01*
X410375Y302593D01*
X410264Y301181D01*
X410375Y299769D01*
X410705Y298391D01*
X411248Y297083D01*
X411805Y296173D01*
Y267362D01*
X411152Y267311D01*
X410510Y267156D01*
X409899Y266903D01*
X409335Y266558D01*
X408832Y266129D01*
X408403Y265626D01*
X408058Y265062D01*
X407805Y264451D01*
X407650Y263809D01*
X407598Y263150D01*
X407650Y262490D01*
X407805Y261848D01*
X408058Y261237D01*
X408403Y260673D01*
X408832Y260171D01*
X409335Y259741D01*
X409899Y259396D01*
X410510Y259143D01*
X411152Y258988D01*
X411805Y258937D01*
Y236023D01*
X411152Y235972D01*
X410510Y235817D01*
X409899Y235564D01*
X409335Y235219D01*
X408832Y234790D01*
X408403Y234287D01*
X408058Y233723D01*
X407805Y233112D01*
X407650Y232470D01*
X407598Y231811D01*
X407650Y231151D01*
X407805Y230509D01*
X408058Y229898D01*
X408403Y229334D01*
X408832Y228832D01*
X409335Y228402D01*
X409899Y228057D01*
X410510Y227804D01*
X411152Y227649D01*
X411805Y227598D01*
Y213583D01*
X364161D01*
Y238302D01*
X399052Y273192D01*
X399261Y273427D01*
X399425Y273696D01*
X399546Y273986D01*
X399619Y274292D01*
X399644Y274606D01*
X399619Y274920D01*
X399546Y275226D01*
X399531Y275261D01*
Y305044D01*
X399537Y305118D01*
X399514Y305415D01*
X399444Y305705D01*
X399330Y305980D01*
X399175Y306235D01*
X398981Y306461D01*
X398924Y306510D01*
X395478Y309956D01*
X395472Y313198D01*
X395417Y313428D01*
X395327Y313646D01*
X395203Y313847D01*
X395050Y314027D01*
X394871Y314180D01*
X394669Y314303D01*
X394451Y314394D01*
X394222Y314449D01*
X393986Y314463D01*
X386251Y314449D01*
X386021Y314394D01*
X385803Y314303D01*
X385602Y314180D01*
X385422Y314027D01*
X385269Y313847D01*
X385146Y313646D01*
X385055Y313428D01*
X385000Y313198D01*
X384986Y312963D01*
X384989Y311457D01*
X384928Y311603D01*
X384497Y312308D01*
X383960Y312936D01*
X383332Y313473D01*
X382627Y313905D01*
X381864Y314221D01*
X381060Y314414D01*
X380236Y314479D01*
X379412Y314414D01*
X378609Y314221D01*
X377845Y313905D01*
X377141Y313473D01*
X376512Y312936D01*
X375976Y312308D01*
X375544Y311603D01*
X375228Y310840D01*
X375035Y310036D01*
X375034Y310030D01*
X374869Y310718D01*
X374577Y311424D01*
X374177Y312076D01*
X373681Y312657D01*
X373099Y313154D01*
X372448Y313553D01*
X371742Y313845D01*
X370998Y314024D01*
X370236Y314084D01*
X369474Y314024D01*
X368731Y313845D01*
X368025Y313553D01*
X367373Y313154D01*
X366792Y312657D01*
X366295Y312076D01*
X365896Y311424D01*
X365603Y310718D01*
X365425Y309975D01*
X365365Y309213D01*
X365425Y308451D01*
X365603Y307707D01*
X365896Y307001D01*
X366295Y306349D01*
X366792Y305768D01*
X367373Y305272D01*
X368025Y304872D01*
X368731Y304580D01*
X369474Y304401D01*
X370236Y304341D01*
X370998Y304401D01*
X371742Y304580D01*
X372230Y304782D01*
X373500Y303513D01*
Y302811D01*
X373099Y303154D01*
X372448Y303553D01*
X371742Y303845D01*
X370998Y304024D01*
X370236Y304084D01*
X369474Y304024D01*
X368731Y303845D01*
X368025Y303553D01*
X367373Y303154D01*
X366792Y302657D01*
X366295Y302076D01*
X365896Y301424D01*
X365603Y300718D01*
X365425Y299975D01*
X365365Y299213D01*
X365425Y298451D01*
X365603Y297707D01*
X365896Y297001D01*
X366295Y296349D01*
X366792Y295768D01*
X367373Y295272D01*
X368025Y294872D01*
X368731Y294580D01*
X369474Y294401D01*
X370236Y294341D01*
X370998Y294401D01*
X371742Y294580D01*
X372448Y294872D01*
X373099Y295272D01*
X373500Y295614D01*
Y294913D01*
X369457Y290870D01*
X364161D01*
Y296808D01*
X364254Y296835D01*
X364361Y296886D01*
X364458Y296953D01*
X364544Y297034D01*
X364616Y297127D01*
X364670Y297232D01*
X364841Y297652D01*
X364966Y298088D01*
X365050Y298534D01*
X365093Y298986D01*
Y299439D01*
X365050Y299891D01*
X364966Y300337D01*
X364841Y300773D01*
X364675Y301195D01*
X364619Y301300D01*
X364547Y301394D01*
X364460Y301475D01*
X364363Y301543D01*
X364256Y301593D01*
X364161Y301621D01*
Y306808D01*
X364254Y306835D01*
X364361Y306886D01*
X364458Y306953D01*
X364544Y307034D01*
X364616Y307127D01*
X364670Y307232D01*
X364841Y307652D01*
X364966Y308088D01*
X365050Y308534D01*
X365093Y308986D01*
Y309439D01*
X365050Y309891D01*
X364966Y310337D01*
X364841Y310773D01*
X364675Y311195D01*
X364619Y311300D01*
X364547Y311394D01*
X364460Y311475D01*
X364363Y311543D01*
X364256Y311593D01*
X364161Y311621D01*
Y388780D01*
G37*
G36*
Y213583D02*X360238D01*
Y234378D01*
X364161Y238302D01*
Y213583D01*
G37*
G36*
X360238Y388780D02*X364161D01*
Y311621D01*
X364142Y311627D01*
X364024Y311642D01*
X363906Y311639D01*
X363789Y311617D01*
X363677Y311578D01*
X363573Y311521D01*
X363479Y311449D01*
X363397Y311362D01*
X363330Y311265D01*
X363279Y311157D01*
X363246Y311044D01*
X363230Y310926D01*
X363234Y310807D01*
X363255Y310691D01*
X363297Y310580D01*
X363415Y310290D01*
X363502Y309989D01*
X363560Y309681D01*
X363589Y309369D01*
Y309056D01*
X363560Y308744D01*
X363502Y308436D01*
X363415Y308135D01*
X363301Y307844D01*
X363259Y307733D01*
X363237Y307617D01*
X363234Y307499D01*
X363249Y307382D01*
X363283Y307269D01*
X363333Y307162D01*
X363400Y307065D01*
X363481Y306979D01*
X363575Y306907D01*
X363679Y306851D01*
X363790Y306811D01*
X363906Y306790D01*
X364024Y306786D01*
X364141Y306802D01*
X364161Y306808D01*
Y301621D01*
X364142Y301627D01*
X364024Y301642D01*
X363906Y301639D01*
X363789Y301617D01*
X363677Y301578D01*
X363573Y301521D01*
X363479Y301449D01*
X363397Y301362D01*
X363330Y301265D01*
X363279Y301157D01*
X363246Y301044D01*
X363230Y300926D01*
X363234Y300807D01*
X363255Y300691D01*
X363297Y300580D01*
X363415Y300290D01*
X363502Y299989D01*
X363560Y299681D01*
X363589Y299369D01*
Y299056D01*
X363560Y298744D01*
X363502Y298436D01*
X363415Y298135D01*
X363301Y297844D01*
X363259Y297733D01*
X363237Y297617D01*
X363234Y297499D01*
X363249Y297382D01*
X363283Y297269D01*
X363333Y297162D01*
X363400Y297065D01*
X363481Y296979D01*
X363575Y296907D01*
X363679Y296851D01*
X363790Y296811D01*
X363906Y296790D01*
X364024Y296786D01*
X364141Y296802D01*
X364161Y296808D01*
Y290870D01*
X360238D01*
Y294356D01*
X360463D01*
X360915Y294399D01*
X361361Y294483D01*
X361797Y294608D01*
X362219Y294774D01*
X362324Y294830D01*
X362418Y294902D01*
X362499Y294988D01*
X362566Y295086D01*
X362617Y295193D01*
X362651Y295307D01*
X362666Y295425D01*
X362663Y295543D01*
X362641Y295660D01*
X362601Y295772D01*
X362545Y295876D01*
X362472Y295970D01*
X362386Y296051D01*
X362288Y296119D01*
X362181Y296169D01*
X362067Y296203D01*
X361950Y296218D01*
X361831Y296215D01*
X361714Y296193D01*
X361604Y296151D01*
X361313Y296034D01*
X361012Y295947D01*
X360705Y295889D01*
X360393Y295860D01*
X360238D01*
Y302565D01*
X360393D01*
X360705Y302536D01*
X361012Y302478D01*
X361313Y302391D01*
X361605Y302277D01*
X361715Y302235D01*
X361831Y302214D01*
X361949Y302211D01*
X362067Y302226D01*
X362180Y302259D01*
X362286Y302310D01*
X362384Y302377D01*
X362469Y302458D01*
X362541Y302551D01*
X362598Y302655D01*
X362637Y302766D01*
X362659Y302882D01*
X362662Y303000D01*
X362647Y303117D01*
X362614Y303231D01*
X362563Y303337D01*
X362496Y303435D01*
X362415Y303520D01*
X362322Y303592D01*
X362217Y303647D01*
X361797Y303817D01*
X361361Y303942D01*
X360915Y304027D01*
X360463Y304069D01*
X360238D01*
Y304356D01*
X360463D01*
X360915Y304399D01*
X361361Y304483D01*
X361797Y304608D01*
X362219Y304774D01*
X362324Y304830D01*
X362418Y304902D01*
X362499Y304988D01*
X362566Y305086D01*
X362617Y305193D01*
X362651Y305307D01*
X362666Y305425D01*
X362663Y305543D01*
X362641Y305660D01*
X362601Y305772D01*
X362545Y305876D01*
X362472Y305970D01*
X362386Y306051D01*
X362288Y306119D01*
X362181Y306169D01*
X362067Y306203D01*
X361950Y306218D01*
X361831Y306215D01*
X361714Y306193D01*
X361604Y306151D01*
X361313Y306034D01*
X361012Y305947D01*
X360705Y305889D01*
X360393Y305860D01*
X360238D01*
Y312565D01*
X360393D01*
X360705Y312536D01*
X361012Y312478D01*
X361313Y312391D01*
X361605Y312277D01*
X361715Y312235D01*
X361831Y312214D01*
X361949Y312211D01*
X362067Y312226D01*
X362180Y312259D01*
X362286Y312310D01*
X362384Y312377D01*
X362469Y312458D01*
X362541Y312551D01*
X362598Y312655D01*
X362637Y312766D01*
X362659Y312882D01*
X362662Y313000D01*
X362647Y313117D01*
X362614Y313231D01*
X362563Y313337D01*
X362496Y313435D01*
X362415Y313520D01*
X362322Y313592D01*
X362217Y313647D01*
X361797Y313817D01*
X361361Y313942D01*
X360915Y314027D01*
X360463Y314069D01*
X360238D01*
Y388780D01*
G37*
G36*
Y213583D02*X338578D01*
Y220315D01*
X342566Y224303D01*
X343003Y224198D01*
X343504Y224159D01*
X344005Y224198D01*
X344494Y224315D01*
X344958Y224508D01*
X345387Y224770D01*
X345769Y225097D01*
X345996Y225362D01*
X350315D01*
X350394Y225356D01*
X350708Y225381D01*
X351014Y225454D01*
X351304Y225575D01*
X351573Y225739D01*
X351812Y225944D01*
X351863Y226003D01*
X360238Y234378D01*
Y213583D01*
G37*
G36*
X356311Y388780D02*X360238D01*
Y314069D01*
X360009D01*
X359558Y314027D01*
X359112Y313942D01*
X358676Y313817D01*
X358253Y313651D01*
X358149Y313595D01*
X358055Y313523D01*
X357973Y313437D01*
X357906Y313339D01*
X357855Y313232D01*
X357822Y313118D01*
X357806Y313000D01*
X357810Y312882D01*
X357831Y312765D01*
X357871Y312654D01*
X357928Y312549D01*
X358000Y312455D01*
X358086Y312374D01*
X358184Y312307D01*
X358291Y312256D01*
X358405Y312222D01*
X358523Y312207D01*
X358641Y312210D01*
X358758Y312232D01*
X358869Y312274D01*
X359159Y312391D01*
X359460Y312478D01*
X359768Y312536D01*
X360080Y312565D01*
X360238D01*
Y305860D01*
X360080D01*
X359768Y305889D01*
X359460Y305947D01*
X359159Y306034D01*
X358867Y306148D01*
X358757Y306190D01*
X358641Y306211D01*
X358523Y306215D01*
X358406Y306199D01*
X358293Y306166D01*
X358186Y306115D01*
X358089Y306049D01*
X358003Y305967D01*
X357931Y305874D01*
X357875Y305770D01*
X357835Y305659D01*
X357813Y305543D01*
X357810Y305425D01*
X357825Y305308D01*
X357859Y305195D01*
X357909Y305088D01*
X357976Y304991D01*
X358057Y304905D01*
X358151Y304833D01*
X358256Y304779D01*
X358676Y304608D01*
X359112Y304483D01*
X359558Y304399D01*
X360009Y304356D01*
X360238D01*
Y304069D01*
X360009D01*
X359558Y304027D01*
X359112Y303942D01*
X358676Y303817D01*
X358253Y303651D01*
X358149Y303595D01*
X358055Y303523D01*
X357973Y303437D01*
X357906Y303339D01*
X357855Y303232D01*
X357822Y303118D01*
X357806Y303000D01*
X357810Y302882D01*
X357831Y302765D01*
X357871Y302654D01*
X357928Y302549D01*
X358000Y302455D01*
X358086Y302374D01*
X358184Y302307D01*
X358291Y302256D01*
X358405Y302222D01*
X358523Y302207D01*
X358641Y302210D01*
X358758Y302232D01*
X358869Y302274D01*
X359159Y302391D01*
X359460Y302478D01*
X359768Y302536D01*
X360080Y302565D01*
X360238D01*
Y295860D01*
X360080D01*
X359768Y295889D01*
X359460Y295947D01*
X359159Y296034D01*
X358867Y296148D01*
X358757Y296190D01*
X358641Y296211D01*
X358523Y296215D01*
X358406Y296199D01*
X358293Y296166D01*
X358186Y296115D01*
X358089Y296049D01*
X358003Y295967D01*
X357931Y295874D01*
X357875Y295770D01*
X357835Y295659D01*
X357813Y295543D01*
X357810Y295425D01*
X357825Y295308D01*
X357859Y295195D01*
X357909Y295088D01*
X357976Y294991D01*
X358057Y294905D01*
X358151Y294833D01*
X358256Y294779D01*
X358676Y294608D01*
X359112Y294483D01*
X359558Y294399D01*
X360009Y294356D01*
X360238D01*
Y290870D01*
X356311D01*
Y296804D01*
X356331Y296798D01*
X356448Y296783D01*
X356567Y296786D01*
X356684Y296808D01*
X356795Y296848D01*
X356899Y296904D01*
X356994Y296977D01*
X357075Y297063D01*
X357142Y297161D01*
X357193Y297268D01*
X357227Y297382D01*
X357242Y297499D01*
X357239Y297618D01*
X357217Y297734D01*
X357175Y297845D01*
X357058Y298135D01*
X356971Y298436D01*
X356913Y298744D01*
X356884Y299056D01*
Y299369D01*
X356913Y299681D01*
X356971Y299989D01*
X357058Y300290D01*
X357172Y300581D01*
X357213Y300692D01*
X357235Y300808D01*
X357238Y300926D01*
X357223Y301043D01*
X357190Y301156D01*
X357139Y301263D01*
X357072Y301360D01*
X356991Y301446D01*
X356897Y301518D01*
X356794Y301574D01*
X356683Y301614D01*
X356567Y301635D01*
X356449Y301639D01*
X356331Y301623D01*
X356311Y301617D01*
Y306804D01*
X356331Y306798D01*
X356448Y306783D01*
X356567Y306786D01*
X356684Y306808D01*
X356795Y306848D01*
X356899Y306904D01*
X356994Y306977D01*
X357075Y307063D01*
X357142Y307161D01*
X357193Y307268D01*
X357227Y307382D01*
X357242Y307499D01*
X357239Y307618D01*
X357217Y307734D01*
X357175Y307845D01*
X357058Y308135D01*
X356971Y308436D01*
X356913Y308744D01*
X356884Y309056D01*
Y309369D01*
X356913Y309681D01*
X356971Y309989D01*
X357058Y310290D01*
X357172Y310581D01*
X357213Y310692D01*
X357235Y310808D01*
X357238Y310926D01*
X357223Y311043D01*
X357190Y311156D01*
X357139Y311263D01*
X357072Y311360D01*
X356991Y311446D01*
X356897Y311518D01*
X356794Y311574D01*
X356683Y311614D01*
X356567Y311635D01*
X356449Y311639D01*
X356331Y311623D01*
X356311Y311617D01*
Y388780D01*
G37*
G36*
X338578D02*X356311D01*
Y311617D01*
X356218Y311590D01*
X356112Y311539D01*
X356014Y311473D01*
X355929Y311391D01*
X355857Y311298D01*
X355802Y311193D01*
X355632Y310773D01*
X355506Y310337D01*
X355422Y309891D01*
X355380Y309439D01*
Y308986D01*
X355422Y308534D01*
X355506Y308088D01*
X355632Y307652D01*
X355797Y307230D01*
X355853Y307125D01*
X355926Y307031D01*
X356012Y306950D01*
X356110Y306883D01*
X356217Y306832D01*
X356311Y306804D01*
Y301617D01*
X356218Y301590D01*
X356112Y301539D01*
X356014Y301473D01*
X355929Y301391D01*
X355857Y301298D01*
X355802Y301193D01*
X355632Y300773D01*
X355506Y300337D01*
X355422Y299891D01*
X355380Y299439D01*
Y298986D01*
X355422Y298534D01*
X355506Y298088D01*
X355632Y297652D01*
X355797Y297230D01*
X355853Y297125D01*
X355926Y297031D01*
X356012Y296950D01*
X356110Y296883D01*
X356217Y296832D01*
X356311Y296804D01*
Y290870D01*
X340425D01*
X340190Y291253D01*
X339864Y291635D01*
X339481Y291962D01*
X339053Y292224D01*
X338588Y292417D01*
X338578Y292419D01*
Y388780D01*
G37*
G36*
Y224557D02*X335993Y221972D01*
X323220D01*
Y237437D01*
X325822Y240039D01*
X325867Y240078D01*
X326020Y240257D01*
X326020Y240257D01*
X326144Y240459D01*
X326234Y240677D01*
X326289Y240906D01*
X326308Y241142D01*
X326303Y241201D01*
Y284218D01*
X326413Y284090D01*
X326469Y284042D01*
X338578Y271933D01*
Y254740D01*
X334967Y251932D01*
X334651Y252063D01*
X334163Y252180D01*
X333661Y252219D01*
X333160Y252180D01*
X332671Y252063D01*
X332207Y251870D01*
X331778Y251607D01*
X331396Y251281D01*
X331070Y250899D01*
X330807Y250470D01*
X330615Y250006D01*
X330497Y249517D01*
X330458Y249016D01*
X330497Y248515D01*
X330615Y248026D01*
X330807Y247561D01*
X331070Y247133D01*
X331396Y246750D01*
X331778Y246424D01*
X332207Y246161D01*
X332671Y245969D01*
X333160Y245852D01*
X333661Y245812D01*
X334163Y245852D01*
X334651Y245969D01*
X335116Y246161D01*
X335544Y246424D01*
X335927Y246750D01*
X336253Y247133D01*
X336516Y247561D01*
X336708Y248026D01*
X336826Y248515D01*
X336855Y249016D01*
X336826Y249517D01*
X336813Y249567D01*
X338578Y250939D01*
Y224557D01*
G37*
G36*
Y213583D02*X323220D01*
Y218972D01*
X336555D01*
X336614Y218968D01*
X336849Y218986D01*
X336850Y218986D01*
X337079Y219041D01*
X337297Y219132D01*
X337499Y219255D01*
X337678Y219409D01*
X337716Y219453D01*
X338578Y220315D01*
Y213583D01*
G37*
G36*
X329130Y388780D02*X338578D01*
Y292419D01*
X338100Y292534D01*
X337598Y292574D01*
X337097Y292534D01*
X336608Y292417D01*
X336144Y292224D01*
X335715Y291962D01*
X335333Y291635D01*
X335007Y291253D01*
X334744Y290824D01*
X334552Y290360D01*
X334434Y289871D01*
X334395Y289370D01*
X334434Y288869D01*
X334552Y288380D01*
X334744Y287916D01*
X335007Y287487D01*
X335333Y287105D01*
X335715Y286778D01*
X336144Y286516D01*
X336608Y286323D01*
X337097Y286206D01*
X337598Y286167D01*
X338100Y286206D01*
X338578Y286321D01*
Y277289D01*
X329650Y286217D01*
Y305044D01*
X329655Y305118D01*
X329632Y305415D01*
X329562Y305705D01*
X329448Y305980D01*
X329293Y306235D01*
X329130Y306425D01*
Y324064D01*
X329134Y324063D01*
X329558Y324097D01*
X329971Y324196D01*
X330364Y324359D01*
X330726Y324581D01*
X331049Y324857D01*
X331325Y325180D01*
X331547Y325542D01*
X331710Y325935D01*
X331809Y326348D01*
X331834Y326772D01*
X331809Y327195D01*
X331710Y327609D01*
X331547Y328001D01*
X331325Y328364D01*
X331049Y328687D01*
X330726Y328963D01*
X330364Y329185D01*
X329971Y329347D01*
X329558Y329447D01*
X329134Y329480D01*
X329130Y329480D01*
Y336269D01*
X329134Y336268D01*
X329558Y336302D01*
X329971Y336401D01*
X330364Y336564D01*
X330726Y336786D01*
X331049Y337062D01*
X331325Y337385D01*
X331547Y337747D01*
X331710Y338140D01*
X331809Y338553D01*
X331834Y338977D01*
X331809Y339400D01*
X331710Y339814D01*
X331547Y340206D01*
X331325Y340569D01*
X331049Y340892D01*
X330726Y341168D01*
X330364Y341390D01*
X329971Y341552D01*
X329558Y341652D01*
X329134Y341685D01*
X329130Y341685D01*
Y365796D01*
X329134Y365795D01*
X329558Y365829D01*
X329971Y365928D01*
X330364Y366091D01*
X330726Y366313D01*
X331049Y366589D01*
X331325Y366912D01*
X331547Y367274D01*
X331710Y367667D01*
X331809Y368080D01*
X331834Y368504D01*
X331809Y368927D01*
X331710Y369341D01*
X331547Y369733D01*
X331325Y370096D01*
X331049Y370419D01*
X330726Y370695D01*
X330364Y370917D01*
X329971Y371079D01*
X329558Y371179D01*
X329134Y371212D01*
X329130Y371212D01*
Y378001D01*
X329134Y378000D01*
X329558Y378034D01*
X329971Y378133D01*
X330364Y378296D01*
X330726Y378518D01*
X331049Y378794D01*
X331325Y379117D01*
X331547Y379479D01*
X331710Y379872D01*
X331809Y380285D01*
X331834Y380709D01*
X331809Y381132D01*
X331710Y381546D01*
X331547Y381938D01*
X331325Y382301D01*
X331049Y382624D01*
X330726Y382900D01*
X330364Y383122D01*
X329971Y383284D01*
X329558Y383384D01*
X329134Y383417D01*
X329130Y383417D01*
Y388780D01*
G37*
G36*
X323220D02*X329130D01*
Y383417D01*
X328711Y383384D01*
X328297Y383284D01*
X327905Y383122D01*
X327542Y382900D01*
X327219Y382624D01*
X326943Y382301D01*
X326721Y381938D01*
X326558Y381546D01*
X326459Y381132D01*
X326426Y380709D01*
X326459Y380285D01*
X326558Y379872D01*
X326721Y379479D01*
X326943Y379117D01*
X327219Y378794D01*
X327542Y378518D01*
X327905Y378296D01*
X328297Y378133D01*
X328711Y378034D01*
X329130Y378001D01*
Y371212D01*
X328711Y371179D01*
X328297Y371079D01*
X327905Y370917D01*
X327542Y370695D01*
X327219Y370419D01*
X326943Y370096D01*
X326721Y369733D01*
X326558Y369341D01*
X326459Y368927D01*
X326426Y368504D01*
X326459Y368080D01*
X326558Y367667D01*
X326721Y367274D01*
X326943Y366912D01*
X327219Y366589D01*
X327542Y366313D01*
X327905Y366091D01*
X328297Y365928D01*
X328711Y365829D01*
X329130Y365796D01*
Y341685D01*
X328711Y341652D01*
X328297Y341552D01*
X327905Y341390D01*
X327542Y341168D01*
X327219Y340892D01*
X326943Y340569D01*
X326721Y340206D01*
X326558Y339814D01*
X326459Y339400D01*
X326426Y338977D01*
X326459Y338553D01*
X326558Y338140D01*
X326721Y337747D01*
X326943Y337385D01*
X327219Y337062D01*
X327542Y336786D01*
X327905Y336564D01*
X328297Y336401D01*
X328711Y336302D01*
X329130Y336269D01*
Y329480D01*
X328711Y329447D01*
X328297Y329347D01*
X327905Y329185D01*
X327542Y328963D01*
X327219Y328687D01*
X326943Y328364D01*
X326721Y328001D01*
X326558Y327609D01*
X326459Y327195D01*
X326426Y326772D01*
X326459Y326348D01*
X326558Y325935D01*
X326721Y325542D01*
X326943Y325180D01*
X327219Y324857D01*
X327542Y324581D01*
X327905Y324359D01*
X328297Y324196D01*
X328711Y324097D01*
X329130Y324064D01*
Y306425D01*
X329099Y306461D01*
X329042Y306510D01*
X327152Y308400D01*
X327181Y308523D01*
X327213Y309055D01*
X327181Y309588D01*
X327056Y310107D01*
X326852Y310601D01*
X326573Y311056D01*
X326226Y311462D01*
X325820Y311809D01*
X325364Y312088D01*
X324871Y312293D01*
X324351Y312417D01*
X323819Y312459D01*
X323286Y312417D01*
X323220Y312401D01*
Y388780D01*
G37*
G36*
X281984Y236689D02*X292686D01*
X309921Y219453D01*
X309960Y219409D01*
X310139Y219255D01*
X310341Y219132D01*
X310559Y219041D01*
X310788Y218986D01*
X311024Y218968D01*
X311082Y218972D01*
X323220D01*
Y213583D01*
X294058D01*
X294184Y213690D01*
X294337Y213870D01*
X294461Y214071D01*
X294551Y214289D01*
X294606Y214519D01*
X294620Y214754D01*
X294606Y222489D01*
X294551Y222719D01*
X294461Y222937D01*
X294337Y223138D01*
X294184Y223318D01*
X294004Y223471D01*
X293803Y223595D01*
X293585Y223685D01*
X293355Y223740D01*
X293120Y223754D01*
X290870Y223750D01*
Y225276D01*
X290997Y225307D01*
X291761Y225623D01*
X292465Y226055D01*
X293094Y226591D01*
X293631Y227220D01*
X294062Y227924D01*
X294379Y228688D01*
X294571Y229491D01*
X294620Y230315D01*
X294571Y231139D01*
X294379Y231942D01*
X294062Y232706D01*
X293631Y233410D01*
X293094Y234039D01*
X292465Y234575D01*
X291761Y235007D01*
X290997Y235323D01*
X290194Y235516D01*
X289370Y235581D01*
X288546Y235516D01*
X287743Y235323D01*
X286979Y235007D01*
X286275Y234575D01*
X285646Y234039D01*
X285110Y233410D01*
X284678Y232706D01*
X284370Y231963D01*
X284062Y232706D01*
X283631Y233410D01*
X283094Y234039D01*
X282465Y234575D01*
X281984Y234871D01*
Y236689D01*
G37*
G36*
X314963Y229180D02*X323220Y237437D01*
Y221972D01*
X314963D01*
Y229180D01*
G37*
G36*
Y284917D02*X318029D01*
X318268Y284528D01*
X318594Y284145D01*
X318976Y283819D01*
X319405Y283556D01*
X319869Y283364D01*
X320358Y283247D01*
X320859Y283207D01*
X321361Y283247D01*
X321849Y283364D01*
X322314Y283556D01*
X322742Y283819D01*
X323125Y284145D01*
X323220Y284257D01*
Y241680D01*
X314963Y233422D01*
Y284917D01*
G37*
G36*
Y304867D02*X315462Y304907D01*
X315899Y305012D01*
X323220Y297690D01*
Y288564D01*
X323125Y288676D01*
X322742Y289002D01*
X322314Y289265D01*
X321849Y289457D01*
X321361Y289575D01*
X320859Y289614D01*
X320358Y289575D01*
X319869Y289457D01*
X319405Y289265D01*
X318976Y289002D01*
X318594Y288676D01*
X318268Y288294D01*
X318037Y287917D01*
X314963D01*
Y304867D01*
G37*
G36*
X318510Y388780D02*X323220D01*
Y312401D01*
X322767Y312293D01*
X322273Y312088D01*
X321818Y311809D01*
X321412Y311462D01*
X321065Y311056D01*
X320786Y310601D01*
X320581Y310107D01*
X320457Y309588D01*
X320415Y309055D01*
X320457Y308523D01*
X320581Y308003D01*
X320786Y307510D01*
X321065Y307054D01*
X321412Y306648D01*
X321818Y306301D01*
X322273Y306022D01*
X322767Y305818D01*
X323220Y305709D01*
Y301933D01*
X318510Y306643D01*
Y329543D01*
X318516Y329543D01*
X318622Y329576D01*
X318721Y329625D01*
X318811Y329689D01*
X318890Y329766D01*
X318956Y329854D01*
X319006Y329953D01*
X319150Y330323D01*
X319257Y330706D01*
X319328Y331098D01*
X319364Y331494D01*
Y331892D01*
X319328Y332288D01*
X319257Y332679D01*
X319150Y333063D01*
X319010Y333435D01*
X318959Y333533D01*
X318892Y333622D01*
X318813Y333700D01*
X318722Y333764D01*
X318623Y333813D01*
X318517Y333845D01*
X318510Y333846D01*
Y388780D01*
G37*
G36*
X314963D02*X318510D01*
Y333846D01*
X318407Y333861D01*
X318296Y333860D01*
X318187Y333841D01*
X318082Y333805D01*
X317984Y333753D01*
X317895Y333687D01*
X317818Y333608D01*
X317754Y333517D01*
X317705Y333417D01*
X317672Y333312D01*
X317656Y333202D01*
X317657Y333091D01*
X317676Y332982D01*
X317714Y332877D01*
X317812Y332625D01*
X317885Y332364D01*
X317934Y332098D01*
X317958Y331828D01*
Y331558D01*
X317934Y331288D01*
X317885Y331021D01*
X317812Y330761D01*
X317717Y330507D01*
X317679Y330403D01*
X317660Y330295D01*
X317659Y330184D01*
X317675Y330075D01*
X317707Y329969D01*
X317756Y329870D01*
X317820Y329780D01*
X317897Y329701D01*
X317985Y329635D01*
X318083Y329583D01*
X318188Y329548D01*
X318296Y329529D01*
X318407Y329528D01*
X318510Y329543D01*
Y306643D01*
X318020Y307133D01*
X318125Y307570D01*
X318154Y308071D01*
X318125Y308572D01*
X318007Y309061D01*
X317815Y309525D01*
X317552Y309954D01*
X317226Y310336D01*
X316844Y310663D01*
X316415Y310925D01*
X315951Y311118D01*
X315462Y311235D01*
X314963Y311274D01*
Y327290D01*
X315160D01*
X315556Y327326D01*
X315948Y327397D01*
X316331Y327504D01*
X316703Y327644D01*
X316802Y327695D01*
X316890Y327762D01*
X316968Y327841D01*
X317032Y327932D01*
X317081Y328031D01*
X317113Y328137D01*
X317129Y328247D01*
X317128Y328358D01*
X317109Y328467D01*
X317073Y328572D01*
X317022Y328670D01*
X316955Y328759D01*
X316876Y328836D01*
X316785Y328900D01*
X316686Y328949D01*
X316580Y328982D01*
X316470Y328998D01*
X316359Y328997D01*
X316250Y328978D01*
X316146Y328940D01*
X315893Y328841D01*
X315632Y328769D01*
X315366Y328720D01*
X315096Y328696D01*
X314963D01*
Y334690D01*
X315096D01*
X315366Y334665D01*
X315632Y334617D01*
X315893Y334544D01*
X316147Y334449D01*
X316250Y334411D01*
X316359Y334392D01*
X316470Y334391D01*
X316579Y334407D01*
X316684Y334439D01*
X316784Y334488D01*
X316874Y334552D01*
X316953Y334629D01*
X317019Y334717D01*
X317070Y334815D01*
X317106Y334920D01*
X317125Y335028D01*
X317126Y335139D01*
X317110Y335248D01*
X317078Y335354D01*
X317029Y335453D01*
X316965Y335543D01*
X316888Y335622D01*
X316800Y335688D01*
X316701Y335738D01*
X316331Y335882D01*
X315948Y335989D01*
X315556Y336060D01*
X315160Y336096D01*
X314963D01*
Y388780D01*
G37*
G36*
X311412Y224189D02*X311525Y224198D01*
X312014Y224315D01*
X312478Y224508D01*
X312907Y224770D01*
X313289Y225097D01*
X313615Y225479D01*
X313878Y225908D01*
X314070Y226372D01*
X314188Y226861D01*
X314217Y227362D01*
X314188Y227863D01*
X314083Y228300D01*
X314963Y229180D01*
Y221972D01*
X311645D01*
X311412Y222205D01*
Y224189D01*
G37*
G36*
Y284917D02*X314963D01*
Y233422D01*
X311962Y230421D01*
X311525Y230526D01*
X311412Y230535D01*
Y284917D01*
G37*
G36*
Y388780D02*X314963D01*
Y336096D01*
X314762D01*
X314366Y336060D01*
X313974Y335989D01*
X313591Y335882D01*
X313219Y335742D01*
X313121Y335691D01*
X313032Y335624D01*
X312954Y335545D01*
X312890Y335454D01*
X312841Y335355D01*
X312809Y335249D01*
X312793Y335139D01*
X312794Y335028D01*
X312813Y334919D01*
X312849Y334814D01*
X312900Y334716D01*
X312967Y334627D01*
X313046Y334549D01*
X313137Y334485D01*
X313236Y334436D01*
X313342Y334404D01*
X313452Y334388D01*
X313563Y334389D01*
X313672Y334408D01*
X313777Y334446D01*
X314029Y334544D01*
X314290Y334617D01*
X314556Y334665D01*
X314826Y334690D01*
X314963D01*
Y328696D01*
X314826D01*
X314556Y328720D01*
X314290Y328769D01*
X314029Y328841D01*
X313775Y328937D01*
X313672Y328975D01*
X313563Y328993D01*
X313452Y328995D01*
X313343Y328979D01*
X313238Y328947D01*
X313139Y328898D01*
X313048Y328834D01*
X312969Y328757D01*
X312903Y328669D01*
X312852Y328571D01*
X312816Y328466D01*
X312797Y328358D01*
X312796Y328247D01*
X312812Y328138D01*
X312844Y328032D01*
X312893Y327933D01*
X312957Y327843D01*
X313034Y327764D01*
X313122Y327698D01*
X313221Y327648D01*
X313591Y327504D01*
X313974Y327397D01*
X314366Y327326D01*
X314762Y327290D01*
X314963D01*
Y311274D01*
X314961Y311274D01*
X314459Y311235D01*
X313971Y311118D01*
X313506Y310925D01*
X313078Y310663D01*
X312695Y310336D01*
X312369Y309954D01*
X312106Y309525D01*
X311914Y309061D01*
X311797Y308572D01*
X311757Y308071D01*
X311797Y307570D01*
X311914Y307081D01*
X312106Y306616D01*
X312369Y306188D01*
X312695Y305806D01*
X313078Y305479D01*
X313506Y305216D01*
X313971Y305024D01*
X314459Y304907D01*
X314961Y304867D01*
X314963Y304867D01*
Y287917D01*
X312221D01*
X312249Y288386D01*
X312219Y288887D01*
X312102Y289376D01*
X311910Y289840D01*
X311647Y290269D01*
X311412Y290544D01*
Y329539D01*
X311515Y329525D01*
X311626Y329526D01*
X311735Y329545D01*
X311840Y329581D01*
X311938Y329632D01*
X312027Y329699D01*
X312105Y329778D01*
X312168Y329869D01*
X312217Y329968D01*
X312250Y330074D01*
X312266Y330184D01*
X312265Y330295D01*
X312246Y330404D01*
X312208Y330508D01*
X312110Y330761D01*
X312037Y331021D01*
X311988Y331288D01*
X311964Y331558D01*
Y331828D01*
X311988Y332098D01*
X312037Y332364D01*
X312110Y332625D01*
X312205Y332879D01*
X312243Y332982D01*
X312262Y333091D01*
X312263Y333202D01*
X312247Y333311D01*
X312215Y333416D01*
X312166Y333515D01*
X312102Y333606D01*
X312025Y333685D01*
X311937Y333751D01*
X311839Y333802D01*
X311734Y333838D01*
X311626Y333857D01*
X311515Y333858D01*
X311412Y333843D01*
Y388780D01*
G37*
G36*
X303759D02*X311412D01*
Y333843D01*
X311406Y333842D01*
X311300Y333810D01*
X311201Y333761D01*
X311111Y333697D01*
X311032Y333620D01*
X310966Y333532D01*
X310916Y333433D01*
X310772Y333063D01*
X310665Y332679D01*
X310594Y332288D01*
X310558Y331892D01*
Y331494D01*
X310594Y331098D01*
X310665Y330706D01*
X310772Y330323D01*
X310912Y329951D01*
X310963Y329852D01*
X311030Y329764D01*
X311109Y329686D01*
X311200Y329622D01*
X311299Y329573D01*
X311405Y329540D01*
X311412Y329539D01*
Y290544D01*
X311320Y290651D01*
X310938Y290978D01*
X310510Y291240D01*
X310045Y291433D01*
X309556Y291550D01*
X309055Y291589D01*
X308554Y291550D01*
X308065Y291433D01*
X307601Y291240D01*
X307172Y290978D01*
X306790Y290651D01*
X306463Y290269D01*
X306201Y289840D01*
X306008Y289376D01*
X305891Y288887D01*
X305852Y288386D01*
X305891Y287885D01*
X306008Y287396D01*
X306201Y286931D01*
X306463Y286503D01*
X306790Y286121D01*
X307172Y285794D01*
X307601Y285531D01*
X308065Y285339D01*
X308554Y285222D01*
X309055Y285182D01*
X309556Y285222D01*
X309674Y285250D01*
X309732Y285200D01*
X309933Y285077D01*
X310152Y284986D01*
X310381Y284931D01*
X310617Y284913D01*
X310675Y284917D01*
X311412D01*
Y230535D01*
X311024Y230566D01*
X310522Y230526D01*
X310034Y230409D01*
X309569Y230217D01*
X309141Y229954D01*
X308758Y229627D01*
X308432Y229245D01*
X308169Y228817D01*
X307977Y228352D01*
X307860Y227863D01*
X307820Y227362D01*
X307860Y226861D01*
X307977Y226372D01*
X308169Y225908D01*
X308432Y225479D01*
X308758Y225097D01*
X309141Y224770D01*
X309569Y224508D01*
X310034Y224315D01*
X310522Y224198D01*
X311024Y224159D01*
X311412Y224189D01*
Y222205D01*
X303759Y229858D01*
Y283861D01*
X303829Y283882D01*
X303900Y283916D01*
X303965Y283961D01*
X304021Y284015D01*
X304069Y284078D01*
X304105Y284148D01*
X304214Y284421D01*
X304294Y284704D01*
X304348Y284993D01*
X304375Y285286D01*
Y285580D01*
X304348Y285873D01*
X304294Y286162D01*
X304214Y286445D01*
X304108Y286720D01*
X304071Y286790D01*
X304023Y286852D01*
X303966Y286907D01*
X303901Y286952D01*
X303830Y286987D01*
X303759Y287008D01*
Y350564D01*
X305288Y350567D01*
X305586Y350639D01*
X305870Y350756D01*
X306131Y350917D01*
X306365Y351116D01*
X306564Y351349D01*
X306724Y351611D01*
X306842Y351895D01*
X306914Y352193D01*
X306932Y352499D01*
X306914Y360405D01*
X306842Y360704D01*
X306724Y360987D01*
X306564Y361249D01*
X306365Y361482D01*
X306131Y361682D01*
X305870Y361842D01*
X305586Y361959D01*
X305288Y362031D01*
X304982Y362049D01*
X303759Y362046D01*
Y388780D01*
G37*
G36*
Y229858D02*X301182Y232435D01*
Y282239D01*
X301328D01*
X301621Y282266D01*
X301910Y282320D01*
X302193Y282400D01*
X302468Y282506D01*
X302538Y282543D01*
X302600Y282591D01*
X302655Y282648D01*
X302700Y282713D01*
X302735Y282784D01*
X302757Y282860D01*
X302768Y282938D01*
X302766Y283017D01*
X302752Y283095D01*
X302726Y283170D01*
X302689Y283240D01*
X302641Y283302D01*
X302584Y283357D01*
X302519Y283402D01*
X302448Y283437D01*
X302372Y283459D01*
X302294Y283470D01*
X302215Y283468D01*
X302137Y283454D01*
X302063Y283427D01*
X301876Y283352D01*
X301681Y283297D01*
X301483Y283260D01*
X301282Y283242D01*
X301182D01*
Y287624D01*
X301282D01*
X301483Y287606D01*
X301681Y287569D01*
X301876Y287514D01*
X302064Y287441D01*
X302138Y287414D01*
X302215Y287400D01*
X302294Y287398D01*
X302372Y287409D01*
X302447Y287432D01*
X302518Y287466D01*
X302583Y287511D01*
X302639Y287565D01*
X302687Y287628D01*
X302724Y287697D01*
X302750Y287772D01*
X302764Y287849D01*
X302766Y287928D01*
X302755Y288006D01*
X302732Y288081D01*
X302698Y288152D01*
X302653Y288216D01*
X302599Y288273D01*
X302536Y288321D01*
X302466Y288357D01*
X302193Y288466D01*
X301910Y288546D01*
X301621Y288600D01*
X301328Y288627D01*
X301182D01*
Y350558D01*
X303759Y350564D01*
Y287008D01*
X303754Y287009D01*
X303676Y287020D01*
X303597Y287018D01*
X303519Y287004D01*
X303444Y286978D01*
X303375Y286941D01*
X303312Y286893D01*
X303257Y286836D01*
X303212Y286771D01*
X303178Y286700D01*
X303155Y286624D01*
X303144Y286546D01*
X303146Y286467D01*
X303160Y286389D01*
X303187Y286315D01*
X303262Y286128D01*
X303317Y285933D01*
X303354Y285735D01*
X303372Y285534D01*
Y285332D01*
X303354Y285131D01*
X303317Y284933D01*
X303262Y284739D01*
X303189Y284550D01*
X303162Y284477D01*
X303148Y284399D01*
X303146Y284320D01*
X303157Y284242D01*
X303180Y284167D01*
X303214Y284096D01*
X303259Y284032D01*
X303313Y283975D01*
X303376Y283927D01*
X303445Y283890D01*
X303520Y283864D01*
X303597Y283850D01*
X303676Y283848D01*
X303754Y283859D01*
X303759Y283861D01*
Y229858D01*
G37*
G36*
X301182Y388780D02*X303759D01*
Y362046D01*
X301182Y362041D01*
Y388780D01*
G37*
G36*
Y232435D02*X298603Y235015D01*
Y283858D01*
X298608Y283857D01*
X298686Y283846D01*
X298765Y283848D01*
X298843Y283862D01*
X298918Y283888D01*
X298988Y283925D01*
X299051Y283973D01*
X299105Y284030D01*
X299150Y284095D01*
X299185Y284166D01*
X299208Y284242D01*
X299218Y284320D01*
X299216Y284399D01*
X299202Y284477D01*
X299175Y284551D01*
X299100Y284739D01*
X299045Y284933D01*
X299008Y285131D01*
X298990Y285332D01*
Y285534D01*
X299008Y285735D01*
X299045Y285933D01*
X299100Y286128D01*
X299173Y286316D01*
X299200Y286390D01*
X299214Y286467D01*
X299216Y286546D01*
X299205Y286624D01*
X299183Y286699D01*
X299148Y286770D01*
X299103Y286835D01*
X299049Y286891D01*
X298986Y286939D01*
X298917Y286976D01*
X298843Y287002D01*
X298765Y287016D01*
X298687Y287018D01*
X298609Y287007D01*
X298603Y287005D01*
Y350552D01*
X301182Y350558D01*
Y288627D01*
X301034D01*
X300741Y288600D01*
X300452Y288546D01*
X300169Y288466D01*
X299895Y288360D01*
X299825Y288323D01*
X299762Y288275D01*
X299707Y288218D01*
X299662Y288153D01*
X299628Y288082D01*
X299605Y288006D01*
X299594Y287928D01*
X299596Y287849D01*
X299610Y287771D01*
X299636Y287696D01*
X299673Y287627D01*
X299721Y287564D01*
X299778Y287509D01*
X299843Y287464D01*
X299914Y287429D01*
X299990Y287407D01*
X300068Y287396D01*
X300147Y287398D01*
X300225Y287412D01*
X300299Y287439D01*
X300487Y287514D01*
X300681Y287569D01*
X300879Y287606D01*
X301080Y287624D01*
X301182D01*
Y283242D01*
X301080D01*
X300879Y283260D01*
X300681Y283297D01*
X300487Y283352D01*
X300298Y283425D01*
X300225Y283452D01*
X300147Y283466D01*
X300068Y283468D01*
X299991Y283457D01*
X299915Y283434D01*
X299844Y283400D01*
X299780Y283355D01*
X299723Y283301D01*
X299675Y283238D01*
X299638Y283169D01*
X299612Y283095D01*
X299598Y283017D01*
X299596Y282938D01*
X299607Y282861D01*
X299630Y282785D01*
X299664Y282714D01*
X299709Y282650D01*
X299763Y282593D01*
X299826Y282545D01*
X299896Y282509D01*
X300169Y282400D01*
X300452Y282320D01*
X300741Y282266D01*
X301034Y282239D01*
X301182D01*
Y232435D01*
G37*
G36*
X298603Y235015D02*X296063Y237554D01*
Y244350D01*
X296095Y244359D01*
X296167Y244391D01*
X296233Y244435D01*
X296291Y244488D01*
X296340Y244549D01*
X296378Y244618D01*
X296496Y244892D01*
X296586Y245177D01*
X296652Y245468D01*
X296691Y245765D01*
X296704Y246063D01*
X296691Y246361D01*
X296652Y246658D01*
X296586Y246949D01*
X296496Y247234D01*
X296381Y247509D01*
X296342Y247578D01*
X296293Y247640D01*
X296234Y247693D01*
X296168Y247737D01*
X296096Y247769D01*
X296063Y247778D01*
Y351061D01*
X296232Y350917D01*
X296494Y350756D01*
X296777Y350639D01*
X297076Y350567D01*
X297382Y350549D01*
X298603Y350552D01*
Y287005D01*
X298533Y286984D01*
X298462Y286950D01*
X298398Y286905D01*
X298341Y286851D01*
X298293Y286788D01*
X298257Y286718D01*
X298148Y286445D01*
X298068Y286162D01*
X298014Y285873D01*
X297987Y285580D01*
Y285286D01*
X298014Y284993D01*
X298068Y284704D01*
X298148Y284421D01*
X298254Y284146D01*
X298291Y284077D01*
X298339Y284014D01*
X298396Y283959D01*
X298461Y283914D01*
X298532Y283880D01*
X298603Y283858D01*
Y235015D01*
G37*
G36*
X296063Y388780D02*X301182D01*
Y362041D01*
X297076Y362031D01*
X296777Y361959D01*
X296494Y361842D01*
X296232Y361682D01*
X296063Y361537D01*
Y388780D01*
G37*
G36*
Y237554D02*X294409Y239208D01*
X294371Y239253D01*
X294191Y239406D01*
X293990Y239530D01*
X293772Y239620D01*
X293542Y239675D01*
X293308Y239694D01*
Y242666D01*
X293606Y242679D01*
X293902Y242718D01*
X294193Y242784D01*
X294478Y242874D01*
X294753Y242989D01*
X294822Y243028D01*
X294884Y243077D01*
X294937Y243136D01*
X294981Y243202D01*
X295013Y243274D01*
X295034Y243350D01*
X295043Y243429D01*
X295039Y243508D01*
X295023Y243585D01*
X294995Y243659D01*
X294956Y243728D01*
X294906Y243790D01*
X294848Y243843D01*
X294782Y243886D01*
X294710Y243919D01*
X294634Y243940D01*
X294555Y243948D01*
X294476Y243945D01*
X294399Y243929D01*
X294325Y243899D01*
X294132Y243816D01*
X293931Y243752D01*
X293726Y243706D01*
X293517Y243679D01*
X293308Y243669D01*
Y248457D01*
X293517Y248447D01*
X293726Y248420D01*
X293931Y248374D01*
X294132Y248310D01*
X294326Y248229D01*
X294399Y248200D01*
X294476Y248184D01*
X294555Y248180D01*
X294633Y248189D01*
X294709Y248209D01*
X294781Y248242D01*
X294847Y248285D01*
X294905Y248338D01*
X294954Y248399D01*
X294993Y248468D01*
X295021Y248541D01*
X295037Y248618D01*
X295040Y248697D01*
X295032Y248775D01*
X295011Y248851D01*
X294979Y248923D01*
X294935Y248989D01*
X294882Y249047D01*
X294821Y249096D01*
X294752Y249134D01*
X294478Y249252D01*
X294193Y249342D01*
X293902Y249408D01*
X293606Y249447D01*
X293308Y249460D01*
Y277528D01*
X293325Y277542D01*
X293611Y277877D01*
X293841Y278252D01*
X294010Y278660D01*
X294113Y279088D01*
X294139Y279528D01*
X294113Y279967D01*
X294010Y280395D01*
X293841Y280803D01*
X293611Y281178D01*
X293325Y281514D01*
X293308Y281528D01*
Y294133D01*
X294574Y294136D01*
X294804Y294191D01*
X295022Y294281D01*
X295223Y294405D01*
X295403Y294558D01*
X295556Y294738D01*
X295679Y294939D01*
X295770Y295157D01*
X295825Y295387D01*
X295839Y295622D01*
X295825Y301857D01*
X295770Y302087D01*
X295679Y302305D01*
X295556Y302506D01*
X295403Y302686D01*
X295223Y302839D01*
X295022Y302963D01*
X294804Y303053D01*
X294574Y303108D01*
X294339Y303122D01*
X293308Y303120D01*
Y350891D01*
X293957Y351160D01*
X294729Y351633D01*
X295417Y352221D01*
X295450Y352259D01*
X295450Y352193D01*
X295521Y351895D01*
X295639Y351611D01*
X295799Y351349D01*
X295998Y351116D01*
X296063Y351061D01*
Y247778D01*
X296020Y247790D01*
X295941Y247799D01*
X295862Y247795D01*
X295785Y247779D01*
X295711Y247751D01*
X295642Y247712D01*
X295580Y247662D01*
X295527Y247604D01*
X295484Y247538D01*
X295451Y247466D01*
X295430Y247389D01*
X295422Y247311D01*
X295425Y247232D01*
X295442Y247154D01*
X295471Y247081D01*
X295554Y246888D01*
X295618Y246687D01*
X295664Y246482D01*
X295692Y246273D01*
X295701Y246063D01*
X295692Y245853D01*
X295664Y245644D01*
X295618Y245439D01*
X295554Y245238D01*
X295473Y245044D01*
X295444Y244971D01*
X295428Y244894D01*
X295424Y244815D01*
X295433Y244737D01*
X295453Y244661D01*
X295486Y244589D01*
X295529Y244524D01*
X295582Y244465D01*
X295643Y244416D01*
X295712Y244377D01*
X295785Y244349D01*
X295863Y244333D01*
X295941Y244330D01*
X296019Y244338D01*
X296063Y244350D01*
Y237554D01*
G37*
G36*
X293308Y388780D02*X296063D01*
Y361537D01*
X295998Y361482D01*
X295799Y361249D01*
X295639Y360987D01*
X295521Y360704D01*
X295450Y360405D01*
X295446Y360344D01*
X295417Y360378D01*
X294729Y360965D01*
X293957Y361438D01*
X293308Y361707D01*
Y388780D01*
G37*
G36*
Y239694D02*X293307Y239694D01*
X293248Y239689D01*
X290551D01*
Y244348D01*
X290594Y244336D01*
X290673Y244327D01*
X290752Y244331D01*
X290829Y244347D01*
X290903Y244375D01*
X290972Y244414D01*
X291034Y244464D01*
X291087Y244522D01*
X291130Y244588D01*
X291163Y244660D01*
X291184Y244737D01*
X291192Y244815D01*
X291189Y244894D01*
X291173Y244971D01*
X291143Y245045D01*
X291060Y245238D01*
X290996Y245439D01*
X290950Y245644D01*
X290923Y245853D01*
X290913Y246063D01*
X290923Y246273D01*
X290950Y246482D01*
X290996Y246687D01*
X291060Y246888D01*
X291141Y247082D01*
X291170Y247155D01*
X291186Y247232D01*
X291190Y247311D01*
X291181Y247389D01*
X291161Y247465D01*
X291128Y247537D01*
X291085Y247602D01*
X291032Y247661D01*
X290971Y247710D01*
X290902Y247749D01*
X290829Y247777D01*
X290752Y247793D01*
X290673Y247796D01*
X290595Y247788D01*
X290551Y247776D01*
Y276837D01*
X290899Y276754D01*
X291339Y276719D01*
X291778Y276754D01*
X292206Y276856D01*
X292614Y277025D01*
X292989Y277255D01*
X293308Y277528D01*
Y249460D01*
X293307Y249460D01*
X293009Y249447D01*
X292713Y249408D01*
X292421Y249342D01*
X292136Y249252D01*
X291861Y249137D01*
X291792Y249098D01*
X291730Y249049D01*
X291677Y248990D01*
X291633Y248924D01*
X291601Y248852D01*
X291580Y248776D01*
X291571Y248697D01*
X291575Y248618D01*
X291591Y248541D01*
X291619Y248467D01*
X291658Y248398D01*
X291708Y248336D01*
X291766Y248283D01*
X291832Y248240D01*
X291904Y248207D01*
X291981Y248186D01*
X292059Y248178D01*
X292138Y248181D01*
X292216Y248197D01*
X292289Y248227D01*
X292482Y248310D01*
X292683Y248374D01*
X292888Y248420D01*
X293097Y248447D01*
X293307Y248457D01*
X293308Y248457D01*
Y243669D01*
X293307Y243669D01*
X293097Y243679D01*
X292888Y243706D01*
X292683Y243752D01*
X292482Y243816D01*
X292288Y243897D01*
X292215Y243926D01*
X292138Y243942D01*
X292059Y243946D01*
X291981Y243937D01*
X291905Y243917D01*
X291833Y243884D01*
X291768Y243841D01*
X291709Y243788D01*
X291660Y243727D01*
X291621Y243658D01*
X291593Y243585D01*
X291577Y243508D01*
X291574Y243429D01*
X291582Y243351D01*
X291603Y243275D01*
X291636Y243203D01*
X291679Y243137D01*
X291732Y243079D01*
X291793Y243030D01*
X291862Y242992D01*
X292136Y242874D01*
X292421Y242784D01*
X292713Y242718D01*
X293009Y242679D01*
X293307Y242666D01*
X293308Y242666D01*
Y239694D01*
G37*
G36*
X290551Y239689D02*X281984D01*
Y265378D01*
X281990Y265393D01*
X282045Y265623D01*
X282059Y265858D01*
X282045Y272094D01*
X281990Y272323D01*
X281984Y272338D01*
Y285777D01*
X288555Y279205D01*
X288565Y279088D01*
X288667Y278660D01*
X288836Y278252D01*
X289066Y277877D01*
X289353Y277542D01*
X289688Y277255D01*
X290063Y277025D01*
X290471Y276856D01*
X290551Y276837D01*
Y247776D01*
X290519Y247767D01*
X290447Y247735D01*
X290381Y247691D01*
X290323Y247638D01*
X290274Y247577D01*
X290236Y247508D01*
X290118Y247234D01*
X290028Y246949D01*
X289963Y246658D01*
X289923Y246361D01*
X289910Y246063D01*
X289923Y245765D01*
X289963Y245468D01*
X290028Y245177D01*
X290118Y244892D01*
X290233Y244617D01*
X290272Y244548D01*
X290321Y244486D01*
X290380Y244433D01*
X290446Y244389D01*
X290518Y244357D01*
X290551Y244348D01*
Y239689D01*
G37*
G36*
X281984Y388780D02*X293308D01*
Y361707D01*
X293121Y361785D01*
X292241Y361996D01*
X291339Y362067D01*
X290436Y361996D01*
X289556Y361785D01*
X288720Y361438D01*
X287948Y360965D01*
X287260Y360378D01*
X286672Y359689D01*
X286199Y358918D01*
X285853Y358082D01*
X285642Y357201D01*
X285571Y356299D01*
X285642Y355397D01*
X285853Y354517D01*
X286199Y353681D01*
X286672Y352909D01*
X287260Y352221D01*
X287948Y351633D01*
X288720Y351160D01*
X289556Y350814D01*
X290436Y350602D01*
X291339Y350531D01*
X292241Y350602D01*
X293121Y350814D01*
X293308Y350891D01*
Y303120D01*
X288103Y303108D01*
X287874Y303053D01*
X287655Y302963D01*
X287454Y302839D01*
X287275Y302686D01*
X287121Y302506D01*
X286998Y302305D01*
X286908Y302087D01*
X286852Y301857D01*
X286839Y301622D01*
X286852Y295387D01*
X286908Y295157D01*
X286998Y294939D01*
X287121Y294738D01*
X287275Y294558D01*
X287454Y294405D01*
X287655Y294281D01*
X287874Y294191D01*
X288103Y294136D01*
X288339Y294122D01*
X293308Y294133D01*
Y281528D01*
X292989Y281800D01*
X292614Y282030D01*
X292206Y282199D01*
X291778Y282302D01*
X291339Y282336D01*
X290899Y282302D01*
X290471Y282199D01*
X290063Y282030D01*
X290007Y281996D01*
X281984Y290019D01*
Y294159D01*
X282045Y294164D01*
X282733Y294329D01*
X283388Y294600D01*
X283992Y294970D01*
X284530Y295430D01*
X284990Y295969D01*
X285360Y296573D01*
X285632Y297227D01*
X285797Y297916D01*
X285839Y298622D01*
X285797Y299328D01*
X285632Y300017D01*
X285360Y300671D01*
X284990Y301275D01*
X284530Y301814D01*
X283992Y302274D01*
X283388Y302644D01*
X282733Y302915D01*
X282045Y303080D01*
X281984Y303085D01*
Y388780D01*
G37*
G36*
X277553Y264365D02*X280794Y264372D01*
X281024Y264427D01*
X281242Y264518D01*
X281443Y264641D01*
X281623Y264794D01*
X281776Y264974D01*
X281900Y265175D01*
X281984Y265378D01*
Y239689D01*
X277553D01*
Y244846D01*
X277559Y244846D01*
X278187Y244895D01*
X278799Y245042D01*
X279381Y245283D01*
X279917Y245612D01*
X280396Y246021D01*
X280805Y246500D01*
X281134Y247037D01*
X281375Y247618D01*
X281522Y248231D01*
X281559Y248858D01*
X281522Y249486D01*
X281375Y250098D01*
X281134Y250680D01*
X280805Y251217D01*
X280396Y251695D01*
X279917Y252104D01*
X279381Y252433D01*
X278799Y252674D01*
X278187Y252821D01*
X277559Y252871D01*
X277553Y252870D01*
Y264365D01*
G37*
G36*
Y290208D02*X281984Y285777D01*
Y272338D01*
X281900Y272541D01*
X281776Y272743D01*
X281623Y272922D01*
X281443Y273076D01*
X281242Y273199D01*
X281024Y273289D01*
X280794Y273344D01*
X280559Y273358D01*
X277553Y273352D01*
Y290208D01*
G37*
G36*
Y296187D02*X277687Y295969D01*
X278147Y295430D01*
X278685Y294970D01*
X279289Y294600D01*
X279944Y294329D01*
X280632Y294164D01*
X281339Y294108D01*
X281984Y294159D01*
Y290019D01*
X277553Y294450D01*
Y296187D01*
G37*
G36*
Y388780D02*X281984D01*
Y303085D01*
X281339Y303136D01*
X280632Y303080D01*
X279944Y302915D01*
X279289Y302644D01*
X278685Y302274D01*
X278147Y301814D01*
X277687Y301275D01*
X277553Y301057D01*
Y388780D01*
G37*
G36*
X265744D02*X277553D01*
Y301057D01*
X277317Y300671D01*
X277046Y300017D01*
X276880Y299328D01*
X276825Y298622D01*
X276880Y297916D01*
X277046Y297227D01*
X277317Y296573D01*
X277553Y296187D01*
Y294450D01*
X274138Y297865D01*
Y314564D01*
X274289Y314657D01*
X274624Y314943D01*
X274910Y315278D01*
X275140Y315654D01*
X275309Y316061D01*
X275412Y316490D01*
X275438Y316929D01*
X275412Y317368D01*
X275309Y317797D01*
X275140Y318204D01*
X274910Y318580D01*
X274624Y318915D01*
X274289Y319201D01*
X273913Y319432D01*
X273506Y319600D01*
X273077Y319703D01*
X272638Y319738D01*
X272198Y319703D01*
X271770Y319600D01*
X271363Y319432D01*
X270987Y319201D01*
X270652Y318915D01*
X270366Y318580D01*
X270135Y318204D01*
X269967Y317797D01*
X269864Y317368D01*
X269829Y316929D01*
X269864Y316490D01*
X269967Y316061D01*
X270135Y315654D01*
X270366Y315278D01*
X270652Y314943D01*
X270987Y314657D01*
X271138Y314564D01*
Y297303D01*
X271133Y297244D01*
X271152Y297009D01*
X271207Y296779D01*
X271297Y296561D01*
X271421Y296360D01*
X271574Y296180D01*
X271619Y296142D01*
X277553Y290208D01*
Y273352D01*
X274324Y273344D01*
X274094Y273289D01*
X273876Y273199D01*
X273675Y273076D01*
X273495Y272922D01*
X273342Y272743D01*
X273218Y272541D01*
X273128Y272323D01*
X273073Y272094D01*
X273059Y271858D01*
X273073Y265623D01*
X273128Y265393D01*
X273218Y265175D01*
X273342Y264974D01*
X273495Y264794D01*
X273675Y264641D01*
X273876Y264518D01*
X274094Y264427D01*
X274324Y264372D01*
X274559Y264358D01*
X277553Y264365D01*
Y252870D01*
X276931Y252821D01*
X276319Y252674D01*
X275737Y252433D01*
X275201Y252104D01*
X274722Y251695D01*
X274313Y251217D01*
X273984Y250680D01*
X273743Y250098D01*
X273596Y249486D01*
X273547Y248858D01*
X273596Y248231D01*
X273743Y247618D01*
X273984Y247037D01*
X274313Y246500D01*
X274722Y246021D01*
X275201Y245612D01*
X275737Y245283D01*
X276319Y245042D01*
X276931Y244895D01*
X277553Y244846D01*
Y239689D01*
X265744D01*
Y283502D01*
X265748Y283502D01*
X266204Y283538D01*
X266649Y283645D01*
X267072Y283820D01*
X267462Y284059D01*
X267809Y284356D01*
X268107Y284704D01*
X268346Y285094D01*
X268521Y285516D01*
X268627Y285961D01*
X268654Y286417D01*
X268627Y286873D01*
X268521Y287318D01*
X268346Y287741D01*
X268107Y288131D01*
X267809Y288479D01*
X267462Y288776D01*
X267456Y288780D01*
X267462Y288783D01*
X267809Y289080D01*
X268107Y289428D01*
X268346Y289818D01*
X268521Y290241D01*
X268627Y290686D01*
X268654Y291142D01*
X268627Y291598D01*
X268521Y292043D01*
X268346Y292465D01*
X268107Y292855D01*
X267809Y293203D01*
X267462Y293500D01*
X267072Y293739D01*
X266649Y293914D01*
X266204Y294021D01*
X265748Y294057D01*
X265744Y294057D01*
Y388780D01*
G37*
G36*
X253740D02*X265744D01*
Y294057D01*
X265292Y294021D01*
X264847Y293914D01*
X264425Y293739D01*
X264034Y293500D01*
X263687Y293203D01*
X263390Y292855D01*
X263151Y292465D01*
X262975Y292043D01*
X262869Y291598D01*
X262833Y291142D01*
X262869Y290686D01*
X262975Y290241D01*
X263151Y289818D01*
X263390Y289428D01*
X263687Y289080D01*
X264034Y288783D01*
X264041Y288780D01*
X264034Y288776D01*
X263687Y288479D01*
X263390Y288131D01*
X263151Y287741D01*
X262975Y287318D01*
X262869Y286873D01*
X262833Y286417D01*
X262869Y285961D01*
X262975Y285516D01*
X263151Y285094D01*
X263390Y284704D01*
X263687Y284356D01*
X264034Y284059D01*
X264425Y283820D01*
X264847Y283645D01*
X265292Y283538D01*
X265744Y283502D01*
Y239689D01*
X253740D01*
Y321122D01*
X253773Y321131D01*
X253845Y321163D01*
X253910Y321206D01*
X253969Y321259D01*
X254018Y321321D01*
X254055Y321390D01*
X254174Y321664D01*
X254264Y321949D01*
X254329Y322240D01*
X254368Y322536D01*
X254382Y322835D01*
X254368Y323133D01*
X254329Y323429D01*
X254264Y323721D01*
X254174Y324005D01*
X254058Y324281D01*
X254020Y324350D01*
X253970Y324412D01*
X253912Y324465D01*
X253846Y324508D01*
X253774Y324541D01*
X253740Y324550D01*
Y388780D01*
G37*
G36*
X250986D02*X253740D01*
Y324550D01*
X253697Y324562D01*
X253619Y324570D01*
X253540Y324567D01*
X253462Y324551D01*
X253388Y324523D01*
X253320Y324483D01*
X253258Y324434D01*
X253205Y324376D01*
X253161Y324309D01*
X253129Y324237D01*
X253108Y324161D01*
X253099Y324083D01*
X253103Y324004D01*
X253119Y323926D01*
X253148Y323853D01*
X253232Y323660D01*
X253295Y323459D01*
X253341Y323254D01*
X253369Y323045D01*
X253378Y322835D01*
X253369Y322624D01*
X253341Y322416D01*
X253295Y322210D01*
X253232Y322010D01*
X253151Y321815D01*
X253121Y321743D01*
X253105Y321665D01*
X253102Y321587D01*
X253110Y321509D01*
X253131Y321433D01*
X253163Y321361D01*
X253207Y321295D01*
X253260Y321237D01*
X253321Y321188D01*
X253389Y321149D01*
X253463Y321121D01*
X253540Y321105D01*
X253619Y321101D01*
X253697Y321110D01*
X253740Y321122D01*
Y239689D01*
X253703D01*
X252894Y240767D01*
X253047Y241136D01*
X253164Y241625D01*
X253194Y242126D01*
X253164Y242627D01*
X253047Y243116D01*
X252854Y243580D01*
X252592Y244009D01*
X252265Y244391D01*
X251883Y244718D01*
X251454Y244980D01*
X250990Y245173D01*
X250986Y245174D01*
Y276306D01*
X251004Y276298D01*
X251079Y276277D01*
X251158Y276268D01*
X251236Y276271D01*
X251313Y276287D01*
X251387Y276314D01*
X251456Y276353D01*
X251517Y276402D01*
X251571Y276460D01*
X251614Y276525D01*
X251645Y276597D01*
X251722Y276831D01*
X251775Y277070D01*
X251808Y277314D01*
X251818Y277559D01*
X251808Y277804D01*
X251775Y278048D01*
X251722Y278288D01*
X251648Y278522D01*
X251616Y278594D01*
X251572Y278660D01*
X251518Y278718D01*
X251457Y278767D01*
X251388Y278806D01*
X251314Y278833D01*
X251236Y278849D01*
X251157Y278852D01*
X251079Y278843D01*
X251003Y278822D01*
X250986Y278814D01*
Y319438D01*
X251283Y319451D01*
X251579Y319490D01*
X251871Y319555D01*
X252155Y319646D01*
X252431Y319761D01*
X252500Y319800D01*
X252562Y319849D01*
X252615Y319908D01*
X252658Y319974D01*
X252691Y320046D01*
X252712Y320122D01*
X252720Y320201D01*
X252717Y320279D01*
X252701Y320357D01*
X252673Y320431D01*
X252633Y320500D01*
X252584Y320561D01*
X252526Y320614D01*
X252459Y320658D01*
X252387Y320690D01*
X252311Y320711D01*
X252233Y320720D01*
X252154Y320716D01*
X252076Y320700D01*
X252003Y320671D01*
X251810Y320588D01*
X251609Y320524D01*
X251404Y320478D01*
X251195Y320450D01*
X250986Y320441D01*
Y325228D01*
X251195Y325219D01*
X251404Y325191D01*
X251609Y325145D01*
X251810Y325082D01*
X252004Y325001D01*
X252077Y324971D01*
X252154Y324955D01*
X252232Y324952D01*
X252311Y324960D01*
X252387Y324981D01*
X252458Y325013D01*
X252524Y325057D01*
X252582Y325110D01*
X252632Y325171D01*
X252671Y325239D01*
X252698Y325313D01*
X252714Y325390D01*
X252718Y325469D01*
X252709Y325547D01*
X252689Y325623D01*
X252656Y325695D01*
X252613Y325760D01*
X252560Y325819D01*
X252499Y325868D01*
X252430Y325905D01*
X252155Y326024D01*
X251871Y326114D01*
X251579Y326179D01*
X251283Y326218D01*
X250986Y326232D01*
Y388780D01*
G37*
G36*
X257358Y225466D02*Y223353D01*
X256979Y223196D01*
X256275Y222764D01*
X255646Y222228D01*
X255110Y221599D01*
X254678Y220895D01*
X254362Y220131D01*
X254362Y220131D01*
X254285Y220363D01*
X254098Y220800D01*
X254038Y220902D01*
X253963Y220994D01*
X253874Y221073D01*
X253774Y221137D01*
X253665Y221184D01*
X253551Y221214D01*
X253433Y221226D01*
X253314Y221219D01*
X253198Y221193D01*
X253088Y221150D01*
X252985Y221090D01*
X252894Y221014D01*
X252815Y220926D01*
X252751Y220826D01*
X252704Y220717D01*
X252674Y220602D01*
X252662Y220484D01*
X252669Y220366D01*
X252695Y220250D01*
X252740Y220140D01*
X252878Y219831D01*
X252983Y219509D01*
X253059Y219178D01*
X253105Y218843D01*
X253120Y218504D01*
X253105Y218165D01*
X253059Y217830D01*
X252983Y217499D01*
X252878Y217177D01*
X252743Y216866D01*
X252698Y216757D01*
X252673Y216642D01*
X252666Y216524D01*
X252677Y216406D01*
X252707Y216292D01*
X252754Y216184D01*
X252818Y216084D01*
X252896Y215996D01*
X252988Y215921D01*
X253089Y215861D01*
X253199Y215818D01*
X253315Y215793D01*
X253432Y215786D01*
X253550Y215798D01*
X253664Y215827D01*
X253772Y215875D01*
X253872Y215938D01*
X253960Y216017D01*
X254035Y216108D01*
X254093Y216211D01*
X254285Y216644D01*
X254362Y216877D01*
X254362Y216877D01*
X254678Y216113D01*
X255110Y215409D01*
X255646Y214780D01*
X256275Y214243D01*
X256979Y213812D01*
X257532Y213583D01*
X251212D01*
X251230Y213589D01*
X251666Y213776D01*
X251768Y213836D01*
X251860Y213911D01*
X251939Y214000D01*
X252003Y214100D01*
X252050Y214209D01*
X252080Y214323D01*
X252092Y214441D01*
X252085Y214560D01*
X252059Y214676D01*
X252016Y214786D01*
X251956Y214889D01*
X251881Y214980D01*
X251792Y215059D01*
X251692Y215123D01*
X251583Y215171D01*
X251468Y215200D01*
X251350Y215212D01*
X251232Y215205D01*
X251116Y215179D01*
X251006Y215134D01*
X250986Y215125D01*
Y221887D01*
X251008Y221877D01*
X251117Y221832D01*
X251232Y221807D01*
X251350Y221800D01*
X251468Y221811D01*
X251582Y221841D01*
X251690Y221888D01*
X251790Y221952D01*
X251878Y222030D01*
X251953Y222121D01*
X252013Y222223D01*
X252056Y222333D01*
X252081Y222448D01*
X252088Y222566D01*
X252076Y222684D01*
X252047Y222798D01*
X251999Y222906D01*
X251936Y223006D01*
X251857Y223094D01*
X251766Y223169D01*
X251663Y223227D01*
X251230Y223419D01*
X250986Y223499D01*
Y225320D01*
X251230Y225400D01*
X251666Y225588D01*
X251768Y225647D01*
X251860Y225722D01*
X251939Y225811D01*
X252003Y225911D01*
X252050Y226020D01*
X252080Y226134D01*
X252092Y226253D01*
X252085Y226371D01*
X252059Y226487D01*
X252016Y226597D01*
X251956Y226700D01*
X251881Y226791D01*
X251792Y226870D01*
X251692Y226934D01*
X251583Y226982D01*
X251468Y227011D01*
X251350Y227023D01*
X251232Y227016D01*
X251116Y226990D01*
X251006Y226945D01*
X250986Y226936D01*
Y233698D01*
X251008Y233688D01*
X251117Y233643D01*
X251232Y233618D01*
X251350Y233611D01*
X251468Y233622D01*
X251582Y233652D01*
X251690Y233699D01*
X251790Y233763D01*
X251878Y233841D01*
X251953Y233932D01*
X252013Y234034D01*
X252056Y234144D01*
X252081Y234260D01*
X252088Y234377D01*
X252076Y234495D01*
X252047Y234609D01*
X251999Y234717D01*
X251936Y234817D01*
X251857Y234905D01*
X251766Y234980D01*
X251663Y235038D01*
X251230Y235230D01*
X250986Y235310D01*
Y238312D01*
X251711Y237345D01*
X251735Y237305D01*
X251889Y237125D01*
X251899Y237117D01*
X251905Y237109D01*
X251987Y237041D01*
X252068Y236972D01*
X252078Y236966D01*
X252087Y236958D01*
X252179Y236904D01*
X252270Y236848D01*
X252280Y236844D01*
X252290Y236838D01*
X252389Y236799D01*
X252488Y236758D01*
X252499Y236755D01*
X252510Y236751D01*
X252614Y236728D01*
X252717Y236703D01*
X252727Y236702D01*
X252740Y236699D01*
X252976Y236685D01*
X253023Y236689D01*
X281984D01*
Y234871D01*
X281761Y235007D01*
X280997Y235323D01*
X280194Y235516D01*
X279370Y235581D01*
X278546Y235516D01*
X277743Y235323D01*
X276979Y235007D01*
X276275Y234575D01*
X275646Y234039D01*
X275110Y233410D01*
X274678Y232706D01*
X274370Y231963D01*
X274062Y232706D01*
X273631Y233410D01*
X273094Y234039D01*
X272465Y234575D01*
X271761Y235007D01*
X270997Y235323D01*
X270194Y235516D01*
X269370Y235581D01*
X268546Y235516D01*
X267743Y235323D01*
X266979Y235007D01*
X266275Y234575D01*
X265646Y234039D01*
X265110Y233410D01*
X264678Y232706D01*
X264370Y231963D01*
X264062Y232706D01*
X263631Y233410D01*
X263094Y234039D01*
X262465Y234575D01*
X261761Y235007D01*
X260997Y235323D01*
X260194Y235516D01*
X259370Y235581D01*
X258546Y235516D01*
X257743Y235323D01*
X256979Y235007D01*
X256275Y234575D01*
X255646Y234039D01*
X255110Y233410D01*
X254678Y232706D01*
X254362Y231942D01*
X254362Y231942D01*
X254285Y232174D01*
X254098Y232611D01*
X254038Y232713D01*
X253963Y232805D01*
X253874Y232884D01*
X253774Y232948D01*
X253665Y232995D01*
X253551Y233025D01*
X253433Y233037D01*
X253314Y233030D01*
X253198Y233004D01*
X253088Y232961D01*
X252985Y232901D01*
X252894Y232826D01*
X252815Y232737D01*
X252751Y232637D01*
X252704Y232528D01*
X252674Y232413D01*
X252662Y232295D01*
X252669Y232177D01*
X252695Y232061D01*
X252740Y231951D01*
X252878Y231642D01*
X252983Y231320D01*
X253059Y230989D01*
X253105Y230654D01*
X253120Y230315D01*
X253105Y229976D01*
X253059Y229641D01*
X252983Y229310D01*
X252878Y228988D01*
X252743Y228677D01*
X252698Y228568D01*
X252673Y228453D01*
X252666Y228335D01*
X252677Y228217D01*
X252707Y228103D01*
X252754Y227995D01*
X252818Y227895D01*
X252896Y227807D01*
X252988Y227732D01*
X253089Y227673D01*
X253199Y227629D01*
X253315Y227604D01*
X253432Y227597D01*
X253550Y227609D01*
X253664Y227638D01*
X253772Y227686D01*
X253872Y227749D01*
X253960Y227828D01*
X254035Y227919D01*
X254093Y228022D01*
X254285Y228456D01*
X254362Y228688D01*
X254362Y228688D01*
X254678Y227924D01*
X255110Y227220D01*
X255646Y226591D01*
X256275Y226055D01*
X256979Y225623D01*
X257358Y225466D01*
G37*
G36*
X248229Y225190D02*X248425Y225145D01*
X248896Y225081D01*
X249370Y225060D01*
X249845Y225081D01*
X250315Y225145D01*
X250778Y225252D01*
X250986Y225320D01*
Y223499D01*
X250778Y223567D01*
X250315Y223674D01*
X249845Y223738D01*
X249370Y223759D01*
X248896Y223738D01*
X248425Y223674D01*
X248229Y223629D01*
Y225190D01*
G37*
G36*
Y233883D02*X248365Y233928D01*
X248696Y234004D01*
X249031Y234050D01*
X249370Y234065D01*
X249709Y234050D01*
X250044Y234004D01*
X250375Y233928D01*
X250697Y233822D01*
X250986Y233698D01*
Y226936D01*
X250697Y226808D01*
X250375Y226702D01*
X250044Y226626D01*
X249709Y226580D01*
X249370Y226565D01*
X249031Y226580D01*
X248696Y226626D01*
X248365Y226702D01*
X248229Y226747D01*
Y233883D01*
G37*
G36*
Y239466D02*X248546Y239272D01*
X249010Y239079D01*
X249499Y238962D01*
X250000Y238922D01*
X250498Y238962D01*
X250986Y238312D01*
Y235310D01*
X250778Y235378D01*
X250315Y235485D01*
X249845Y235549D01*
X249370Y235570D01*
X248896Y235549D01*
X248425Y235485D01*
X248229Y235440D01*
Y239466D01*
G37*
G36*
Y388780D02*X250986D01*
Y326232D01*
X250985Y326232D01*
X250686Y326218D01*
X250390Y326179D01*
X250099Y326114D01*
X249814Y326024D01*
X249538Y325908D01*
X249469Y325870D01*
X249408Y325820D01*
X249354Y325762D01*
X249311Y325696D01*
X249278Y325624D01*
X249258Y325547D01*
X249249Y325469D01*
X249253Y325390D01*
X249269Y325312D01*
X249297Y325238D01*
X249336Y325170D01*
X249385Y325108D01*
X249444Y325055D01*
X249510Y325011D01*
X249582Y324979D01*
X249658Y324958D01*
X249737Y324949D01*
X249816Y324953D01*
X249893Y324969D01*
X249966Y324998D01*
X250160Y325082D01*
X250360Y325145D01*
X250566Y325191D01*
X250774Y325219D01*
X250985Y325228D01*
X250986Y325228D01*
Y320441D01*
X250985Y320441D01*
X250774Y320450D01*
X250566Y320478D01*
X250360Y320524D01*
X250160Y320588D01*
X249965Y320669D01*
X249893Y320698D01*
X249815Y320714D01*
X249737Y320718D01*
X249659Y320709D01*
X249583Y320688D01*
X249511Y320656D01*
X249445Y320613D01*
X249387Y320560D01*
X249338Y320498D01*
X249299Y320430D01*
X249271Y320356D01*
X249255Y320279D01*
X249251Y320201D01*
X249260Y320122D01*
X249281Y320046D01*
X249313Y319975D01*
X249356Y319909D01*
X249409Y319851D01*
X249471Y319802D01*
X249540Y319764D01*
X249814Y319646D01*
X250099Y319555D01*
X250390Y319490D01*
X250686Y319451D01*
X250985Y319438D01*
X250986Y319438D01*
Y278814D01*
X250931Y278789D01*
X250865Y278745D01*
X250807Y278692D01*
X250758Y278630D01*
X250719Y278561D01*
X250692Y278487D01*
X250676Y278410D01*
X250673Y278331D01*
X250682Y278252D01*
X250705Y278177D01*
X250754Y278027D01*
X250788Y277873D01*
X250809Y277717D01*
X250816Y277559D01*
X250809Y277401D01*
X250788Y277245D01*
X250754Y277091D01*
X250706Y276941D01*
X250684Y276866D01*
X250675Y276787D01*
X250678Y276709D01*
X250693Y276632D01*
X250721Y276558D01*
X250760Y276489D01*
X250808Y276428D01*
X250866Y276374D01*
X250932Y276331D01*
X250986Y276306D01*
Y245174D01*
X250501Y245290D01*
X250000Y245330D01*
X249499Y245290D01*
X249010Y245173D01*
X248546Y244980D01*
X248229Y244786D01*
Y274872D01*
X248287Y274853D01*
X248527Y274799D01*
X248770Y274767D01*
X249016Y274756D01*
X249261Y274767D01*
X249505Y274799D01*
X249744Y274853D01*
X249978Y274927D01*
X250050Y274959D01*
X250116Y275003D01*
X250174Y275056D01*
X250223Y275118D01*
X250262Y275187D01*
X250290Y275261D01*
X250305Y275338D01*
X250309Y275417D01*
X250300Y275496D01*
X250278Y275572D01*
X250246Y275644D01*
X250202Y275709D01*
X250148Y275768D01*
X250087Y275817D01*
X250018Y275855D01*
X249944Y275883D01*
X249866Y275899D01*
X249787Y275902D01*
X249709Y275893D01*
X249633Y275870D01*
X249484Y275821D01*
X249330Y275787D01*
X249173Y275766D01*
X249016Y275759D01*
X248858Y275766D01*
X248702Y275787D01*
X248548Y275821D01*
X248397Y275869D01*
X248322Y275891D01*
X248244Y275900D01*
X248229Y275900D01*
Y279217D01*
X248244Y279216D01*
X248323Y279225D01*
X248398Y279248D01*
X248548Y279297D01*
X248702Y279331D01*
X248858Y279352D01*
X249016Y279359D01*
X249173Y279352D01*
X249330Y279331D01*
X249484Y279297D01*
X249634Y279250D01*
X249709Y279227D01*
X249787Y279218D01*
X249866Y279221D01*
X249943Y279237D01*
X250017Y279264D01*
X250086Y279303D01*
X250147Y279352D01*
X250200Y279410D01*
X250244Y279475D01*
X250277Y279547D01*
X250298Y279623D01*
X250307Y279701D01*
X250304Y279779D01*
X250288Y279857D01*
X250261Y279930D01*
X250222Y279999D01*
X250173Y280061D01*
X250115Y280114D01*
X250050Y280157D01*
X249977Y280189D01*
X249744Y280265D01*
X249505Y280319D01*
X249261Y280351D01*
X249016Y280362D01*
X248770Y280351D01*
X248527Y280319D01*
X248287Y280265D01*
X248229Y280247D01*
Y321119D01*
X248272Y321108D01*
X248351Y321099D01*
X248429Y321103D01*
X248507Y321119D01*
X248581Y321147D01*
X248650Y321186D01*
X248711Y321235D01*
X248764Y321294D01*
X248808Y321360D01*
X248840Y321432D01*
X248861Y321508D01*
X248870Y321587D01*
X248866Y321666D01*
X248850Y321743D01*
X248821Y321816D01*
X248738Y322010D01*
X248674Y322210D01*
X248628Y322416D01*
X248600Y322624D01*
X248591Y322835D01*
X248600Y323045D01*
X248628Y323254D01*
X248674Y323459D01*
X248738Y323660D01*
X248819Y323854D01*
X248848Y323927D01*
X248864Y324004D01*
X248868Y324082D01*
X248859Y324161D01*
X248838Y324237D01*
X248806Y324308D01*
X248763Y324374D01*
X248710Y324432D01*
X248648Y324482D01*
X248580Y324521D01*
X248506Y324548D01*
X248429Y324564D01*
X248351Y324568D01*
X248272Y324559D01*
X248229Y324547D01*
Y388780D01*
G37*
G36*
X250986Y215125D02*X250697Y214997D01*
X250375Y214891D01*
X250044Y214815D01*
X249709Y214769D01*
X249370Y214754D01*
X249031Y214769D01*
X248696Y214815D01*
X248365Y214891D01*
X248229Y214936D01*
Y222072D01*
X248365Y222117D01*
X248696Y222193D01*
X249031Y222239D01*
X249370Y222254D01*
X249709Y222239D01*
X250044Y222193D01*
X250375Y222117D01*
X250697Y222011D01*
X250986Y221887D01*
Y215125D01*
G37*
G36*
X246786Y225842D02*X246804Y225813D01*
X246883Y225725D01*
X246974Y225650D01*
X247077Y225592D01*
X247511Y225400D01*
X247962Y225252D01*
X248229Y225190D01*
Y223629D01*
X247962Y223567D01*
X247511Y223419D01*
X247074Y223231D01*
X246972Y223172D01*
X246880Y223097D01*
X246801Y223008D01*
X246786Y222984D01*
Y225842D01*
G37*
G36*
Y233928D02*X246860Y233839D01*
X246948Y233760D01*
X247048Y233696D01*
X247157Y233648D01*
X247272Y233618D01*
X247390Y233607D01*
X247508Y233614D01*
X247624Y233639D01*
X247734Y233685D01*
X248043Y233822D01*
X248229Y233883D01*
Y226747D01*
X248043Y226808D01*
X247732Y226942D01*
X247623Y226987D01*
X247508Y227012D01*
X247390Y227019D01*
X247272Y227008D01*
X247158Y226978D01*
X247050Y226931D01*
X246951Y226867D01*
X246862Y226789D01*
X246787Y226697D01*
X246786Y226695D01*
Y233928D01*
G37*
G36*
Y388780D02*X248229D01*
Y324547D01*
X248196Y324539D01*
X248125Y324506D01*
X248059Y324463D01*
X248001Y324410D01*
X247952Y324349D01*
X247914Y324280D01*
X247796Y324005D01*
X247705Y323721D01*
X247640Y323429D01*
X247601Y323133D01*
X247588Y322835D01*
X247601Y322536D01*
X247640Y322240D01*
X247705Y321949D01*
X247796Y321664D01*
X247911Y321388D01*
X247950Y321319D01*
X247999Y321258D01*
X248058Y321204D01*
X248124Y321161D01*
X248196Y321129D01*
X248229Y321119D01*
Y280247D01*
X248053Y280191D01*
X247981Y280159D01*
X247915Y280115D01*
X247857Y280062D01*
X247808Y280000D01*
X247769Y279931D01*
X247742Y279857D01*
X247726Y279780D01*
X247723Y279701D01*
X247732Y279622D01*
X247753Y279546D01*
X247786Y279474D01*
X247830Y279409D01*
X247883Y279351D01*
X247945Y279301D01*
X248014Y279263D01*
X248088Y279235D01*
X248165Y279220D01*
X248229Y279217D01*
Y275900D01*
X248165Y275897D01*
X248088Y275881D01*
X248014Y275854D01*
X247946Y275815D01*
X247884Y275766D01*
X247831Y275708D01*
X247787Y275643D01*
X247755Y275571D01*
X247734Y275495D01*
X247725Y275417D01*
X247728Y275339D01*
X247743Y275261D01*
X247771Y275188D01*
X247810Y275119D01*
X247858Y275058D01*
X247916Y275004D01*
X247982Y274961D01*
X248054Y274929D01*
X248229Y274872D01*
Y244786D01*
X248117Y244718D01*
X247735Y244391D01*
X247408Y244009D01*
X247146Y243580D01*
X246953Y243116D01*
X246836Y242627D01*
X246796Y242126D01*
X246836Y241625D01*
X246953Y241136D01*
X247146Y240672D01*
X247408Y240243D01*
X247735Y239861D01*
X248117Y239534D01*
X248229Y239466D01*
Y235440D01*
X247962Y235378D01*
X247511Y235230D01*
X247074Y235042D01*
X246972Y234983D01*
X246880Y234908D01*
X246801Y234819D01*
X246786Y234795D01*
Y276271D01*
X246795Y276269D01*
X246874Y276266D01*
X246952Y276275D01*
X247029Y276296D01*
X247100Y276329D01*
X247166Y276373D01*
X247224Y276426D01*
X247273Y276488D01*
X247312Y276557D01*
X247340Y276631D01*
X247355Y276709D01*
X247359Y276787D01*
X247350Y276866D01*
X247327Y276941D01*
X247278Y277091D01*
X247243Y277245D01*
X247223Y277401D01*
X247216Y277559D01*
X247223Y277717D01*
X247243Y277873D01*
X247278Y278027D01*
X247325Y278177D01*
X247348Y278253D01*
X247357Y278331D01*
X247354Y278409D01*
X247338Y278487D01*
X247311Y278560D01*
X247272Y278629D01*
X247223Y278691D01*
X247165Y278744D01*
X247100Y278787D01*
X247028Y278820D01*
X246952Y278841D01*
X246874Y278850D01*
X246795Y278847D01*
X246786Y278845D01*
Y388780D01*
G37*
G36*
Y214031D02*X246804Y214002D01*
X246883Y213914D01*
X246974Y213839D01*
X247077Y213781D01*
X247511Y213589D01*
X247528Y213583D01*
X246786D01*
Y214031D01*
G37*
G36*
X248229Y214936D02*X248043Y214997D01*
X247732Y215131D01*
X247623Y215176D01*
X247508Y215201D01*
X247390Y215208D01*
X247272Y215197D01*
X247158Y215167D01*
X247050Y215120D01*
X246951Y215056D01*
X246862Y214978D01*
X246787Y214886D01*
X246786Y214884D01*
Y222117D01*
X246860Y222028D01*
X246948Y221949D01*
X247048Y221885D01*
X247157Y221837D01*
X247272Y221807D01*
X247390Y221796D01*
X247508Y221803D01*
X247624Y221828D01*
X247734Y221874D01*
X248043Y222011D01*
X248229Y222072D01*
Y214936D01*
G37*
G36*
X246786Y214884D02*X246728Y214785D01*
X246685Y214675D01*
X246659Y214559D01*
X246652Y214442D01*
X246664Y214324D01*
X246693Y214210D01*
X246741Y214102D01*
X246786Y214031D01*
Y213583D01*
X245096D01*
Y215818D01*
X245190Y215794D01*
X245308Y215782D01*
X245426Y215789D01*
X245542Y215815D01*
X245652Y215858D01*
X245755Y215918D01*
X245846Y215993D01*
X245925Y216082D01*
X245989Y216182D01*
X246037Y216291D01*
X246067Y216406D01*
X246078Y216524D01*
X246071Y216642D01*
X246046Y216758D01*
X246000Y216868D01*
X245863Y217177D01*
X245757Y217499D01*
X245681Y217830D01*
X245635Y218165D01*
X245620Y218504D01*
X245635Y218843D01*
X245681Y219178D01*
X245757Y219509D01*
X245863Y219831D01*
X245997Y220142D01*
X246042Y220251D01*
X246067Y220366D01*
X246074Y220484D01*
X246063Y220602D01*
X246033Y220716D01*
X245986Y220824D01*
X245922Y220923D01*
X245844Y221012D01*
X245753Y221087D01*
X245651Y221146D01*
X245541Y221189D01*
X245426Y221215D01*
X245308Y221222D01*
X245190Y221210D01*
X245096Y221186D01*
Y227629D01*
X245190Y227605D01*
X245308Y227593D01*
X245426Y227600D01*
X245542Y227626D01*
X245652Y227669D01*
X245755Y227729D01*
X245846Y227804D01*
X245925Y227893D01*
X245989Y227993D01*
X246037Y228102D01*
X246067Y228217D01*
X246078Y228335D01*
X246071Y228453D01*
X246046Y228569D01*
X246000Y228679D01*
X245863Y228988D01*
X245757Y229310D01*
X245681Y229641D01*
X245635Y229976D01*
X245620Y230315D01*
X245635Y230654D01*
X245681Y230989D01*
X245757Y231320D01*
X245863Y231642D01*
X245997Y231953D01*
X246042Y232062D01*
X246067Y232177D01*
X246074Y232295D01*
X246063Y232413D01*
X246033Y232527D01*
X245986Y232635D01*
X245922Y232734D01*
X245844Y232823D01*
X245753Y232898D01*
X245651Y232957D01*
X245541Y233000D01*
X245426Y233026D01*
X245308Y233033D01*
X245190Y233021D01*
X245096Y232997D01*
Y388780D01*
X246786D01*
Y278845D01*
X246718Y278831D01*
X246644Y278804D01*
X246576Y278765D01*
X246514Y278716D01*
X246461Y278658D01*
X246417Y278593D01*
X246386Y278521D01*
X246309Y278288D01*
X246256Y278048D01*
X246224Y277804D01*
X246213Y277559D01*
X246224Y277314D01*
X246256Y277070D01*
X246309Y276831D01*
X246384Y276596D01*
X246416Y276524D01*
X246460Y276459D01*
X246513Y276400D01*
X246575Y276351D01*
X246644Y276313D01*
X246718Y276285D01*
X246786Y276271D01*
Y234795D01*
X246737Y234719D01*
X246690Y234610D01*
X246660Y234496D01*
X246648Y234377D01*
X246655Y234259D01*
X246681Y234143D01*
X246724Y234033D01*
X246784Y233930D01*
X246786Y233928D01*
Y226695D01*
X246728Y226596D01*
X246685Y226486D01*
X246659Y226370D01*
X246652Y226253D01*
X246664Y226135D01*
X246693Y226021D01*
X246741Y225913D01*
X246786Y225842D01*
Y222984D01*
X246737Y222908D01*
X246690Y222799D01*
X246660Y222684D01*
X246648Y222566D01*
X246655Y222448D01*
X246681Y222332D01*
X246724Y222222D01*
X246784Y222119D01*
X246786Y222117D01*
Y214884D01*
G37*
G36*
X245096Y221186D02*X245076Y221181D01*
X244968Y221133D01*
X244868Y221070D01*
X244780Y220991D01*
X244705Y220900D01*
X244647Y220797D01*
X244455Y220363D01*
X244379Y220131D01*
X244379Y220131D01*
X244062Y220895D01*
X243631Y221599D01*
X243094Y222228D01*
X242465Y222764D01*
X241761Y223196D01*
X240997Y223512D01*
X240673Y223590D01*
Y249379D01*
X241177Y249882D01*
X241221Y249920D01*
X241375Y250100D01*
X241375Y250100D01*
X241498Y250301D01*
X241588Y250519D01*
X241644Y250749D01*
X241662Y250984D01*
X241657Y251043D01*
Y292911D01*
X241808Y293003D01*
X242143Y293290D01*
X242430Y293625D01*
X242660Y294000D01*
X242829Y294408D01*
X242932Y294836D01*
X242957Y295276D01*
X242932Y295715D01*
X242829Y296144D01*
X242660Y296551D01*
X242430Y296926D01*
X242143Y297262D01*
X241808Y297548D01*
X241433Y297778D01*
X241025Y297947D01*
X240597Y298050D01*
X240157Y298084D01*
X239718Y298050D01*
X239290Y297947D01*
X238882Y297778D01*
X238865Y297768D01*
X239546Y298448D01*
X239718Y298407D01*
X240157Y298372D01*
X240597Y298407D01*
X241025Y298510D01*
X241433Y298679D01*
X241808Y298909D01*
X242143Y299195D01*
X242430Y299530D01*
X242660Y299906D01*
X242829Y300313D01*
X242932Y300742D01*
X242957Y301181D01*
X242932Y301620D01*
X242829Y302049D01*
X242660Y302456D01*
X242430Y302832D01*
X242143Y303167D01*
X241808Y303453D01*
X241433Y303684D01*
X241025Y303852D01*
X240597Y303955D01*
X240157Y303990D01*
X239718Y303955D01*
X239290Y303852D01*
X238882Y303684D01*
X238507Y303453D01*
X238171Y303167D01*
X237885Y302832D01*
X237655Y302456D01*
X237486Y302049D01*
X237383Y301620D01*
X237349Y301181D01*
X237383Y300742D01*
X237425Y300570D01*
X235752Y298897D01*
Y301544D01*
X239546Y305338D01*
X239718Y305297D01*
X240157Y305262D01*
X240597Y305297D01*
X241025Y305400D01*
X241433Y305568D01*
X241808Y305799D01*
X242143Y306085D01*
X242430Y306420D01*
X242660Y306796D01*
X242829Y307203D01*
X242932Y307632D01*
X242957Y308071D01*
X242932Y308510D01*
X242829Y308939D01*
X242660Y309346D01*
X242430Y309722D01*
X242143Y310057D01*
X241808Y310343D01*
X241433Y310573D01*
X241025Y310742D01*
X240597Y310845D01*
X240157Y310880D01*
X239718Y310845D01*
X239290Y310742D01*
X238882Y310573D01*
X238507Y310343D01*
X238171Y310057D01*
X237885Y309722D01*
X237655Y309346D01*
X237486Y308939D01*
X237383Y308510D01*
X237349Y308071D01*
X237383Y307632D01*
X237425Y307459D01*
X233233Y303268D01*
X233188Y303229D01*
X233035Y303050D01*
X232911Y302848D01*
X232821Y302630D01*
X232766Y302401D01*
X232766Y302401D01*
X232747Y302165D01*
X232752Y302107D01*
Y230936D01*
X227725Y225909D01*
X224468D01*
X224409Y225914D01*
X224174Y225896D01*
X223944Y225840D01*
X223726Y225750D01*
X223525Y225627D01*
X223525Y225627D01*
X223346Y225473D01*
X223307Y225429D01*
X223229Y225350D01*
Y281114D01*
X223511Y280873D01*
X223939Y280610D01*
X224404Y280418D01*
X224893Y280300D01*
X225394Y280261D01*
X225895Y280300D01*
X226384Y280418D01*
X226848Y280610D01*
X227277Y280873D01*
X227659Y281199D01*
X227985Y281582D01*
X228248Y282010D01*
X228440Y282475D01*
X228558Y282963D01*
X228587Y283465D01*
X228558Y283966D01*
X228440Y284455D01*
X228248Y284919D01*
X227985Y285348D01*
X227659Y285730D01*
X227277Y286056D01*
X226848Y286319D01*
X226384Y286511D01*
X225895Y286629D01*
X225394Y286668D01*
X224893Y286629D01*
X224456Y286524D01*
X223229Y287751D01*
Y335886D01*
X223261Y335894D01*
X223333Y335927D01*
X223399Y335970D01*
X223457Y336023D01*
X223506Y336084D01*
X223544Y336153D01*
X223662Y336428D01*
X223752Y336712D01*
X223817Y337004D01*
X223857Y337300D01*
X223870Y337598D01*
X223857Y337897D01*
X223817Y338193D01*
X223752Y338484D01*
X223662Y338769D01*
X223547Y339045D01*
X223508Y339114D01*
X223458Y339175D01*
X223400Y339229D01*
X223334Y339272D01*
X223262Y339305D01*
X223229Y339314D01*
Y388780D01*
X245096D01*
Y232997D01*
X245076Y232992D01*
X244968Y232944D01*
X244868Y232881D01*
X244780Y232802D01*
X244705Y232711D01*
X244647Y232608D01*
X244455Y232174D01*
X244307Y231723D01*
X244200Y231260D01*
X244136Y230789D01*
X244115Y230315D01*
X244136Y229840D01*
X244200Y229370D01*
X244307Y228907D01*
X244455Y228456D01*
X244643Y228019D01*
X244702Y227917D01*
X244777Y227825D01*
X244866Y227746D01*
X244966Y227682D01*
X245075Y227635D01*
X245096Y227629D01*
Y221186D01*
G37*
G36*
Y213583D02*X241208D01*
X241761Y213812D01*
X242465Y214243D01*
X243094Y214780D01*
X243631Y215409D01*
X244062Y216113D01*
X244379Y216877D01*
X244379Y216877D01*
X244455Y216644D01*
X244643Y216208D01*
X244702Y216106D01*
X244777Y216014D01*
X244866Y215935D01*
X244966Y215871D01*
X245075Y215824D01*
X245096Y215818D01*
Y213583D01*
G37*
G36*
X223229Y287751D02*X221452Y289528D01*
Y334349D01*
X221644Y334410D01*
X221919Y334525D01*
X221988Y334563D01*
X222050Y334613D01*
X222103Y334671D01*
X222146Y334737D01*
X222179Y334809D01*
X222200Y334886D01*
X222209Y334964D01*
X222205Y335043D01*
X222189Y335121D01*
X222161Y335195D01*
X222122Y335263D01*
X222072Y335325D01*
X222014Y335378D01*
X221948Y335422D01*
X221876Y335454D01*
X221799Y335475D01*
X221721Y335484D01*
X221642Y335480D01*
X221564Y335464D01*
X221491Y335435D01*
X221452Y335418D01*
Y339781D01*
X221492Y339764D01*
X221565Y339735D01*
X221642Y339719D01*
X221721Y339715D01*
X221799Y339724D01*
X221875Y339745D01*
X221947Y339777D01*
X222012Y339820D01*
X222071Y339873D01*
X222120Y339935D01*
X222159Y340003D01*
X222187Y340077D01*
X222202Y340154D01*
X222206Y340232D01*
X222198Y340311D01*
X222177Y340387D01*
X222144Y340458D01*
X222101Y340524D01*
X222048Y340582D01*
X221987Y340632D01*
X221918Y340669D01*
X221644Y340787D01*
X221452Y340848D01*
Y388780D01*
X223229D01*
Y339314D01*
X223186Y339325D01*
X223107Y339334D01*
X223028Y339330D01*
X222951Y339314D01*
X222877Y339286D01*
X222808Y339247D01*
X222746Y339198D01*
X222693Y339139D01*
X222650Y339073D01*
X222617Y339001D01*
X222596Y338925D01*
X222588Y338846D01*
X222591Y338767D01*
X222607Y338690D01*
X222637Y338617D01*
X222720Y338423D01*
X222784Y338223D01*
X222830Y338017D01*
X222857Y337809D01*
X222867Y337598D01*
X222857Y337388D01*
X222830Y337179D01*
X222784Y336974D01*
X222720Y336773D01*
X222639Y336579D01*
X222610Y336506D01*
X222594Y336429D01*
X222590Y336351D01*
X222598Y336272D01*
X222619Y336196D01*
X222652Y336125D01*
X222695Y336059D01*
X222748Y336001D01*
X222809Y335952D01*
X222878Y335913D01*
X222951Y335885D01*
X223028Y335869D01*
X223107Y335865D01*
X223185Y335874D01*
X223229Y335886D01*
Y287751D01*
G37*
G36*
Y225350D02*X221452Y223573D01*
Y285285D01*
X222334Y284402D01*
X222230Y283966D01*
X222190Y283465D01*
X222230Y282963D01*
X222347Y282475D01*
X222539Y282010D01*
X222802Y281582D01*
X223128Y281199D01*
X223229Y281114D01*
Y225350D01*
G37*
G36*
X217717Y319500D02*X217816Y319585D01*
X218143Y319967D01*
X218406Y320396D01*
X218598Y320860D01*
X218715Y321349D01*
X218745Y321850D01*
X218715Y322352D01*
X218598Y322840D01*
X218406Y323305D01*
X218143Y323733D01*
X217816Y324116D01*
X217717Y324201D01*
Y335883D01*
X217760Y335871D01*
X217839Y335863D01*
X217918Y335866D01*
X217995Y335882D01*
X218069Y335910D01*
X218138Y335950D01*
X218199Y335999D01*
X218253Y336058D01*
X218296Y336124D01*
X218329Y336196D01*
X218349Y336272D01*
X218358Y336351D01*
X218354Y336430D01*
X218338Y336507D01*
X218309Y336580D01*
X218226Y336773D01*
X218162Y336974D01*
X218116Y337179D01*
X218088Y337388D01*
X218079Y337598D01*
X218088Y337809D01*
X218116Y338017D01*
X218162Y338223D01*
X218226Y338423D01*
X218307Y338618D01*
X218336Y338691D01*
X218352Y338768D01*
X218356Y338846D01*
X218347Y338924D01*
X218326Y339000D01*
X218294Y339072D01*
X218251Y339138D01*
X218198Y339196D01*
X218136Y339245D01*
X218068Y339284D01*
X217994Y339312D01*
X217917Y339328D01*
X217839Y339332D01*
X217761Y339323D01*
X217717Y339311D01*
Y388780D01*
X221452D01*
Y340848D01*
X221359Y340878D01*
X221067Y340943D01*
X220771Y340982D01*
X220473Y340995D01*
X220174Y340982D01*
X219878Y340943D01*
X219587Y340878D01*
X219302Y340787D01*
X219026Y340672D01*
X218958Y340633D01*
X218896Y340584D01*
X218843Y340526D01*
X218799Y340459D01*
X218767Y340387D01*
X218746Y340311D01*
X218737Y340233D01*
X218741Y340154D01*
X218757Y340076D01*
X218785Y340002D01*
X218824Y339934D01*
X218873Y339872D01*
X218932Y339819D01*
X218998Y339775D01*
X219070Y339743D01*
X219146Y339722D01*
X219225Y339713D01*
X219304Y339717D01*
X219381Y339733D01*
X219455Y339762D01*
X219648Y339845D01*
X219848Y339909D01*
X220054Y339955D01*
X220263Y339983D01*
X220473Y339992D01*
X220683Y339983D01*
X220892Y339955D01*
X221097Y339909D01*
X221298Y339845D01*
X221452Y339781D01*
Y335418D01*
X221298Y335351D01*
X221097Y335288D01*
X220892Y335242D01*
X220683Y335214D01*
X220473Y335205D01*
X220263Y335214D01*
X220054Y335242D01*
X219848Y335288D01*
X219648Y335351D01*
X219454Y335433D01*
X219381Y335462D01*
X219304Y335478D01*
X219225Y335481D01*
X219147Y335473D01*
X219071Y335452D01*
X218999Y335420D01*
X218933Y335376D01*
X218875Y335323D01*
X218826Y335262D01*
X218787Y335194D01*
X218759Y335120D01*
X218743Y335043D01*
X218739Y334964D01*
X218748Y334886D01*
X218769Y334810D01*
X218801Y334739D01*
X218844Y334673D01*
X218897Y334615D01*
X218959Y334565D01*
X219028Y334528D01*
X219302Y334410D01*
X219587Y334319D01*
X219878Y334254D01*
X220174Y334215D01*
X220473Y334201D01*
X220771Y334215D01*
X221067Y334254D01*
X221359Y334319D01*
X221452Y334349D01*
Y289528D01*
X219020Y291960D01*
Y305244D01*
X219403Y305479D01*
X219785Y305806D01*
X220111Y306188D01*
X220374Y306616D01*
X220566Y307081D01*
X220684Y307570D01*
X220713Y308071D01*
X220684Y308572D01*
X220566Y309061D01*
X220374Y309525D01*
X220111Y309954D01*
X219785Y310336D01*
X219403Y310663D01*
X218974Y310925D01*
X218510Y311118D01*
X218021Y311235D01*
X217717Y311259D01*
Y319500D01*
G37*
G36*
Y324201D02*X217434Y324442D01*
X217006Y324705D01*
X216541Y324897D01*
X216052Y325015D01*
X215552Y325054D01*
Y388780D01*
X217717D01*
Y339311D01*
X217685Y339302D01*
X217613Y339270D01*
X217547Y339227D01*
X217489Y339174D01*
X217440Y339112D01*
X217402Y339043D01*
X217284Y338769D01*
X217193Y338484D01*
X217128Y338193D01*
X217089Y337897D01*
X217076Y337598D01*
X217089Y337300D01*
X217128Y337004D01*
X217193Y336712D01*
X217284Y336428D01*
X217399Y336152D01*
X217438Y336083D01*
X217487Y336021D01*
X217546Y335968D01*
X217612Y335925D01*
X217684Y335892D01*
X217717Y335883D01*
Y324201D01*
G37*
G36*
X215552Y318647D02*X216052Y318686D01*
X216541Y318804D01*
X217006Y318996D01*
X217434Y319259D01*
X217717Y319500D01*
Y311259D01*
X217520Y311274D01*
X217019Y311235D01*
X216530Y311118D01*
X216065Y310925D01*
X215637Y310663D01*
X215552Y310590D01*
Y318647D01*
G37*
G36*
Y214891D02*X215646Y214780D01*
X216275Y214243D01*
X216979Y213812D01*
X217532Y213583D01*
X215552D01*
Y214891D01*
G37*
G36*
X221452Y223573D02*X221276Y223397D01*
X220997Y223512D01*
X220194Y223705D01*
X219370Y223770D01*
X218546Y223705D01*
X217781Y223522D01*
Y262494D01*
X217849Y262507D01*
X217923Y262535D01*
X217991Y262573D01*
X218053Y262622D01*
X218106Y262680D01*
X218150Y262746D01*
X218181Y262818D01*
X218258Y263051D01*
X218311Y263291D01*
X218343Y263534D01*
X218354Y263780D01*
X218343Y264025D01*
X218311Y264268D01*
X218258Y264508D01*
X218183Y264742D01*
X218151Y264814D01*
X218107Y264880D01*
X218054Y264938D01*
X217992Y264987D01*
X217923Y265026D01*
X217849Y265054D01*
X217781Y265067D01*
Y288956D01*
X221452Y285285D01*
Y223573D01*
G37*
G36*
X217781Y223522D02*X217743Y223512D01*
X216979Y223196D01*
X216275Y222764D01*
X215646Y222228D01*
X215552Y222117D01*
Y260977D01*
X215797Y260988D01*
X216040Y261020D01*
X216280Y261073D01*
X216514Y261147D01*
X216586Y261180D01*
X216652Y261223D01*
X216710Y261277D01*
X216759Y261339D01*
X216798Y261407D01*
X216825Y261481D01*
X216841Y261559D01*
X216844Y261638D01*
X216835Y261716D01*
X216814Y261792D01*
X216781Y261864D01*
X216737Y261930D01*
X216684Y261988D01*
X216622Y262037D01*
X216553Y262076D01*
X216479Y262103D01*
X216402Y262119D01*
X216323Y262122D01*
X216244Y262113D01*
X216169Y262091D01*
X216019Y262041D01*
X215865Y262007D01*
X215709Y261986D01*
X215552Y261980D01*
Y265579D01*
X215709Y265573D01*
X215865Y265552D01*
X216019Y265518D01*
X216169Y265470D01*
X216245Y265447D01*
X216323Y265438D01*
X216402Y265442D01*
X216479Y265457D01*
X216552Y265485D01*
X216621Y265523D01*
X216683Y265572D01*
X216736Y265630D01*
X216779Y265696D01*
X216812Y265767D01*
X216833Y265843D01*
X216842Y265921D01*
X216839Y266000D01*
X216823Y266077D01*
X216796Y266151D01*
X216757Y266219D01*
X216709Y266281D01*
X216651Y266334D01*
X216585Y266378D01*
X216513Y266409D01*
X216280Y266486D01*
X216040Y266539D01*
X215797Y266571D01*
X215552Y266582D01*
Y305551D01*
X215637Y305479D01*
X216020Y305244D01*
Y291397D01*
X216015Y291339D01*
X216034Y291103D01*
X216089Y290874D01*
X216179Y290655D01*
X216302Y290454D01*
X216456Y290275D01*
X216501Y290236D01*
X217781Y288956D01*
Y265067D01*
X217772Y265069D01*
X217693Y265072D01*
X217614Y265063D01*
X217538Y265042D01*
X217467Y265009D01*
X217401Y264966D01*
X217343Y264912D01*
X217294Y264850D01*
X217255Y264782D01*
X217227Y264707D01*
X217212Y264630D01*
X217208Y264551D01*
X217217Y264473D01*
X217240Y264397D01*
X217289Y264247D01*
X217324Y264093D01*
X217344Y263937D01*
X217351Y263780D01*
X217344Y263622D01*
X217324Y263466D01*
X217289Y263312D01*
X217242Y263161D01*
X217219Y263086D01*
X217210Y263008D01*
X217213Y262929D01*
X217229Y262852D01*
X217256Y262778D01*
X217295Y262710D01*
X217344Y262648D01*
X217402Y262595D01*
X217467Y262551D01*
X217539Y262519D01*
X217615Y262497D01*
X217693Y262488D01*
X217772Y262492D01*
X217781Y262494D01*
Y223522D01*
G37*
G36*
X215552Y325054D02*X215551Y325054D01*
X215050Y325015D01*
X214561Y324897D01*
X214097Y324705D01*
X213668Y324442D01*
X213286Y324116D01*
X212959Y323733D01*
X212697Y323305D01*
X212504Y322840D01*
X212387Y322352D01*
X212348Y321850D01*
X212387Y321349D01*
X212492Y320912D01*
X209014Y317434D01*
Y388780D01*
X215552D01*
Y325054D01*
G37*
G36*
X213321Y215793D02*X213432Y215786D01*
X213550Y215798D01*
X213664Y215827D01*
X213772Y215875D01*
X213872Y215938D01*
X213960Y216017D01*
X214035Y216108D01*
X214093Y216211D01*
X214285Y216644D01*
X214362Y216877D01*
X214362Y216877D01*
X214678Y216113D01*
X215110Y215409D01*
X215552Y214891D01*
Y213583D01*
X213321D01*
Y215793D01*
G37*
G36*
X215552Y222117D02*X215110Y221599D01*
X214678Y220895D01*
X214362Y220131D01*
X214362Y220131D01*
X214285Y220363D01*
X214098Y220800D01*
X214038Y220902D01*
X213963Y220994D01*
X213874Y221073D01*
X213774Y221137D01*
X213665Y221184D01*
X213551Y221214D01*
X213433Y221226D01*
X213321Y221219D01*
Y238442D01*
X213497Y238550D01*
X213879Y238876D01*
X214206Y239259D01*
X214469Y239687D01*
X214661Y240152D01*
X214778Y240641D01*
X214808Y241142D01*
X214778Y241643D01*
X214661Y242132D01*
X214469Y242596D01*
X214206Y243025D01*
X213879Y243407D01*
X213497Y243733D01*
X213321Y243841D01*
Y262492D01*
X213331Y262490D01*
X213409Y262487D01*
X213488Y262496D01*
X213564Y262517D01*
X213636Y262550D01*
X213702Y262593D01*
X213760Y262647D01*
X213809Y262709D01*
X213848Y262778D01*
X213875Y262852D01*
X213891Y262929D01*
X213894Y263008D01*
X213885Y263086D01*
X213862Y263162D01*
X213813Y263312D01*
X213779Y263466D01*
X213758Y263622D01*
X213751Y263780D01*
X213758Y263937D01*
X213779Y264093D01*
X213813Y264247D01*
X213861Y264398D01*
X213883Y264473D01*
X213892Y264551D01*
X213889Y264630D01*
X213873Y264707D01*
X213846Y264781D01*
X213807Y264849D01*
X213758Y264911D01*
X213700Y264964D01*
X213635Y265008D01*
X213563Y265041D01*
X213488Y265062D01*
X213409Y265071D01*
X213331Y265067D01*
X213321Y265066D01*
Y317499D01*
X214613Y318791D01*
X215050Y318686D01*
X215551Y318647D01*
X215552Y318647D01*
Y310590D01*
X215254Y310336D01*
X214928Y309954D01*
X214665Y309525D01*
X214473Y309061D01*
X214356Y308572D01*
X214316Y308071D01*
X214356Y307570D01*
X214473Y307081D01*
X214665Y306616D01*
X214928Y306188D01*
X215254Y305806D01*
X215552Y305551D01*
Y266582D01*
X215551Y266582D01*
X215306Y266571D01*
X215062Y266539D01*
X214823Y266486D01*
X214589Y266412D01*
X214517Y266379D01*
X214451Y266336D01*
X214393Y266282D01*
X214344Y266220D01*
X214305Y266152D01*
X214277Y266078D01*
X214262Y266000D01*
X214258Y265921D01*
X214267Y265843D01*
X214289Y265767D01*
X214321Y265695D01*
X214365Y265629D01*
X214419Y265571D01*
X214480Y265522D01*
X214549Y265483D01*
X214623Y265456D01*
X214701Y265440D01*
X214780Y265437D01*
X214858Y265446D01*
X214934Y265468D01*
X215083Y265518D01*
X215237Y265552D01*
X215394Y265573D01*
X215551Y265580D01*
X215552Y265579D01*
Y261980D01*
X215551Y261980D01*
X215394Y261986D01*
X215237Y262007D01*
X215083Y262041D01*
X214933Y262089D01*
X214858Y262112D01*
X214779Y262121D01*
X214701Y262117D01*
X214624Y262102D01*
X214550Y262074D01*
X214481Y262036D01*
X214420Y261987D01*
X214366Y261929D01*
X214323Y261863D01*
X214290Y261792D01*
X214269Y261716D01*
X214260Y261638D01*
X214263Y261559D01*
X214279Y261482D01*
X214306Y261408D01*
X214345Y261340D01*
X214394Y261278D01*
X214452Y261225D01*
X214517Y261181D01*
X214589Y261150D01*
X214823Y261073D01*
X215062Y261020D01*
X215306Y260988D01*
X215551Y260977D01*
X215552Y260977D01*
Y222117D01*
G37*
G36*
X213321Y243841D02*X213069Y243996D01*
X212604Y244188D01*
X212115Y244306D01*
X211614Y244345D01*
X211113Y244306D01*
X210624Y244188D01*
X210160Y243996D01*
X209731Y243733D01*
X209349Y243407D01*
X209022Y243025D01*
X209014Y243011D01*
Y262516D01*
X209064Y262535D01*
X209133Y262573D01*
X209194Y262622D01*
X209248Y262680D01*
X209291Y262746D01*
X209323Y262818D01*
X209399Y263051D01*
X209453Y263291D01*
X209485Y263534D01*
X209496Y263780D01*
X209485Y264025D01*
X209453Y264268D01*
X209399Y264508D01*
X209325Y264742D01*
X209293Y264814D01*
X209249Y264880D01*
X209196Y264938D01*
X209134Y264987D01*
X209065Y265026D01*
X209014Y265045D01*
Y313192D01*
X213321Y317499D01*
Y265066D01*
X213254Y265052D01*
X213180Y265024D01*
X213111Y264986D01*
X213050Y264937D01*
X212996Y264879D01*
X212953Y264813D01*
X212922Y264741D01*
X212845Y264508D01*
X212791Y264268D01*
X212759Y264025D01*
X212748Y263780D01*
X212759Y263534D01*
X212791Y263291D01*
X212845Y263051D01*
X212919Y262817D01*
X212951Y262745D01*
X212995Y262679D01*
X213048Y262621D01*
X213110Y262572D01*
X213179Y262533D01*
X213253Y262506D01*
X213321Y262492D01*
Y243841D01*
G37*
G36*
Y221219D02*X213314Y221219D01*
X213198Y221193D01*
X213088Y221150D01*
X212985Y221090D01*
X212894Y221014D01*
X212815Y220926D01*
X212751Y220826D01*
X212704Y220717D01*
X212674Y220602D01*
X212662Y220484D01*
X212669Y220366D01*
X212695Y220250D01*
X212740Y220140D01*
X212878Y219831D01*
X212983Y219509D01*
X213059Y219178D01*
X213105Y218843D01*
X213120Y218504D01*
X213105Y218165D01*
X213059Y217830D01*
X212983Y217499D01*
X212878Y217177D01*
X212743Y216866D01*
X212698Y216757D01*
X212673Y216642D01*
X212666Y216524D01*
X212677Y216406D01*
X212707Y216292D01*
X212754Y216184D01*
X212818Y216084D01*
X212896Y215996D01*
X212988Y215921D01*
X213089Y215861D01*
X213199Y215818D01*
X213315Y215793D01*
X213321Y215793D01*
Y213583D01*
X211212D01*
X211230Y213589D01*
X211666Y213776D01*
X211768Y213836D01*
X211860Y213911D01*
X211939Y214000D01*
X212003Y214100D01*
X212050Y214209D01*
X212080Y214323D01*
X212092Y214441D01*
X212085Y214560D01*
X212059Y214676D01*
X212016Y214786D01*
X211956Y214889D01*
X211881Y214980D01*
X211792Y215059D01*
X211692Y215123D01*
X211583Y215171D01*
X211468Y215200D01*
X211350Y215212D01*
X211232Y215205D01*
X211116Y215179D01*
X211006Y215134D01*
X210697Y214997D01*
X210375Y214891D01*
X210044Y214815D01*
X209709Y214769D01*
X209370Y214754D01*
X209031Y214769D01*
X209014Y214772D01*
Y222236D01*
X209031Y222239D01*
X209370Y222254D01*
X209709Y222239D01*
X210044Y222193D01*
X210375Y222117D01*
X210697Y222011D01*
X211008Y221877D01*
X211117Y221832D01*
X211232Y221807D01*
X211350Y221800D01*
X211468Y221811D01*
X211582Y221841D01*
X211690Y221888D01*
X211790Y221952D01*
X211878Y222030D01*
X211953Y222121D01*
X212013Y222223D01*
X212056Y222333D01*
X212081Y222448D01*
X212088Y222566D01*
X212076Y222684D01*
X212047Y222798D01*
X211999Y222906D01*
X211936Y223006D01*
X211857Y223094D01*
X211766Y223169D01*
X211663Y223227D01*
X211230Y223419D01*
X210778Y223567D01*
X210315Y223674D01*
X209845Y223738D01*
X209370Y223759D01*
X209014Y223743D01*
Y239273D01*
X209022Y239259D01*
X209349Y238876D01*
X209731Y238550D01*
X210160Y238287D01*
X210624Y238095D01*
X211113Y237978D01*
X211614Y237938D01*
X212115Y237978D01*
X212604Y238095D01*
X213069Y238287D01*
X213321Y238442D01*
Y221219D01*
G37*
G36*
X209014Y243011D02*X208976Y242949D01*
X208193Y243732D01*
Y251910D01*
X208198Y251969D01*
X208179Y252204D01*
X208124Y252433D01*
X208034Y252652D01*
X207910Y252853D01*
X207757Y253032D01*
X207712Y253071D01*
X206694Y254089D01*
Y260977D01*
X206938Y260988D01*
X207182Y261020D01*
X207421Y261073D01*
X207656Y261147D01*
X207728Y261180D01*
X207793Y261223D01*
X207852Y261277D01*
X207901Y261339D01*
X207939Y261407D01*
X207967Y261481D01*
X207983Y261559D01*
X207986Y261638D01*
X207977Y261716D01*
X207956Y261792D01*
X207923Y261864D01*
X207879Y261930D01*
X207826Y261988D01*
X207764Y262037D01*
X207695Y262076D01*
X207621Y262103D01*
X207543Y262119D01*
X207465Y262122D01*
X207386Y262113D01*
X207311Y262091D01*
X207161Y262041D01*
X207007Y262007D01*
X206850Y261986D01*
X206694Y261980D01*
Y265579D01*
X206850Y265573D01*
X207007Y265552D01*
X207161Y265518D01*
X207311Y265470D01*
X207386Y265447D01*
X207465Y265438D01*
X207543Y265442D01*
X207620Y265457D01*
X207694Y265485D01*
X207763Y265523D01*
X207824Y265572D01*
X207878Y265630D01*
X207921Y265696D01*
X207954Y265767D01*
X207975Y265843D01*
X207984Y265921D01*
X207981Y266000D01*
X207965Y266077D01*
X207938Y266151D01*
X207899Y266219D01*
X207850Y266281D01*
X207792Y266334D01*
X207727Y266378D01*
X207655Y266409D01*
X207421Y266486D01*
X207182Y266539D01*
X206938Y266571D01*
X206694Y266582D01*
Y310872D01*
X209014Y313192D01*
Y265045D01*
X208991Y265054D01*
X208914Y265069D01*
X208835Y265072D01*
X208756Y265063D01*
X208680Y265042D01*
X208608Y265009D01*
X208543Y264966D01*
X208484Y264912D01*
X208435Y264850D01*
X208397Y264782D01*
X208369Y264707D01*
X208353Y264630D01*
X208350Y264551D01*
X208359Y264473D01*
X208382Y264397D01*
X208431Y264247D01*
X208465Y264093D01*
X208486Y263937D01*
X208493Y263780D01*
X208486Y263622D01*
X208465Y263466D01*
X208431Y263312D01*
X208383Y263161D01*
X208361Y263086D01*
X208352Y263008D01*
X208355Y262929D01*
X208371Y262852D01*
X208398Y262778D01*
X208437Y262710D01*
X208486Y262648D01*
X208544Y262595D01*
X208609Y262551D01*
X208681Y262519D01*
X208757Y262497D01*
X208835Y262488D01*
X208913Y262492D01*
X208990Y262507D01*
X209014Y262516D01*
Y243011D01*
G37*
G36*
X206694Y254089D02*X204463Y256320D01*
Y262492D01*
X204472Y262490D01*
X204551Y262487D01*
X204630Y262496D01*
X204706Y262517D01*
X204778Y262550D01*
X204843Y262593D01*
X204901Y262647D01*
X204951Y262709D01*
X204989Y262778D01*
X205017Y262852D01*
X205032Y262929D01*
X205036Y263008D01*
X205027Y263086D01*
X205004Y263162D01*
X204955Y263312D01*
X204920Y263466D01*
X204900Y263622D01*
X204893Y263780D01*
X204900Y263937D01*
X204920Y264093D01*
X204955Y264247D01*
X205002Y264398D01*
X205025Y264473D01*
X205034Y264551D01*
X205031Y264630D01*
X205015Y264707D01*
X204988Y264781D01*
X204949Y264849D01*
X204900Y264911D01*
X204842Y264964D01*
X204777Y265008D01*
X204705Y265041D01*
X204629Y265062D01*
X204551Y265071D01*
X204472Y265067D01*
X204463Y265066D01*
Y308641D01*
X206694Y310872D01*
Y266582D01*
X206693Y266582D01*
X206448Y266571D01*
X206204Y266539D01*
X205964Y266486D01*
X205730Y266412D01*
X205658Y266379D01*
X205592Y266336D01*
X205534Y266282D01*
X205485Y266220D01*
X205446Y266152D01*
X205419Y266078D01*
X205403Y266000D01*
X205400Y265921D01*
X205409Y265843D01*
X205430Y265767D01*
X205463Y265695D01*
X205507Y265629D01*
X205560Y265571D01*
X205622Y265522D01*
X205691Y265483D01*
X205765Y265456D01*
X205842Y265440D01*
X205921Y265437D01*
X206000Y265446D01*
X206075Y265468D01*
X206225Y265518D01*
X206379Y265552D01*
X206535Y265573D01*
X206693Y265580D01*
X206694Y265579D01*
Y261980D01*
X206693Y261980D01*
X206535Y261986D01*
X206379Y262007D01*
X206225Y262041D01*
X206075Y262089D01*
X205999Y262112D01*
X205921Y262121D01*
X205843Y262117D01*
X205765Y262102D01*
X205692Y262074D01*
X205623Y262036D01*
X205561Y261987D01*
X205508Y261929D01*
X205465Y261863D01*
X205432Y261792D01*
X205411Y261716D01*
X205402Y261638D01*
X205405Y261559D01*
X205421Y261482D01*
X205448Y261408D01*
X205487Y261340D01*
X205536Y261278D01*
X205594Y261225D01*
X205659Y261181D01*
X205731Y261150D01*
X205964Y261073D01*
X206204Y261020D01*
X206448Y260988D01*
X206693Y260977D01*
X206694Y260977D01*
Y254089D01*
G37*
G36*
X204463Y256320D02*X202287Y258495D01*
Y306465D01*
X204463Y308641D01*
Y265066D01*
X204395Y265052D01*
X204322Y265024D01*
X204253Y264986D01*
X204191Y264937D01*
X204138Y264879D01*
X204095Y264813D01*
X204063Y264741D01*
X203987Y264508D01*
X203933Y264268D01*
X203901Y264025D01*
X203890Y263780D01*
X203901Y263534D01*
X203933Y263291D01*
X203987Y263051D01*
X204061Y262817D01*
X204093Y262745D01*
X204137Y262679D01*
X204190Y262621D01*
X204252Y262572D01*
X204321Y262533D01*
X204395Y262506D01*
X204463Y262492D01*
Y256320D01*
G37*
G36*
X194883Y215779D02*X195110Y215409D01*
X195646Y214780D01*
X196275Y214243D01*
X196979Y213812D01*
X197532Y213583D01*
X194883D01*
Y215779D01*
G37*
G36*
Y305262D02*X195321Y305297D01*
X195350Y305304D01*
Y256949D01*
X195346Y256890D01*
X195364Y256654D01*
X195419Y256425D01*
X195510Y256207D01*
X195633Y256005D01*
X195786Y255826D01*
X195831Y255788D01*
X197319Y254300D01*
Y223337D01*
X196979Y223196D01*
X196275Y222764D01*
X195646Y222228D01*
X195110Y221599D01*
X194883Y221229D01*
Y305262D01*
G37*
G36*
X209014Y214772D02*X208696Y214815D01*
X208365Y214891D01*
X208043Y214997D01*
X207732Y215131D01*
X207623Y215176D01*
X207508Y215201D01*
X207390Y215208D01*
X207272Y215197D01*
X207158Y215167D01*
X207050Y215120D01*
X206951Y215056D01*
X206862Y214978D01*
X206787Y214886D01*
X206728Y214785D01*
X206685Y214675D01*
X206659Y214559D01*
X206652Y214442D01*
X206664Y214324D01*
X206693Y214210D01*
X206741Y214102D01*
X206804Y214002D01*
X206883Y213914D01*
X206974Y213839D01*
X207077Y213781D01*
X207511Y213589D01*
X207528Y213583D01*
X201208D01*
X201761Y213812D01*
X202465Y214243D01*
X203094Y214780D01*
X203631Y215409D01*
X204062Y216113D01*
X204379Y216877D01*
X204379Y216877D01*
X204455Y216644D01*
X204643Y216208D01*
X204702Y216106D01*
X204777Y216014D01*
X204866Y215935D01*
X204966Y215871D01*
X205075Y215824D01*
X205190Y215794D01*
X205308Y215782D01*
X205426Y215789D01*
X205542Y215815D01*
X205652Y215858D01*
X205755Y215918D01*
X205846Y215993D01*
X205925Y216082D01*
X205989Y216182D01*
X206037Y216291D01*
X206067Y216406D01*
X206078Y216524D01*
X206071Y216642D01*
X206046Y216758D01*
X206000Y216868D01*
X205863Y217177D01*
X205757Y217499D01*
X205681Y217830D01*
X205635Y218165D01*
X205620Y218504D01*
X205635Y218843D01*
X205681Y219178D01*
X205757Y219509D01*
X205863Y219831D01*
X205997Y220142D01*
X206042Y220251D01*
X206067Y220366D01*
X206074Y220484D01*
X206063Y220602D01*
X206033Y220716D01*
X205986Y220824D01*
X205922Y220923D01*
X205844Y221012D01*
X205753Y221087D01*
X205651Y221146D01*
X205541Y221189D01*
X205426Y221215D01*
X205308Y221222D01*
X205190Y221210D01*
X205076Y221181D01*
X204968Y221133D01*
X204868Y221070D01*
X204780Y220991D01*
X204705Y220900D01*
X204647Y220797D01*
X204455Y220363D01*
X204379Y220131D01*
X204379Y220131D01*
X204062Y220895D01*
X203631Y221599D01*
X203094Y222228D01*
X202465Y222764D01*
X201761Y223196D01*
X200997Y223512D01*
X200319Y223675D01*
Y254862D01*
X200324Y254921D01*
X200305Y255157D01*
X200250Y255386D01*
X200160Y255604D01*
X200036Y255806D01*
X199883Y255985D01*
X199838Y256024D01*
X198350Y257511D01*
Y306044D01*
X198355Y306102D01*
X198336Y306338D01*
X198281Y306567D01*
X198191Y306785D01*
X198068Y306987D01*
X197914Y307166D01*
X197869Y307205D01*
X197615Y307459D01*
X197656Y307632D01*
X197682Y308071D01*
X197656Y308510D01*
X197553Y308939D01*
X197384Y309346D01*
X197154Y309722D01*
X197112Y309771D01*
Y315643D01*
X197179Y315657D01*
X197253Y315684D01*
X197322Y315723D01*
X197383Y315772D01*
X197437Y315830D01*
X197480Y315895D01*
X197512Y315967D01*
X197588Y316201D01*
X197642Y316440D01*
X197674Y316684D01*
X197685Y316929D01*
X197674Y317174D01*
X197642Y317418D01*
X197588Y317658D01*
X197514Y317892D01*
X197482Y317964D01*
X197438Y318030D01*
X197385Y318088D01*
X197323Y318137D01*
X197254Y318176D01*
X197180Y318203D01*
X197112Y318217D01*
Y388780D01*
X209014D01*
Y317434D01*
X199768Y308189D01*
X199723Y308151D01*
X199570Y307971D01*
X199447Y307770D01*
X199356Y307552D01*
X199301Y307322D01*
X199301Y307322D01*
X199283Y307087D01*
X199287Y307028D01*
Y257933D01*
X199283Y257874D01*
X199301Y257639D01*
X199356Y257409D01*
X199447Y257191D01*
X199570Y256990D01*
X199723Y256810D01*
X199768Y256772D01*
X205193Y251347D01*
Y243169D01*
X205188Y243110D01*
X205207Y242875D01*
X205262Y242645D01*
X205352Y242427D01*
X205476Y242226D01*
X205629Y242046D01*
X205674Y242008D01*
X207559Y240123D01*
X207597Y240078D01*
X207777Y239924D01*
X207978Y239801D01*
X208196Y239711D01*
X208426Y239656D01*
X208661Y239637D01*
X208720Y239642D01*
X208788D01*
X209014Y239273D01*
Y223743D01*
X208896Y223738D01*
X208425Y223674D01*
X207962Y223567D01*
X207511Y223419D01*
X207074Y223231D01*
X206972Y223172D01*
X206880Y223097D01*
X206801Y223008D01*
X206737Y222908D01*
X206690Y222799D01*
X206660Y222684D01*
X206648Y222566D01*
X206655Y222448D01*
X206681Y222332D01*
X206724Y222222D01*
X206784Y222119D01*
X206860Y222028D01*
X206948Y221949D01*
X207048Y221885D01*
X207157Y221837D01*
X207272Y221807D01*
X207390Y221796D01*
X207508Y221803D01*
X207624Y221828D01*
X207734Y221874D01*
X208043Y222011D01*
X208365Y222117D01*
X208696Y222193D01*
X209014Y222236D01*
Y214772D01*
G37*
G36*
X197112Y309771D02*X196868Y310057D01*
X196533Y310343D01*
X196157Y310573D01*
X195750Y310742D01*
X195321Y310845D01*
X194883Y310879D01*
Y314126D01*
X195127Y314137D01*
X195371Y314169D01*
X195610Y314223D01*
X195845Y314297D01*
X195917Y314329D01*
X195982Y314373D01*
X196040Y314426D01*
X196090Y314488D01*
X196128Y314557D01*
X196156Y314631D01*
X196172Y314709D01*
X196175Y314787D01*
X196166Y314866D01*
X196145Y314942D01*
X196112Y315014D01*
X196068Y315080D01*
X196015Y315138D01*
X195953Y315187D01*
X195884Y315226D01*
X195810Y315253D01*
X195732Y315269D01*
X195654Y315272D01*
X195575Y315263D01*
X195500Y315240D01*
X195350Y315191D01*
X195196Y315157D01*
X195039Y315136D01*
X194883Y315129D01*
Y318729D01*
X195039Y318722D01*
X195196Y318702D01*
X195350Y318667D01*
X195500Y318620D01*
X195575Y318597D01*
X195654Y318588D01*
X195732Y318591D01*
X195809Y318607D01*
X195883Y318634D01*
X195952Y318673D01*
X196013Y318722D01*
X196067Y318780D01*
X196110Y318845D01*
X196143Y318917D01*
X196164Y318993D01*
X196173Y319071D01*
X196170Y319150D01*
X196154Y319227D01*
X196127Y319300D01*
X196088Y319369D01*
X196039Y319431D01*
X195981Y319484D01*
X195916Y319527D01*
X195844Y319559D01*
X195610Y319635D01*
X195371Y319689D01*
X195127Y319721D01*
X194883Y319732D01*
Y388780D01*
X197112D01*
Y318217D01*
X197103Y318219D01*
X197024Y318222D01*
X196945Y318213D01*
X196869Y318192D01*
X196797Y318159D01*
X196732Y318115D01*
X196673Y318062D01*
X196624Y318000D01*
X196586Y317931D01*
X196558Y317857D01*
X196542Y317780D01*
X196539Y317701D01*
X196548Y317622D01*
X196571Y317547D01*
X196620Y317397D01*
X196654Y317243D01*
X196675Y317087D01*
X196682Y316929D01*
X196675Y316772D01*
X196654Y316615D01*
X196620Y316461D01*
X196572Y316311D01*
X196550Y316236D01*
X196541Y316157D01*
X196544Y316079D01*
X196560Y316002D01*
X196587Y315928D01*
X196626Y315859D01*
X196675Y315798D01*
X196733Y315744D01*
X196798Y315701D01*
X196870Y315668D01*
X196946Y315647D01*
X197024Y315638D01*
X197102Y315641D01*
X197112Y315643D01*
Y309771D01*
G37*
G36*
X192652Y306370D02*X192896Y306085D01*
X193231Y305799D01*
X193607Y305568D01*
X194014Y305400D01*
X194443Y305297D01*
X194882Y305262D01*
X194883Y305262D01*
Y221229D01*
X194678Y220895D01*
X194362Y220131D01*
X194169Y219328D01*
X194104Y218504D01*
X194169Y217680D01*
X194362Y216877D01*
X194678Y216113D01*
X194883Y215779D01*
Y213583D01*
X192652D01*
Y306370D01*
G37*
G36*
X194883Y310879D02*X194882Y310880D01*
X194443Y310845D01*
X194014Y310742D01*
X193607Y310573D01*
X193231Y310343D01*
X192896Y310057D01*
X192652Y309771D01*
Y315641D01*
X192661Y315640D01*
X192740Y315636D01*
X192819Y315645D01*
X192895Y315666D01*
X192966Y315699D01*
X193032Y315743D01*
X193090Y315796D01*
X193139Y315858D01*
X193178Y315927D01*
X193206Y316001D01*
X193221Y316079D01*
X193225Y316157D01*
X193216Y316236D01*
X193193Y316311D01*
X193144Y316461D01*
X193109Y316615D01*
X193089Y316772D01*
X193082Y316929D01*
X193089Y317087D01*
X193109Y317243D01*
X193144Y317397D01*
X193191Y317547D01*
X193214Y317623D01*
X193223Y317701D01*
X193220Y317779D01*
X193204Y317857D01*
X193177Y317930D01*
X193138Y317999D01*
X193089Y318061D01*
X193031Y318114D01*
X192966Y318157D01*
X192894Y318190D01*
X192818Y318211D01*
X192740Y318220D01*
X192661Y318217D01*
X192652Y318215D01*
Y388780D01*
X194883D01*
Y319732D01*
X194882Y319732D01*
X194637Y319721D01*
X194393Y319689D01*
X194153Y319635D01*
X193919Y319561D01*
X193847Y319529D01*
X193781Y319485D01*
X193723Y319432D01*
X193674Y319370D01*
X193635Y319301D01*
X193608Y319227D01*
X193592Y319150D01*
X193589Y319071D01*
X193598Y318992D01*
X193619Y318916D01*
X193652Y318845D01*
X193696Y318779D01*
X193749Y318721D01*
X193811Y318672D01*
X193880Y318633D01*
X193954Y318605D01*
X194031Y318590D01*
X194110Y318586D01*
X194189Y318595D01*
X194264Y318618D01*
X194414Y318667D01*
X194568Y318702D01*
X194724Y318722D01*
X194882Y318729D01*
X194883Y318729D01*
Y315129D01*
X194882Y315129D01*
X194724Y315136D01*
X194568Y315157D01*
X194414Y315191D01*
X194264Y315239D01*
X194188Y315261D01*
X194110Y315270D01*
X194032Y315267D01*
X193954Y315251D01*
X193881Y315224D01*
X193812Y315185D01*
X193750Y315136D01*
X193697Y315078D01*
X193654Y315013D01*
X193621Y314941D01*
X193600Y314866D01*
X193591Y314787D01*
X193594Y314709D01*
X193610Y314632D01*
X193637Y314558D01*
X193676Y314489D01*
X193725Y314428D01*
X193783Y314374D01*
X193848Y314331D01*
X193920Y314299D01*
X194153Y314223D01*
X194393Y314169D01*
X194637Y314137D01*
X194882Y314126D01*
X194883Y314126D01*
Y310879D01*
G37*
G36*
X192652Y309771D02*X192610Y309722D01*
X192379Y309346D01*
X192211Y308939D01*
X192108Y308510D01*
X192073Y308071D01*
X192108Y307632D01*
X192211Y307203D01*
X192379Y306796D01*
X192610Y306420D01*
X192652Y306370D01*
Y213583D01*
X179096D01*
Y294347D01*
X179515Y295030D01*
X179831Y295794D01*
X180024Y296597D01*
X180073Y297421D01*
X180024Y298245D01*
X179831Y299049D01*
X179515Y299812D01*
X179096Y300495D01*
Y304739D01*
X179117Y304745D01*
X179225Y304792D01*
X179325Y304856D01*
X179413Y304934D01*
X179488Y305025D01*
X179545Y305128D01*
X179738Y305562D01*
X179886Y306013D01*
X179993Y306476D01*
X180057Y306947D01*
X180078Y307421D01*
X180057Y307896D01*
X179993Y308366D01*
X179886Y308829D01*
X179738Y309281D01*
X179550Y309717D01*
X179491Y309820D01*
X179416Y309911D01*
X179327Y309990D01*
X179227Y310054D01*
X179118Y310102D01*
X179096Y310107D01*
Y312265D01*
X179256Y312331D01*
X179457Y312454D01*
X179637Y312607D01*
X179790Y312787D01*
X179913Y312988D01*
X180004Y313206D01*
X180059Y313436D01*
X180073Y313671D01*
X180059Y321407D01*
X180004Y321636D01*
X179913Y321854D01*
X179790Y322056D01*
X179637Y322235D01*
X179457Y322389D01*
X179256Y322512D01*
X179096Y322578D01*
Y388780D01*
X192652D01*
Y318215D01*
X192584Y318201D01*
X192511Y318174D01*
X192442Y318135D01*
X192380Y318086D01*
X192327Y318029D01*
X192284Y317963D01*
X192252Y317891D01*
X192176Y317658D01*
X192122Y317418D01*
X192090Y317174D01*
X192079Y316929D01*
X192090Y316684D01*
X192122Y316440D01*
X192176Y316201D01*
X192250Y315966D01*
X192282Y315894D01*
X192326Y315829D01*
X192379Y315771D01*
X192441Y315721D01*
X192510Y315683D01*
X192584Y315655D01*
X192652Y315641D01*
Y309771D01*
G37*
G36*
X179096Y322578D02*X179038Y322602D01*
X178808Y322657D01*
X178573Y322671D01*
X170837Y322657D01*
X170608Y322602D01*
X170390Y322512D01*
X170188Y322389D01*
X170009Y322235D01*
X169856Y322056D01*
X169823Y322002D01*
X169815Y322015D01*
Y371264D01*
X170113Y371335D01*
X171421Y371877D01*
X172629Y372618D01*
X173706Y373538D01*
X174626Y374615D01*
X175367Y375823D01*
X175909Y377132D01*
X176239Y378509D01*
X176323Y379921D01*
X176239Y381334D01*
X175909Y382711D01*
X175367Y384020D01*
X174626Y385228D01*
X173706Y386305D01*
X172629Y387225D01*
X171421Y387965D01*
X170113Y388507D01*
X169815Y388579D01*
Y388780D01*
X179096D01*
Y322578D01*
G37*
G36*
Y300495D02*X179083Y300517D01*
X178547Y301145D01*
X177918Y301682D01*
X177214Y302113D01*
X176450Y302430D01*
X176450Y302430D01*
X176682Y302506D01*
X177118Y302694D01*
X177221Y302753D01*
X177313Y302828D01*
X177392Y302917D01*
X177456Y303017D01*
X177503Y303126D01*
X177533Y303241D01*
X177545Y303359D01*
X177538Y303477D01*
X177512Y303593D01*
X177469Y303704D01*
X177409Y303806D01*
X177333Y303898D01*
X177245Y303976D01*
X177145Y304040D01*
X177036Y304088D01*
X176921Y304118D01*
X176803Y304129D01*
X176685Y304122D01*
X176569Y304097D01*
X176459Y304051D01*
X176150Y303914D01*
X175828Y303808D01*
X175497Y303732D01*
X175161Y303687D01*
X174823Y303671D01*
X174484Y303687D01*
X174148Y303732D01*
X173818Y303808D01*
X173496Y303914D01*
X173185Y304048D01*
X173076Y304093D01*
X172961Y304118D01*
X172843Y304125D01*
X172725Y304114D01*
X172611Y304084D01*
X172503Y304037D01*
X172403Y303973D01*
X172315Y303895D01*
X172240Y303804D01*
X172180Y303702D01*
X172137Y303592D01*
X172112Y303477D01*
X172105Y303359D01*
X172116Y303241D01*
X172146Y303127D01*
X172193Y303019D01*
X172257Y302920D01*
X172335Y302831D01*
X172427Y302756D01*
X172530Y302699D01*
X172963Y302506D01*
X173196Y302430D01*
X173195Y302430D01*
X172432Y302113D01*
X171727Y301682D01*
X171099Y301145D01*
X170562Y300517D01*
X170131Y299812D01*
X169925Y299315D01*
X169815D01*
Y305795D01*
X169823Y305820D01*
X169907Y305562D01*
X170095Y305126D01*
X170155Y305023D01*
X170230Y304931D01*
X170319Y304852D01*
X170419Y304789D01*
X170527Y304741D01*
X170642Y304711D01*
X170760Y304700D01*
X170879Y304707D01*
X170995Y304732D01*
X171105Y304775D01*
X171208Y304835D01*
X171299Y304911D01*
X171378Y304999D01*
X171442Y305099D01*
X171489Y305208D01*
X171519Y305323D01*
X171531Y305441D01*
X171524Y305560D01*
X171498Y305675D01*
X171453Y305785D01*
X171315Y306094D01*
X171210Y306417D01*
X171134Y306747D01*
X171088Y307083D01*
X171073Y307421D01*
X171088Y307760D01*
X171134Y308096D01*
X171210Y308426D01*
X171315Y308748D01*
X171450Y309059D01*
X171495Y309168D01*
X171520Y309284D01*
X171527Y309401D01*
X171516Y309519D01*
X171486Y309633D01*
X171439Y309741D01*
X171375Y309841D01*
X171297Y309929D01*
X171205Y310004D01*
X171104Y310064D01*
X170994Y310107D01*
X170878Y310132D01*
X170760Y310139D01*
X170643Y310128D01*
X170529Y310098D01*
X170421Y310051D01*
X170321Y309987D01*
X170233Y309909D01*
X170158Y309817D01*
X170100Y309715D01*
X169907Y309281D01*
X169823Y309022D01*
X169815Y309047D01*
Y312827D01*
X169823Y312840D01*
X169856Y312787D01*
X170009Y312607D01*
X170188Y312454D01*
X170390Y312331D01*
X170608Y312240D01*
X170837Y312185D01*
X171073Y312171D01*
X172586Y312174D01*
X172527Y312149D01*
X172424Y312089D01*
X172333Y312014D01*
X172254Y311925D01*
X172190Y311825D01*
X172143Y311717D01*
X172113Y311602D01*
X172101Y311484D01*
X172108Y311365D01*
X172134Y311249D01*
X172177Y311139D01*
X172237Y311037D01*
X172312Y310945D01*
X172401Y310866D01*
X172501Y310802D01*
X172610Y310755D01*
X172725Y310725D01*
X172843Y310713D01*
X172961Y310720D01*
X173077Y310746D01*
X173186Y310791D01*
X173496Y310929D01*
X173818Y311034D01*
X174148Y311110D01*
X174484Y311156D01*
X174823Y311171D01*
X175161Y311156D01*
X175497Y311110D01*
X175828Y311034D01*
X176150Y310929D01*
X176461Y310795D01*
X176570Y310749D01*
X176685Y310724D01*
X176803Y310717D01*
X176920Y310729D01*
X177035Y310758D01*
X177143Y310806D01*
X177242Y310869D01*
X177331Y310948D01*
X177406Y311039D01*
X177465Y311141D01*
X177508Y311251D01*
X177534Y311366D01*
X177541Y311484D01*
X177529Y311601D01*
X177499Y311715D01*
X177452Y311824D01*
X177389Y311923D01*
X177310Y312011D01*
X177219Y312086D01*
X177116Y312144D01*
X177030Y312182D01*
X178808Y312185D01*
X179038Y312240D01*
X179096Y312265D01*
Y310107D01*
X179003Y310131D01*
X178885Y310143D01*
X178767Y310136D01*
X178651Y310110D01*
X178540Y310067D01*
X178438Y310007D01*
X178346Y309932D01*
X178268Y309843D01*
X178204Y309743D01*
X178156Y309634D01*
X178126Y309520D01*
X178115Y309401D01*
X178122Y309283D01*
X178147Y309167D01*
X178193Y309058D01*
X178330Y308748D01*
X178436Y308426D01*
X178512Y308096D01*
X178558Y307760D01*
X178573Y307421D01*
X178558Y307083D01*
X178512Y306747D01*
X178436Y306417D01*
X178330Y306094D01*
X178196Y305783D01*
X178151Y305674D01*
X178126Y305559D01*
X178119Y305441D01*
X178130Y305324D01*
X178160Y305209D01*
X178207Y305101D01*
X178271Y305002D01*
X178349Y304913D01*
X178440Y304839D01*
X178542Y304779D01*
X178652Y304736D01*
X178767Y304710D01*
X178885Y304703D01*
X179003Y304715D01*
X179096Y304739D01*
Y300495D01*
G37*
G36*
Y213583D02*X169815D01*
Y213784D01*
X170113Y213855D01*
X171421Y214397D01*
X172629Y215137D01*
X173706Y216057D01*
X174626Y217135D01*
X175367Y218342D01*
X175909Y219651D01*
X176239Y221029D01*
X176323Y222441D01*
X176239Y223853D01*
X175909Y225231D01*
X175367Y226539D01*
X174626Y227747D01*
X173706Y228825D01*
X172629Y229745D01*
X171421Y230485D01*
X170113Y231027D01*
X169815Y231098D01*
Y295528D01*
X169925D01*
X170131Y295030D01*
X170562Y294326D01*
X171099Y293698D01*
X171727Y293161D01*
X172432Y292729D01*
X173195Y292413D01*
X173999Y292220D01*
X174823Y292155D01*
X175647Y292220D01*
X176450Y292413D01*
X177214Y292729D01*
X177918Y293161D01*
X178547Y293698D01*
X179083Y294326D01*
X179096Y294347D01*
Y213583D01*
G37*
G36*
X169815Y388579D02*X168978Y388780D01*
X169815D01*
Y388579D01*
G37*
G36*
X160549Y312265D02*X160608Y312240D01*
X160837Y312185D01*
X161073Y312171D01*
X162586Y312174D01*
X162527Y312149D01*
X162424Y312089D01*
X162333Y312014D01*
X162254Y311925D01*
X162190Y311825D01*
X162143Y311717D01*
X162113Y311602D01*
X162101Y311484D01*
X162108Y311365D01*
X162134Y311249D01*
X162177Y311139D01*
X162237Y311037D01*
X162312Y310945D01*
X162401Y310866D01*
X162501Y310802D01*
X162610Y310755D01*
X162725Y310725D01*
X162843Y310713D01*
X162961Y310720D01*
X163077Y310746D01*
X163186Y310791D01*
X163496Y310929D01*
X163818Y311034D01*
X164148Y311110D01*
X164484Y311156D01*
X164823Y311171D01*
X165161Y311156D01*
X165497Y311110D01*
X165828Y311034D01*
X166150Y310929D01*
X166461Y310795D01*
X166570Y310749D01*
X166685Y310724D01*
X166803Y310717D01*
X166920Y310729D01*
X167035Y310758D01*
X167143Y310806D01*
X167242Y310869D01*
X167331Y310948D01*
X167406Y311039D01*
X167465Y311141D01*
X167508Y311251D01*
X167534Y311366D01*
X167541Y311484D01*
X167529Y311601D01*
X167499Y311715D01*
X167452Y311824D01*
X167389Y311923D01*
X167310Y312011D01*
X167219Y312086D01*
X167116Y312144D01*
X167030Y312182D01*
X168808Y312185D01*
X169038Y312240D01*
X169256Y312331D01*
X169457Y312454D01*
X169637Y312607D01*
X169790Y312787D01*
X169815Y312827D01*
Y309047D01*
X169738Y309281D01*
X169550Y309717D01*
X169491Y309820D01*
X169416Y309911D01*
X169327Y309990D01*
X169227Y310054D01*
X169118Y310102D01*
X169003Y310131D01*
X168885Y310143D01*
X168767Y310136D01*
X168651Y310110D01*
X168540Y310067D01*
X168438Y310007D01*
X168346Y309932D01*
X168268Y309843D01*
X168204Y309743D01*
X168156Y309634D01*
X168126Y309520D01*
X168115Y309401D01*
X168122Y309283D01*
X168147Y309167D01*
X168193Y309058D01*
X168330Y308748D01*
X168436Y308426D01*
X168512Y308096D01*
X168558Y307760D01*
X168573Y307421D01*
X168558Y307083D01*
X168512Y306747D01*
X168436Y306417D01*
X168330Y306094D01*
X168196Y305783D01*
X168151Y305674D01*
X168126Y305559D01*
X168119Y305441D01*
X168130Y305324D01*
X168160Y305209D01*
X168207Y305101D01*
X168271Y305002D01*
X168349Y304913D01*
X168440Y304839D01*
X168542Y304779D01*
X168652Y304736D01*
X168767Y304710D01*
X168885Y304703D01*
X169003Y304715D01*
X169117Y304745D01*
X169225Y304792D01*
X169325Y304856D01*
X169413Y304934D01*
X169488Y305025D01*
X169545Y305128D01*
X169738Y305562D01*
X169815Y305795D01*
Y299315D01*
X169721D01*
X169515Y299812D01*
X169083Y300517D01*
X168547Y301145D01*
X167918Y301682D01*
X167214Y302113D01*
X166450Y302430D01*
X166450Y302430D01*
X166682Y302506D01*
X167118Y302694D01*
X167221Y302753D01*
X167313Y302828D01*
X167392Y302917D01*
X167456Y303017D01*
X167503Y303126D01*
X167533Y303241D01*
X167545Y303359D01*
X167538Y303477D01*
X167512Y303593D01*
X167469Y303704D01*
X167409Y303806D01*
X167333Y303898D01*
X167245Y303976D01*
X167145Y304040D01*
X167036Y304088D01*
X166921Y304118D01*
X166803Y304129D01*
X166685Y304122D01*
X166569Y304097D01*
X166459Y304051D01*
X166150Y303914D01*
X165828Y303808D01*
X165497Y303732D01*
X165161Y303687D01*
X164823Y303671D01*
X164484Y303687D01*
X164148Y303732D01*
X163818Y303808D01*
X163496Y303914D01*
X163185Y304048D01*
X163076Y304093D01*
X162961Y304118D01*
X162843Y304125D01*
X162725Y304114D01*
X162611Y304084D01*
X162503Y304037D01*
X162403Y303973D01*
X162315Y303895D01*
X162240Y303804D01*
X162180Y303702D01*
X162137Y303592D01*
X162112Y303477D01*
X162105Y303359D01*
X162116Y303241D01*
X162146Y303127D01*
X162193Y303019D01*
X162257Y302920D01*
X162335Y302831D01*
X162427Y302756D01*
X162530Y302699D01*
X162963Y302506D01*
X163196Y302430D01*
X163195Y302430D01*
X162432Y302113D01*
X161727Y301682D01*
X161099Y301145D01*
X160562Y300517D01*
X160549Y300495D01*
Y304735D01*
X160642Y304711D01*
X160760Y304700D01*
X160879Y304707D01*
X160995Y304732D01*
X161105Y304775D01*
X161208Y304835D01*
X161299Y304911D01*
X161378Y304999D01*
X161442Y305099D01*
X161489Y305208D01*
X161519Y305323D01*
X161531Y305441D01*
X161524Y305560D01*
X161498Y305675D01*
X161453Y305785D01*
X161315Y306094D01*
X161210Y306417D01*
X161134Y306747D01*
X161088Y307083D01*
X161073Y307421D01*
X161088Y307760D01*
X161134Y308096D01*
X161210Y308426D01*
X161315Y308748D01*
X161450Y309059D01*
X161495Y309168D01*
X161520Y309284D01*
X161527Y309401D01*
X161516Y309519D01*
X161486Y309633D01*
X161439Y309741D01*
X161375Y309841D01*
X161297Y309929D01*
X161205Y310004D01*
X161104Y310064D01*
X160994Y310107D01*
X160878Y310132D01*
X160760Y310139D01*
X160643Y310128D01*
X160549Y310103D01*
Y312265D01*
G37*
G36*
Y373994D02*X160939Y373538D01*
X162016Y372618D01*
X163224Y371877D01*
X164533Y371335D01*
X165911Y371005D01*
X167323Y370894D01*
X168735Y371005D01*
X169815Y371264D01*
Y322015D01*
X169790Y322056D01*
X169637Y322235D01*
X169457Y322389D01*
X169256Y322512D01*
X169038Y322602D01*
X168808Y322657D01*
X168573Y322671D01*
X160837Y322657D01*
X160608Y322602D01*
X160549Y322578D01*
Y373994D01*
G37*
G36*
X169815Y231098D02*X168735Y231358D01*
X167323Y231469D01*
X165911Y231358D01*
X164533Y231027D01*
X163224Y230485D01*
X162016Y229745D01*
X160939Y228825D01*
X160549Y228368D01*
Y294347D01*
X160562Y294326D01*
X161099Y293698D01*
X161727Y293161D01*
X162432Y292729D01*
X163195Y292413D01*
X163999Y292220D01*
X164823Y292155D01*
X165647Y292220D01*
X166450Y292413D01*
X167214Y292729D01*
X167918Y293161D01*
X168547Y293698D01*
X169083Y294326D01*
X169515Y295030D01*
X169721Y295528D01*
X169815D01*
Y231098D01*
G37*
G36*
X160549Y228368D02*X160019Y227747D01*
X159279Y226539D01*
X158737Y225231D01*
X158465Y224096D01*
Y378266D01*
X158737Y377132D01*
X159279Y375823D01*
X160019Y374615D01*
X160549Y373994D01*
Y322578D01*
X160390Y322512D01*
X160188Y322389D01*
X160009Y322235D01*
X159856Y322056D01*
X159732Y321854D01*
X159642Y321636D01*
X159587Y321407D01*
X159573Y321171D01*
X159587Y313436D01*
X159642Y313206D01*
X159732Y312988D01*
X159856Y312787D01*
X160009Y312607D01*
X160188Y312454D01*
X160390Y312331D01*
X160549Y312265D01*
Y310103D01*
X160529Y310098D01*
X160421Y310051D01*
X160321Y309987D01*
X160233Y309909D01*
X160158Y309817D01*
X160100Y309715D01*
X159907Y309281D01*
X159760Y308829D01*
X159653Y308366D01*
X159589Y307896D01*
X159567Y307421D01*
X159589Y306947D01*
X159653Y306476D01*
X159760Y306013D01*
X159907Y305562D01*
X160095Y305126D01*
X160155Y305023D01*
X160230Y304931D01*
X160319Y304852D01*
X160419Y304789D01*
X160527Y304741D01*
X160549Y304735D01*
Y300495D01*
X160131Y299812D01*
X159814Y299049D01*
X159621Y298245D01*
X159557Y297421D01*
X159621Y296597D01*
X159814Y295794D01*
X160131Y295030D01*
X160549Y294347D01*
Y228368D01*
G37*
G36*
X169815Y213583D02*X168978D01*
X169815Y213784D01*
Y213583D01*
G37*
G54D39*X293307Y238189D02*X252953D01*
X250000Y242126D01*
G54D40*X350394Y227362D02*X343504D01*
G54D39*X293307Y238189D02*X311024Y220472D01*
Y227362D02*X324803Y241142D01*
X289370Y230315D02*Y218504D01*
X311024Y220472D02*X336614D01*
X343504Y227362D01*
X258858Y232283D02*Y218504D01*
X269138Y230315D02*Y218504D01*
X279000Y229350D02*Y218000D01*
G54D41*X397638Y274606D02*Y305118D01*
G54D39*X370079Y289370D02*X375000Y294291D01*
Y304134D01*
G54D40*X397638Y274606D02*X350394Y227362D01*
G54D39*X375000Y304134D02*X370236Y308898D01*
G54D41*X397638Y305118D02*X393543Y309213D01*
X390236D01*
G54D39*X217520Y291339D02*X225394Y283465D01*
X215551Y321850D02*X200787Y307087D01*
Y257874D01*
X217520Y291339D02*Y308071D01*
X240157Y301181D02*X236220Y297244D01*
X240157Y308071D02*X234252Y302165D01*
X272638Y316929D02*Y297244D01*
X290354Y279528D01*
X291339D01*
X194882Y308071D02*X196850Y306102D01*
G54D41*X164823Y297421D02*X174823D01*
G54D39*X174213Y296811D01*
X236220Y229331D02*X229000Y222110D01*
Y218000D01*
X234252Y230315D02*X228346Y224409D01*
X224409D01*
X219000Y219000D01*
Y218000D01*
X240157Y250984D02*X239173Y250000D01*
Y218504D01*
X206693Y251969D02*X200787Y257874D01*
X196850Y256890D02*X198819Y254921D01*
Y218504D01*
X342520Y255906D02*X333661Y249016D01*
G54D41*X327756Y285433D02*X353346Y259843D01*
Y246063D01*
G54D39*X324803Y241142D02*Y243110D01*
X370236Y308898D02*Y309213D01*
X337598Y289370D02*X370079D01*
X308852Y288182D02*X310617Y286417D01*
X319882D01*
X314961Y308071D02*X324803Y298228D01*
G54D41*X323819Y309055D02*X327756Y305118D01*
Y285433D01*
G54D39*X324803Y298228D02*Y241142D01*
X240157Y295276D02*Y250984D01*
X236220Y297244D02*Y229331D01*
X234252Y302165D02*Y230315D01*
X196850Y256890D02*Y306102D01*
X206693Y251969D02*Y243110D01*
X208661Y241142D01*
X211614D01*
G54D42*X411811Y231811D03*
G54D38*G36*
X386486Y312963D02*Y305463D01*
X393986D01*
Y312963D01*
X386486D01*
G37*
G54D43*X380236Y309213D03*
G54D38*G36*
X386486Y302963D02*Y295463D01*
X393986D01*
Y302963D01*
X386486D01*
G37*
G54D43*X380236Y299213D03*
G54D44*X420669Y347441D03*
X420866Y358858D03*
G54D45*X419291Y326772D03*
G54D46*X370236Y309213D03*
X360236D03*
X370236Y299213D03*
X360236D03*
G54D45*X329134Y338977D03*
Y326772D03*
G54D42*X411811Y263150D03*
G54D38*G36*
X274559Y271858D02*Y265858D01*
X280559D01*
Y271858D01*
X274559D01*
G37*
G54D45*X419291Y380709D03*
X329134D03*
Y368504D03*
G54D38*G36*
X297382Y360099D02*Y352499D01*
X304982D01*
Y360099D01*
X297382D01*
G37*
G54D47*X291339Y356299D03*
G54D48*X265748Y291142D03*
Y286417D03*
G54D38*G36*
X288339Y301622D02*Y295622D01*
X294339D01*
Y301622D01*
X288339D01*
G37*
G54D49*X281339Y298622D03*
G54D38*G36*
X285620Y222254D02*Y214754D01*
X293120D01*
Y222254D01*
X285620D01*
G37*
G54D43*X279370Y218504D03*
X289370Y230315D03*
X279370D03*
X259370Y218504D03*
X249370D03*
X239370D03*
X269370D03*
Y230315D03*
X259370D03*
X249370D03*
G54D50*X277559Y248858D03*
G54D43*X229370Y218504D03*
X219370D03*
X209370D03*
X199370D03*
G54D38*G36*
X171073Y321171D02*Y313671D01*
X178573D01*
Y321171D01*
X171073D01*
G37*
G36*
X161073D02*Y313671D01*
X168573D01*
Y321171D01*
X161073D01*
G37*
G54D43*X164823Y307421D03*
Y297421D03*
X174823Y307421D03*
Y297421D03*
G54D51*X167323Y222441D03*
G54D52*X206693Y263780D03*
G54D53*X211614Y241142D03*
X333661Y249016D03*
G54D54*X353346Y238189D03*
G54D53*X343504Y255906D03*
G54D54*X353346Y246063D03*
G54D53*X250000Y242126D03*
G54D52*X215551Y263780D03*
G54D55*X293307Y246063D03*
G54D53*X311024Y227362D03*
G54D51*X419291Y301181D03*
G54D53*X337598Y289370D03*
X343504Y227362D03*
X301181Y285433D03*
G54D55*X323819Y309055D03*
G54D49*X314961Y331693D03*
G54D53*X314961Y308071D03*
X309055Y288386D03*
X320859Y286411D03*
G54D52*X291339Y279528D03*
X272638Y316929D03*
G54D51*X167323Y379921D03*
G54D55*X220473Y337598D03*
G54D52*X194882Y316929D03*
G54D53*X215551Y321850D03*
G54D55*X250985Y322835D03*
G54D53*X217520Y308071D03*
G54D52*X240157D03*
X194882D03*
G54D53*X225394Y283465D03*
G54D52*X240157Y301181D03*
Y295276D03*
X249016Y277559D03*
G54D56*G54D40*G54D57*G54D40*G54D57*G54D40*G54D57*G54D40*G54D56*G54D40*G54D57*G54D58*G54D40*G54D56*G54D57*G54D40*G54D57*G54D40*G54D59*G54D45*G54D44*G54D45*G54D59*G54D60*G54D45*G54D61*G54D40*G54D45*G54D60*G54D45*M02*
