G04 start of page 10 for group -4015 idx -4015 *
G04 Title: (unknown), toppaste *
G04 Creator: pcb 4.2.2 *
G04 CreationDate: Sat Aug  8 01:25:40 2020 UTC *
G04 For: harold *
G04 Format: Gerber/RS-274X *
G04 PCB-Dimensions (mil): 6000.00 5000.00 *
G04 PCB-Coordinate-Origin: lower left *
%MOIN*%
%FSLAX25Y25*%
%LNTOPPASTE*%
%ADD51C,0.0001*%
G54D51*G36*
X143500Y296500D02*X141500D01*
Y288000D01*
X143500D01*
Y296500D01*
G37*
G36*
X148500D02*X146500D01*
Y288000D01*
X148500D01*
Y296500D01*
G37*
G36*
X153500D02*X151500D01*
Y288000D01*
X153500D01*
Y296500D01*
G37*
G36*
X158500D02*X156500D01*
Y288000D01*
X158500D01*
Y296500D01*
G37*
G36*
Y317000D02*X156500D01*
Y308500D01*
X158500D01*
Y317000D01*
G37*
G36*
X153500D02*X151500D01*
Y308500D01*
X153500D01*
Y317000D01*
G37*
G36*
X148500D02*X146500D01*
Y308500D01*
X148500D01*
Y317000D01*
G37*
G36*
X143500D02*X141500D01*
Y308500D01*
X143500D01*
Y317000D01*
G37*
G36*
X155123Y335007D02*X152363D01*
Y329493D01*
X155123D01*
Y335007D01*
G37*
G36*
X147637D02*X144877D01*
Y329493D01*
X147637D01*
Y335007D01*
G37*
G36*
Y342757D02*X144877D01*
Y337243D01*
X147637D01*
Y342757D01*
G37*
G36*
X155123D02*X152363D01*
Y337243D01*
X155123D01*
Y342757D01*
G37*
G36*
Y327757D02*X152363D01*
Y322243D01*
X155123D01*
Y327757D01*
G37*
G36*
X147637D02*X144877D01*
Y322243D01*
X147637D01*
Y327757D01*
G37*
G36*
X168500Y296500D02*X166500D01*
Y288000D01*
X168500D01*
Y296500D01*
G37*
G36*
X173500D02*X171500D01*
Y288000D01*
X173500D01*
Y296500D01*
G37*
G36*
X178500D02*X176500D01*
Y288000D01*
X178500D01*
Y296500D01*
G37*
G36*
X183500D02*X181500D01*
Y288000D01*
X183500D01*
Y296500D01*
G37*
G36*
Y317000D02*X181500D01*
Y308500D01*
X183500D01*
Y317000D01*
G37*
G36*
X178500D02*X176500D01*
Y308500D01*
X178500D01*
Y317000D01*
G37*
G36*
X173500D02*X171500D01*
Y308500D01*
X173500D01*
Y317000D01*
G37*
G36*
X168500D02*X166500D01*
Y308500D01*
X168500D01*
Y317000D01*
G37*
G36*
X172637Y372757D02*X169877D01*
Y367243D01*
X172637D01*
Y372757D01*
G37*
G36*
X180123D02*X177363D01*
Y367243D01*
X180123D01*
Y372757D01*
G37*
G36*
X167623Y335257D02*X164863D01*
Y329743D01*
X167623D01*
Y335257D01*
G37*
G36*
X160137D02*X157377D01*
Y329743D01*
X160137D01*
Y335257D01*
G37*
G36*
Y327757D02*X157377D01*
Y322243D01*
X160137D01*
Y327757D01*
G37*
G36*
X167623D02*X164863D01*
Y322243D01*
X167623D01*
Y327757D01*
G37*
G36*
X142637Y260257D02*X139877D01*
Y254743D01*
X142637D01*
Y260257D01*
G37*
G36*
X150123D02*X147363D01*
Y254743D01*
X150123D01*
Y260257D01*
G37*
G36*
X162623Y275257D02*X159863D01*
Y269743D01*
X162623D01*
Y275257D01*
G37*
G36*
X155137D02*X152377D01*
Y269743D01*
X155137D01*
Y275257D01*
G37*
G36*
Y282757D02*X152377D01*
Y277243D01*
X155137D01*
Y282757D01*
G37*
G36*
X162623D02*X159863D01*
Y277243D01*
X162623D01*
Y282757D01*
G37*
G36*
X150123Y275257D02*X147363D01*
Y269743D01*
X150123D01*
Y275257D01*
G37*
G36*
X142637D02*X139877D01*
Y269743D01*
X142637D01*
Y275257D01*
G37*
G36*
Y267757D02*X139877D01*
Y262243D01*
X142637D01*
Y267757D01*
G37*
G36*
X150123D02*X147363D01*
Y262243D01*
X150123D01*
Y267757D01*
G37*
G36*
Y282757D02*X147363D01*
Y277243D01*
X150123D01*
Y282757D01*
G37*
G36*
X142637D02*X139877D01*
Y277243D01*
X142637D01*
Y282757D01*
G37*
G36*
X175123Y275257D02*X172363D01*
Y269743D01*
X175123D01*
Y275257D01*
G37*
G36*
X167637D02*X164877D01*
Y269743D01*
X167637D01*
Y275257D01*
G37*
G36*
Y267757D02*X164877D01*
Y262243D01*
X167637D01*
Y267757D01*
G37*
G36*
X175123D02*X172363D01*
Y262243D01*
X175123D01*
Y267757D01*
G37*
G36*
Y282757D02*X172363D01*
Y277243D01*
X175123D01*
Y282757D01*
G37*
G36*
X167637D02*X164877D01*
Y277243D01*
X167637D01*
Y282757D01*
G37*
G36*
X167623Y357757D02*X164863D01*
Y352243D01*
X167623D01*
Y357757D01*
G37*
G36*
X160137D02*X157377D01*
Y352243D01*
X160137D01*
Y357757D01*
G37*
G36*
X180123Y335257D02*X177363D01*
Y329743D01*
X180123D01*
Y335257D01*
G37*
G36*
X172637D02*X169877D01*
Y329743D01*
X172637D01*
Y335257D01*
G37*
G36*
Y342757D02*X169877D01*
Y337243D01*
X172637D01*
Y342757D01*
G37*
G36*
X180123D02*X177363D01*
Y337243D01*
X180123D01*
Y342757D01*
G37*
G36*
Y350257D02*X177363D01*
Y344743D01*
X180123D01*
Y350257D01*
G37*
G36*
X172637D02*X169877D01*
Y344743D01*
X172637D01*
Y350257D01*
G37*
G36*
X180123Y327757D02*X177363D01*
Y322243D01*
X180123D01*
Y327757D01*
G37*
G36*
X172637D02*X169877D01*
Y322243D01*
X172637D01*
Y327757D01*
G37*
G36*
X167623Y365257D02*X164863D01*
Y359743D01*
X167623D01*
Y365257D01*
G37*
G36*
X160137D02*X157377D01*
Y359743D01*
X160137D01*
Y365257D01*
G37*
G36*
Y372757D02*X157377D01*
Y367243D01*
X160137D01*
Y372757D01*
G37*
G36*
X167623D02*X164863D01*
Y367243D01*
X167623D01*
Y372757D01*
G37*
G36*
X180123Y365257D02*X177363D01*
Y359743D01*
X180123D01*
Y365257D01*
G37*
G36*
X172637D02*X169877D01*
Y359743D01*
X172637D01*
Y365257D01*
G37*
G36*
X155137Y252757D02*X152377D01*
Y247243D01*
X155137D01*
Y252757D01*
G37*
G36*
X162623D02*X159863D01*
Y247243D01*
X162623D01*
Y252757D01*
G37*
G36*
X130137Y282757D02*X127377D01*
Y277243D01*
X130137D01*
Y282757D01*
G37*
G36*
X137623D02*X134863D01*
Y277243D01*
X137623D01*
Y282757D01*
G37*
G36*
X162623Y237757D02*X159863D01*
Y232243D01*
X162623D01*
Y237757D01*
G37*
G36*
X155137D02*X152377D01*
Y232243D01*
X155137D01*
Y237757D01*
G37*
G36*
X167637Y252757D02*X164877D01*
Y247243D01*
X167637D01*
Y252757D01*
G37*
G36*
X175123D02*X172363D01*
Y247243D01*
X175123D01*
Y252757D01*
G37*
G36*
X162623Y230257D02*X159863D01*
Y224743D01*
X162623D01*
Y230257D01*
G37*
G36*
X155137D02*X152377D01*
Y224743D01*
X155137D01*
Y230257D01*
G37*
G36*
Y245257D02*X152377D01*
Y239743D01*
X155137D01*
Y245257D01*
G37*
G36*
X162623D02*X159863D01*
Y239743D01*
X162623D01*
Y245257D01*
G37*
G36*
Y267757D02*X159863D01*
Y262243D01*
X162623D01*
Y267757D01*
G37*
G36*
X155137D02*X152377D01*
Y262243D01*
X155137D01*
Y267757D01*
G37*
G36*
X162623Y260257D02*X159863D01*
Y254743D01*
X162623D01*
Y260257D01*
G37*
G36*
X155137D02*X152377D01*
Y254743D01*
X155137D01*
Y260257D01*
G37*
G36*
X160137Y342757D02*X157377D01*
Y337243D01*
X160137D01*
Y342757D01*
G37*
G36*
X167623D02*X164863D01*
Y337243D01*
X167623D01*
Y342757D01*
G37*
G36*
X147637Y352757D02*X144877D01*
Y347243D01*
X147637D01*
Y352757D01*
G37*
G36*
X155123D02*X152363D01*
Y347243D01*
X155123D01*
Y352757D01*
G37*
M02*
