G04 start of page 8 for group -4079 idx -4079 *
G04 Title: (unknown), topsilk *
G04 Creator: pcb 4.2.2 *
G04 CreationDate: Sat Aug  8 01:25:40 2020 UTC *
G04 For: harold *
G04 Format: Gerber/RS-274X *
G04 PCB-Dimensions (mil): 6000.00 5000.00 *
G04 PCB-Coordinate-Origin: lower left *
%MOIN*%
%FSLAX25Y25*%
%LNTOPSILK*%
%ADD49C,0.0100*%
G54D49*X169500Y259500D02*X166000D01*
X163500Y262000D01*
X175500Y276500D02*X164000D01*
X163000Y275500D01*
X128500Y273500D02*X131500Y276500D01*
X139000D01*
X157500Y321500D02*X156000Y320000D01*
X137000D01*
X180000Y320500D02*X169500D01*
X169000Y321000D01*
Y328500D01*
X168000Y329500D01*
X116000Y237540D02*Y233700D01*
X118400Y237540D02*Y233700D01*
X116000Y235620D02*X118400D01*
X119552Y237060D02*Y234180D01*
Y237060D02*X120032Y237540D01*
X120992D01*
X121472Y237060D01*
Y234180D01*
X120992Y233700D02*X121472Y234180D01*
X120032Y233700D02*X120992D01*
X119552Y234180D02*X120032Y233700D01*
X122624Y237540D02*X124544D01*
X123584D02*Y233700D01*
X115500Y334040D02*Y330200D01*
X117900Y334040D02*Y330200D01*
X115500Y332120D02*X117900D01*
X119052Y333560D02*Y330680D01*
Y333560D02*X119532Y334040D01*
X120492D01*
X120972Y333560D01*
Y330680D01*
X120492Y330200D02*X120972Y330680D01*
X119532Y330200D02*X120492D01*
X119052Y330680D02*X119532Y330200D01*
X122124Y334040D02*X124044D01*
X123084D02*Y330200D01*
X149607Y329495D02*X150393D01*
X149607Y335005D02*X150393D01*
X149607Y322245D02*X150393D01*
X149607Y327755D02*X150393D01*
X162107Y329745D02*X162893D01*
X162107Y335255D02*X162893D01*
X162107Y327755D02*X162893D01*
X162107Y322245D02*X162893D01*
X174607Y329745D02*X175393D01*
X174607Y335255D02*X175393D01*
X174607Y322245D02*X175393D01*
X174607Y327755D02*X175393D01*
X140500Y287000D02*X159500D01*
Y318000D02*Y287000D01*
X140500Y318000D02*X159500D01*
X140500Y300000D02*Y287000D01*
Y318000D02*Y305000D01*
Y300000D02*G75*G03X140500Y305000I0J2500D01*G01*
X165500Y287000D02*X184500D01*
Y318000D02*Y287000D01*
X165500Y318000D02*X184500D01*
X165500Y300000D02*Y287000D01*
Y318000D02*Y305000D01*
Y300000D02*G75*G03X165500Y305000I0J2500D01*G01*
X115000Y317500D02*Y287500D01*
X135000D01*
Y317500D01*
X115000D01*
Y307500D02*X125000D01*
Y317500D01*
X144607Y260255D02*X145393D01*
X144607Y254745D02*X145393D01*
X144607Y267755D02*X145393D01*
X144607Y262245D02*X145393D01*
X114114Y260964D02*Y231830D01*
Y260964D02*X136752D01*
X114114Y231830D02*X136752D01*
Y241476D02*Y231830D01*
Y260964D02*Y251319D01*
X157107Y269745D02*X157893D01*
X157107Y275255D02*X157893D01*
X169607Y269745D02*X170393D01*
X169607Y275255D02*X170393D01*
X169607Y267755D02*X170393D01*
X169607Y262245D02*X170393D01*
X157107D02*X157893D01*
X157107Y267755D02*X157893D01*
X157107Y254745D02*X157893D01*
X157107Y260255D02*X157893D01*
X157107Y282755D02*X157893D01*
X157107Y277245D02*X157893D01*
X169607D02*X170393D01*
X169607Y282755D02*X170393D01*
X144607Y269745D02*X145393D01*
X144607Y275255D02*X145393D01*
X144607Y277245D02*X145393D01*
X144607Y282755D02*X145393D01*
X132107D02*X132893D01*
X132107Y277245D02*X132893D01*
X157107Y252755D02*X157893D01*
X157107Y247245D02*X157893D01*
X157107Y232245D02*X157893D01*
X157107Y237755D02*X157893D01*
X169607Y252755D02*X170393D01*
X169607Y247245D02*X170393D01*
X157107Y224745D02*X157893D01*
X157107Y230255D02*X157893D01*
X157107Y245255D02*X157893D01*
X157107Y239745D02*X157893D01*
X174607Y372755D02*X175393D01*
X174607Y367245D02*X175393D01*
X162107Y352245D02*X162893D01*
X162107Y357755D02*X162893D01*
X162107Y359745D02*X162893D01*
X162107Y365255D02*X162893D01*
X162107Y372755D02*X162893D01*
X162107Y367245D02*X162893D01*
X174607Y359745D02*X175393D01*
X174607Y365255D02*X175393D01*
X174607Y342755D02*X175393D01*
X174607Y337245D02*X175393D01*
X174607Y344745D02*X175393D01*
X174607Y350255D02*X175393D01*
X149607Y342755D02*X150393D01*
X149607Y337245D02*X150393D01*
X162107Y342755D02*X162893D01*
X162107Y337245D02*X162893D01*
X149607Y352755D02*X150393D01*
X149607Y347245D02*X150393D01*
X114114Y358307D02*Y329173D01*
Y358307D02*X136752D01*
X114114Y329173D02*X136752D01*
Y338819D02*Y329173D01*
Y358307D02*Y348662D01*
X170000Y300500D02*X173500D01*
X174000Y301000D01*
Y302000D02*Y301000D01*
Y302000D02*X173500Y302500D01*
X170000D02*X173500D01*
X170500Y303700D02*X170000Y304200D01*
Y305700D02*Y304200D01*
Y305700D02*X170500Y306200D01*
X171500D01*
X174000Y303700D02*X171500Y306200D01*
X174000D02*Y303700D01*
X145000Y300500D02*X148500D01*
X149000Y301000D01*
Y302000D02*Y301000D01*
Y302000D02*X148500Y302500D01*
X145000D02*X148500D01*
X145500Y303700D02*X145000Y304200D01*
Y305200D02*Y304200D01*
Y305200D02*X145500Y305700D01*
X149000Y305200D02*X148500Y305700D01*
X149000Y305200D02*Y304200D01*
X148500Y303700D02*X149000Y304200D01*
X146800Y305200D02*Y304200D01*
X145500Y305700D02*X146300D01*
X147300D02*X148500D01*
X147300D02*X146800Y305200D01*
X146300Y305700D02*X146800Y305200D01*
X139050Y330400D02*X140350D01*
X138350Y331100D02*X139050Y330400D01*
X138350Y333700D02*Y331100D01*
Y333700D02*X139050Y334400D01*
X140350D01*
X141550D02*X143550D01*
X141550D02*Y332400D01*
X142050Y332900D01*
X143050D01*
X143550Y332400D01*
Y330900D01*
X143050Y330400D02*X143550Y330900D01*
X142050Y330400D02*X143050D01*
X141550Y330900D02*X142050Y330400D01*
X137850Y342150D02*X139850D01*
X140350Y341650D01*
Y340650D01*
X139850Y340150D02*X140350Y340650D01*
X138350Y340150D02*X139850D01*
X138350Y342150D02*Y338150D01*
X139150Y340150D02*X140350Y338150D01*
X143050Y342150D02*X143550Y341650D01*
X142050Y342150D02*X143050D01*
X141550Y341650D02*X142050Y342150D01*
X141550Y341650D02*Y338650D01*
X142050Y338150D01*
X143050Y340350D02*X143550Y339850D01*
X141550Y340350D02*X143050D01*
X142050Y338150D02*X143050D01*
X143550Y338650D01*
Y339850D02*Y338650D01*
X137850Y326150D02*X139850D01*
X140350Y325650D01*
Y324650D01*
X139850Y324150D02*X140350Y324650D01*
X138350Y324150D02*X139850D01*
X138350Y326150D02*Y322150D01*
X139150Y324150D02*X140350Y322150D01*
X141550Y326150D02*X143550D01*
X141550D02*Y324150D01*
X142050Y324650D01*
X143050D01*
X143550Y324150D01*
Y322650D01*
X143050Y322150D02*X143550Y322650D01*
X142050Y322150D02*X143050D01*
X141550Y322650D02*X142050Y322150D01*
X143350Y358150D02*X145350D01*
X145850Y357650D01*
Y356650D01*
X145350Y356150D02*X145850Y356650D01*
X143850Y356150D02*X145350D01*
X143850Y358150D02*Y354150D01*
X144650Y356150D02*X145850Y354150D01*
X147550D02*X149550Y358150D01*
X147050D02*X149550D01*
X139550Y347650D02*X140850D01*
X138850Y348350D02*X139550Y347650D01*
X138850Y350950D02*Y348350D01*
Y350950D02*X139550Y351650D01*
X140850D01*
X143550D02*X144050Y351150D01*
X142550Y351650D02*X143550D01*
X142050Y351150D02*X142550Y351650D01*
X142050Y351150D02*Y348150D01*
X142550Y347650D01*
X143550Y349850D02*X144050Y349350D01*
X142050Y349850D02*X143550D01*
X142550Y347650D02*X143550D01*
X144050Y348150D01*
Y349350D02*Y348150D01*
X129350Y322150D02*X131350D01*
X131850Y321650D01*
Y320650D01*
X131350Y320150D02*X131850Y320650D01*
X129850Y320150D02*X131350D01*
X129850Y322150D02*Y318150D01*
X130650Y320150D02*X131850Y318150D01*
X133050Y319650D02*X135050Y322150D01*
X133050Y319650D02*X135550D01*
X135050Y322150D02*Y318150D01*
X115700Y324000D02*X116500D01*
Y320500D01*
X116000Y320000D02*X116500Y320500D01*
X115500Y320000D02*X116000D01*
X115000Y320500D02*X115500Y320000D01*
X115000Y321000D02*Y320500D01*
X117700Y323200D02*X118500Y324000D01*
Y320000D01*
X117700D02*X119200D01*
X156389Y343800D02*X157390D01*
X155850Y344339D02*X156389Y343800D01*
X155850Y346341D02*Y344339D01*
Y346341D02*X156389Y346880D01*
X157390D01*
X158314Y346264D02*X158930Y346880D01*
Y343800D01*
X158314D02*X159469D01*
X160778D02*X161933Y345340D01*
Y346495D02*Y345340D01*
X161548Y346880D02*X161933Y346495D01*
X160778Y346880D02*X161548D01*
X160393Y346495D02*X160778Y346880D01*
X160393Y346495D02*Y345725D01*
X160778Y345340D01*
X161933D01*
X115657Y363662D02*Y360162D01*
X116157Y359662D01*
X117157D01*
X117657Y360162D01*
Y363662D02*Y360162D01*
X118857Y362862D02*X119657Y363662D01*
Y359662D01*
X118857D02*X120357D01*
X137050Y249150D02*X138350D01*
X136350Y249850D02*X137050Y249150D01*
X136350Y252450D02*Y249850D01*
Y252450D02*X137050Y253150D01*
X138350D01*
X139550Y252350D02*X140350Y253150D01*
Y249150D01*
X139550D02*X141050D01*
X142250Y253150D02*X144250D01*
X142250D02*Y251150D01*
X142750Y251650D01*
X143750D01*
X144250Y251150D01*
Y249650D01*
X143750Y249150D02*X144250Y249650D01*
X142750Y249150D02*X143750D01*
X142250Y249650D02*X142750Y249150D01*
X131889Y270800D02*X132890D01*
X131350Y271339D02*X131889Y270800D01*
X131350Y273341D02*Y271339D01*
Y273341D02*X131889Y273880D01*
X132890D01*
X133814Y273264D02*X134430Y273880D01*
Y270800D01*
X133814D02*X134969D01*
X135893Y271955D02*X137433Y273880D01*
X135893Y271955D02*X137818D01*
X137433Y273880D02*Y270800D01*
X130850Y268880D02*X132390D01*
X132775Y268495D01*
Y267725D01*
X132390Y267340D02*X132775Y267725D01*
X131235Y267340D02*X132390D01*
X131235Y268880D02*Y265800D01*
X131851Y267340D02*X132775Y265800D01*
X133699Y268264D02*X134315Y268880D01*
Y265800D01*
X133699D02*X134854D01*
X136933Y268880D02*X137318Y268495D01*
X136163Y268880D02*X136933D01*
X135778Y268495D02*X136163Y268880D01*
X135778Y268495D02*Y266185D01*
X136163Y265800D01*
X136933Y267494D02*X137318Y267109D01*
X135778Y267494D02*X136933D01*
X136163Y265800D02*X136933D01*
X137318Y266185D01*
Y267109D02*Y266185D01*
X118850Y275160D02*X120830D01*
X121325Y274665D01*
Y273675D01*
X120830Y273180D02*X121325Y273675D01*
X119345Y273180D02*X120830D01*
X119345Y275160D02*Y271200D01*
X120137Y273180D02*X121325Y271200D01*
X122513Y274368D02*X123305Y275160D01*
Y271200D01*
X122513D02*X123998D01*
X125186Y275160D02*X127166D01*
X125186D02*Y273180D01*
X125681Y273675D01*
X126671D01*
X127166Y273180D01*
Y271695D01*
X126671Y271200D02*X127166Y271695D01*
X125681Y271200D02*X126671D01*
X125186Y271695D02*X125681Y271200D01*
X120550Y278150D02*X121850D01*
X119850Y278850D02*X120550Y278150D01*
X119850Y281450D02*Y278850D01*
Y281450D02*X120550Y282150D01*
X121850D01*
X123550Y278150D02*X125550Y282150D01*
X123050D02*X125550D01*
X115500Y230476D02*Y226976D01*
X116000Y226476D01*
X117000D01*
X117500Y226976D01*
Y230476D02*Y226976D01*
X118700Y227976D02*X120700Y230476D01*
X118700Y227976D02*X121200D01*
X120700Y230476D02*Y226476D01*
X176889Y275300D02*X177890D01*
X176350Y275839D02*X176889Y275300D01*
X176350Y277841D02*Y275839D01*
Y277841D02*X176889Y278380D01*
X177890D01*
X178814Y277764D02*X179430Y278380D01*
Y275300D01*
X178814D02*X179969D01*
X180893Y277995D02*X181278Y278380D01*
X182433D01*
X182818Y277995D01*
Y277225D01*
X180893Y275300D02*X182818Y277225D01*
X180893Y275300D02*X182818D01*
X177550Y269150D02*X178850D01*
X176850Y269850D02*X177550Y269150D01*
X176850Y272450D02*Y269850D01*
Y272450D02*X177550Y273150D01*
X178850D01*
X180050Y272350D02*X180850Y273150D01*
Y269150D01*
X180050D02*X181550D01*
X182750Y272350D02*X183550Y273150D01*
Y269150D01*
X182750D02*X184250D01*
X176350Y267650D02*X178350D01*
X178850Y267150D01*
Y266150D01*
X178350Y265650D02*X178850Y266150D01*
X176850Y265650D02*X178350D01*
X176850Y267650D02*Y263650D01*
X177650Y265650D02*X178850Y263650D01*
X180050Y266850D02*X180850Y267650D01*
Y263650D01*
X180050D02*X181550D01*
X182750Y267150D02*X183250Y267650D01*
X184250D01*
X184750Y267150D01*
X184250Y263650D02*X184750Y264150D01*
X183250Y263650D02*X184250D01*
X182750Y264150D02*X183250Y263650D01*
Y265850D02*X184250D01*
X184750Y267150D02*Y266350D01*
Y265350D02*Y264150D01*
Y265350D02*X184250Y265850D01*
X184750Y266350D02*X184250Y265850D01*
X176350Y285150D02*X178350D01*
X178850Y284650D01*
Y283650D01*
X178350Y283150D02*X178850Y283650D01*
X176850Y283150D02*X178350D01*
X176850Y285150D02*Y281150D01*
X177650Y283150D02*X178850Y281150D01*
X180050Y284350D02*X180850Y285150D01*
Y281150D01*
X180050D02*X181550D01*
X182750Y284650D02*X183250Y285150D01*
X184750D01*
X185250Y284650D01*
Y283650D01*
X182750Y281150D02*X185250Y283650D01*
X182750Y281150D02*X185250D01*
X176350Y251650D02*X178350D01*
X178850Y251150D01*
Y250150D01*
X178350Y249650D02*X178850Y250150D01*
X176850Y249650D02*X178350D01*
X176850Y251650D02*Y247650D01*
X177650Y249650D02*X178850Y247650D01*
X180050Y250850D02*X180850Y251650D01*
Y247650D01*
X180050D02*X181550D01*
X182750Y250850D02*X183550Y251650D01*
Y247650D01*
X182750D02*X184250D01*
X171889Y257800D02*X172890D01*
X171350Y258339D02*X171889Y257800D01*
X171350Y260341D02*Y258339D01*
Y260341D02*X171889Y260880D01*
X172890D01*
X173814Y260264D02*X174430Y260880D01*
Y257800D01*
X173814D02*X174969D01*
X175893Y258185D02*X176278Y257800D01*
X175893Y260495D02*Y258185D01*
Y260495D02*X176278Y260880D01*
X177048D01*
X177433Y260495D01*
Y258185D01*
X177048Y257800D02*X177433Y258185D01*
X176278Y257800D02*X177048D01*
X175893Y258570D02*X177433Y260110D01*
X153850Y285880D02*X155390D01*
X155775Y285495D01*
Y284725D01*
X155390Y284340D02*X155775Y284725D01*
X154235Y284340D02*X155390D01*
X154235Y285880D02*Y282800D01*
X154851Y284340D02*X155775Y282800D01*
X156699Y285264D02*X157315Y285880D01*
Y282800D01*
X156699D02*X157854D01*
X158778Y283955D02*X160318Y285880D01*
X158778Y283955D02*X160703D01*
X160318Y285880D02*Y282800D01*
X147050Y247650D02*X148350D01*
X146350Y248350D02*X147050Y247650D01*
X146350Y250950D02*Y248350D01*
Y250950D02*X147050Y251650D01*
X148350D01*
X149550Y248150D02*X150050Y247650D01*
X149550Y248950D02*Y248150D01*
Y248950D02*X150250Y249650D01*
X150850D01*
X151550Y248950D01*
Y248150D01*
X151050Y247650D02*X151550Y248150D01*
X150050Y247650D02*X151050D01*
X149550Y250350D02*X150250Y249650D01*
X149550Y251150D02*Y250350D01*
Y251150D02*X150050Y251650D01*
X151050D01*
X151550Y251150D01*
Y250350D01*
X150850Y249650D02*X151550Y250350D01*
X164850Y236650D02*X166850D01*
X167350Y236150D01*
Y235150D01*
X166850Y234650D02*X167350Y235150D01*
X165350Y234650D02*X166850D01*
X165350Y236650D02*Y232650D01*
X166150Y234650D02*X167350Y232650D01*
X169050D02*X170550Y234650D01*
Y236150D02*Y234650D01*
X170050Y236650D02*X170550Y236150D01*
X169050Y236650D02*X170050D01*
X168550Y236150D02*X169050Y236650D01*
X168550Y236150D02*Y235150D01*
X169050Y234650D01*
X170550D01*
X166050Y225650D02*X167350D01*
X165350Y226350D02*X166050Y225650D01*
X165350Y228950D02*Y226350D01*
Y228950D02*X166050Y229650D01*
X167350D01*
X168550Y228850D02*X169350Y229650D01*
Y225650D01*
X168550D02*X170050D01*
X171250Y226150D02*X171750Y225650D01*
X171250Y226950D02*Y226150D01*
Y226950D02*X171950Y227650D01*
X172550D01*
X173250Y226950D01*
Y226150D01*
X172750Y225650D02*X173250Y226150D01*
X171750Y225650D02*X172750D01*
X171250Y228350D02*X171950Y227650D01*
X171250Y229150D02*Y228350D01*
Y229150D02*X171750Y229650D01*
X172750D01*
X173250Y229150D01*
Y228350D01*
X172550Y227650D02*X173250Y228350D01*
X164850Y244150D02*X166850D01*
X167350Y243650D01*
Y242650D01*
X166850Y242150D02*X167350Y242650D01*
X165350Y242150D02*X166850D01*
X165350Y244150D02*Y240150D01*
X166150Y242150D02*X167350Y240150D01*
X168550Y243350D02*X169350Y244150D01*
Y240150D01*
X168550D02*X170050D01*
X171250Y240650D02*X171750Y240150D01*
X171250Y243650D02*Y240650D01*
Y243650D02*X171750Y244150D01*
X172750D01*
X173250Y243650D01*
Y240650D01*
X172750Y240150D02*X173250Y240650D01*
X171750Y240150D02*X172750D01*
X171250Y241150D02*X173250Y243150D01*
X164903Y253800D02*X165904D01*
X164364Y254339D02*X164903Y253800D01*
X164364Y256341D02*Y254339D01*
Y256341D02*X164903Y256880D01*
X165904D01*
X166828Y256264D02*X167444Y256880D01*
Y253800D01*
X166828D02*X167983D01*
X168907Y256495D02*X169292Y256880D01*
X170062D01*
X170447Y256495D01*
X170062Y253800D02*X170447Y254185D01*
X169292Y253800D02*X170062D01*
X168907Y254185D02*X169292Y253800D01*
Y255494D02*X170062D01*
X170447Y256495D02*Y255879D01*
Y255109D02*Y254185D01*
Y255109D02*X170062Y255494D01*
X170447Y255879D02*X170062Y255494D01*
X181550Y368150D02*X182850D01*
X180850Y368850D02*X181550Y368150D01*
X180850Y371450D02*Y368850D01*
Y371450D02*X181550Y372150D01*
X182850D01*
X184050Y371350D02*X184850Y372150D01*
Y368150D01*
X184050D02*X185550D01*
X181550Y346150D02*X182850D01*
X180850Y346850D02*X181550Y346150D01*
X180850Y349450D02*Y346850D01*
Y349450D02*X181550Y350150D01*
X182850D01*
X184050Y347650D02*X186050Y350150D01*
X184050Y347650D02*X186550D01*
X186050Y350150D02*Y346150D01*
X180850Y364650D02*X182850D01*
X183350Y364150D01*
Y363150D01*
X182850Y362650D02*X183350Y363150D01*
X181350Y362650D02*X182850D01*
X181350Y364650D02*Y360650D01*
X182150Y362650D02*X183350Y360650D01*
X184550Y363850D02*X185350Y364650D01*
Y360650D01*
X184550D02*X186050D01*
X151050D02*X152350D01*
X150350Y361350D02*X151050Y360650D01*
X150350Y363950D02*Y361350D01*
Y363950D02*X151050Y364650D01*
X152350D01*
X154050Y360650D02*X155550Y362650D01*
Y364150D02*Y362650D01*
X155050Y364650D02*X155550Y364150D01*
X154050Y364650D02*X155050D01*
X153550Y364150D02*X154050Y364650D01*
X153550Y364150D02*Y363150D01*
X154050Y362650D01*
X155550D01*
X149850Y372150D02*X151850D01*
X152350Y371650D01*
Y370650D01*
X151850Y370150D02*X152350Y370650D01*
X150350Y370150D02*X151850D01*
X150350Y372150D02*Y368150D01*
X151150Y370150D02*X152350Y368150D01*
X153550Y368650D02*X154050Y368150D01*
X153550Y369450D02*Y368650D01*
Y369450D02*X154250Y370150D01*
X154850D01*
X155550Y369450D01*
Y368650D01*
X155050Y368150D02*X155550Y368650D01*
X154050Y368150D02*X155050D01*
X153550Y370850D02*X154250Y370150D01*
X153550Y371650D02*Y370850D01*
Y371650D02*X154050Y372150D01*
X155050D01*
X155550Y371650D01*
Y370850D01*
X154850Y370150D02*X155550Y370850D01*
X182050Y319150D02*X183350D01*
X181350Y319850D02*X182050Y319150D01*
X181350Y322450D02*Y319850D01*
Y322450D02*X182050Y323150D01*
X183350D01*
X184550Y322650D02*X185050Y323150D01*
X186050D01*
X186550Y322650D01*
X186050Y319150D02*X186550Y319650D01*
X185050Y319150D02*X186050D01*
X184550Y319650D02*X185050Y319150D01*
Y321350D02*X186050D01*
X186550Y322650D02*Y321850D01*
Y320850D02*Y319650D01*
Y320850D02*X186050Y321350D01*
X186550Y321850D02*X186050Y321350D01*
X181550Y332150D02*X182850D01*
X180850Y332850D02*X181550Y332150D01*
X180850Y335450D02*Y332850D01*
Y335450D02*X181550Y336150D01*
X182850D01*
X184050Y335650D02*X184550Y336150D01*
X186050D01*
X186550Y335650D01*
Y334650D01*
X184050Y332150D02*X186550Y334650D01*
X184050Y332150D02*X186550D01*
X180850Y343650D02*X182850D01*
X183350Y343150D01*
Y342150D01*
X182850Y341650D02*X183350Y342150D01*
X181350Y341650D02*X182850D01*
X181350Y343650D02*Y339650D01*
X182150Y341650D02*X183350Y339650D01*
X184550Y343150D02*X185050Y343650D01*
X186050D01*
X186550Y343150D01*
X186050Y339650D02*X186550Y340150D01*
X185050Y339650D02*X186050D01*
X184550Y340150D02*X185050Y339650D01*
Y341850D02*X186050D01*
X186550Y343150D02*Y342350D01*
Y341350D02*Y340150D01*
Y341350D02*X186050Y341850D01*
X186550Y342350D02*X186050Y341850D01*
X180850Y328650D02*X182850D01*
X183350Y328150D01*
Y327150D01*
X182850Y326650D02*X183350Y327150D01*
X181350Y326650D02*X182850D01*
X181350Y328650D02*Y324650D01*
X182150Y326650D02*X183350Y324650D01*
X184550Y328150D02*X185050Y328650D01*
X186550D01*
X187050Y328150D01*
Y327150D01*
X184550Y324650D02*X187050Y327150D01*
X184550Y324650D02*X187050D01*
M02*
