G04 start of page 2 for group 0 idx 0 *
G04 Title: (unknown), top *
G04 Creator: pcb 4.2.2 *
G04 CreationDate: Sat Aug  8 01:25:40 2020 UTC *
G04 For: harold *
G04 Format: Gerber/RS-274X *
G04 PCB-Dimensions (mil): 6000.00 5000.00 *
G04 PCB-Coordinate-Origin: lower left *
%MOIN*%
%FSLAX25Y25*%
%LNTOP*%
%ADD22C,0.0340*%
%ADD21C,0.0390*%
%ADD20C,0.0240*%
%ADD19C,0.1350*%
%ADD18C,0.0460*%
%ADD17C,0.1600*%
%ADD16C,0.0360*%
%ADD15C,0.0760*%
%ADD14C,0.0600*%
%ADD13C,0.0001*%
%ADD12C,0.0100*%
%ADD11C,0.0200*%
G54D11*X167500Y312750D02*Y302500D01*
X157500Y295500D02*Y300000D01*
G54D12*X159500Y298000D01*
X152500Y316000D02*Y320000D01*
X153743Y321243D01*
X146257Y332250D02*Y325000D01*
X147500Y323757D01*
Y312750D01*
X130000Y312500D02*X137500Y305000D01*
G54D11*Y317500D02*X142250Y312750D01*
X142500D02*Y302500D01*
G54D12*X162500Y325000D02*Y281257D01*
G54D11*X135000Y287500D02*X136243Y286257D01*
G54D12*X146257Y350000D02*Y340000D01*
X137500Y357500D02*Y342500D01*
X132657Y337657D01*
X127500D01*
X178743Y325000D02*Y340000D01*
Y356257D02*Y370000D01*
X182500Y316000D02*Y352500D01*
X178743Y356257D01*
X177500Y316000D02*Y317500D01*
X178743Y318743D01*
Y323743D01*
X167620Y355000D02*X172500D01*
X166243Y362500D02*Y355000D01*
X167620Y362500D02*X171257D01*
Y371377D02*X167634Y375000D01*
X155000D01*
X166243Y363877D02*Y370000D01*
Y363877D02*X167620Y362500D01*
X158757Y371377D02*Y362500D01*
X162500D01*
X155000Y375000D02*X137500Y357500D01*
X150000D02*X155000D01*
X157500Y355000D01*
X158757D01*
X153743Y321243D02*Y340000D01*
X157500Y316000D02*Y320000D01*
X158757Y321257D01*
Y332500D01*
X166243Y325000D02*X162500D01*
X171257Y332500D02*X166243D01*
X172500Y316000D02*Y317500D01*
X171257Y318743D01*
Y333877D02*Y318743D01*
Y340000D02*X175000D01*
X166243Y341377D02*X165000Y342620D01*
Y347500D01*
X175000Y340000D02*Y347500D01*
X178743D01*
X162500D02*Y362500D01*
X171257Y347500D02*X157500D01*
X155000Y350000D01*
X153743D01*
X158757Y341377D02*Y340000D01*
Y341244D01*
X155001Y345000D01*
X150000D01*
Y357500D01*
X161243Y281377D02*X159866Y280000D01*
X157500D01*
X167500Y285000D02*X166257Y283757D01*
X162500Y281257D02*X161243Y280000D01*
X167500Y295500D02*Y285000D01*
G54D11*X182500Y297500D02*Y292250D01*
G54D12*X172500Y295500D02*Y285000D01*
G54D11*X177500Y302500D02*X182500Y297500D01*
X130000Y292500D02*X120000D01*
G54D12*X137500Y305000D02*Y300000D01*
X142500Y295000D01*
G54D11*X130000Y302500D02*X135000Y297500D01*
Y287500D01*
X125000Y292500D02*Y315000D01*
X127500Y317500D01*
G54D12*X120000Y312500D02*Y317500D01*
X127500Y325000D01*
G54D11*Y317500D02*X137500D01*
G54D12*X127500Y325000D02*X146257D01*
X142250Y312750D02*X142500D01*
X130000Y292500D02*X128743Y291243D01*
G54D11*Y280000D01*
X136243Y286257D02*Y280000D01*
G54D12*X147500Y295500D02*Y285000D01*
X142500Y295500D02*Y285000D01*
X152500Y295500D02*Y285000D01*
X153757Y283743D01*
X142500Y295000D02*Y292500D01*
X147500Y285000D02*X148743Y283757D01*
X142500Y285000D02*X141257Y283757D01*
Y272500D01*
X148743Y283757D02*Y265000D01*
X153757Y283743D02*Y272500D01*
X157500Y280000D02*Y265000D01*
X172500Y285000D02*X173743Y283757D01*
Y265000D01*
X166257Y283757D02*Y272500D01*
X177500Y295500D02*Y260000D01*
X182500D02*Y257500D01*
X173743Y248743D01*
X166257Y272500D02*X161243D01*
Y257500D02*X165000D01*
X166257Y258757D01*
Y265000D01*
X177500Y260000D02*X172500Y255000D01*
X170000D01*
X166257Y251257D01*
Y250000D01*
X161243D01*
X141257Y266377D02*Y257500D01*
X130000Y252500D02*X147500D01*
X148743Y253743D01*
Y257500D01*
X157500Y265000D02*X161243D01*
X153757Y266377D02*Y257500D01*
X148743D01*
X153757Y258877D02*Y257500D01*
X157500Y267500D02*Y242500D01*
Y235000D02*X147500D01*
X161243Y242500D02*Y235000D01*
X157500D02*Y227500D01*
X161243D01*
X147500D02*X153757D01*
X157500Y242500D02*X161243D01*
X153757Y243877D02*Y242500D01*
X147500D01*
Y250000D02*X153757D01*
X147500D02*X138976Y241476D01*
X127500D01*
X147500Y242500D02*X142500Y237500D01*
Y232500D01*
X147500Y227500D01*
G54D13*G36*
X123700Y352462D02*Y344862D01*
X131300D01*
Y352462D01*
X123700D01*
G37*
G36*
X117000Y315500D02*Y309500D01*
X123000D01*
Y315500D01*
X117000D01*
G37*
G54D14*X130000Y312500D03*
X120000Y302500D03*
X130000D03*
X120000Y292500D03*
X130000D03*
G54D15*X127500Y338819D03*
G54D13*G36*
X123700Y255119D02*Y247519D01*
X131300D01*
Y255119D01*
X123700D01*
G37*
G54D15*X127500Y241476D03*
G54D13*G36*
X143500Y296500D02*X141500D01*
Y288000D01*
X143500D01*
Y296500D01*
G37*
G36*
X148500D02*X146500D01*
Y288000D01*
X148500D01*
Y296500D01*
G37*
G36*
X153500D02*X151500D01*
Y288000D01*
X153500D01*
Y296500D01*
G37*
G36*
X158500D02*X156500D01*
Y288000D01*
X158500D01*
Y296500D01*
G37*
G36*
X168500D02*X166500D01*
Y288000D01*
X168500D01*
Y296500D01*
G37*
G36*
X173500D02*X171500D01*
Y288000D01*
X173500D01*
Y296500D01*
G37*
G36*
X178500D02*X176500D01*
Y288000D01*
X178500D01*
Y296500D01*
G37*
G36*
X183500D02*X181500D01*
Y288000D01*
X183500D01*
Y296500D01*
G37*
G36*
Y317000D02*X181500D01*
Y308500D01*
X183500D01*
Y317000D01*
G37*
G36*
X178500D02*X176500D01*
Y308500D01*
X178500D01*
Y317000D01*
G37*
G36*
X173500D02*X171500D01*
Y308500D01*
X173500D01*
Y317000D01*
G37*
G36*
X168500D02*X166500D01*
Y308500D01*
X168500D01*
Y317000D01*
G37*
G36*
X158500D02*X156500D01*
Y308500D01*
X158500D01*
Y317000D01*
G37*
G36*
X153500D02*X151500D01*
Y308500D01*
X153500D01*
Y317000D01*
G37*
G36*
X148500D02*X146500D01*
Y308500D01*
X148500D01*
Y317000D01*
G37*
G36*
X143500D02*X141500D01*
Y308500D01*
X143500D01*
Y317000D01*
G37*
G36*
X155123Y335007D02*X152363D01*
Y329493D01*
X155123D01*
Y335007D01*
G37*
G36*
Y342757D02*X152363D01*
Y337243D01*
X155123D01*
Y342757D01*
G37*
G36*
Y327757D02*X152363D01*
Y322243D01*
X155123D01*
Y327757D01*
G37*
G36*
X160137Y335257D02*X157377D01*
Y329743D01*
X160137D01*
Y335257D01*
G37*
G36*
Y342757D02*X157377D01*
Y337243D01*
X160137D01*
Y342757D01*
G37*
G36*
X147637Y335007D02*X144877D01*
Y329493D01*
X147637D01*
Y335007D01*
G37*
G36*
Y327757D02*X144877D01*
Y322243D01*
X147637D01*
Y327757D01*
G37*
G36*
Y342757D02*X144877D01*
Y337243D01*
X147637D01*
Y342757D01*
G37*
G36*
X167623Y335257D02*X164863D01*
Y329743D01*
X167623D01*
Y335257D01*
G37*
G36*
X160137Y327757D02*X157377D01*
Y322243D01*
X160137D01*
Y327757D01*
G37*
G36*
X167623D02*X164863D01*
Y322243D01*
X167623D01*
Y327757D01*
G37*
G36*
Y342757D02*X164863D01*
Y337243D01*
X167623D01*
Y342757D01*
G37*
G36*
X147637Y352757D02*X144877D01*
Y347243D01*
X147637D01*
Y352757D01*
G37*
G36*
X155123D02*X152363D01*
Y347243D01*
X155123D01*
Y352757D01*
G37*
G36*
X142637Y260257D02*X139877D01*
Y254743D01*
X142637D01*
Y260257D01*
G37*
G36*
Y275257D02*X139877D01*
Y269743D01*
X142637D01*
Y275257D01*
G37*
G36*
Y267757D02*X139877D01*
Y262243D01*
X142637D01*
Y267757D01*
G37*
G36*
Y282757D02*X139877D01*
Y277243D01*
X142637D01*
Y282757D01*
G37*
G36*
X130137D02*X127377D01*
Y277243D01*
X130137D01*
Y282757D01*
G37*
G36*
X137623D02*X134863D01*
Y277243D01*
X137623D01*
Y282757D01*
G37*
G36*
X150123Y260257D02*X147363D01*
Y254743D01*
X150123D01*
Y260257D01*
G37*
G36*
Y275257D02*X147363D01*
Y269743D01*
X150123D01*
Y275257D01*
G37*
G36*
Y267757D02*X147363D01*
Y262243D01*
X150123D01*
Y267757D01*
G37*
G36*
Y282757D02*X147363D01*
Y277243D01*
X150123D01*
Y282757D01*
G37*
G36*
X155137Y275257D02*X152377D01*
Y269743D01*
X155137D01*
Y275257D01*
G37*
G36*
Y282757D02*X152377D01*
Y277243D01*
X155137D01*
Y282757D01*
G37*
G36*
Y267757D02*X152377D01*
Y262243D01*
X155137D01*
Y267757D01*
G37*
G36*
Y260257D02*X152377D01*
Y254743D01*
X155137D01*
Y260257D01*
G37*
G36*
X172637Y372757D02*X169877D01*
Y367243D01*
X172637D01*
Y372757D01*
G37*
G36*
X180123D02*X177363D01*
Y367243D01*
X180123D01*
Y372757D01*
G37*
G36*
X167623Y357757D02*X164863D01*
Y352243D01*
X167623D01*
Y357757D01*
G37*
G36*
X160137D02*X157377D01*
Y352243D01*
X160137D01*
Y357757D01*
G37*
G36*
X167623Y365257D02*X164863D01*
Y359743D01*
X167623D01*
Y365257D01*
G37*
G36*
X160137D02*X157377D01*
Y359743D01*
X160137D01*
Y365257D01*
G37*
G36*
Y372757D02*X157377D01*
Y367243D01*
X160137D01*
Y372757D01*
G37*
G36*
X167623D02*X164863D01*
Y367243D01*
X167623D01*
Y372757D01*
G37*
G36*
X180123Y335257D02*X177363D01*
Y329743D01*
X180123D01*
Y335257D01*
G37*
G36*
X172637D02*X169877D01*
Y329743D01*
X172637D01*
Y335257D01*
G37*
G36*
Y342757D02*X169877D01*
Y337243D01*
X172637D01*
Y342757D01*
G37*
G36*
X180123D02*X177363D01*
Y337243D01*
X180123D01*
Y342757D01*
G37*
G36*
Y350257D02*X177363D01*
Y344743D01*
X180123D01*
Y350257D01*
G37*
G36*
Y365257D02*X177363D01*
Y359743D01*
X180123D01*
Y365257D01*
G37*
G36*
X172637Y350257D02*X169877D01*
Y344743D01*
X172637D01*
Y350257D01*
G37*
G36*
Y365257D02*X169877D01*
Y359743D01*
X172637D01*
Y365257D01*
G37*
G36*
X180123Y327757D02*X177363D01*
Y322243D01*
X180123D01*
Y327757D01*
G37*
G36*
X172637D02*X169877D01*
Y322243D01*
X172637D01*
Y327757D01*
G37*
G36*
X162623Y275257D02*X159863D01*
Y269743D01*
X162623D01*
Y275257D01*
G37*
G36*
Y282757D02*X159863D01*
Y277243D01*
X162623D01*
Y282757D01*
G37*
G36*
X167637Y275257D02*X164877D01*
Y269743D01*
X167637D01*
Y275257D01*
G37*
G36*
Y267757D02*X164877D01*
Y262243D01*
X167637D01*
Y267757D01*
G37*
G36*
Y282757D02*X164877D01*
Y277243D01*
X167637D01*
Y282757D01*
G37*
G36*
X162623Y267757D02*X159863D01*
Y262243D01*
X162623D01*
Y267757D01*
G37*
G36*
X175123Y275257D02*X172363D01*
Y269743D01*
X175123D01*
Y275257D01*
G37*
G36*
Y267757D02*X172363D01*
Y262243D01*
X175123D01*
Y267757D01*
G37*
G36*
Y282757D02*X172363D01*
Y277243D01*
X175123D01*
Y282757D01*
G37*
G36*
Y252757D02*X172363D01*
Y247243D01*
X175123D01*
Y252757D01*
G37*
G36*
X155137D02*X152377D01*
Y247243D01*
X155137D01*
Y252757D01*
G37*
G36*
X162623D02*X159863D01*
Y247243D01*
X162623D01*
Y252757D01*
G37*
G36*
X167637D02*X164877D01*
Y247243D01*
X167637D01*
Y252757D01*
G37*
G36*
X162623Y237757D02*X159863D01*
Y232243D01*
X162623D01*
Y237757D01*
G37*
G36*
X155137D02*X152377D01*
Y232243D01*
X155137D01*
Y237757D01*
G37*
G36*
X162623Y230257D02*X159863D01*
Y224743D01*
X162623D01*
Y230257D01*
G37*
G36*
X155137D02*X152377D01*
Y224743D01*
X155137D01*
Y230257D01*
G37*
G36*
Y245257D02*X152377D01*
Y239743D01*
X155137D01*
Y245257D01*
G37*
G36*
X162623D02*X159863D01*
Y239743D01*
X162623D01*
Y245257D01*
G37*
G36*
Y260257D02*X159863D01*
Y254743D01*
X162623D01*
Y260257D01*
G37*
G54D16*X172500Y355000D03*
X165000Y347500D03*
G54D17*X122500Y375000D03*
G54D16*X152500Y357500D03*
G54D18*X157500Y300000D03*
G54D16*X182500Y260000D03*
G54D18*X142500Y302500D03*
X167500D03*
X177500D03*
G54D17*X122500Y217520D03*
G54D16*X147500Y235000D03*
Y242319D03*
G54D11*G54D19*G54D11*G54D20*G54D11*G54D20*G54D19*G54D11*G54D21*G54D22*G54D21*M02*
