G04 start of page 12 for group -3984 idx -3984 *
G04 Title: (unknown), fab *
G04 Creator: pcb 4.2.2 *
G04 CreationDate: Sat Aug  8 01:25:40 2020 UTC *
G04 For: harold *
G04 Format: Gerber/RS-274X *
G04 PCB-Dimensions (mil): 6000.00 5000.00 *
G04 PCB-Coordinate-Origin: lower left *
%MOIN*%
%FSLAX25Y25*%
%LNFAB*%
%ADD56C,0.0100*%
%ADD55C,0.0075*%
%ADD54C,0.0060*%
%ADD53R,0.0080X0.0080*%
G54D53*X120900Y376600D02*X124100D01*
X120900D02*Y373400D01*
X124100D01*
Y376600D02*Y373400D01*
X120900Y219120D02*X124100D01*
X120900D02*Y215920D01*
X124100D01*
Y219120D02*Y215920D01*
X13400Y512850D02*X16600D01*
X13400D02*Y509650D01*
X16600D01*
Y512850D02*Y509650D01*
G54D54*X135000Y513500D02*X136500Y510500D01*
X138000Y513500D01*
X136500Y510500D02*Y507500D01*
X139800Y510800D02*X142050D01*
X139800Y507500D02*X142800D01*
X139800Y513500D02*Y507500D01*
Y513500D02*X142800D01*
X147600D02*X148350Y512750D01*
X145350Y513500D02*X147600D01*
X144600Y512750D02*X145350Y513500D01*
X144600Y512750D02*Y511250D01*
X145350Y510500D01*
X147600D01*
X148350Y509750D01*
Y508250D01*
X147600Y507500D02*X148350Y508250D01*
X145350Y507500D02*X147600D01*
X144600Y508250D02*X145350Y507500D01*
X98000Y512750D02*X98750Y513500D01*
X101000D01*
X101750Y512750D01*
Y511250D01*
X98000Y507500D02*X101750Y511250D01*
X98000Y507500D02*X101750D01*
X45000Y508250D02*X45750Y507500D01*
X45000Y512750D02*Y508250D01*
Y512750D02*X45750Y513500D01*
X47250D01*
X48000Y512750D01*
Y508250D01*
X47250Y507500D02*X48000Y508250D01*
X45750Y507500D02*X47250D01*
X45000Y509000D02*X48000Y512000D01*
X49800Y507500D02*X50550D01*
X52350Y512300D02*X53550Y513500D01*
Y507500D01*
X52350D02*X54600D01*
X56400Y512750D02*X57150Y513500D01*
X58650D01*
X59400Y512750D01*
X58650Y507500D02*X59400Y508250D01*
X57150Y507500D02*X58650D01*
X56400Y508250D02*X57150Y507500D01*
Y510800D02*X58650D01*
X59400Y512750D02*Y511550D01*
Y510050D02*Y508250D01*
Y510050D02*X58650Y510800D01*
X59400Y511550D02*X58650Y510800D01*
X61200Y513500D02*X64200D01*
X61200D02*Y510500D01*
X61950Y511250D01*
X63450D01*
X64200Y510500D01*
Y508250D01*
X63450Y507500D02*X64200Y508250D01*
X61950Y507500D02*X63450D01*
X61200Y508250D02*X61950Y507500D01*
X126700Y348662D02*G75*G03X128300Y348662I800J0D01*G01*
G75*G03X126700Y348662I-800J0D01*G01*
Y338819D02*G75*G03X128300Y338819I800J0D01*G01*
G75*G03X126700Y338819I-800J0D01*G01*
Y251319D02*G75*G03X128300Y251319I800J0D01*G01*
G75*G03X126700Y251319I-800J0D01*G01*
Y241476D02*G75*G03X128300Y241476I800J0D01*G01*
G75*G03X126700Y241476I-800J0D01*G01*
X14200Y526250D02*G75*G03X15800Y526250I800J0D01*G01*
G75*G03X14200Y526250I-800J0D01*G01*
X135000Y528500D02*X136500Y525500D01*
X138000Y528500D01*
X136500Y525500D02*Y522500D01*
X139800Y525800D02*X142050D01*
X139800Y522500D02*X142800D01*
X139800Y528500D02*Y522500D01*
Y528500D02*X142800D01*
X147600D02*X148350Y527750D01*
X145350Y528500D02*X147600D01*
X144600Y527750D02*X145350Y528500D01*
X144600Y527750D02*Y526250D01*
X145350Y525500D01*
X147600D01*
X148350Y524750D01*
Y523250D01*
X147600Y522500D02*X148350Y523250D01*
X145350Y522500D02*X147600D01*
X144600Y523250D02*X145350Y522500D01*
X98000Y524750D02*X101000Y528500D01*
X98000Y524750D02*X101750D01*
X101000Y528500D02*Y522500D01*
X45000Y523250D02*X45750Y522500D01*
X45000Y527750D02*Y523250D01*
Y527750D02*X45750Y528500D01*
X47250D01*
X48000Y527750D01*
Y523250D01*
X47250Y522500D02*X48000Y523250D01*
X45750Y522500D02*X47250D01*
X45000Y524000D02*X48000Y527000D01*
X49800Y522500D02*X50550D01*
X52350Y523250D02*X53100Y522500D01*
X52350Y527750D02*Y523250D01*
Y527750D02*X53100Y528500D01*
X54600D01*
X55350Y527750D01*
Y523250D01*
X54600Y522500D02*X55350Y523250D01*
X53100Y522500D02*X54600D01*
X52350Y524000D02*X55350Y527000D01*
X57150Y527750D02*X57900Y528500D01*
X59400D01*
X60150Y527750D01*
X59400Y522500D02*X60150Y523250D01*
X57900Y522500D02*X59400D01*
X57150Y523250D02*X57900Y522500D01*
Y525800D02*X59400D01*
X60150Y527750D02*Y526550D01*
Y525050D02*Y523250D01*
Y525050D02*X59400Y525800D01*
X60150Y526550D02*X59400Y525800D01*
X62700Y522500D02*X64950Y525500D01*
Y527750D02*Y525500D01*
X64200Y528500D02*X64950Y527750D01*
X62700Y528500D02*X64200D01*
X61950Y527750D02*X62700Y528500D01*
X61950Y527750D02*Y526250D01*
X62700Y525500D01*
X64950D01*
X118800Y313700D02*X121200Y311300D01*
X118800D02*X121200Y313700D01*
X128800D02*X131200Y311300D01*
X128800D02*X131200Y313700D01*
X118800Y303700D02*X121200Y301300D01*
X118800D02*X121200Y303700D01*
X128800D02*X131200Y301300D01*
X128800D02*X131200Y303700D01*
X118800Y293700D02*X121200Y291300D01*
X118800D02*X121200Y293700D01*
X128800D02*X131200Y291300D01*
X128800D02*X131200Y293700D01*
X13800Y542450D02*X16200Y540050D01*
X13800D02*X16200Y542450D01*
X135000Y543500D02*X136500Y540500D01*
X138000Y543500D01*
X136500Y540500D02*Y537500D01*
X139800Y540800D02*X142050D01*
X139800Y537500D02*X142800D01*
X139800Y543500D02*Y537500D01*
Y543500D02*X142800D01*
X147600D02*X148350Y542750D01*
X145350Y543500D02*X147600D01*
X144600Y542750D02*X145350Y543500D01*
X144600Y542750D02*Y541250D01*
X145350Y540500D01*
X147600D01*
X148350Y539750D01*
Y538250D01*
X147600Y537500D02*X148350Y538250D01*
X145350Y537500D02*X147600D01*
X144600Y538250D02*X145350Y537500D01*
X100250Y543500D02*X101000Y542750D01*
X98750Y543500D02*X100250D01*
X98000Y542750D02*X98750Y543500D01*
X98000Y542750D02*Y538250D01*
X98750Y537500D01*
X100250Y540800D02*X101000Y540050D01*
X98000Y540800D02*X100250D01*
X98750Y537500D02*X100250D01*
X101000Y538250D01*
Y540050D02*Y538250D01*
X45000D02*X45750Y537500D01*
X45000Y542750D02*Y538250D01*
Y542750D02*X45750Y543500D01*
X47250D01*
X48000Y542750D01*
Y538250D01*
X47250Y537500D02*X48000Y538250D01*
X45750Y537500D02*X47250D01*
X45000Y539000D02*X48000Y542000D01*
X49800Y537500D02*X50550D01*
X52350Y538250D02*X53100Y537500D01*
X52350Y542750D02*Y538250D01*
Y542750D02*X53100Y543500D01*
X54600D01*
X55350Y542750D01*
Y538250D01*
X54600Y537500D02*X55350Y538250D01*
X53100Y537500D02*X54600D01*
X52350Y539000D02*X55350Y542000D01*
X57150Y542750D02*X57900Y543500D01*
X59400D01*
X60150Y542750D01*
X59400Y537500D02*X60150Y538250D01*
X57900Y537500D02*X59400D01*
X57150Y538250D02*X57900Y537500D01*
Y540800D02*X59400D01*
X60150Y542750D02*Y541550D01*
Y540050D02*Y538250D01*
Y540050D02*X59400Y540800D01*
X60150Y541550D02*X59400Y540800D01*
X61950Y539750D02*X64950Y543500D01*
X61950Y539750D02*X65700D01*
X64950Y543500D02*Y537500D01*
X157500Y301600D02*Y298400D01*
X155900Y300000D02*X159100D01*
X142500Y304100D02*Y300900D01*
X140900Y302500D02*X144100D01*
X167500Y304100D02*Y300900D01*
X165900Y302500D02*X169100D01*
X177500Y304100D02*Y300900D01*
X175900Y302500D02*X179100D01*
X15000Y557850D02*Y554650D01*
X13400Y556250D02*X16600D01*
X135000Y558500D02*X136500Y555500D01*
X138000Y558500D01*
X136500Y555500D02*Y552500D01*
X139800Y555800D02*X142050D01*
X139800Y552500D02*X142800D01*
X139800Y558500D02*Y552500D01*
Y558500D02*X142800D01*
X147600D02*X148350Y557750D01*
X145350Y558500D02*X147600D01*
X144600Y557750D02*X145350Y558500D01*
X144600Y557750D02*Y556250D01*
X145350Y555500D01*
X147600D01*
X148350Y554750D01*
Y553250D01*
X147600Y552500D02*X148350Y553250D01*
X145350Y552500D02*X147600D01*
X144600Y553250D02*X145350Y552500D01*
X98000Y554750D02*X101000Y558500D01*
X98000Y554750D02*X101750D01*
X101000Y558500D02*Y552500D01*
X45000Y553250D02*X45750Y552500D01*
X45000Y557750D02*Y553250D01*
Y557750D02*X45750Y558500D01*
X47250D01*
X48000Y557750D01*
Y553250D01*
X47250Y552500D02*X48000Y553250D01*
X45750Y552500D02*X47250D01*
X45000Y554000D02*X48000Y557000D01*
X49800Y552500D02*X50550D01*
X52350Y553250D02*X53100Y552500D01*
X52350Y557750D02*Y553250D01*
Y557750D02*X53100Y558500D01*
X54600D01*
X55350Y557750D01*
Y553250D01*
X54600Y552500D02*X55350Y553250D01*
X53100Y552500D02*X54600D01*
X52350Y554000D02*X55350Y557000D01*
X57150Y557750D02*X57900Y558500D01*
X60150D01*
X60900Y557750D01*
Y556250D01*
X57150Y552500D02*X60900Y556250D01*
X57150Y552500D02*X60900D01*
X62700Y554750D02*X65700Y558500D01*
X62700Y554750D02*X66450D01*
X65700Y558500D02*Y552500D01*
X172500Y355000D02*Y353400D01*
Y355000D02*X173887Y355800D01*
X172500Y355000D02*X171113Y355800D01*
X182500Y260000D02*Y258400D01*
Y260000D02*X183887Y260800D01*
X182500Y260000D02*X181113Y260800D01*
X165000Y347500D02*Y345900D01*
Y347500D02*X166387Y348300D01*
X165000Y347500D02*X163613Y348300D01*
X147500Y235000D02*Y233400D01*
Y235000D02*X148887Y235800D01*
X147500Y235000D02*X146113Y235800D01*
X152500Y357500D02*Y355900D01*
Y357500D02*X153887Y358300D01*
X152500Y357500D02*X151113Y358300D01*
X147500Y242319D02*Y240719D01*
Y242319D02*X148887Y243119D01*
X147500Y242319D02*X146113Y243119D01*
X15000Y571250D02*Y569650D01*
Y571250D02*X16387Y572050D01*
X15000Y571250D02*X13613Y572050D01*
X135000Y573500D02*X136500Y570500D01*
X138000Y573500D01*
X136500Y570500D02*Y567500D01*
X139800Y570800D02*X142050D01*
X139800Y567500D02*X142800D01*
X139800Y573500D02*Y567500D01*
Y573500D02*X142800D01*
X147600D02*X148350Y572750D01*
X145350Y573500D02*X147600D01*
X144600Y572750D02*X145350Y573500D01*
X144600Y572750D02*Y571250D01*
X145350Y570500D01*
X147600D01*
X148350Y569750D01*
Y568250D01*
X147600Y567500D02*X148350Y568250D01*
X145350Y567500D02*X147600D01*
X144600Y568250D02*X145350Y567500D01*
X100250Y573500D02*X101000Y572750D01*
X98750Y573500D02*X100250D01*
X98000Y572750D02*X98750Y573500D01*
X98000Y572750D02*Y568250D01*
X98750Y567500D01*
X100250Y570800D02*X101000Y570050D01*
X98000Y570800D02*X100250D01*
X98750Y567500D02*X100250D01*
X101000Y568250D01*
Y570050D02*Y568250D01*
X45000D02*X45750Y567500D01*
X45000Y572750D02*Y568250D01*
Y572750D02*X45750Y573500D01*
X47250D01*
X48000Y572750D01*
Y568250D01*
X47250Y567500D02*X48000Y568250D01*
X45750Y567500D02*X47250D01*
X45000Y569000D02*X48000Y572000D01*
X49800Y567500D02*X50550D01*
X52350Y568250D02*X53100Y567500D01*
X52350Y572750D02*Y568250D01*
Y572750D02*X53100Y573500D01*
X54600D01*
X55350Y572750D01*
Y568250D01*
X54600Y567500D02*X55350Y568250D01*
X53100Y567500D02*X54600D01*
X52350Y569000D02*X55350Y572000D01*
X57150Y572750D02*X57900Y573500D01*
X60150D01*
X60900Y572750D01*
Y571250D01*
X57150Y567500D02*X60900Y571250D01*
X57150Y567500D02*X60900D01*
X62700Y568250D02*X63450Y567500D01*
X62700Y572750D02*Y568250D01*
Y572750D02*X63450Y573500D01*
X64950D01*
X65700Y572750D01*
Y568250D01*
X64950Y567500D02*X65700Y568250D01*
X63450Y567500D02*X64950D01*
X62700Y569000D02*X65700Y572000D01*
X3000Y588500D02*X3750Y587750D01*
X750Y588500D02*X3000D01*
X0Y587750D02*X750Y588500D01*
X0Y587750D02*Y586250D01*
X750Y585500D01*
X3000D01*
X3750Y584750D01*
Y583250D01*
X3000Y582500D02*X3750Y583250D01*
X750Y582500D02*X3000D01*
X0Y583250D02*X750Y582500D01*
X5550Y585500D02*Y583250D01*
X6300Y582500D01*
X8550Y585500D02*Y581000D01*
X7800Y580250D02*X8550Y581000D01*
X6300Y580250D02*X7800D01*
X5550Y581000D02*X6300Y580250D01*
Y582500D02*X7800D01*
X8550Y583250D01*
X11100Y584750D02*Y582500D01*
Y584750D02*X11850Y585500D01*
X12600D01*
X13350Y584750D01*
Y582500D01*
Y584750D02*X14100Y585500D01*
X14850D01*
X15600Y584750D01*
Y582500D01*
X10350Y585500D02*X11100Y584750D01*
X17400Y588500D02*Y582500D01*
Y583250D02*X18150Y582500D01*
X19650D01*
X20400Y583250D01*
Y584750D02*Y583250D01*
X19650Y585500D02*X20400Y584750D01*
X18150Y585500D02*X19650D01*
X17400Y584750D02*X18150Y585500D01*
X22200Y584750D02*Y583250D01*
Y584750D02*X22950Y585500D01*
X24450D01*
X25200Y584750D01*
Y583250D01*
X24450Y582500D02*X25200Y583250D01*
X22950Y582500D02*X24450D01*
X22200Y583250D02*X22950Y582500D01*
X27000Y588500D02*Y583250D01*
X27750Y582500D01*
X0Y579250D02*X29250D01*
X41750Y588500D02*Y582500D01*
X43700Y588500D02*X44750Y587450D01*
Y583550D01*
X43700Y582500D02*X44750Y583550D01*
X41000Y582500D02*X43700D01*
X41000Y588500D02*X43700D01*
G54D55*X46550Y587000D02*Y586850D01*
G54D54*Y584750D02*Y582500D01*
X50300Y585500D02*X51050Y584750D01*
X48800Y585500D02*X50300D01*
X48050Y584750D02*X48800Y585500D01*
X48050Y584750D02*Y583250D01*
X48800Y582500D01*
X51050Y585500D02*Y583250D01*
X51800Y582500D01*
X48800D02*X50300D01*
X51050Y583250D01*
X54350Y584750D02*Y582500D01*
Y584750D02*X55100Y585500D01*
X55850D01*
X56600Y584750D01*
Y582500D01*
Y584750D02*X57350Y585500D01*
X58100D01*
X58850Y584750D01*
Y582500D01*
X53600Y585500D02*X54350Y584750D01*
X60650Y582500D02*X61400D01*
X65900Y583250D02*X66650Y582500D01*
X65900Y587750D02*X66650Y588500D01*
X65900Y587750D02*Y583250D01*
X68450Y588500D02*X69950D01*
X69200D02*Y582500D01*
X68450D02*X69950D01*
X72500Y584750D02*Y582500D01*
Y584750D02*X73250Y585500D01*
X74000D01*
X74750Y584750D01*
Y582500D01*
X71750Y585500D02*X72500Y584750D01*
X77300Y585500D02*X79550D01*
X76550Y584750D02*X77300Y585500D01*
X76550Y584750D02*Y583250D01*
X77300Y582500D01*
X79550D01*
X81350Y588500D02*Y582500D01*
Y584750D02*X82100Y585500D01*
X83600D01*
X84350Y584750D01*
Y582500D01*
X86150Y588500D02*X86900Y587750D01*
Y583250D01*
X86150Y582500D02*X86900Y583250D01*
X41000Y579250D02*X88700D01*
X96050Y582500D02*X98000D01*
X95000Y583550D02*X96050Y582500D01*
X95000Y587450D02*Y583550D01*
Y587450D02*X96050Y588500D01*
X98000D01*
X99800Y584750D02*Y583250D01*
Y584750D02*X100550Y585500D01*
X102050D01*
X102800Y584750D01*
Y583250D01*
X102050Y582500D02*X102800Y583250D01*
X100550Y582500D02*X102050D01*
X99800Y583250D02*X100550Y582500D01*
X104600Y585500D02*Y583250D01*
X105350Y582500D01*
X106850D01*
X107600Y583250D01*
Y585500D02*Y583250D01*
X110150Y584750D02*Y582500D01*
Y584750D02*X110900Y585500D01*
X111650D01*
X112400Y584750D01*
Y582500D01*
X109400Y585500D02*X110150Y584750D01*
X114950Y588500D02*Y583250D01*
X115700Y582500D01*
X114200Y586250D02*X115700D01*
X95000Y579250D02*X117200D01*
X130750Y588500D02*Y582500D01*
X130000Y588500D02*X133000D01*
X133750Y587750D01*
Y586250D01*
X133000Y585500D02*X133750Y586250D01*
X130750Y585500D02*X133000D01*
X135550Y588500D02*Y583250D01*
X136300Y582500D01*
X140050Y585500D02*X140800Y584750D01*
X138550Y585500D02*X140050D01*
X137800Y584750D02*X138550Y585500D01*
X137800Y584750D02*Y583250D01*
X138550Y582500D01*
X140800Y585500D02*Y583250D01*
X141550Y582500D01*
X138550D02*X140050D01*
X140800Y583250D01*
X144100Y588500D02*Y583250D01*
X144850Y582500D01*
X143350Y586250D02*X144850D01*
X147100Y582500D02*X149350D01*
X146350Y583250D02*X147100Y582500D01*
X146350Y584750D02*Y583250D01*
Y584750D02*X147100Y585500D01*
X148600D01*
X149350Y584750D01*
X146350Y584000D02*X149350D01*
Y584750D02*Y584000D01*
X154150Y588500D02*Y582500D01*
X153400D02*X154150Y583250D01*
X151900Y582500D02*X153400D01*
X151150Y583250D02*X151900Y582500D01*
X151150Y584750D02*Y583250D01*
Y584750D02*X151900Y585500D01*
X153400D01*
X154150Y584750D01*
X157450Y585500D02*Y584750D01*
Y583250D02*Y582500D01*
X155950Y587750D02*Y587000D01*
Y587750D02*X156700Y588500D01*
X158200D01*
X158950Y587750D01*
Y587000D01*
X157450Y585500D02*X158950Y587000D01*
X130000Y579250D02*X160750D01*
X0Y603500D02*X3000D01*
X1500D02*Y597500D01*
X4800Y603500D02*Y597500D01*
Y599750D02*X5550Y600500D01*
X7050D01*
X7800Y599750D01*
Y597500D01*
X10350D02*X12600D01*
X9600Y598250D02*X10350Y597500D01*
X9600Y599750D02*Y598250D01*
Y599750D02*X10350Y600500D01*
X11850D01*
X12600Y599750D01*
X9600Y599000D02*X12600D01*
Y599750D02*Y599000D01*
X15150Y599750D02*Y597500D01*
Y599750D02*X15900Y600500D01*
X17400D01*
X14400D02*X15150Y599750D01*
X19950Y597500D02*X22200D01*
X19200Y598250D02*X19950Y597500D01*
X19200Y599750D02*Y598250D01*
Y599750D02*X19950Y600500D01*
X21450D01*
X22200Y599750D01*
X19200Y599000D02*X22200D01*
Y599750D02*Y599000D01*
X28950Y600500D02*X29700Y599750D01*
X27450Y600500D02*X28950D01*
X26700Y599750D02*X27450Y600500D01*
X26700Y599750D02*Y598250D01*
X27450Y597500D01*
X29700Y600500D02*Y598250D01*
X30450Y597500D01*
X27450D02*X28950D01*
X29700Y598250D01*
X33000Y599750D02*Y597500D01*
Y599750D02*X33750Y600500D01*
X35250D01*
X32250D02*X33000Y599750D01*
X37800Y597500D02*X40050D01*
X37050Y598250D02*X37800Y597500D01*
X37050Y599750D02*Y598250D01*
Y599750D02*X37800Y600500D01*
X39300D01*
X40050Y599750D01*
X37050Y599000D02*X40050D01*
Y599750D02*Y599000D01*
X44550Y603500D02*X47550D01*
X44550D02*Y600500D01*
X45300Y601250D01*
X46800D01*
X47550Y600500D01*
Y598250D01*
X46800Y597500D02*X47550Y598250D01*
X45300Y597500D02*X46800D01*
X44550Y598250D02*X45300Y597500D01*
X55050Y603500D02*Y597500D01*
X54300D02*X55050Y598250D01*
X52800Y597500D02*X54300D01*
X52050Y598250D02*X52800Y597500D01*
X52050Y599750D02*Y598250D01*
Y599750D02*X52800Y600500D01*
X54300D01*
X55050Y599750D01*
G54D55*X56850Y602000D02*Y601850D01*
G54D54*Y599750D02*Y597500D01*
X59100Y602750D02*Y597500D01*
Y602750D02*X59850Y603500D01*
X60600D01*
X58350Y600500D02*X59850D01*
X62850Y602750D02*Y597500D01*
Y602750D02*X63600Y603500D01*
X64350D01*
X62100Y600500D02*X63600D01*
X66600Y597500D02*X68850D01*
X65850Y598250D02*X66600Y597500D01*
X65850Y599750D02*Y598250D01*
Y599750D02*X66600Y600500D01*
X68100D01*
X68850Y599750D01*
X65850Y599000D02*X68850D01*
Y599750D02*Y599000D01*
X71400Y599750D02*Y597500D01*
Y599750D02*X72150Y600500D01*
X73650D01*
X70650D02*X71400Y599750D01*
X76200Y597500D02*X78450D01*
X75450Y598250D02*X76200Y597500D01*
X75450Y599750D02*Y598250D01*
Y599750D02*X76200Y600500D01*
X77700D01*
X78450Y599750D01*
X75450Y599000D02*X78450D01*
Y599750D02*Y599000D01*
X81000Y599750D02*Y597500D01*
Y599750D02*X81750Y600500D01*
X82500D01*
X83250Y599750D01*
Y597500D01*
X80250Y600500D02*X81000Y599750D01*
X85800Y603500D02*Y598250D01*
X86550Y597500D01*
X85050Y601250D02*X86550D01*
X93750Y603500D02*Y597500D01*
X93000D02*X93750Y598250D01*
X91500Y597500D02*X93000D01*
X90750Y598250D02*X91500Y597500D01*
X90750Y599750D02*Y598250D01*
Y599750D02*X91500Y600500D01*
X93000D01*
X93750Y599750D01*
X96300D02*Y597500D01*
Y599750D02*X97050Y600500D01*
X98550D01*
X95550D02*X96300Y599750D01*
G54D55*X100350Y602000D02*Y601850D01*
G54D54*Y599750D02*Y597500D01*
X101850Y603500D02*Y598250D01*
X102600Y597500D01*
X104100Y603500D02*Y598250D01*
X104850Y597500D01*
X109800D02*X112050D01*
X112800Y598250D01*
X112050Y599000D02*X112800Y598250D01*
X109800Y599000D02*X112050D01*
X109050Y599750D02*X109800Y599000D01*
X109050Y599750D02*X109800Y600500D01*
X112050D01*
X112800Y599750D01*
X109050Y598250D02*X109800Y597500D01*
G54D55*X114600Y602000D02*Y601850D01*
G54D54*Y599750D02*Y597500D01*
X116100Y600500D02*X119100D01*
X116100Y597500D02*X119100Y600500D01*
X116100Y597500D02*X119100D01*
X121650D02*X123900D01*
X120900Y598250D02*X121650Y597500D01*
X120900Y599750D02*Y598250D01*
Y599750D02*X121650Y600500D01*
X123150D01*
X123900Y599750D01*
X120900Y599000D02*X123900D01*
Y599750D02*Y599000D01*
X126450Y597500D02*X128700D01*
X129450Y598250D01*
X128700Y599000D02*X129450Y598250D01*
X126450Y599000D02*X128700D01*
X125700Y599750D02*X126450Y599000D01*
X125700Y599750D02*X126450Y600500D01*
X128700D01*
X129450Y599750D01*
X125700Y598250D02*X126450Y597500D01*
X133950Y600500D02*Y598250D01*
X134700Y597500D01*
X136200D01*
X136950Y598250D01*
Y600500D02*Y598250D01*
X139500Y597500D02*X141750D01*
X142500Y598250D01*
X141750Y599000D02*X142500Y598250D01*
X139500Y599000D02*X141750D01*
X138750Y599750D02*X139500Y599000D01*
X138750Y599750D02*X139500Y600500D01*
X141750D01*
X142500Y599750D01*
X138750Y598250D02*X139500Y597500D01*
X145050D02*X147300D01*
X144300Y598250D02*X145050Y597500D01*
X144300Y599750D02*Y598250D01*
Y599750D02*X145050Y600500D01*
X146550D01*
X147300Y599750D01*
X144300Y599000D02*X147300D01*
Y599750D02*Y599000D01*
X152100Y603500D02*Y597500D01*
X151350D02*X152100Y598250D01*
X149850Y597500D02*X151350D01*
X149100Y598250D02*X149850Y597500D01*
X149100Y599750D02*Y598250D01*
Y599750D02*X149850Y600500D01*
X151350D01*
X152100Y599750D01*
G54D55*X156600Y602000D02*Y601850D01*
G54D54*Y599750D02*Y597500D01*
X158850Y599750D02*Y597500D01*
Y599750D02*X159600Y600500D01*
X160350D01*
X161100Y599750D01*
Y597500D01*
X158100Y600500D02*X158850Y599750D01*
X166350Y603500D02*Y598250D01*
X167100Y597500D01*
X165600Y601250D02*X167100D01*
X168600Y603500D02*Y597500D01*
Y599750D02*X169350Y600500D01*
X170850D01*
X171600Y599750D01*
Y597500D01*
G54D55*X173400Y602000D02*Y601850D01*
G54D54*Y599750D02*Y597500D01*
X175650D02*X177900D01*
X178650Y598250D01*
X177900Y599000D02*X178650Y598250D01*
X175650Y599000D02*X177900D01*
X174900Y599750D02*X175650Y599000D01*
X174900Y599750D02*X175650Y600500D01*
X177900D01*
X178650Y599750D01*
X174900Y598250D02*X175650Y597500D01*
X183150Y603500D02*Y598250D01*
X183900Y597500D01*
X187650Y600500D02*X188400Y599750D01*
X186150Y600500D02*X187650D01*
X185400Y599750D02*X186150Y600500D01*
X185400Y599750D02*Y598250D01*
X186150Y597500D01*
X188400Y600500D02*Y598250D01*
X189150Y597500D01*
X186150D02*X187650D01*
X188400Y598250D01*
X190950Y600500D02*Y598250D01*
X191700Y597500D01*
X193950Y600500D02*Y596000D01*
X193200Y595250D02*X193950Y596000D01*
X191700Y595250D02*X193200D01*
X190950Y596000D02*X191700Y595250D01*
Y597500D02*X193200D01*
X193950Y598250D01*
X195750Y599750D02*Y598250D01*
Y599750D02*X196500Y600500D01*
X198000D01*
X198750Y599750D01*
Y598250D01*
X198000Y597500D02*X198750Y598250D01*
X196500Y597500D02*X198000D01*
X195750Y598250D02*X196500Y597500D01*
X200550Y600500D02*Y598250D01*
X201300Y597500D01*
X202800D01*
X203550Y598250D01*
Y600500D02*Y598250D01*
X206100Y603500D02*Y598250D01*
X206850Y597500D01*
X205350Y601250D02*X206850D01*
X208350Y596000D02*X209850Y597500D01*
X214350Y602750D02*X215100Y603500D01*
X217350D01*
X218100Y602750D01*
Y601250D01*
X214350Y597500D02*X218100Y601250D01*
X214350Y597500D02*X218100D01*
X219900Y602750D02*X220650Y603500D01*
X222900D01*
X223650Y602750D01*
Y601250D01*
X219900Y597500D02*X223650Y601250D01*
X219900Y597500D02*X223650D01*
X228150Y603500D02*Y597500D01*
Y599750D02*X228900Y600500D01*
X230400D01*
X231150Y599750D01*
Y597500D01*
X232950Y599750D02*Y598250D01*
Y599750D02*X233700Y600500D01*
X235200D01*
X235950Y599750D01*
Y598250D01*
X235200Y597500D02*X235950Y598250D01*
X233700Y597500D02*X235200D01*
X232950Y598250D02*X233700Y597500D01*
X237750Y603500D02*Y598250D01*
X238500Y597500D01*
X240750D02*X243000D01*
X240000Y598250D02*X240750Y597500D01*
X240000Y599750D02*Y598250D01*
Y599750D02*X240750Y600500D01*
X242250D01*
X243000Y599750D01*
X240000Y599000D02*X243000D01*
Y599750D02*Y599000D01*
X245550Y597500D02*X247800D01*
X248550Y598250D01*
X247800Y599000D02*X248550Y598250D01*
X245550Y599000D02*X247800D01*
X244800Y599750D02*X245550Y599000D01*
X244800Y599750D02*X245550Y600500D01*
X247800D01*
X248550Y599750D01*
X244800Y598250D02*X245550Y597500D01*
X253800Y603500D02*Y598250D01*
X254550Y597500D01*
X253050Y601250D02*X254550D01*
X256050Y599750D02*Y598250D01*
Y599750D02*X256800Y600500D01*
X258300D01*
X259050Y599750D01*
Y598250D01*
X258300Y597500D02*X259050Y598250D01*
X256800Y597500D02*X258300D01*
X256050Y598250D02*X256800Y597500D01*
X261600Y603500D02*Y598250D01*
X262350Y597500D01*
X260850Y601250D02*X262350D01*
X266100Y600500D02*X266850Y599750D01*
X264600Y600500D02*X266100D01*
X263850Y599750D02*X264600Y600500D01*
X263850Y599750D02*Y598250D01*
X264600Y597500D01*
X266850Y600500D02*Y598250D01*
X267600Y597500D01*
X264600D02*X266100D01*
X266850Y598250D01*
X269400Y603500D02*Y598250D01*
X270150Y597500D01*
G54D56*X187461Y384843D02*X112657D01*
Y207677D01*
X187461D01*
Y384843D02*Y207677D01*
G54D54*X213675Y-9500D02*X216675D01*
X217425Y-8750D01*
Y-6950D02*Y-8750D01*
X216675Y-6200D02*X217425Y-6950D01*
X214425Y-6200D02*X216675D01*
X214425Y-3500D02*Y-9500D01*
X213675Y-3500D02*X216675D01*
X217425Y-4250D01*
Y-5450D01*
X216675Y-6200D02*X217425Y-5450D01*
X219225Y-7250D02*Y-8750D01*
Y-7250D02*X219975Y-6500D01*
X221475D01*
X222225Y-7250D01*
Y-8750D01*
X221475Y-9500D02*X222225Y-8750D01*
X219975Y-9500D02*X221475D01*
X219225Y-8750D02*X219975Y-9500D01*
X226275Y-6500D02*X227025Y-7250D01*
X224775Y-6500D02*X226275D01*
X224025Y-7250D02*X224775Y-6500D01*
X224025Y-7250D02*Y-8750D01*
X224775Y-9500D01*
X227025Y-6500D02*Y-8750D01*
X227775Y-9500D01*
X224775D02*X226275D01*
X227025Y-8750D01*
X230325Y-7250D02*Y-9500D01*
Y-7250D02*X231075Y-6500D01*
X232575D01*
X229575D02*X230325Y-7250D01*
X237375Y-3500D02*Y-9500D01*
X236625D02*X237375Y-8750D01*
X235125Y-9500D02*X236625D01*
X234375Y-8750D02*X235125Y-9500D01*
X234375Y-7250D02*Y-8750D01*
Y-7250D02*X235125Y-6500D01*
X236625D01*
X237375Y-7250D01*
X241875D02*Y-8750D01*
Y-7250D02*X242625Y-6500D01*
X244125D01*
X244875Y-7250D01*
Y-8750D01*
X244125Y-9500D02*X244875Y-8750D01*
X242625Y-9500D02*X244125D01*
X241875Y-8750D02*X242625Y-9500D01*
X246675Y-6500D02*Y-8750D01*
X247425Y-9500D01*
X248925D01*
X249675Y-8750D01*
Y-6500D02*Y-8750D01*
X252225Y-3500D02*Y-8750D01*
X252975Y-9500D01*
X251475Y-5750D02*X252975D01*
X254475Y-3500D02*Y-8750D01*
X255225Y-9500D01*
G54D55*X256725Y-5000D02*Y-5150D01*
G54D54*Y-7250D02*Y-9500D01*
X258975Y-7250D02*Y-9500D01*
Y-7250D02*X259725Y-6500D01*
X260475D01*
X261225Y-7250D01*
Y-9500D01*
X258225Y-6500D02*X258975Y-7250D01*
X263775Y-9500D02*X266025D01*
X263025Y-8750D02*X263775Y-9500D01*
X263025Y-7250D02*Y-8750D01*
Y-7250D02*X263775Y-6500D01*
X265275D01*
X266025Y-7250D01*
X263025Y-8000D02*X266025D01*
Y-7250D02*Y-8000D01*
G54D55*X270525Y-5000D02*Y-5150D01*
G54D54*Y-7250D02*Y-9500D01*
X272775D02*X275025D01*
X275775Y-8750D01*
X275025Y-8000D02*X275775Y-8750D01*
X272775Y-8000D02*X275025D01*
X272025Y-7250D02*X272775Y-8000D01*
X272025Y-7250D02*X272775Y-6500D01*
X275025D01*
X275775Y-7250D01*
X272025Y-8750D02*X272775Y-9500D01*
X281025Y-3500D02*Y-8750D01*
X281775Y-9500D01*
X280275Y-5750D02*X281775D01*
X283275Y-3500D02*Y-9500D01*
Y-7250D02*X284025Y-6500D01*
X285525D01*
X286275Y-7250D01*
Y-9500D01*
X288825D02*X291075D01*
X288075Y-8750D02*X288825Y-9500D01*
X288075Y-7250D02*Y-8750D01*
Y-7250D02*X288825Y-6500D01*
X290325D01*
X291075Y-7250D01*
X288075Y-8000D02*X291075D01*
Y-7250D02*Y-8000D01*
X296325Y-6500D02*X298575D01*
X295575Y-7250D02*X296325Y-6500D01*
X295575Y-7250D02*Y-8750D01*
X296325Y-9500D01*
X298575D01*
X301125D02*X303375D01*
X300375Y-8750D02*X301125Y-9500D01*
X300375Y-7250D02*Y-8750D01*
Y-7250D02*X301125Y-6500D01*
X302625D01*
X303375Y-7250D01*
X300375Y-8000D02*X303375D01*
Y-7250D02*Y-8000D01*
X305925Y-7250D02*Y-9500D01*
Y-7250D02*X306675Y-6500D01*
X307425D01*
X308175Y-7250D01*
Y-9500D01*
X305175Y-6500D02*X305925Y-7250D01*
X310725Y-3500D02*Y-8750D01*
X311475Y-9500D01*
X309975Y-5750D02*X311475D01*
X313725Y-9500D02*X315975D01*
X312975Y-8750D02*X313725Y-9500D01*
X312975Y-7250D02*Y-8750D01*
Y-7250D02*X313725Y-6500D01*
X315225D01*
X315975Y-7250D01*
X312975Y-8000D02*X315975D01*
Y-7250D02*Y-8000D01*
X318525Y-7250D02*Y-9500D01*
Y-7250D02*X319275Y-6500D01*
X320775D01*
X317775D02*X318525Y-7250D01*
X322575Y-3500D02*Y-8750D01*
X323325Y-9500D01*
G54D55*X324825Y-5000D02*Y-5150D01*
G54D54*Y-7250D02*Y-9500D01*
X327075Y-7250D02*Y-9500D01*
Y-7250D02*X327825Y-6500D01*
X328575D01*
X329325Y-7250D01*
Y-9500D01*
X326325Y-6500D02*X327075Y-7250D01*
X331875Y-9500D02*X334125D01*
X331125Y-8750D02*X331875Y-9500D01*
X331125Y-7250D02*Y-8750D01*
Y-7250D02*X331875Y-6500D01*
X333375D01*
X334125Y-7250D01*
X331125Y-8000D02*X334125D01*
Y-7250D02*Y-8000D01*
X338625Y-7250D02*Y-8750D01*
Y-7250D02*X339375Y-6500D01*
X340875D01*
X341625Y-7250D01*
Y-8750D01*
X340875Y-9500D02*X341625Y-8750D01*
X339375Y-9500D02*X340875D01*
X338625Y-8750D02*X339375Y-9500D01*
X344175Y-4250D02*Y-9500D01*
Y-4250D02*X344925Y-3500D01*
X345675D01*
X343425Y-6500D02*X344925D01*
X350625Y-3500D02*Y-8750D01*
X351375Y-9500D01*
X349875Y-5750D02*X351375D01*
X352875Y-3500D02*Y-9500D01*
Y-7250D02*X353625Y-6500D01*
X355125D01*
X355875Y-7250D01*
Y-9500D01*
G54D55*X357675Y-5000D02*Y-5150D01*
G54D54*Y-7250D02*Y-9500D01*
X359925D02*X362175D01*
X362925Y-8750D01*
X362175Y-8000D02*X362925Y-8750D01*
X359925Y-8000D02*X362175D01*
X359175Y-7250D02*X359925Y-8000D01*
X359175Y-7250D02*X359925Y-6500D01*
X362175D01*
X362925Y-7250D01*
X359175Y-8750D02*X359925Y-9500D01*
X368175Y-7250D02*Y-11750D01*
X367425Y-6500D02*X368175Y-7250D01*
X368925Y-6500D01*
X370425D01*
X371175Y-7250D01*
Y-8750D01*
X370425Y-9500D02*X371175Y-8750D01*
X368925Y-9500D02*X370425D01*
X368175Y-8750D02*X368925Y-9500D01*
X375225Y-6500D02*X375975Y-7250D01*
X373725Y-6500D02*X375225D01*
X372975Y-7250D02*X373725Y-6500D01*
X372975Y-7250D02*Y-8750D01*
X373725Y-9500D01*
X375975Y-6500D02*Y-8750D01*
X376725Y-9500D01*
X373725D02*X375225D01*
X375975Y-8750D01*
X379275Y-3500D02*Y-8750D01*
X380025Y-9500D01*
X378525Y-5750D02*X380025D01*
X381525Y-3500D02*Y-9500D01*
Y-7250D02*X382275Y-6500D01*
X383775D01*
X384525Y-7250D01*
Y-9500D01*
X200750Y528500D02*Y522500D01*
X202700Y528500D02*X203750Y527450D01*
Y523550D01*
X202700Y522500D02*X203750Y523550D01*
X200000Y522500D02*X202700D01*
X200000Y528500D02*X202700D01*
X207800Y525500D02*X208550Y524750D01*
X206300Y525500D02*X207800D01*
X205550Y524750D02*X206300Y525500D01*
X205550Y524750D02*Y523250D01*
X206300Y522500D01*
X208550Y525500D02*Y523250D01*
X209300Y522500D01*
X206300D02*X207800D01*
X208550Y523250D01*
X211850Y528500D02*Y523250D01*
X212600Y522500D01*
X211100Y526250D02*X212600D01*
X214850Y522500D02*X217100D01*
X214100Y523250D02*X214850Y522500D01*
X214100Y524750D02*Y523250D01*
Y524750D02*X214850Y525500D01*
X216350D01*
X217100Y524750D01*
X214100Y524000D02*X217100D01*
Y524750D02*Y524000D01*
X218900Y526250D02*X219650D01*
X218900Y524750D02*X219650D01*
X227150Y528500D02*X227900Y527750D01*
X224900Y528500D02*X227150D01*
X224150Y527750D02*X224900Y528500D01*
X224150Y527750D02*Y526250D01*
X224900Y525500D01*
X227150D01*
X227900Y524750D01*
Y523250D01*
X227150Y522500D02*X227900Y523250D01*
X224900Y522500D02*X227150D01*
X224150Y523250D02*X224900Y522500D01*
X231950Y525500D02*X232700Y524750D01*
X230450Y525500D02*X231950D01*
X229700Y524750D02*X230450Y525500D01*
X229700Y524750D02*Y523250D01*
X230450Y522500D01*
X232700Y525500D02*Y523250D01*
X233450Y522500D01*
X230450D02*X231950D01*
X232700Y523250D01*
X236000Y528500D02*Y523250D01*
X236750Y522500D01*
X235250Y526250D02*X236750D01*
X240950Y527000D02*Y522500D01*
Y527000D02*X242000Y528500D01*
X243650D01*
X244700Y527000D01*
Y522500D01*
X240950Y525500D02*X244700D01*
X246500D02*Y523250D01*
X247250Y522500D01*
X248750D01*
X249500Y523250D01*
Y525500D02*Y523250D01*
X253550Y525500D02*X254300Y524750D01*
X252050Y525500D02*X253550D01*
X251300Y524750D02*X252050Y525500D01*
X251300Y524750D02*Y523250D01*
X252050Y522500D01*
X253550D01*
X254300Y523250D01*
X251300Y521000D02*X252050Y520250D01*
X253550D01*
X254300Y521000D01*
Y525500D02*Y521000D01*
X261500Y523250D02*X262250Y522500D01*
X261500Y524450D02*Y523250D01*
Y524450D02*X262550Y525500D01*
X263450D01*
X264500Y524450D01*
Y523250D01*
X263750Y522500D02*X264500Y523250D01*
X262250Y522500D02*X263750D01*
X261500Y526550D02*X262550Y525500D01*
X261500Y527750D02*Y526550D01*
Y527750D02*X262250Y528500D01*
X263750D01*
X264500Y527750D01*
Y526550D01*
X263450Y525500D02*X264500Y526550D01*
X269000Y523250D02*X269750Y522500D01*
X269000Y527750D02*Y523250D01*
Y527750D02*X269750Y528500D01*
X271250D01*
X272000Y527750D01*
Y523250D01*
X271250Y522500D02*X272000Y523250D01*
X269750Y522500D02*X271250D01*
X269000Y524000D02*X272000Y527000D01*
X273800Y527300D02*X275000Y528500D01*
Y522500D01*
X273800D02*X276050D01*
X277850Y526250D02*X278600D01*
X277850Y524750D02*X278600D01*
X280400Y527750D02*X281150Y528500D01*
X283400D01*
X284150Y527750D01*
Y526250D01*
X280400Y522500D02*X284150Y526250D01*
X280400Y522500D02*X284150D01*
X285950Y528500D02*X288950D01*
X285950D02*Y525500D01*
X286700Y526250D01*
X288200D01*
X288950Y525500D01*
Y523250D01*
X288200Y522500D02*X288950Y523250D01*
X286700Y522500D02*X288200D01*
X285950Y523250D02*X286700Y522500D01*
X290750Y526250D02*X291500D01*
X290750Y524750D02*X291500D01*
X293300D02*X296300Y528500D01*
X293300Y524750D02*X297050D01*
X296300Y528500D02*Y522500D01*
X298850Y523250D02*X299600Y522500D01*
X298850Y527750D02*Y523250D01*
Y527750D02*X299600Y528500D01*
X301100D01*
X301850Y527750D01*
Y523250D01*
X301100Y522500D02*X301850Y523250D01*
X299600Y522500D02*X301100D01*
X298850Y524000D02*X301850Y527000D01*
X306350Y527750D02*X307100Y528500D01*
X309350D01*
X310100Y527750D01*
Y526250D01*
X306350Y522500D02*X310100Y526250D01*
X306350Y522500D02*X310100D01*
X311900Y523250D02*X312650Y522500D01*
X311900Y527750D02*Y523250D01*
Y527750D02*X312650Y528500D01*
X314150D01*
X314900Y527750D01*
Y523250D01*
X314150Y522500D02*X314900Y523250D01*
X312650Y522500D02*X314150D01*
X311900Y524000D02*X314900Y527000D01*
X316700Y527750D02*X317450Y528500D01*
X319700D01*
X320450Y527750D01*
Y526250D01*
X316700Y522500D02*X320450Y526250D01*
X316700Y522500D02*X320450D01*
X322250Y523250D02*X323000Y522500D01*
X322250Y527750D02*Y523250D01*
Y527750D02*X323000Y528500D01*
X324500D01*
X325250Y527750D01*
Y523250D01*
X324500Y522500D02*X325250Y523250D01*
X323000Y522500D02*X324500D01*
X322250Y524000D02*X325250Y527000D01*
X329750Y528500D02*Y523250D01*
X330500Y522500D01*
X332000D01*
X332750Y523250D01*
Y528500D02*Y523250D01*
X334550Y528500D02*X337550D01*
X336050D02*Y522500D01*
X340400D02*X342350D01*
X339350Y523550D02*X340400Y522500D01*
X339350Y527450D02*Y523550D01*
Y527450D02*X340400Y528500D01*
X342350D01*
X200000Y542000D02*Y537500D01*
Y542000D02*X201050Y543500D01*
X202700D01*
X203750Y542000D01*
Y537500D01*
X200000Y540500D02*X203750D01*
X205550D02*Y538250D01*
X206300Y537500D01*
X207800D01*
X208550Y538250D01*
Y540500D02*Y538250D01*
X211100Y543500D02*Y538250D01*
X211850Y537500D01*
X210350Y541250D02*X211850D01*
X213350Y543500D02*Y537500D01*
Y539750D02*X214100Y540500D01*
X215600D01*
X216350Y539750D01*
Y537500D01*
X218150Y539750D02*Y538250D01*
Y539750D02*X218900Y540500D01*
X220400D01*
X221150Y539750D01*
Y538250D01*
X220400Y537500D02*X221150Y538250D01*
X218900Y537500D02*X220400D01*
X218150Y538250D02*X218900Y537500D01*
X223700Y539750D02*Y537500D01*
Y539750D02*X224450Y540500D01*
X225950D01*
X222950D02*X223700Y539750D01*
X227750Y541250D02*X228500D01*
X227750Y539750D02*X228500D01*
X233000Y543500D02*Y537500D01*
Y539750D02*X233750Y540500D01*
X235250D01*
X236000Y539750D01*
Y537500D01*
X240050Y540500D02*X240800Y539750D01*
X238550Y540500D02*X240050D01*
X237800Y539750D02*X238550Y540500D01*
X237800Y539750D02*Y538250D01*
X238550Y537500D01*
X240800Y540500D02*Y538250D01*
X241550Y537500D01*
X238550D02*X240050D01*
X240800Y538250D01*
X244100Y539750D02*Y537500D01*
Y539750D02*X244850Y540500D01*
X246350D01*
X243350D02*X244100Y539750D01*
X248150D02*Y538250D01*
Y539750D02*X248900Y540500D01*
X250400D01*
X251150Y539750D01*
Y538250D01*
X250400Y537500D02*X251150Y538250D01*
X248900Y537500D02*X250400D01*
X248150Y538250D02*X248900Y537500D01*
X252950Y543500D02*Y538250D01*
X253700Y537500D01*
X258200Y543500D02*Y537500D01*
X257450D02*X258200Y538250D01*
X255950Y537500D02*X257450D01*
X255200Y538250D02*X255950Y537500D01*
X255200Y539750D02*Y538250D01*
Y539750D02*X255950Y540500D01*
X257450D01*
X258200Y539750D01*
X200000Y558500D02*X203000D01*
X201500D02*Y552500D01*
G54D55*X204800Y557000D02*Y556850D01*
G54D54*Y554750D02*Y552500D01*
X207050Y558500D02*Y553250D01*
X207800Y552500D01*
X206300Y556250D02*X207800D01*
X209300Y558500D02*Y553250D01*
X210050Y552500D01*
X212300D02*X214550D01*
X211550Y553250D02*X212300Y552500D01*
X211550Y554750D02*Y553250D01*
Y554750D02*X212300Y555500D01*
X213800D01*
X214550Y554750D01*
X211550Y554000D02*X214550D01*
Y554750D02*Y554000D01*
X216350Y556250D02*X217100D01*
X216350Y554750D02*X217100D01*
X221600Y553250D02*X222350Y552500D01*
X221600Y557750D02*X222350Y558500D01*
X221600Y557750D02*Y553250D01*
X224150Y555500D02*Y553250D01*
X224900Y552500D01*
X226400D01*
X227150Y553250D01*
Y555500D02*Y553250D01*
X229700Y554750D02*Y552500D01*
Y554750D02*X230450Y555500D01*
X231200D01*
X231950Y554750D01*
Y552500D01*
X228950Y555500D02*X229700Y554750D01*
X233750Y558500D02*Y552500D01*
Y554750D02*X236000Y552500D01*
X233750Y554750D02*X235250Y556250D01*
X238550Y554750D02*Y552500D01*
Y554750D02*X239300Y555500D01*
X240050D01*
X240800Y554750D01*
Y552500D01*
X237800Y555500D02*X238550Y554750D01*
X242600D02*Y553250D01*
Y554750D02*X243350Y555500D01*
X244850D01*
X245600Y554750D01*
Y553250D01*
X244850Y552500D02*X245600Y553250D01*
X243350Y552500D02*X244850D01*
X242600Y553250D02*X243350Y552500D01*
X247400Y555500D02*Y553250D01*
X248150Y552500D01*
X248900D01*
X249650Y553250D01*
Y555500D02*Y553250D01*
X250400Y552500D01*
X251150D01*
X251900Y553250D01*
Y555500D02*Y553250D01*
X254450Y554750D02*Y552500D01*
Y554750D02*X255200Y555500D01*
X255950D01*
X256700Y554750D01*
Y552500D01*
X253700Y555500D02*X254450Y554750D01*
X258500Y558500D02*X259250Y557750D01*
Y553250D01*
X258500Y552500D02*X259250Y553250D01*
X263750Y555500D02*X266750D01*
X271250Y558500D02*Y552500D01*
Y558500D02*X274250D01*
X271250Y555800D02*X273500D01*
X278300Y555500D02*X279050Y554750D01*
X276800Y555500D02*X278300D01*
X276050Y554750D02*X276800Y555500D01*
X276050Y554750D02*Y553250D01*
X276800Y552500D01*
X279050Y555500D02*Y553250D01*
X279800Y552500D01*
X276800D02*X278300D01*
X279050Y553250D01*
X281600Y558500D02*Y552500D01*
Y553250D02*X282350Y552500D01*
X283850D01*
X284600Y553250D01*
Y554750D02*Y553250D01*
X283850Y555500D02*X284600Y554750D01*
X282350Y555500D02*X283850D01*
X281600Y554750D02*X282350Y555500D01*
X287150Y554750D02*Y552500D01*
Y554750D02*X287900Y555500D01*
X289400D01*
X286400D02*X287150Y554750D01*
G54D55*X291200Y557000D02*Y556850D01*
G54D54*Y554750D02*Y552500D01*
X293450Y555500D02*X295700D01*
X292700Y554750D02*X293450Y555500D01*
X292700Y554750D02*Y553250D01*
X293450Y552500D01*
X295700D01*
X299750Y555500D02*X300500Y554750D01*
X298250Y555500D02*X299750D01*
X297500Y554750D02*X298250Y555500D01*
X297500Y554750D02*Y553250D01*
X298250Y552500D01*
X300500Y555500D02*Y553250D01*
X301250Y552500D01*
X298250D02*X299750D01*
X300500Y553250D01*
X303800Y558500D02*Y553250D01*
X304550Y552500D01*
X303050Y556250D02*X304550D01*
G54D55*X306050Y557000D02*Y556850D01*
G54D54*Y554750D02*Y552500D01*
X307550Y554750D02*Y553250D01*
Y554750D02*X308300Y555500D01*
X309800D01*
X310550Y554750D01*
Y553250D01*
X309800Y552500D02*X310550Y553250D01*
X308300Y552500D02*X309800D01*
X307550Y553250D02*X308300Y552500D01*
X313100Y554750D02*Y552500D01*
Y554750D02*X313850Y555500D01*
X314600D01*
X315350Y554750D01*
Y552500D01*
X312350Y555500D02*X313100Y554750D01*
X320600Y558500D02*Y552500D01*
X322550Y558500D02*X323600Y557450D01*
Y553550D01*
X322550Y552500D02*X323600Y553550D01*
X319850Y552500D02*X322550D01*
X319850Y558500D02*X322550D01*
X326150Y554750D02*Y552500D01*
Y554750D02*X326900Y555500D01*
X328400D01*
X325400D02*X326150Y554750D01*
X332450Y555500D02*X333200Y554750D01*
X330950Y555500D02*X332450D01*
X330200Y554750D02*X330950Y555500D01*
X330200Y554750D02*Y553250D01*
X330950Y552500D01*
X333200Y555500D02*Y553250D01*
X333950Y552500D01*
X330950D02*X332450D01*
X333200Y553250D01*
X335750Y555500D02*Y553250D01*
X336500Y552500D01*
X337250D01*
X338000Y553250D01*
Y555500D02*Y553250D01*
X338750Y552500D01*
X339500D01*
X340250Y553250D01*
Y555500D02*Y553250D01*
G54D55*X342050Y557000D02*Y556850D01*
G54D54*Y554750D02*Y552500D01*
X344300Y554750D02*Y552500D01*
Y554750D02*X345050Y555500D01*
X345800D01*
X346550Y554750D01*
Y552500D01*
X343550Y555500D02*X344300Y554750D01*
X350600Y555500D02*X351350Y554750D01*
X349100Y555500D02*X350600D01*
X348350Y554750D02*X349100Y555500D01*
X348350Y554750D02*Y553250D01*
X349100Y552500D01*
X350600D01*
X351350Y553250D01*
X348350Y551000D02*X349100Y550250D01*
X350600D01*
X351350Y551000D01*
Y555500D02*Y551000D01*
M02*
