M48
INCH
T40C0.024
T39C0.135
T38C0.020
T37C0.034
T36C0.039
%
T38
X014750Y024232
X014750Y023500
X015250Y035750
X016500Y034750
X017250Y035500
X018250Y026000
T40
X014250Y030250
X015750Y030000
X016750Y030250
X017750Y030250
T37
X012000Y031250
X012000Y030250
X012000Y029250
X013000Y031250
X013000Y030250
X013000Y029250
T36
X012750Y034866
X012750Y033882
X012750Y025132
X012750Y024148
T39
X012250Y037500
X012250Y021752
M30
