G04 start of page 3 for group 5 idx 5 *
G04 Title: (unknown), bottom *
G04 Creator: pcb 4.2.2 *
G04 CreationDate: Sat Aug  8 01:25:40 2020 UTC *
G04 For: harold *
G04 Format: Gerber/RS-274X *
G04 PCB-Dimensions (mil): 6000.00 5000.00 *
G04 PCB-Coordinate-Origin: lower left *
%MOIN*%
%FSLAX25Y25*%
%LNBOTTOM*%
%ADD34C,0.0340*%
%ADD33C,0.0390*%
%ADD32C,0.0240*%
%ADD31C,0.1350*%
%ADD30C,0.0460*%
%ADD29C,0.1600*%
%ADD28C,0.0360*%
%ADD27C,0.0760*%
%ADD26C,0.0600*%
%ADD25C,0.0200*%
%ADD24C,0.0100*%
%ADD23C,0.0001*%
G54D23*G36*
X180172Y345207D02*X181000Y344379D01*
Y262365D01*
X180849Y262272D01*
X180514Y261986D01*
X180228Y261651D01*
X180172Y261559D01*
Y300853D01*
X180222Y300867D01*
X180294Y300901D01*
X180359Y300944D01*
X180417Y300998D01*
X180465Y301060D01*
X180502Y301130D01*
X180622Y301420D01*
X180711Y301721D01*
X180770Y302030D01*
X180800Y302343D01*
Y302657D01*
X180770Y302970D01*
X180711Y303279D01*
X180622Y303580D01*
X180505Y303872D01*
X180467Y303941D01*
X180419Y304004D01*
X180361Y304058D01*
X180295Y304102D01*
X180223Y304135D01*
X180172Y304150D01*
Y345207D01*
G37*
G36*
Y384843D02*X187461D01*
Y207677D01*
X180172D01*
Y258441D01*
X180228Y258349D01*
X180514Y258014D01*
X180849Y257728D01*
X181225Y257497D01*
X181632Y257329D01*
X182061Y257226D01*
X182500Y257191D01*
X182939Y257226D01*
X183368Y257329D01*
X183775Y257497D01*
X184151Y257728D01*
X184486Y258014D01*
X184772Y258349D01*
X185003Y258725D01*
X185171Y259132D01*
X185274Y259561D01*
X185300Y260000D01*
X185274Y260439D01*
X185171Y260868D01*
X185003Y261275D01*
X184772Y261651D01*
X184486Y261986D01*
X184151Y262272D01*
X184000Y262365D01*
Y344941D01*
X184005Y345000D01*
X183986Y345235D01*
X183931Y345465D01*
X183841Y345683D01*
X183717Y345884D01*
X183564Y346064D01*
X183519Y346102D01*
X180172Y349450D01*
Y384843D01*
G37*
G36*
Y207677D02*X177496D01*
Y291251D01*
X177780Y291252D01*
X177933Y291289D01*
X178078Y291349D01*
X178213Y291431D01*
X178332Y291534D01*
X178435Y291653D01*
X178517Y291788D01*
X178577Y291933D01*
X178614Y292086D01*
X178623Y292243D01*
X178614Y297914D01*
X178577Y298067D01*
X178517Y298212D01*
X178435Y298347D01*
X178332Y298466D01*
X178213Y298569D01*
X178078Y298651D01*
X177933Y298711D01*
X177780Y298748D01*
X177743Y298750D01*
Y299208D01*
X177970Y299230D01*
X178279Y299289D01*
X178580Y299378D01*
X178872Y299495D01*
X178941Y299533D01*
X179004Y299581D01*
X179058Y299639D01*
X179102Y299705D01*
X179135Y299777D01*
X179157Y299853D01*
X179166Y299931D01*
X179164Y300010D01*
X179149Y300088D01*
X179121Y300162D01*
X179083Y300231D01*
X179034Y300294D01*
X178976Y300348D01*
X178911Y300392D01*
X178839Y300425D01*
X178763Y300447D01*
X178684Y300457D01*
X178605Y300454D01*
X178528Y300439D01*
X178454Y300410D01*
X178252Y300326D01*
X178042Y300265D01*
X177827Y300223D01*
X177743Y300215D01*
Y300622D01*
X178561Y301439D01*
X178717Y301616D01*
X178841Y301817D01*
X178931Y302035D01*
X178986Y302265D01*
X179005Y302500D01*
X178986Y302735D01*
X178931Y302965D01*
X178841Y303183D01*
X178717Y303384D01*
X178564Y303564D01*
X178384Y303717D01*
X178183Y303841D01*
X177965Y303931D01*
X177735Y303986D01*
X177500Y304005D01*
X177496Y304004D01*
Y304797D01*
X177609D01*
X177827Y304777D01*
X178042Y304735D01*
X178252Y304674D01*
X178455Y304592D01*
X178528Y304564D01*
X178606Y304549D01*
X178684Y304546D01*
X178762Y304556D01*
X178838Y304577D01*
X178909Y304610D01*
X178975Y304654D01*
X179032Y304708D01*
X179081Y304770D01*
X179119Y304839D01*
X179146Y304913D01*
X179161Y304990D01*
X179164Y305069D01*
X179154Y305147D01*
X179133Y305222D01*
X179099Y305294D01*
X179056Y305359D01*
X179002Y305417D01*
X178940Y305465D01*
X178870Y305502D01*
X178580Y305622D01*
X178279Y305711D01*
X177970Y305770D01*
X177657Y305800D01*
X177496D01*
Y347883D01*
X180172Y345207D01*
Y304150D01*
X180147Y304157D01*
X180069Y304166D01*
X179990Y304164D01*
X179912Y304149D01*
X179838Y304121D01*
X179769Y304083D01*
X179706Y304034D01*
X179652Y303976D01*
X179608Y303911D01*
X179575Y303839D01*
X179553Y303763D01*
X179543Y303684D01*
X179546Y303605D01*
X179561Y303528D01*
X179590Y303454D01*
X179674Y303252D01*
X179735Y303042D01*
X179777Y302827D01*
X179797Y302609D01*
Y302391D01*
X179777Y302173D01*
X179735Y301958D01*
X179674Y301748D01*
X179592Y301545D01*
X179564Y301472D01*
X179549Y301394D01*
X179546Y301316D01*
X179556Y301238D01*
X179577Y301162D01*
X179610Y301091D01*
X179654Y301025D01*
X179708Y300968D01*
X179770Y300919D01*
X179839Y300881D01*
X179913Y300854D01*
X179990Y300839D01*
X180069Y300836D01*
X180147Y300846D01*
X180172Y300853D01*
Y261559D01*
X179997Y261275D01*
X179829Y260868D01*
X179726Y260439D01*
X179691Y260000D01*
X179726Y259561D01*
X179829Y259132D01*
X179997Y258725D01*
X180172Y258441D01*
Y207677D01*
G37*
G36*
X177496Y384843D02*X180172D01*
Y349450D01*
X177496Y352126D01*
Y384843D01*
G37*
G36*
X167230Y299211D02*X167257Y299209D01*
Y298748D01*
X167230Y298748D01*
Y299211D01*
G37*
G36*
Y384843D02*X177496D01*
Y352126D01*
X175233Y354389D01*
X175274Y354561D01*
X175300Y355000D01*
X175274Y355439D01*
X175171Y355868D01*
X175003Y356275D01*
X174772Y356651D01*
X174486Y356986D01*
X174151Y357272D01*
X173775Y357503D01*
X173368Y357671D01*
X172939Y357774D01*
X172500Y357809D01*
X172061Y357774D01*
X171632Y357671D01*
X171225Y357503D01*
X170849Y357272D01*
X170514Y356986D01*
X170228Y356651D01*
X169997Y356275D01*
X169829Y355868D01*
X169726Y355439D01*
X169691Y355000D01*
X169726Y354561D01*
X169829Y354132D01*
X169997Y353725D01*
X170228Y353349D01*
X170514Y353014D01*
X170849Y352728D01*
X171225Y352497D01*
X171632Y352329D01*
X172061Y352226D01*
X172500Y352191D01*
X172939Y352226D01*
X173111Y352267D01*
X177496Y347883D01*
Y305800D01*
X177343D01*
X177030Y305770D01*
X176721Y305711D01*
X176420Y305622D01*
X176128Y305505D01*
X176059Y305467D01*
X175996Y305419D01*
X175942Y305361D01*
X175898Y305295D01*
X175865Y305223D01*
X175843Y305147D01*
X175834Y305069D01*
X175836Y304990D01*
X175851Y304912D01*
X175879Y304838D01*
X175917Y304769D01*
X175966Y304706D01*
X176024Y304652D01*
X176089Y304608D01*
X176161Y304575D01*
X176237Y304553D01*
X176316Y304543D01*
X176395Y304546D01*
X176472Y304561D01*
X176546Y304590D01*
X176748Y304674D01*
X176958Y304735D01*
X177173Y304777D01*
X177391Y304797D01*
X177496D01*
Y304004D01*
X177265Y303986D01*
X177035Y303931D01*
X176817Y303841D01*
X176616Y303717D01*
X176439Y303561D01*
X175224Y302345D01*
X175208Y302332D01*
X175203Y302391D01*
Y302609D01*
X175223Y302827D01*
X175265Y303042D01*
X175326Y303252D01*
X175408Y303455D01*
X175436Y303528D01*
X175451Y303606D01*
X175454Y303684D01*
X175444Y303762D01*
X175423Y303838D01*
X175390Y303909D01*
X175346Y303975D01*
X175292Y304032D01*
X175230Y304081D01*
X175161Y304119D01*
X175087Y304146D01*
X175010Y304161D01*
X174931Y304164D01*
X174853Y304154D01*
X174778Y304133D01*
X174706Y304099D01*
X174641Y304056D01*
X174583Y304002D01*
X174535Y303940D01*
X174498Y303870D01*
X174378Y303580D01*
X174289Y303279D01*
X174230Y302970D01*
X174200Y302657D01*
Y302343D01*
X174230Y302030D01*
X174289Y301721D01*
X174378Y301420D01*
X174495Y301128D01*
X174533Y301059D01*
X174581Y300996D01*
X174639Y300942D01*
X174705Y300898D01*
X174743Y300881D01*
Y298748D01*
X174706Y298748D01*
X174553Y298711D01*
X174408Y298651D01*
X174273Y298569D01*
X174154Y298466D01*
X174051Y298347D01*
X173969Y298212D01*
X173909Y298067D01*
X173872Y297914D01*
X173863Y297757D01*
X173872Y292086D01*
X173909Y291933D01*
X173969Y291788D01*
X174051Y291653D01*
X174154Y291534D01*
X174273Y291431D01*
X174408Y291349D01*
X174553Y291289D01*
X174706Y291252D01*
X174863Y291243D01*
X177496Y291251D01*
Y207677D01*
X167230D01*
Y291252D01*
X167377Y291243D01*
X170294Y291252D01*
X170447Y291289D01*
X170592Y291349D01*
X170727Y291431D01*
X170846Y291534D01*
X170949Y291653D01*
X171031Y291788D01*
X171091Y291933D01*
X171128Y292086D01*
X171137Y292243D01*
X171128Y297914D01*
X171091Y298067D01*
X171031Y298212D01*
X170949Y298347D01*
X170846Y298466D01*
X170727Y298569D01*
X170592Y298651D01*
X170447Y298711D01*
X170294Y298748D01*
X170257Y298750D01*
Y300683D01*
X170449Y300997D01*
X170648Y301477D01*
X170769Y301982D01*
X170800Y302500D01*
X170769Y303018D01*
X170648Y303523D01*
X170449Y304003D01*
X170178Y304446D01*
X169841Y304841D01*
X169446Y305178D01*
X169003Y305449D01*
X168523Y305648D01*
X168018Y305769D01*
X167500Y305810D01*
X167230Y305789D01*
Y346214D01*
X167298Y346228D01*
X167371Y346255D01*
X167440Y346294D01*
X167502Y346343D01*
X167555Y346401D01*
X167598Y346466D01*
X167630Y346538D01*
X167706Y346771D01*
X167760Y347011D01*
X167792Y347255D01*
X167803Y347500D01*
X167792Y347745D01*
X167760Y347989D01*
X167706Y348229D01*
X167632Y348463D01*
X167600Y348535D01*
X167556Y348600D01*
X167503Y348659D01*
X167441Y348708D01*
X167372Y348746D01*
X167298Y348774D01*
X167230Y348788D01*
Y384843D01*
G37*
G36*
Y207677D02*X165001D01*
Y300345D01*
X165159Y300159D01*
X165554Y299822D01*
X165997Y299551D01*
X166477Y299352D01*
X166982Y299231D01*
X167230Y299211D01*
Y298748D01*
X167220Y298748D01*
X167067Y298711D01*
X166922Y298651D01*
X166787Y298569D01*
X166668Y298466D01*
X166565Y298347D01*
X166483Y298212D01*
X166423Y298067D01*
X166386Y297914D01*
X166377Y297757D01*
X166386Y292086D01*
X166423Y291933D01*
X166483Y291788D01*
X166565Y291653D01*
X166668Y291534D01*
X166787Y291431D01*
X166922Y291349D01*
X167067Y291289D01*
X167220Y291252D01*
X167230Y291252D01*
Y207677D01*
G37*
G36*
X165001Y384843D02*X167230D01*
Y348788D01*
X167221Y348790D01*
X167142Y348793D01*
X167063Y348784D01*
X166987Y348763D01*
X166915Y348730D01*
X166850Y348686D01*
X166791Y348633D01*
X166742Y348571D01*
X166704Y348502D01*
X166676Y348428D01*
X166660Y348351D01*
X166657Y348272D01*
X166666Y348193D01*
X166689Y348118D01*
X166738Y347968D01*
X166772Y347814D01*
X166793Y347658D01*
X166800Y347500D01*
X166793Y347342D01*
X166772Y347186D01*
X166738Y347032D01*
X166690Y346882D01*
X166668Y346806D01*
X166659Y346728D01*
X166662Y346650D01*
X166678Y346573D01*
X166705Y346499D01*
X166744Y346430D01*
X166793Y346369D01*
X166851Y346315D01*
X166916Y346272D01*
X166988Y346239D01*
X167064Y346218D01*
X167142Y346209D01*
X167220Y346212D01*
X167230Y346214D01*
Y305789D01*
X167053Y305775D01*
X166470Y306359D01*
X166419Y306419D01*
X166179Y306623D01*
X166179Y306623D01*
X165911Y306788D01*
X165620Y306908D01*
X165314Y306981D01*
X165001Y307006D01*
Y344697D01*
X165245Y344708D01*
X165489Y344740D01*
X165729Y344794D01*
X165963Y344868D01*
X166035Y344900D01*
X166100Y344944D01*
X166159Y344997D01*
X166208Y345059D01*
X166246Y345128D01*
X166274Y345202D01*
X166290Y345279D01*
X166293Y345358D01*
X166284Y345437D01*
X166263Y345513D01*
X166230Y345585D01*
X166186Y345650D01*
X166133Y345709D01*
X166071Y345758D01*
X166002Y345796D01*
X165928Y345824D01*
X165851Y345840D01*
X165772Y345843D01*
X165693Y345834D01*
X165618Y345811D01*
X165468Y345762D01*
X165314Y345728D01*
X165158Y345707D01*
X165001Y345700D01*
Y349300D01*
X165158Y349293D01*
X165314Y349272D01*
X165468Y349238D01*
X165618Y349190D01*
X165694Y349168D01*
X165772Y349159D01*
X165850Y349162D01*
X165927Y349178D01*
X166001Y349205D01*
X166070Y349244D01*
X166131Y349293D01*
X166185Y349351D01*
X166228Y349416D01*
X166261Y349488D01*
X166282Y349564D01*
X166291Y349642D01*
X166288Y349720D01*
X166272Y349798D01*
X166245Y349871D01*
X166206Y349940D01*
X166157Y350002D01*
X166099Y350055D01*
X166034Y350098D01*
X165962Y350130D01*
X165729Y350206D01*
X165489Y350260D01*
X165245Y350292D01*
X165001Y350303D01*
Y384843D01*
G37*
G36*
Y207677D02*X160172D01*
Y298353D01*
X160222Y298367D01*
X160294Y298401D01*
X160359Y298444D01*
X160417Y298498D01*
X160465Y298560D01*
X160502Y298630D01*
X160622Y298920D01*
X160711Y299221D01*
X160770Y299530D01*
X160800Y299843D01*
Y300157D01*
X160770Y300470D01*
X160711Y300779D01*
X160622Y301080D01*
X160505Y301372D01*
X160467Y301441D01*
X160419Y301504D01*
X160361Y301558D01*
X160295Y301602D01*
X160223Y301635D01*
X160172Y301650D01*
Y303000D01*
X164172D01*
X164225Y302947D01*
X164190Y302500D01*
X164231Y301982D01*
X164352Y301477D01*
X164551Y300997D01*
X164822Y300554D01*
X165001Y300345D01*
Y207677D01*
G37*
G36*
X160172D02*X155265D01*
Y291252D01*
X155280Y291252D01*
X155433Y291289D01*
X155578Y291349D01*
X155713Y291431D01*
X155832Y291534D01*
X155935Y291653D01*
X156017Y291788D01*
X156077Y291933D01*
X156114Y292086D01*
X156123Y292243D01*
X156116Y296495D01*
X156481Y296860D01*
X156721Y296789D01*
X157030Y296730D01*
X157343Y296700D01*
X157657D01*
X157970Y296730D01*
X158279Y296789D01*
X158580Y296878D01*
X158872Y296995D01*
X158941Y297033D01*
X159004Y297081D01*
X159058Y297139D01*
X159102Y297205D01*
X159135Y297277D01*
X159157Y297353D01*
X159166Y297431D01*
X159164Y297510D01*
X159149Y297588D01*
X159121Y297662D01*
X159083Y297731D01*
X159034Y297794D01*
X158976Y297848D01*
X158911Y297892D01*
X158839Y297925D01*
X158763Y297947D01*
X158684Y297957D01*
X158605Y297954D01*
X158528Y297939D01*
X158454Y297910D01*
X158252Y297826D01*
X158042Y297765D01*
X157827Y297723D01*
X157609Y297703D01*
X157391D01*
X157330Y297708D01*
X158561Y298939D01*
X158717Y299116D01*
X158841Y299317D01*
X158931Y299535D01*
X158986Y299765D01*
X159005Y300000D01*
X158986Y300235D01*
X158931Y300465D01*
X158841Y300683D01*
X158717Y300884D01*
X158564Y301064D01*
X158384Y301217D01*
X158183Y301341D01*
X157965Y301431D01*
X157735Y301486D01*
X157500Y301505D01*
X157265Y301486D01*
X157035Y301431D01*
X156817Y301341D01*
X156616Y301217D01*
X156439Y301061D01*
X155265Y299886D01*
Y300542D01*
X155265Y300542D01*
X155326Y300752D01*
X155408Y300955D01*
X155436Y301028D01*
X155451Y301106D01*
X155454Y301184D01*
X155444Y301262D01*
X155423Y301338D01*
X155390Y301409D01*
X155346Y301475D01*
X155292Y301532D01*
X155265Y301554D01*
Y303000D01*
X156118D01*
X156059Y302967D01*
X155996Y302919D01*
X155942Y302861D01*
X155898Y302795D01*
X155865Y302723D01*
X155843Y302647D01*
X155834Y302569D01*
X155836Y302490D01*
X155851Y302412D01*
X155879Y302338D01*
X155917Y302269D01*
X155966Y302206D01*
X156024Y302152D01*
X156089Y302108D01*
X156161Y302075D01*
X156237Y302053D01*
X156316Y302043D01*
X156395Y302046D01*
X156472Y302061D01*
X156546Y302090D01*
X156748Y302174D01*
X156958Y302235D01*
X157173Y302277D01*
X157391Y302297D01*
X157609D01*
X157827Y302277D01*
X158042Y302235D01*
X158252Y302174D01*
X158455Y302092D01*
X158528Y302064D01*
X158606Y302049D01*
X158684Y302046D01*
X158762Y302056D01*
X158838Y302077D01*
X158909Y302110D01*
X158975Y302154D01*
X159032Y302208D01*
X159081Y302270D01*
X159119Y302339D01*
X159146Y302413D01*
X159161Y302490D01*
X159164Y302569D01*
X159154Y302647D01*
X159133Y302722D01*
X159099Y302794D01*
X159056Y302859D01*
X159002Y302917D01*
X158940Y302965D01*
X158874Y303000D01*
X160172D01*
Y301650D01*
X160147Y301657D01*
X160069Y301666D01*
X159990Y301664D01*
X159912Y301649D01*
X159838Y301621D01*
X159769Y301583D01*
X159706Y301534D01*
X159652Y301476D01*
X159608Y301411D01*
X159575Y301339D01*
X159553Y301263D01*
X159543Y301184D01*
X159546Y301105D01*
X159561Y301028D01*
X159590Y300954D01*
X159674Y300752D01*
X159735Y300542D01*
X159777Y300327D01*
X159797Y300109D01*
Y299891D01*
X159777Y299673D01*
X159735Y299458D01*
X159674Y299248D01*
X159592Y299045D01*
X159564Y298972D01*
X159549Y298894D01*
X159546Y298816D01*
X159556Y298738D01*
X159577Y298662D01*
X159610Y298591D01*
X159654Y298525D01*
X159708Y298468D01*
X159770Y298419D01*
X159839Y298381D01*
X159913Y298354D01*
X159990Y298339D01*
X160069Y298336D01*
X160147Y298346D01*
X160172Y298353D01*
Y207677D01*
G37*
G36*
X162770Y384843D02*X165001D01*
Y350303D01*
X165000Y350303D01*
X164755Y350292D01*
X164511Y350260D01*
X164271Y350206D01*
X164037Y350132D01*
X163965Y350100D01*
X163900Y350056D01*
X163841Y350003D01*
X163792Y349941D01*
X163754Y349872D01*
X163726Y349798D01*
X163710Y349721D01*
X163707Y349642D01*
X163716Y349563D01*
X163737Y349487D01*
X163770Y349415D01*
X163814Y349350D01*
X163867Y349291D01*
X163929Y349242D01*
X163998Y349204D01*
X164072Y349176D01*
X164149Y349160D01*
X164228Y349157D01*
X164307Y349166D01*
X164382Y349189D01*
X164532Y349238D01*
X164686Y349272D01*
X164842Y349293D01*
X165000Y349300D01*
X165001Y349300D01*
Y345700D01*
X165000Y345700D01*
X164842Y345707D01*
X164686Y345728D01*
X164532Y345762D01*
X164382Y345810D01*
X164306Y345832D01*
X164228Y345841D01*
X164150Y345838D01*
X164073Y345822D01*
X163999Y345795D01*
X163930Y345756D01*
X163869Y345707D01*
X163815Y345649D01*
X163772Y345584D01*
X163739Y345512D01*
X163718Y345436D01*
X163709Y345358D01*
X163712Y345280D01*
X163728Y345202D01*
X163755Y345129D01*
X163794Y345060D01*
X163843Y344998D01*
X163901Y344945D01*
X163966Y344902D01*
X164038Y344870D01*
X164271Y344794D01*
X164511Y344740D01*
X164755Y344708D01*
X165000Y344697D01*
X165001Y344697D01*
Y307006D01*
X165000Y307006D01*
X164922Y307000D01*
X162770D01*
Y346212D01*
X162779Y346210D01*
X162858Y346207D01*
X162937Y346216D01*
X163013Y346237D01*
X163085Y346270D01*
X163150Y346314D01*
X163209Y346367D01*
X163258Y346429D01*
X163296Y346498D01*
X163324Y346572D01*
X163340Y346649D01*
X163343Y346728D01*
X163334Y346807D01*
X163311Y346882D01*
X163262Y347032D01*
X163228Y347186D01*
X163207Y347342D01*
X163200Y347500D01*
X163207Y347658D01*
X163228Y347814D01*
X163262Y347968D01*
X163310Y348118D01*
X163332Y348194D01*
X163341Y348272D01*
X163338Y348350D01*
X163322Y348427D01*
X163295Y348501D01*
X163256Y348570D01*
X163207Y348631D01*
X163149Y348685D01*
X163084Y348728D01*
X163012Y348761D01*
X162936Y348782D01*
X162858Y348791D01*
X162780Y348788D01*
X162770Y348786D01*
Y384843D01*
G37*
G36*
X155265D02*X162770D01*
Y348786D01*
X162702Y348772D01*
X162629Y348745D01*
X162560Y348706D01*
X162498Y348657D01*
X162445Y348599D01*
X162402Y348534D01*
X162370Y348462D01*
X162294Y348229D01*
X162240Y347989D01*
X162208Y347745D01*
X162197Y347500D01*
X162208Y347255D01*
X162240Y347011D01*
X162294Y346771D01*
X162368Y346537D01*
X162400Y346465D01*
X162444Y346400D01*
X162497Y346341D01*
X162559Y346292D01*
X162628Y346254D01*
X162702Y346226D01*
X162770Y346212D01*
Y307000D01*
X155265D01*
Y357022D01*
X155274Y357061D01*
X155300Y357500D01*
X155274Y357939D01*
X155265Y357978D01*
Y384843D01*
G37*
G36*
Y299886D02*X155208Y299830D01*
X155203Y299891D01*
Y300109D01*
X155223Y300327D01*
X155265Y300542D01*
Y299886D01*
G37*
G36*
X147501Y356000D02*X150135D01*
X150228Y355849D01*
X150514Y355514D01*
X150849Y355228D01*
X151225Y354997D01*
X151632Y354829D01*
X152061Y354726D01*
X152500Y354691D01*
X152939Y354726D01*
X153368Y354829D01*
X153775Y354997D01*
X154151Y355228D01*
X154486Y355514D01*
X154772Y355849D01*
X155003Y356225D01*
X155171Y356632D01*
X155265Y357022D01*
Y307000D01*
X147501D01*
Y356000D01*
G37*
G36*
X155265Y207677D02*X149730D01*
Y233300D01*
X149772Y233349D01*
X150003Y233725D01*
X150171Y234132D01*
X150274Y234561D01*
X150300Y235000D01*
X150274Y235439D01*
X150171Y235868D01*
X150003Y236275D01*
X149772Y236651D01*
X149730Y236700D01*
Y241033D01*
X149798Y241047D01*
X149871Y241074D01*
X149940Y241113D01*
X150002Y241162D01*
X150055Y241220D01*
X150098Y241285D01*
X150130Y241357D01*
X150206Y241590D01*
X150260Y241830D01*
X150292Y242074D01*
X150303Y242319D01*
X150292Y242564D01*
X150260Y242808D01*
X150206Y243047D01*
X150132Y243282D01*
X150100Y243354D01*
X150056Y243419D01*
X150003Y243477D01*
X149941Y243527D01*
X149872Y243565D01*
X149798Y243593D01*
X149730Y243607D01*
Y303000D01*
X155265D01*
Y301554D01*
X155230Y301581D01*
X155161Y301619D01*
X155087Y301646D01*
X155010Y301661D01*
X154931Y301664D01*
X154853Y301654D01*
X154778Y301633D01*
X154706Y301599D01*
X154641Y301556D01*
X154583Y301502D01*
X154535Y301440D01*
X154498Y301370D01*
X154378Y301080D01*
X154289Y300779D01*
X154230Y300470D01*
X154200Y300157D01*
Y299843D01*
X154230Y299530D01*
X154289Y299221D01*
X154360Y298981D01*
X154133Y298754D01*
X152206Y298748D01*
X152053Y298711D01*
X151908Y298651D01*
X151773Y298569D01*
X151654Y298466D01*
X151551Y298347D01*
X151469Y298212D01*
X151409Y298067D01*
X151372Y297914D01*
X151363Y297757D01*
X151372Y292086D01*
X151409Y291933D01*
X151469Y291788D01*
X151551Y291653D01*
X151654Y291534D01*
X151773Y291431D01*
X151908Y291349D01*
X152053Y291289D01*
X152206Y291252D01*
X152363Y291243D01*
X155265Y291252D01*
Y207677D01*
G37*
G36*
X149730Y236700D02*X149486Y236986D01*
X149151Y237272D01*
X148775Y237503D01*
X148368Y237671D01*
X147939Y237774D01*
X147501Y237809D01*
Y239516D01*
X147745Y239527D01*
X147989Y239559D01*
X148229Y239613D01*
X148463Y239687D01*
X148535Y239719D01*
X148600Y239763D01*
X148659Y239816D01*
X148708Y239878D01*
X148746Y239947D01*
X148774Y240021D01*
X148790Y240098D01*
X148793Y240177D01*
X148784Y240256D01*
X148763Y240332D01*
X148730Y240404D01*
X148686Y240469D01*
X148633Y240527D01*
X148571Y240576D01*
X148502Y240615D01*
X148428Y240643D01*
X148351Y240658D01*
X148272Y240662D01*
X148193Y240653D01*
X148118Y240630D01*
X147968Y240581D01*
X147814Y240546D01*
X147658Y240526D01*
X147501Y240519D01*
Y244119D01*
X147658Y244112D01*
X147814Y244091D01*
X147968Y244057D01*
X148118Y244009D01*
X148194Y243987D01*
X148272Y243978D01*
X148350Y243981D01*
X148427Y243997D01*
X148501Y244024D01*
X148570Y244063D01*
X148631Y244112D01*
X148685Y244170D01*
X148728Y244235D01*
X148761Y244307D01*
X148782Y244383D01*
X148791Y244461D01*
X148788Y244539D01*
X148772Y244616D01*
X148745Y244690D01*
X148706Y244759D01*
X148657Y244820D01*
X148599Y244874D01*
X148534Y244917D01*
X148462Y244949D01*
X148229Y245025D01*
X147989Y245079D01*
X147745Y245111D01*
X147501Y245122D01*
Y291251D01*
X147794Y291252D01*
X147947Y291289D01*
X148092Y291349D01*
X148227Y291431D01*
X148346Y291534D01*
X148449Y291653D01*
X148531Y291788D01*
X148591Y291933D01*
X148628Y292086D01*
X148637Y292243D01*
X148628Y297914D01*
X148591Y298067D01*
X148531Y298212D01*
X148449Y298347D01*
X148346Y298466D01*
X148227Y298569D01*
X148092Y298651D01*
X147947Y298711D01*
X147794Y298748D01*
X147761Y298750D01*
X147743Y298978D01*
X147688Y299208D01*
X147598Y299426D01*
X147501Y299584D01*
Y303000D01*
X149730D01*
Y243607D01*
X149721Y243609D01*
X149642Y243612D01*
X149563Y243603D01*
X149487Y243582D01*
X149415Y243549D01*
X149350Y243505D01*
X149291Y243452D01*
X149242Y243390D01*
X149204Y243321D01*
X149176Y243247D01*
X149160Y243169D01*
X149157Y243091D01*
X149166Y243012D01*
X149189Y242937D01*
X149238Y242787D01*
X149272Y242633D01*
X149293Y242476D01*
X149300Y242319D01*
X149293Y242161D01*
X149272Y242005D01*
X149238Y241851D01*
X149190Y241701D01*
X149168Y241625D01*
X149159Y241547D01*
X149162Y241469D01*
X149178Y241391D01*
X149205Y241318D01*
X149244Y241249D01*
X149293Y241187D01*
X149351Y241134D01*
X149416Y241091D01*
X149488Y241058D01*
X149564Y241037D01*
X149642Y241028D01*
X149720Y241031D01*
X149730Y241033D01*
Y236700D01*
G37*
G36*
Y207677D02*X147501D01*
Y232191D01*
X147939Y232226D01*
X148368Y232329D01*
X148775Y232497D01*
X149151Y232728D01*
X149486Y233014D01*
X149730Y233300D01*
Y207677D01*
G37*
G36*
X147501Y299584D02*X147474Y299627D01*
X147321Y299807D01*
X147276Y299845D01*
X145647Y301474D01*
X145648Y301477D01*
X145769Y301982D01*
X145800Y302500D01*
X145774Y302945D01*
X145828Y303000D01*
X147501D01*
Y299584D01*
G37*
G36*
X145270Y356000D02*X147501D01*
Y307000D01*
X145270D01*
Y356000D01*
G37*
G36*
X147501Y237809D02*X147500Y237809D01*
X147061Y237774D01*
X146632Y237671D01*
X146225Y237503D01*
X145849Y237272D01*
X145514Y236986D01*
X145270Y236700D01*
Y241031D01*
X145279Y241029D01*
X145358Y241026D01*
X145437Y241035D01*
X145513Y241056D01*
X145585Y241089D01*
X145650Y241133D01*
X145709Y241186D01*
X145758Y241248D01*
X145796Y241317D01*
X145824Y241391D01*
X145840Y241468D01*
X145843Y241547D01*
X145834Y241626D01*
X145811Y241701D01*
X145762Y241851D01*
X145728Y242005D01*
X145707Y242161D01*
X145700Y242319D01*
X145707Y242476D01*
X145728Y242633D01*
X145762Y242787D01*
X145810Y242937D01*
X145832Y243012D01*
X145841Y243091D01*
X145838Y243169D01*
X145822Y243246D01*
X145795Y243320D01*
X145756Y243389D01*
X145707Y243450D01*
X145649Y243504D01*
X145584Y243547D01*
X145512Y243580D01*
X145436Y243601D01*
X145358Y243610D01*
X145280Y243607D01*
X145270Y243605D01*
Y291244D01*
X147501Y291251D01*
Y245122D01*
X147500Y245122D01*
X147255Y245111D01*
X147011Y245079D01*
X146771Y245025D01*
X146537Y244951D01*
X146465Y244919D01*
X146400Y244875D01*
X146341Y244822D01*
X146292Y244760D01*
X146254Y244691D01*
X146226Y244617D01*
X146210Y244540D01*
X146207Y244461D01*
X146216Y244382D01*
X146237Y244306D01*
X146270Y244234D01*
X146314Y244169D01*
X146367Y244110D01*
X146429Y244061D01*
X146498Y244023D01*
X146572Y243995D01*
X146649Y243979D01*
X146728Y243976D01*
X146807Y243985D01*
X146882Y244008D01*
X147032Y244057D01*
X147186Y244091D01*
X147342Y244112D01*
X147500Y244119D01*
X147501Y244119D01*
Y240519D01*
X147500Y240519D01*
X147342Y240526D01*
X147186Y240546D01*
X147032Y240581D01*
X146882Y240628D01*
X146806Y240651D01*
X146728Y240660D01*
X146650Y240657D01*
X146573Y240641D01*
X146499Y240614D01*
X146430Y240575D01*
X146369Y240526D01*
X146315Y240468D01*
X146272Y240403D01*
X146239Y240331D01*
X146218Y240255D01*
X146209Y240177D01*
X146212Y240098D01*
X146228Y240021D01*
X146255Y239948D01*
X146294Y239879D01*
X146343Y239817D01*
X146401Y239764D01*
X146466Y239721D01*
X146538Y239689D01*
X146771Y239613D01*
X147011Y239559D01*
X147255Y239527D01*
X147500Y239516D01*
X147501Y239516D01*
Y237809D01*
G37*
G36*
X145270Y236700D02*X145228Y236651D01*
X145135Y236500D01*
X134398D01*
Y291541D01*
X134458Y291794D01*
X134500Y292500D01*
X134458Y293206D01*
X134398Y293459D01*
Y301539D01*
X134422Y301637D01*
X134484Y302067D01*
X134505Y302500D01*
X134484Y302933D01*
X134422Y303363D01*
X134398Y303461D01*
Y311541D01*
X134458Y311794D01*
X134500Y312500D01*
X134458Y313206D01*
X134398Y313459D01*
Y356000D01*
X145270D01*
Y307000D01*
X145078D01*
X145000Y307006D01*
X144686Y306981D01*
X144380Y306908D01*
X144089Y306788D01*
X143821Y306623D01*
X143821Y306623D01*
X143581Y306419D01*
X143530Y306359D01*
X142947Y305775D01*
X142500Y305810D01*
X141982Y305769D01*
X141477Y305648D01*
X140997Y305449D01*
X140554Y305178D01*
X140159Y304841D01*
X139822Y304446D01*
X139551Y304003D01*
X139352Y303523D01*
X139231Y303018D01*
X139190Y302500D01*
X139231Y301982D01*
X139352Y301477D01*
X139551Y300997D01*
X139822Y300554D01*
X140159Y300159D01*
X140554Y299822D01*
X140997Y299551D01*
X141477Y299352D01*
X141982Y299231D01*
X142500Y299190D01*
X143018Y299231D01*
X143523Y299352D01*
X143526Y299353D01*
X144302Y298577D01*
X144287Y298569D01*
X144168Y298466D01*
X144065Y298347D01*
X143983Y298212D01*
X143923Y298067D01*
X143886Y297914D01*
X143877Y297757D01*
X143886Y292086D01*
X143923Y291933D01*
X143983Y291788D01*
X144065Y291653D01*
X144168Y291534D01*
X144287Y291431D01*
X144422Y291349D01*
X144567Y291289D01*
X144720Y291252D01*
X144877Y291243D01*
X145270Y291244D01*
Y243605D01*
X145202Y243591D01*
X145129Y243564D01*
X145060Y243525D01*
X144998Y243476D01*
X144945Y243418D01*
X144902Y243353D01*
X144870Y243281D01*
X144794Y243047D01*
X144740Y242808D01*
X144708Y242564D01*
X144697Y242319D01*
X144708Y242074D01*
X144740Y241830D01*
X144794Y241590D01*
X144868Y241356D01*
X144900Y241284D01*
X144944Y241218D01*
X144997Y241160D01*
X145059Y241111D01*
X145128Y241072D01*
X145202Y241045D01*
X145270Y241031D01*
Y236700D01*
G37*
G36*
X147501Y207677D02*X134398D01*
Y233500D01*
X145135D01*
X145228Y233349D01*
X145514Y233014D01*
X145849Y232728D01*
X146225Y232497D01*
X146632Y232329D01*
X147061Y232226D01*
X147500Y232191D01*
X147501Y232191D01*
Y207677D01*
G37*
G36*
X134398Y384843D02*X155265D01*
Y357978D01*
X155171Y358368D01*
X155003Y358775D01*
X154772Y359151D01*
X154486Y359486D01*
X154151Y359772D01*
X153775Y360003D01*
X153368Y360171D01*
X152939Y360274D01*
X152500Y360309D01*
X152061Y360274D01*
X151632Y360171D01*
X151225Y360003D01*
X150849Y359772D01*
X150514Y359486D01*
X150228Y359151D01*
X150135Y359000D01*
X134398D01*
Y384843D01*
G37*
G36*
X132275Y301000D02*X132366D01*
X132602Y301014D01*
X132725Y301044D01*
X132725Y301026D01*
X132745Y300909D01*
X132782Y300797D01*
X132836Y300693D01*
X132906Y300598D01*
X132991Y300515D01*
X133087Y300446D01*
X133192Y300393D01*
X133305Y300357D01*
X133421Y300340D01*
X133539Y300341D01*
X133656Y300360D01*
X133768Y300397D01*
X133873Y300452D01*
X133968Y300522D01*
X134051Y300606D01*
X134119Y300702D01*
X134170Y300808D01*
X134318Y301216D01*
X134398Y301539D01*
Y293459D01*
X134293Y293895D01*
X134022Y294549D01*
X133652Y295153D01*
X133192Y295692D01*
X132653Y296152D01*
X132275Y296384D01*
Y301000D01*
G37*
G36*
Y308616D02*X132653Y308848D01*
X133192Y309308D01*
X133652Y309847D01*
X134022Y310451D01*
X134293Y311105D01*
X134398Y311541D01*
Y303461D01*
X134318Y303784D01*
X134175Y304194D01*
X134122Y304300D01*
X134053Y304396D01*
X133970Y304481D01*
X133875Y304551D01*
X133769Y304606D01*
X133657Y304643D01*
X133540Y304663D01*
X133421Y304664D01*
X133304Y304646D01*
X133191Y304610D01*
X133085Y304557D01*
X132988Y304488D01*
X132904Y304405D01*
X132833Y304309D01*
X132779Y304204D01*
X132741Y304092D01*
X132722Y303975D01*
X132722Y303957D01*
X132602Y303986D01*
X132366Y304000D01*
X132275D01*
Y308616D01*
G37*
G36*
Y356000D02*X134398D01*
Y313459D01*
X134293Y313895D01*
X134022Y314549D01*
X133652Y315153D01*
X133192Y315692D01*
X132653Y316152D01*
X132275Y316384D01*
Y335606D01*
X132639Y336200D01*
X132985Y337037D01*
X133197Y337917D01*
X133250Y338819D01*
X133197Y339721D01*
X132985Y340601D01*
X132639Y341437D01*
X132275Y342032D01*
Y345834D01*
X132428Y345846D01*
X132577Y345882D01*
X132719Y345940D01*
X132850Y346021D01*
X132967Y346120D01*
X133066Y346237D01*
X133146Y346368D01*
X133205Y346510D01*
X133241Y346659D01*
X133250Y346812D01*
Y350512D01*
X133241Y350665D01*
X133205Y350814D01*
X133146Y350956D01*
X133066Y351087D01*
X132967Y351203D01*
X132850Y351303D01*
X132719Y351383D01*
X132577Y351442D01*
X132428Y351478D01*
X132275Y351490D01*
Y356000D01*
G37*
G36*
X134398Y236500D02*X132275D01*
Y238263D01*
X132639Y238857D01*
X132985Y239694D01*
X133197Y240574D01*
X133250Y241476D01*
X133197Y242378D01*
X132985Y243258D01*
X132639Y244094D01*
X132275Y244689D01*
Y248491D01*
X132428Y248503D01*
X132577Y248539D01*
X132719Y248598D01*
X132850Y248678D01*
X132967Y248777D01*
X133066Y248894D01*
X133146Y249025D01*
X133205Y249167D01*
X133241Y249316D01*
X133250Y249469D01*
Y253169D01*
X133241Y253322D01*
X133205Y253471D01*
X133146Y253613D01*
X133066Y253744D01*
X132967Y253861D01*
X132850Y253960D01*
X132719Y254040D01*
X132577Y254099D01*
X132428Y254135D01*
X132275Y254147D01*
Y288616D01*
X132653Y288848D01*
X133192Y289308D01*
X133652Y289847D01*
X134022Y290451D01*
X134293Y291105D01*
X134398Y291541D01*
Y236500D01*
G37*
G36*
X130002Y301000D02*X132275D01*
Y296384D01*
X132049Y296522D01*
X131395Y296793D01*
X130706Y296958D01*
X130002Y297014D01*
Y297995D01*
X130433Y298016D01*
X130863Y298078D01*
X131284Y298182D01*
X131694Y298325D01*
X131800Y298378D01*
X131896Y298447D01*
X131981Y298530D01*
X132051Y298625D01*
X132106Y298731D01*
X132143Y298843D01*
X132163Y298960D01*
X132164Y299079D01*
X132146Y299196D01*
X132110Y299309D01*
X132057Y299415D01*
X131988Y299512D01*
X131905Y299596D01*
X131809Y299667D01*
X131704Y299721D01*
X131592Y299759D01*
X131475Y299778D01*
X131356Y299779D01*
X131239Y299761D01*
X131126Y299723D01*
X130855Y299624D01*
X130575Y299556D01*
X130289Y299514D01*
X130002Y299500D01*
Y301000D01*
G37*
G36*
Y307986D02*X130706Y308042D01*
X131395Y308207D01*
X132049Y308478D01*
X132275Y308616D01*
Y304000D01*
X130002D01*
Y305500D01*
X130289Y305486D01*
X130575Y305444D01*
X130855Y305376D01*
X131128Y305280D01*
X131239Y305242D01*
X131356Y305225D01*
X131474Y305225D01*
X131591Y305245D01*
X131703Y305282D01*
X131807Y305336D01*
X131902Y305406D01*
X131985Y305491D01*
X132054Y305587D01*
X132107Y305692D01*
X132143Y305805D01*
X132160Y305921D01*
X132159Y306039D01*
X132140Y306156D01*
X132103Y306268D01*
X132048Y306373D01*
X131978Y306468D01*
X131894Y306551D01*
X131798Y306619D01*
X131692Y306670D01*
X131284Y306818D01*
X130863Y306922D01*
X130433Y306984D01*
X130002Y307005D01*
Y307986D01*
G37*
G36*
X127500Y308754D02*X127951Y308478D01*
X128605Y308207D01*
X129294Y308042D01*
X130000Y307986D01*
X130002Y307986D01*
Y307005D01*
X130000Y307005D01*
X129567Y306984D01*
X129137Y306922D01*
X128716Y306818D01*
X128306Y306675D01*
X128200Y306622D01*
X128104Y306553D01*
X128019Y306470D01*
X127949Y306375D01*
X127894Y306269D01*
X127857Y306157D01*
X127837Y306040D01*
X127836Y305921D01*
X127854Y305804D01*
X127890Y305691D01*
X127943Y305585D01*
X128012Y305488D01*
X128095Y305404D01*
X128191Y305333D01*
X128296Y305279D01*
X128408Y305241D01*
X128525Y305222D01*
X128644Y305221D01*
X128761Y305239D01*
X128874Y305277D01*
X129145Y305376D01*
X129425Y305444D01*
X129711Y305486D01*
X130000Y305500D01*
X130002Y305500D01*
Y304000D01*
X130000D01*
X129765Y303986D01*
X129535Y303931D01*
X129317Y303841D01*
X129116Y303717D01*
X128936Y303564D01*
X128783Y303384D01*
X128659Y303183D01*
X128569Y302965D01*
X128514Y302735D01*
X128495Y302500D01*
X128514Y302265D01*
X128569Y302035D01*
X128659Y301817D01*
X128783Y301616D01*
X128936Y301436D01*
X129116Y301283D01*
X129317Y301159D01*
X129535Y301069D01*
X129765Y301014D01*
X130000Y301000D01*
X130002D01*
Y299500D01*
X130000Y299500D01*
X129711Y299514D01*
X129425Y299556D01*
X129145Y299624D01*
X128872Y299720D01*
X128761Y299758D01*
X128644Y299775D01*
X128526Y299775D01*
X128409Y299755D01*
X128297Y299718D01*
X128193Y299664D01*
X128098Y299594D01*
X128015Y299509D01*
X127946Y299413D01*
X127893Y299308D01*
X127857Y299195D01*
X127840Y299079D01*
X127841Y298961D01*
X127860Y298844D01*
X127897Y298732D01*
X127952Y298627D01*
X128022Y298532D01*
X128106Y298449D01*
X128202Y298381D01*
X128308Y298330D01*
X128716Y298182D01*
X129137Y298078D01*
X129567Y298016D01*
X130000Y297995D01*
X130002Y297995D01*
Y297014D01*
X130000Y297014D01*
X129294Y296958D01*
X128605Y296793D01*
X127951Y296522D01*
X127500Y296246D01*
Y308754D01*
G37*
G36*
Y333051D02*X128402Y333122D01*
X129282Y333333D01*
X130118Y333680D01*
X130890Y334153D01*
X131578Y334740D01*
X132166Y335429D01*
X132275Y335606D01*
Y316384D01*
X132049Y316522D01*
X131395Y316793D01*
X130706Y316958D01*
X130000Y317014D01*
X129294Y316958D01*
X128605Y316793D01*
X127951Y316522D01*
X127500Y316246D01*
Y333051D01*
G37*
G36*
Y356000D02*X132275D01*
Y351490D01*
X132122Y351478D01*
X131973Y351442D01*
X131831Y351383D01*
X131700Y351303D01*
X131583Y351203D01*
X131484Y351087D01*
X131404Y350956D01*
X131345Y350814D01*
X131309Y350665D01*
X131300Y350512D01*
Y346812D01*
X131309Y346659D01*
X131345Y346510D01*
X131404Y346368D01*
X131484Y346237D01*
X131583Y346120D01*
X131700Y346021D01*
X131831Y345940D01*
X131973Y345882D01*
X132122Y345846D01*
X132275Y345834D01*
Y342032D01*
X132166Y342209D01*
X131578Y342897D01*
X130890Y343485D01*
X130324Y343832D01*
X130328Y343887D01*
X130316Y344040D01*
X130280Y344189D01*
X130221Y344331D01*
X130141Y344462D01*
X130042Y344578D01*
X129925Y344678D01*
X129794Y344758D01*
X129652Y344817D01*
X129503Y344853D01*
X129350Y344862D01*
X127500D01*
Y352462D01*
X129350D01*
X129503Y352471D01*
X129652Y352507D01*
X129794Y352565D01*
X129925Y352646D01*
X130042Y352745D01*
X130141Y352862D01*
X130221Y352993D01*
X130280Y353135D01*
X130316Y353284D01*
X130328Y353437D01*
X130316Y353590D01*
X130280Y353739D01*
X130221Y353881D01*
X130141Y354012D01*
X130042Y354128D01*
X129925Y354228D01*
X129794Y354308D01*
X129652Y354367D01*
X129503Y354403D01*
X129350Y354412D01*
X127500D01*
Y356000D01*
G37*
G36*
X132275Y244689D02*X132166Y244866D01*
X131578Y245554D01*
X130890Y246142D01*
X130324Y246489D01*
X130328Y246544D01*
X130316Y246697D01*
X130280Y246846D01*
X130221Y246988D01*
X130141Y247119D01*
X130042Y247236D01*
X129925Y247335D01*
X129794Y247415D01*
X129652Y247474D01*
X129503Y247510D01*
X129350Y247519D01*
X127500D01*
Y255119D01*
X129350D01*
X129503Y255128D01*
X129652Y255164D01*
X129794Y255223D01*
X129925Y255303D01*
X130042Y255402D01*
X130141Y255519D01*
X130221Y255650D01*
X130280Y255792D01*
X130316Y255941D01*
X130328Y256094D01*
X130316Y256247D01*
X130280Y256396D01*
X130221Y256538D01*
X130141Y256669D01*
X130042Y256786D01*
X129925Y256885D01*
X129794Y256965D01*
X129652Y257024D01*
X129503Y257060D01*
X129350Y257069D01*
X127500D01*
Y288754D01*
X127951Y288478D01*
X128605Y288207D01*
X129294Y288042D01*
X130000Y287986D01*
X130706Y288042D01*
X131395Y288207D01*
X132049Y288478D01*
X132275Y288616D01*
Y254147D01*
X132122Y254135D01*
X131973Y254099D01*
X131831Y254040D01*
X131700Y253960D01*
X131583Y253861D01*
X131484Y253744D01*
X131404Y253613D01*
X131345Y253471D01*
X131309Y253322D01*
X131300Y253169D01*
Y249469D01*
X131309Y249316D01*
X131345Y249167D01*
X131404Y249025D01*
X131484Y248894D01*
X131583Y248777D01*
X131700Y248678D01*
X131831Y248598D01*
X131973Y248539D01*
X132122Y248503D01*
X132275Y248491D01*
Y244689D01*
G37*
G36*
X122780Y301372D02*X122742Y301261D01*
X122725Y301147D01*
Y303830D01*
X122739Y303739D01*
X122777Y303626D01*
X122876Y303355D01*
X122944Y303075D01*
X122986Y302789D01*
X123000Y302500D01*
X122986Y302211D01*
X122944Y301925D01*
X122876Y301645D01*
X122780Y301372D01*
G37*
G36*
X122725Y356000D02*X127500D01*
Y354412D01*
X125650D01*
X125497Y354403D01*
X125348Y354367D01*
X125206Y354308D01*
X125075Y354228D01*
X124958Y354128D01*
X124859Y354012D01*
X124779Y353881D01*
X124720Y353739D01*
X124684Y353590D01*
X124672Y353437D01*
X124684Y353284D01*
X124720Y353135D01*
X124779Y352993D01*
X124859Y352862D01*
X124958Y352745D01*
X125075Y352646D01*
X125206Y352565D01*
X125348Y352507D01*
X125497Y352471D01*
X125650Y352462D01*
X127500D01*
Y344862D01*
X125650D01*
X125497Y344853D01*
X125348Y344817D01*
X125206Y344758D01*
X125075Y344678D01*
X124958Y344578D01*
X124859Y344462D01*
X124779Y344331D01*
X124720Y344189D01*
X124684Y344040D01*
X124672Y343887D01*
X124676Y343832D01*
X124110Y343485D01*
X123422Y342897D01*
X122834Y342209D01*
X122725Y342032D01*
Y345834D01*
X122878Y345846D01*
X123027Y345882D01*
X123169Y345940D01*
X123300Y346021D01*
X123417Y346120D01*
X123516Y346237D01*
X123596Y346368D01*
X123655Y346510D01*
X123691Y346659D01*
X123700Y346812D01*
Y350512D01*
X123691Y350665D01*
X123655Y350814D01*
X123596Y350956D01*
X123516Y351087D01*
X123417Y351203D01*
X123300Y351303D01*
X123169Y351383D01*
X123027Y351442D01*
X122878Y351478D01*
X122725Y351490D01*
Y356000D01*
G37*
G36*
Y238263D02*X122834Y238086D01*
X123422Y237398D01*
X124110Y236810D01*
X124615Y236500D01*
X123121D01*
X122725Y236896D01*
Y238263D01*
G37*
G36*
X126387Y289802D02*X126808Y289308D01*
X127347Y288848D01*
X127500Y288754D01*
Y257069D01*
X126387D01*
Y289802D01*
G37*
G36*
Y309802D02*X126808Y309308D01*
X127347Y308848D01*
X127500Y308754D01*
Y296246D01*
X127347Y296152D01*
X126808Y295692D01*
X126387Y295198D01*
Y300349D01*
X126460Y300337D01*
X126579Y300336D01*
X126696Y300354D01*
X126809Y300390D01*
X126915Y300443D01*
X127012Y300512D01*
X127096Y300595D01*
X127167Y300691D01*
X127221Y300796D01*
X127259Y300908D01*
X127278Y301025D01*
X127279Y301144D01*
X127261Y301261D01*
X127223Y301374D01*
X127124Y301645D01*
X127056Y301925D01*
X127014Y302211D01*
X127000Y302500D01*
X127014Y302789D01*
X127056Y303075D01*
X127124Y303355D01*
X127220Y303628D01*
X127258Y303739D01*
X127275Y303856D01*
X127275Y303974D01*
X127255Y304091D01*
X127218Y304203D01*
X127164Y304307D01*
X127094Y304402D01*
X127009Y304485D01*
X126913Y304554D01*
X126808Y304607D01*
X126695Y304643D01*
X126579Y304660D01*
X126461Y304659D01*
X126387Y304647D01*
Y309802D01*
G37*
G36*
Y333173D02*X126598Y333122D01*
X127500Y333051D01*
Y316246D01*
X127347Y316152D01*
X126808Y315692D01*
X126387Y315198D01*
Y333173D01*
G37*
G36*
X127500Y247519D02*X126387D01*
Y255119D01*
X127500D01*
Y247519D01*
G37*
G36*
X126387D02*X125650D01*
X125497Y247510D01*
X125348Y247474D01*
X125206Y247415D01*
X125075Y247335D01*
X124958Y247236D01*
X124859Y247119D01*
X124779Y246988D01*
X124720Y246846D01*
X124684Y246697D01*
X124672Y246544D01*
X124676Y246489D01*
X124110Y246142D01*
X123422Y245554D01*
X122834Y244866D01*
X122725Y244689D01*
Y248491D01*
X122878Y248503D01*
X123027Y248539D01*
X123169Y248598D01*
X123300Y248678D01*
X123417Y248777D01*
X123516Y248894D01*
X123596Y249025D01*
X123655Y249167D01*
X123691Y249316D01*
X123700Y249469D01*
Y253169D01*
X123691Y253322D01*
X123655Y253471D01*
X123596Y253613D01*
X123516Y253744D01*
X123417Y253861D01*
X123300Y253960D01*
X123169Y254040D01*
X123027Y254099D01*
X122878Y254135D01*
X122725Y254147D01*
Y288910D01*
X123192Y289308D01*
X123652Y289847D01*
X124022Y290451D01*
X124293Y291105D01*
X124458Y291794D01*
X124500Y292500D01*
X124458Y293206D01*
X124293Y293895D01*
X124022Y294549D01*
X123652Y295153D01*
X123192Y295692D01*
X122725Y296090D01*
Y301080D01*
X122725Y301026D01*
X122745Y300909D01*
X122782Y300797D01*
X122836Y300693D01*
X122906Y300598D01*
X122991Y300515D01*
X123087Y300446D01*
X123192Y300393D01*
X123305Y300357D01*
X123421Y300340D01*
X123539Y300341D01*
X123656Y300360D01*
X123768Y300397D01*
X123873Y300452D01*
X123968Y300522D01*
X124051Y300606D01*
X124119Y300702D01*
X124170Y300808D01*
X124318Y301216D01*
X124422Y301637D01*
X124484Y302067D01*
X124505Y302500D01*
X124484Y302933D01*
X124422Y303363D01*
X124318Y303784D01*
X124175Y304194D01*
X124122Y304300D01*
X124053Y304396D01*
X123970Y304481D01*
X123875Y304551D01*
X123769Y304606D01*
X123657Y304643D01*
X123540Y304663D01*
X123421Y304664D01*
X123304Y304646D01*
X123191Y304610D01*
X123085Y304557D01*
X122988Y304488D01*
X122904Y304405D01*
X122833Y304309D01*
X122779Y304204D01*
X122741Y304092D01*
X122725Y303993D01*
Y308013D01*
X123235Y308014D01*
X123465Y308069D01*
X123683Y308159D01*
X123884Y308283D01*
X124064Y308436D01*
X124217Y308616D01*
X124341Y308817D01*
X124431Y309035D01*
X124486Y309265D01*
X124500Y309500D01*
X124486Y315735D01*
X124431Y315965D01*
X124341Y316183D01*
X124217Y316384D01*
X124064Y316564D01*
X123884Y316717D01*
X123683Y316841D01*
X123465Y316931D01*
X123235Y316986D01*
X123000Y317000D01*
X122725Y316999D01*
Y335606D01*
X122834Y335429D01*
X123422Y334740D01*
X124110Y334153D01*
X124882Y333680D01*
X125718Y333333D01*
X126387Y333173D01*
Y315198D01*
X126348Y315153D01*
X125978Y314549D01*
X125707Y313895D01*
X125542Y313206D01*
X125486Y312500D01*
X125542Y311794D01*
X125707Y311105D01*
X125978Y310451D01*
X126348Y309847D01*
X126387Y309802D01*
Y304647D01*
X126344Y304640D01*
X126232Y304603D01*
X126127Y304548D01*
X126032Y304478D01*
X125949Y304394D01*
X125881Y304298D01*
X125830Y304192D01*
X125682Y303784D01*
X125578Y303363D01*
X125516Y302933D01*
X125495Y302500D01*
X125516Y302067D01*
X125578Y301637D01*
X125682Y301216D01*
X125825Y300806D01*
X125878Y300700D01*
X125947Y300604D01*
X126030Y300519D01*
X126125Y300449D01*
X126231Y300394D01*
X126343Y300357D01*
X126387Y300349D01*
Y295198D01*
X126348Y295153D01*
X125978Y294549D01*
X125707Y293895D01*
X125542Y293206D01*
X125486Y292500D01*
X125542Y291794D01*
X125707Y291105D01*
X125978Y290451D01*
X126348Y289847D01*
X126387Y289802D01*
Y257069D01*
X125650D01*
X125497Y257060D01*
X125348Y257024D01*
X125206Y256965D01*
X125075Y256885D01*
X124958Y256786D01*
X124859Y256669D01*
X124779Y256538D01*
X124720Y256396D01*
X124684Y256247D01*
X124672Y256094D01*
X124684Y255941D01*
X124720Y255792D01*
X124779Y255650D01*
X124859Y255519D01*
X124958Y255402D01*
X125075Y255303D01*
X125206Y255223D01*
X125348Y255164D01*
X125497Y255128D01*
X125650Y255119D01*
X126387D01*
Y247519D01*
G37*
G36*
X122725Y316999D02*X116765Y316986D01*
X116535Y316931D01*
X116500Y316916D01*
Y351879D01*
X120621Y356000D01*
X122725D01*
Y351490D01*
X122572Y351478D01*
X122423Y351442D01*
X122281Y351383D01*
X122150Y351303D01*
X122033Y351203D01*
X121934Y351087D01*
X121854Y350956D01*
X121795Y350814D01*
X121759Y350665D01*
X121750Y350512D01*
Y346812D01*
X121759Y346659D01*
X121795Y346510D01*
X121854Y346368D01*
X121934Y346237D01*
X122033Y346120D01*
X122150Y346021D01*
X122281Y345940D01*
X122423Y345882D01*
X122572Y345846D01*
X122725Y345834D01*
Y342032D01*
X122361Y341437D01*
X122015Y340601D01*
X121803Y339721D01*
X121732Y338819D01*
X121803Y337917D01*
X122015Y337037D01*
X122361Y336200D01*
X122725Y335606D01*
Y316999D01*
G37*
G36*
Y296090D02*X122653Y296152D01*
X122049Y296522D01*
X121395Y296793D01*
X120706Y296958D01*
X120002Y297014D01*
Y297995D01*
X120433Y298016D01*
X120863Y298078D01*
X121284Y298182D01*
X121694Y298325D01*
X121800Y298378D01*
X121896Y298447D01*
X121981Y298530D01*
X122051Y298625D01*
X122106Y298731D01*
X122143Y298843D01*
X122163Y298960D01*
X122164Y299079D01*
X122146Y299196D01*
X122110Y299309D01*
X122057Y299415D01*
X121988Y299512D01*
X121905Y299596D01*
X121809Y299667D01*
X121704Y299721D01*
X121592Y299759D01*
X121475Y299778D01*
X121356Y299779D01*
X121239Y299761D01*
X121126Y299723D01*
X120855Y299624D01*
X120575Y299556D01*
X120289Y299514D01*
X120002Y299500D01*
Y305500D01*
X120289Y305486D01*
X120575Y305444D01*
X120855Y305376D01*
X121128Y305280D01*
X121239Y305242D01*
X121356Y305225D01*
X121474Y305225D01*
X121591Y305245D01*
X121703Y305282D01*
X121807Y305336D01*
X121902Y305406D01*
X121985Y305491D01*
X122054Y305587D01*
X122107Y305692D01*
X122143Y305805D01*
X122160Y305921D01*
X122159Y306039D01*
X122140Y306156D01*
X122103Y306268D01*
X122048Y306373D01*
X121978Y306468D01*
X121894Y306551D01*
X121798Y306619D01*
X121692Y306670D01*
X121284Y306818D01*
X120863Y306922D01*
X120433Y306984D01*
X120002Y307005D01*
Y308007D01*
X122725Y308013D01*
Y303993D01*
X122722Y303975D01*
X122721Y303856D01*
X122725Y303830D01*
Y301147D01*
X122725Y301144D01*
X122725Y301080D01*
Y296090D01*
G37*
G36*
X120002Y297014D02*X120000Y297014D01*
X119294Y296958D01*
X118605Y296793D01*
X117951Y296522D01*
X117347Y296152D01*
X116808Y295692D01*
X116500Y295331D01*
Y300337D01*
X116579Y300336D01*
X116696Y300354D01*
X116809Y300390D01*
X116915Y300443D01*
X117012Y300512D01*
X117096Y300595D01*
X117167Y300691D01*
X117221Y300796D01*
X117259Y300908D01*
X117278Y301025D01*
X117279Y301144D01*
X117261Y301261D01*
X117223Y301374D01*
X117124Y301645D01*
X117056Y301925D01*
X117014Y302211D01*
X117000Y302500D01*
X117014Y302789D01*
X117056Y303075D01*
X117124Y303355D01*
X117220Y303628D01*
X117258Y303739D01*
X117275Y303856D01*
X117275Y303974D01*
X117255Y304091D01*
X117218Y304203D01*
X117164Y304307D01*
X117094Y304402D01*
X117009Y304485D01*
X116913Y304554D01*
X116808Y304607D01*
X116695Y304643D01*
X116579Y304660D01*
X116500Y304660D01*
Y308084D01*
X116535Y308069D01*
X116765Y308014D01*
X117000Y308000D01*
X120002Y308007D01*
Y307005D01*
X120000Y307005D01*
X119567Y306984D01*
X119137Y306922D01*
X118716Y306818D01*
X118306Y306675D01*
X118200Y306622D01*
X118104Y306553D01*
X118019Y306470D01*
X117949Y306375D01*
X117894Y306269D01*
X117857Y306157D01*
X117837Y306040D01*
X117836Y305921D01*
X117854Y305804D01*
X117890Y305691D01*
X117943Y305585D01*
X118012Y305488D01*
X118095Y305404D01*
X118191Y305333D01*
X118296Y305279D01*
X118408Y305241D01*
X118525Y305222D01*
X118644Y305221D01*
X118761Y305239D01*
X118874Y305277D01*
X119145Y305376D01*
X119425Y305444D01*
X119711Y305486D01*
X120000Y305500D01*
X120002Y305500D01*
Y299500D01*
X120000Y299500D01*
X119711Y299514D01*
X119425Y299556D01*
X119145Y299624D01*
X118872Y299720D01*
X118761Y299758D01*
X118644Y299775D01*
X118526Y299775D01*
X118409Y299755D01*
X118297Y299718D01*
X118193Y299664D01*
X118098Y299594D01*
X118015Y299509D01*
X117946Y299413D01*
X117893Y299308D01*
X117857Y299195D01*
X117840Y299079D01*
X117841Y298961D01*
X117860Y298844D01*
X117897Y298732D01*
X117952Y298627D01*
X118022Y298532D01*
X118106Y298449D01*
X118202Y298381D01*
X118308Y298330D01*
X118716Y298182D01*
X119137Y298078D01*
X119567Y298016D01*
X120000Y297995D01*
X120002Y297995D01*
Y297014D01*
G37*
G36*
X122725Y244689D02*X122361Y244094D01*
X122015Y243258D01*
X121803Y242378D01*
X121732Y241476D01*
X121803Y240574D01*
X122015Y239694D01*
X122361Y238857D01*
X122725Y238263D01*
Y236896D01*
X116500Y243121D01*
Y289669D01*
X116808Y289308D01*
X117347Y288848D01*
X117951Y288478D01*
X118605Y288207D01*
X119294Y288042D01*
X120000Y287986D01*
X120706Y288042D01*
X121395Y288207D01*
X122049Y288478D01*
X122653Y288848D01*
X122725Y288910D01*
Y254147D01*
X122572Y254135D01*
X122423Y254099D01*
X122281Y254040D01*
X122150Y253960D01*
X122033Y253861D01*
X121934Y253744D01*
X121854Y253613D01*
X121795Y253471D01*
X121759Y253322D01*
X121750Y253169D01*
Y249469D01*
X121759Y249316D01*
X121795Y249167D01*
X121854Y249025D01*
X121934Y248894D01*
X122033Y248777D01*
X122150Y248678D01*
X122281Y248598D01*
X122423Y248539D01*
X122572Y248503D01*
X122725Y248491D01*
Y244689D01*
G37*
G36*
X132275Y236500D02*X130385D01*
X130890Y236810D01*
X131578Y237398D01*
X132166Y238086D01*
X132275Y238263D01*
Y236500D01*
G37*
G36*
X122486Y233496D02*X122500Y233495D01*
X122559Y233500D01*
X134398D01*
Y207677D01*
X122486D01*
Y208493D01*
X122500Y208492D01*
X123912Y208603D01*
X125290Y208934D01*
X126599Y209476D01*
X127806Y210216D01*
X128884Y211136D01*
X129804Y212213D01*
X130544Y213421D01*
X131086Y214730D01*
X131417Y216107D01*
X131500Y217520D01*
X131417Y218932D01*
X131086Y220309D01*
X130544Y221618D01*
X129804Y222826D01*
X128884Y223903D01*
X127806Y224823D01*
X126599Y225563D01*
X125290Y226106D01*
X123912Y226436D01*
X122500Y226547D01*
X122486Y226546D01*
Y233496D01*
G37*
G36*
Y384843D02*X134398D01*
Y359000D01*
X122486D01*
Y365973D01*
X122500Y365972D01*
X123912Y366083D01*
X125290Y366414D01*
X126599Y366956D01*
X127806Y367696D01*
X128884Y368616D01*
X129804Y369694D01*
X130544Y370901D01*
X131086Y372210D01*
X131417Y373588D01*
X131500Y375000D01*
X131417Y376412D01*
X131086Y377790D01*
X130544Y379099D01*
X129804Y380306D01*
X128884Y381384D01*
X127806Y382304D01*
X126599Y383044D01*
X125290Y383586D01*
X123912Y383917D01*
X122500Y384028D01*
X122486Y384027D01*
Y384843D01*
G37*
G36*
X112657D02*X122486D01*
Y384027D01*
X121088Y383917D01*
X119710Y383586D01*
X118401Y383044D01*
X117194Y382304D01*
X116116Y381384D01*
X115196Y380306D01*
X114456Y379099D01*
X113914Y377790D01*
X113583Y376412D01*
X113472Y375000D01*
X113583Y373588D01*
X113914Y372210D01*
X114456Y370901D01*
X115196Y369694D01*
X116116Y368616D01*
X117194Y367696D01*
X118401Y366956D01*
X119710Y366414D01*
X121088Y366083D01*
X122486Y365973D01*
Y359000D01*
X120059D01*
X120000Y359005D01*
X119765Y358986D01*
X119535Y358931D01*
X119317Y358841D01*
X119116Y358717D01*
X119115Y358717D01*
X118936Y358564D01*
X118898Y358519D01*
X113981Y353602D01*
X113936Y353564D01*
X113783Y353384D01*
X113659Y353183D01*
X113569Y352965D01*
X113514Y352735D01*
X113514Y352735D01*
X113495Y352500D01*
X113500Y352441D01*
Y292559D01*
X113495Y292500D01*
X113500Y292441D01*
Y242559D01*
X113495Y242500D01*
X113514Y242265D01*
X113569Y242035D01*
X113659Y241817D01*
X113783Y241616D01*
X113936Y241436D01*
X113981Y241398D01*
X121398Y233981D01*
X121436Y233936D01*
X121616Y233783D01*
X121817Y233659D01*
X122035Y233569D01*
X122265Y233514D01*
X122486Y233496D01*
Y226546D01*
X121088Y226436D01*
X119710Y226106D01*
X118401Y225563D01*
X117194Y224823D01*
X116116Y223903D01*
X115196Y222826D01*
X114456Y221618D01*
X113914Y220309D01*
X113583Y218932D01*
X113472Y217520D01*
X113583Y216107D01*
X113914Y214730D01*
X114456Y213421D01*
X115196Y212213D01*
X116116Y211136D01*
X117194Y210216D01*
X118401Y209476D01*
X119710Y208934D01*
X121088Y208603D01*
X122486Y208493D01*
Y207677D01*
X112657D01*
Y384843D01*
G37*
G54D24*X172500Y355000D02*X182500Y345000D01*
X115000Y352500D02*X120000Y357500D01*
X152500D01*
G54D25*X165000Y305000D02*X167500Y302500D01*
G54D24*X182500Y345000D02*Y260000D01*
X167500Y302500D02*X168757Y301243D01*
Y295000D01*
X177500Y302500D02*X176243Y301243D01*
Y295000D01*
G54D25*X142500Y302500D02*X145000Y305000D01*
G54D24*X120000Y292500D02*X115000D01*
X142500Y302500D02*X146257Y298743D01*
X132366Y302500D02*X130000D01*
G54D25*X145000Y305000D02*X165000D01*
G54D24*X146257Y298743D02*Y295000D01*
X157500Y300000D02*X153743Y296243D01*
Y295000D01*
X115000Y352500D02*Y242500D01*
X147500Y235000D02*X122500D01*
X115000Y242500D02*X122500Y235000D01*
G54D23*G36*
X123700Y352462D02*Y344862D01*
X131300D01*
Y352462D01*
X123700D01*
G37*
G36*
X117000Y315500D02*Y309500D01*
X123000D01*
Y315500D01*
X117000D01*
G37*
G54D26*X130000Y312500D03*
X120000Y302500D03*
X130000D03*
X120000Y292500D03*
X130000D03*
G54D27*X127500Y338819D03*
G54D23*G36*
X123700Y255119D02*Y247519D01*
X131300D01*
Y255119D01*
X123700D01*
G37*
G54D27*X127500Y241476D03*
G54D23*G36*
X147637Y297757D02*X144877D01*
Y292243D01*
X147637D01*
Y297757D01*
G37*
G36*
X155123D02*X152363D01*
Y292243D01*
X155123D01*
Y297757D01*
G37*
G36*
X170137D02*X167377D01*
Y292243D01*
X170137D01*
Y297757D01*
G37*
G36*
X177623D02*X174863D01*
Y292243D01*
X177623D01*
Y297757D01*
G37*
G54D28*X172500Y355000D03*
X165000Y347500D03*
G54D29*X122500Y375000D03*
G54D28*X152500Y357500D03*
G54D30*X157500Y300000D03*
G54D28*X182500Y260000D03*
G54D30*X142500Y302500D03*
X167500D03*
X177500D03*
G54D29*X122500Y217520D03*
G54D28*X147500Y235000D03*
Y242319D03*
G54D25*G54D31*G54D25*G54D32*G54D25*G54D32*G54D31*G54D25*G54D33*G54D34*G54D33*M02*
