G04 start of page 9 for group -4078 idx -4078 *
G04 Title: (unknown), bottomsilk *
G04 Creator: pcb 4.2.2 *
G04 CreationDate: Sat Aug  8 01:25:40 2020 UTC *
G04 For: harold *
G04 Format: Gerber/RS-274X *
G04 PCB-Dimensions (mil): 6000.00 5000.00 *
G04 PCB-Coordinate-Origin: lower left *
%MOIN*%
%FSLAX25Y25*%
%LNBOTTOMSILK*%
%ADD50C,0.0100*%
G54D50*X149607Y292245D02*X150393D01*
X149607Y297755D02*X150393D01*
X172107Y292245D02*X172893D01*
X172107Y297755D02*X172893D01*
X147550Y289350D02*X148850D01*
X146850Y288650D02*X147550Y289350D01*
X146850Y286050D02*Y288650D01*
Y286050D02*X147550Y285350D01*
X148850D01*
X150050Y286150D02*X150850Y285350D01*
Y289350D01*
X150050D02*X151550D01*
X153250D02*X155250Y285350D01*
X152750D02*X155250D01*
X170050Y289350D02*X171350D01*
X169350Y288650D02*X170050Y289350D01*
X169350Y286050D02*Y288650D01*
Y286050D02*X170050Y285350D01*
X171350D01*
X172550Y286150D02*X173350Y285350D01*
Y289350D01*
X172550D02*X174050D01*
X176750Y285350D02*X177250Y285850D01*
X175750Y285350D02*X176750D01*
X175250Y285850D02*X175750Y285350D01*
X175250Y285850D02*Y288850D01*
X175750Y289350D01*
X176750Y287150D02*X177250Y287650D01*
X175250Y287150D02*X176750D01*
X175750Y289350D02*X176750D01*
X177250Y288850D01*
Y287650D02*Y288850D01*
M02*
